<svg width="100" height="100" viewBox="0 0 100 100" fill="none" xmlns="http://www.w3.org/2000/svg">
<path d="M98.1818 53.6818C97.5 52.5455 81.3636 28 49.7727 28C49.3182 28 49.0909 28 48.6364 28C44.7727 28 41.1364 28.2273 37.7273 28.9091L34.7727 21.4091C34.3182 20.2727 32.9545 19.5909 31.8182 20.0455C30.6818 20.5 30 21.8636 30.4545 23L56.3636 87.3182C56.8182 88.2273 57.5 88.6818 58.4091 88.6818C58.6364 88.6818 59.0909 88.6818 59.3182 88.4545C60.4545 88 61.1364 86.6364 60.6818 85.5L58.8636 80.9545C84.3182 76.8636 97.5 56.8636 98.1818 55.9545C98.6364 55.5 98.6364 54.3636 98.1818 53.6818ZM58.6364 76.6364C66.8182 72.7727 72.5 64.3636 72.5 54.8182C72.5 45.7273 67.5 37.7727 60 33.6818C78.8636 37.5455 90.2273 50.9545 93.4091 55.0455C90.2273 59.1364 78.4091 73 58.6364 76.6364ZM48.4091 46.4091C52.9545 46.4091 56.8182 50.0455 56.8182 54.8182C56.8182 58.4545 54.5455 61.4091 51.3636 62.5455L45.2273 47.0909C46.1364 46.6364 47.2727 46.4091 48.4091 46.4091Z" fill="white"/>
<path d="M5 46.6364C3.63637 48.2273 2.5 49.5909 1.59091 50.7273L7.72728 65.7273C9.77273 67.7727 12.2727 69.8182 15.2273 71.6364L5 46.6364Z" fill="white"/>
<path d="M12.2727 40.0455C10.9091 41.1818 9.54545 42.0909 8.40909 43.2273L21.3636 75.7273C23.1818 76.6364 25.2273 77.5455 27.5 78.4546L12.2727 40.0455Z" fill="white"/>
<path d="M28.8636 31.1818C27.2727 31.6364 25.9091 32.3182 24.3182 33L43.8636 81.8636C45 81.8636 46.1364 81.8636 47.2727 81.8636C47.7273 81.8636 47.9545 81.8636 48.4091 81.8636C48.6364 81.8636 48.8636 81.8636 49.0909 81.8636L28.8636 31.1818Z" fill="white"/>
<path d="M20.2273 34.8182C18.8636 35.5 17.5 36.4091 16.1364 37.3182L33.1818 80.0454C35 80.5 36.8182 80.9545 38.8636 81.1818L20.2273 34.8182Z" fill="white"/>
</svg>
