<svg width="100" height="100" viewBox="0 0 100 100" fill="none" xmlns="http://www.w3.org/2000/svg">
<path d="M81.9919 89.7947L80.6818 80.1876L80.4635 78.2225C80.2452 76.039 80.9002 74.729 81.7736 73.2006C82.8653 71.2355 84.3937 68.8337 83.957 64.2485L80.0268 19.4881C79.8085 17.523 78.9351 15.7763 77.4067 14.6845C75.8783 13.5928 74.1315 13.1561 72.3848 13.3745C72.1665 13.3745 71.7298 13.5928 71.5114 13.5928L71.2931 11.6277C71.0747 7.69756 67.5812 4.8591 63.6511 5.29578C62.7777 5.29578 62.1227 5.51413 61.2493 5.95081C59.9392 3.33069 57.3191 1.80229 54.2623 2.02063C52.2972 2.23898 50.5505 3.11235 49.4587 4.42241C48.8037 5.07744 48.367 5.95081 48.1487 7.04253C47.057 6.60584 45.9653 6.3875 44.8735 6.60584C42.9084 6.82419 41.1617 7.69756 39.8516 9.00762C38.5416 10.3177 38.1049 12.2828 38.1049 14.0295C38.9783 27.1301 41.38 51.1479 41.38 51.3662C41.5984 53.113 40.2883 54.2047 39.1966 54.6414C37.8865 55.0781 36.1398 54.6414 34.8297 52.6763L29.8078 43.9426C28.7161 41.7591 26.751 40.2307 24.3493 39.794C21.9475 39.139 19.5457 39.3573 17.3623 40.6674C15.1788 41.9775 14.3055 44.5976 15.6155 46.781L26.751 67.5236C30.4629 74.2923 34.3931 82.1527 43.5635 83.2444L45.3102 95.2533C45.5286 96.345 46.4019 97 47.4937 97H47.712L80.2452 92.4148C81.3369 92.1964 82.2102 91.1047 81.9919 89.7947ZM78.0617 71.2355C76.97 72.9822 75.8783 75.1657 76.0966 78.8775L76.7517 84.1177L48.8037 88.0479C48.8037 88.0479 47.9303 81.4976 47.712 81.2793C47.2753 80.1876 46.1836 79.3142 44.8735 79.0958C37.4499 78.4408 34.1747 72.1089 30.6812 65.5586L19.5457 44.8159C19.5457 44.5976 19.5457 44.5976 19.5457 44.5976C20.2007 44.1609 21.0741 43.9426 21.9475 43.9426C24.3493 43.9426 25.441 45.2526 26.096 46.3443L31.1179 55.0781C33.5197 59.2266 37.4499 60.1 40.5067 59.2266C44.0002 58.1349 45.9653 55.0781 45.7469 51.3662C45.7469 51.1479 43.3451 27.1301 42.4718 14.0295C42.4718 13.3745 42.6901 12.5011 43.1268 12.0644C43.5635 11.4094 44.2185 11.1911 45.0919 11.1911C46.4019 11.1911 47.712 12.0644 47.9303 13.3745L50.7688 42.8508C50.7688 43.9426 51.8605 44.8159 52.9522 44.8159H53.1706C54.2623 44.8159 55.354 43.7242 55.1357 42.4142L52.0789 9.22596C52.0789 8.57093 52.2972 7.69756 52.7339 7.26087C53.1706 6.60584 53.8256 6.3875 54.699 6.3875C56.2274 6.3875 57.5375 7.47922 57.5375 9.00762L60.3759 41.7591C60.3759 42.8508 61.4676 43.7242 62.5593 43.7242H62.7777C63.8694 43.7242 64.9611 42.6325 64.7428 41.3224L61.9043 10.7544C62.341 10.3177 62.996 9.88099 63.6511 9.88099C65.1795 9.66265 66.4895 10.7544 66.4895 12.2828L69.328 41.1041C69.328 42.1958 70.4197 43.0692 71.5114 43.0692H71.7298C72.8215 43.0692 73.9132 41.9775 73.6949 40.6674L71.7298 18.3964C72.1665 17.9597 72.6031 17.7414 72.8215 17.7414C73.4765 17.7414 74.1315 17.7414 74.5682 18.178C75.2233 18.6147 75.4416 19.2698 75.6599 19.9248L79.5901 64.6852C79.8085 67.9603 79.1534 69.4887 78.0617 71.2355Z" fill="white"/>
</svg>
