<svg width="100" height="100" viewBox="0 0 100 100" fill="none" xmlns="http://www.w3.org/2000/svg">
<path d="M94.7619 79.1429L81.4286 66.2857C82.8571 63.9048 84.0476 61.0476 84.7619 57.4762H94.5238C95.2381 57.4762 95.7143 57 95.7143 56.2857V42C95.7143 41.2857 95.2381 40.8095 94.5238 40.8095H84.7619C83.8095 36.2857 82.1428 33.1905 80.4762 30.5714L87.3809 23.1905C87.8571 22.7143 87.8571 22 87.3809 21.5238L76.6667 10.8095C76.1905 10.3333 75.4762 10.3333 75 10.8095L67.8571 17.7143C64.5238 15.5714 61.1905 14.381 57.619 13.4286V3.90477C57.619 3.19048 57.1428 2.71429 56.4286 2.71429H41.4286C40.7143 2.71429 40.2381 3.19048 40.2381 3.90477V13.6667C36.4286 14.381 33.3333 15.8095 30 17.9524L22.8571 11.0476C22.3809 10.5714 21.6667 10.5714 21.1905 11.0476L10.4762 21.7619C10 22.2381 10 22.9524 10.4762 23.4286L17.3809 30.8095C15.7143 33.4286 14.0476 36.7619 13.0952 41.0476H3.33333C2.61904 41.0476 2.14285 41.5238 2.14285 42.2381V56.5238C2.14285 57.2381 2.61904 57.7143 3.33333 57.7143H13.0952C14.0476 61.7619 15.4762 64.8572 17.3809 67.7143L10.4762 74.8571C10 75.3333 10 76.0476 10.4762 76.5238L21.1905 87.2381C21.6667 87.7143 22.3809 87.7143 22.8571 87.2381L30.2381 80.3333C33.5714 82.4762 36.9048 83.6667 40.7143 84.6191V94.8571C40.7143 95.5714 41.1905 96.0476 41.9048 96.0476H56.9048C57.619 96.0476 58.0952 95.5714 58.0952 94.8571V84.6191C61.4286 83.9048 64.2857 82.7143 67.3809 81.0476L80.9524 94.1429C82.8571 96.0476 85.4762 97 88.0952 97C90.9524 97 93.3333 95.8095 95.2381 93.9048C97.1428 92 98.0952 89.381 98.0952 86.7619C97.8571 83.6667 96.6667 81.0476 94.7619 79.1429ZM53.3333 78.9048C52.1428 79.1429 50.9524 79.1429 49.5238 79.1429C49.2857 79.1429 49.2857 79.1429 49.0476 79.1429C32.3809 79.1429 18.8095 65.5714 18.8095 48.9048C18.8095 32.2381 32.3809 18.6667 49.0476 18.6667C49.2857 18.6667 49.2857 18.6667 49.5238 18.6667C50.4762 18.6667 51.6667 18.6667 52.619 18.9048C67.619 20.5714 79.2857 33.4286 79.2857 48.9048C79.2857 53.1905 78.3333 57.4762 76.6667 61.2857L69.7619 54.381C70.2381 52.7143 70.4762 50.8095 70.4762 48.9048C70.4762 38.4286 62.8571 29.6191 52.8571 27.9524C51.9048 27.7143 50.7143 27.7143 49.5238 27.7143C49.2857 27.7143 49.2857 27.7143 49.0476 27.7143C37.3809 27.7143 27.8571 37.2381 27.8571 48.9048C27.8571 60.5714 37.3809 70.0952 49.0476 70.0952C49.2857 70.0952 49.2857 70.0952 49.5238 70.0952C50.7143 70.0952 51.9048 69.8572 53.0952 69.6191C54.0476 69.381 54.7619 69.1429 55.7143 68.9048L62.619 75.5714C59.7619 77.4762 56.4286 78.4286 53.3333 78.9048ZM91.4286 90.3333C90 91.7619 87.619 92 87.619 92C86.1905 92 84.7619 91.5238 83.8095 90.5714L55.2381 62.4762C54.5238 62.7143 52.1429 63.6667 51.6667 63.6667C46.9048 64.8572 43.3333 63.1905 41.4286 62C40.9524 61.5238 40.2381 61.2857 39.7619 60.5714L39.5238 60.3333L37.619 58.4286C33.0952 53.9048 33.5714 47.2381 35.7143 42.4762C35.7143 42.4762 36.1905 41.7619 36.6667 42.2381L44.7619 50.0952L49.5238 45.3333L50.4762 44.1429L49.5238 43.1905L42.619 36.2857C42.3809 36.0476 42.3809 36.0476 42.3809 35.8095C42.3809 35.5714 42.619 35.5714 42.619 35.3333C43.0952 35.0952 43.5714 34.8572 44.0476 34.6191C45.9524 33.9048 50.7143 32.7143 55.2381 34.6191C55.2381 34.6191 55.4762 34.6191 55.4762 34.8572C55.9524 35.0952 56.4286 35.3333 56.9048 35.8095C57.3809 36.0476 57.8571 36.5238 58.3333 37L60.7143 39.1429C64.7619 43.1905 65.4762 48.4286 62.8571 54.6191L91.4286 82.7143C92.3809 83.6667 93.0952 85.0952 93.0952 86.5238C93.0952 87.9524 92.619 89.1429 91.4286 90.3333Z" fill="white"/>
<path d="M85.7143 81.5238C84.7619 80.5714 83.3333 80.5714 82.619 81.5238C81.6667 82.4762 81.6667 83.9047 82.619 84.619L85.9524 87.9524C86.4286 88.4285 86.9048 88.6666 87.619 88.6666C88.0952 88.6666 88.8095 88.4285 89.2857 87.9524C90.2381 87 90.2381 85.5714 89.2857 84.8571L85.7143 81.5238Z" fill="white"/>
</svg>
