<svg width="1024" height="308" viewBox="0 0 1024 308" fill="none" xmlns="http://www.w3.org/2000/svg">
<path d="M916.331 302C904.064 302 894.198 298.933 886.731 292.8C879.264 286.4 874.864 277.333 873.531 265.6H871.531C867.798 279.2 860.331 289.467 849.131 296.4C838.198 303.333 824.731 306.8 808.731 306.8C788.731 306.8 772.598 301.467 760.331 290.8C748.331 279.867 742.331 264.667 742.331 245.2C742.331 223.6 750.198 207.6 765.931 197.2C781.664 186.8 804.731 181.6 835.131 181.6H868.331V171.2C868.331 158.933 865.398 149.733 859.531 143.6C853.931 137.2 844.331 134 830.731 134C818.198 134 808.064 136.4 800.331 141.2C792.598 146 785.931 152.267 780.331 160L747.931 131.2C754.864 119.467 765.664 109.867 780.331 102.4C795.264 94.6666 814.331 90.7999 837.531 90.7999C865.798 90.7999 887.798 97.3333 903.531 110.4C919.531 123.2 927.531 142.667 927.531 168.8V259.2H950.331V302H916.331ZM831.131 268C841.531 268 850.331 265.467 857.531 260.4C864.731 255.333 868.331 248 868.331 238.4V213.6H836.731C812.464 213.6 800.331 221.733 800.331 238V246C800.331 253.2 803.131 258.667 808.731 262.4C814.331 266.133 821.798 268 831.131 268Z" fill="white"/>
<path d="M511.288 256H558.888V141.6H511.288V95.6H618.088V154H620.888C622.755 146.533 625.288 139.333 628.488 132.4C631.955 125.2 636.221 118.933 641.288 113.6C646.621 108 653.021 103.6 660.488 100.4C667.955 97.2 676.755 95.6 686.888 95.6H706.488V150H662.488C647.821 150 636.755 154.4 629.288 163.2C621.821 171.733 618.088 182.267 618.088 194.8V256H686.088V302H511.288V256Z" fill="white"/>
<path d="M265.444 5.99991H324.644V133.2H327.444C332.511 120.933 339.844 110.8 349.444 102.8C359.044 94.7999 372.111 90.7999 388.644 90.7999C400.111 90.7999 410.511 92.9332 419.844 97.1999C429.444 101.467 437.578 108 444.244 116.8C451.178 125.6 456.511 136.8 460.244 150.4C464.244 164 466.244 180.133 466.244 198.8C466.244 217.467 464.244 233.6 460.244 247.2C456.511 260.8 451.178 272 444.244 280.8C437.578 289.6 429.444 296.133 419.844 300.4C410.511 304.667 400.111 306.8 388.644 306.8C372.111 306.8 359.044 302.933 349.444 295.2C339.844 287.2 332.511 276.933 327.444 264.4H324.644V302H265.444V5.99991ZM363.044 260.8C376.378 260.8 386.644 256.8 393.844 248.8C401.044 240.533 404.644 229.2 404.644 214.8V182.8C404.644 168.4 401.044 157.2 393.844 149.2C386.644 140.933 376.378 136.8 363.044 136.8C352.644 136.8 343.578 139.333 335.844 144.4C328.378 149.467 324.644 157.467 324.644 168.4V229.2C324.644 240.133 328.378 248.133 335.844 253.2C343.578 258.267 352.644 260.8 363.044 260.8Z" fill="white"/>
<path d="M176 302L158.4 234.8H82L64.8 302H4L79.6 22.8H164.4L240 302H176ZM122 80.8H118.8L91.6 186.4H149.2L122 80.8Z" fill="white"/>
<path d="M972.266 31.4951C977.483 26.2785 985.498 26.2785 990.714 31.4951C995.931 36.7119 995.931 44.7266 990.714 49.9436L969.243 71.4143C966.69 73.9685 963.397 75.3273 960.019 75.3273C956.641 75.3273 953.349 73.9688 950.795 71.4145C945.579 66.1976 945.579 58.183 950.795 52.9663L972.266 31.4951Z" fill="#FF3E3E"/>
<path d="M969.7 135.655L991.171 157.126C996.388 162.342 996.388 170.357 991.171 175.574C988.617 178.127 985.325 179.487 981.947 179.487C978.569 179.487 975.276 178.128 972.723 175.574L951.251 154.102C946.035 148.885 946.035 140.871 951.251 135.654C956.469 130.438 964.483 130.438 969.7 135.655Z" fill="#FF3E3E"/>
<path d="M860.361 28.7248L881.832 50.1959C887.049 55.4127 887.049 63.4268 881.832 68.6437C879.278 71.1982 875.985 72.5568 872.608 72.5568C869.229 72.5568 865.937 71.1978 863.383 68.6442L841.912 47.173C836.696 41.956 836.696 33.9412 841.913 28.7245C847.13 23.5083 855.144 23.5078 860.361 28.7248Z" fill="#FF3E3E"/>
<path d="M977.38 90.6265H1007.53C1014.76 90.6265 1020.67 96.5286 1020.67 103.762C1020.67 110.997 1014.77 116.899 1007.53 116.899H977.38C970.145 116.899 964.243 110.997 964.243 103.762C964.243 96.5286 970.146 90.6265 977.38 90.6265Z" fill="#FF3E3E"/>
<path d="M905.767 15.1365C905.767 7.90232 911.669 1.99995 918.903 1.99995C926.138 1.99995 932.04 7.90167 932.039 15.1365V45.2877C932.039 52.5217 926.137 58.4243 918.903 58.4243C911.669 58.4243 905.767 52.5219 905.767 45.2877V15.1365Z" fill="#FF3E3E"/>
</svg>
