
<svg width="100" height="30" viewBox="0 0 100 30" fill="none" xmlns="http://www.w3.org/2000/svg">
<path d="M60.1144 30.0001C62.2698 30.0001 63.5015 28.7709 63.5015 26.9271V23.2395H66.2728C72.4311 23.2395 75.8182 19.8592 75.8182 15.7107C75.8182 11.5622 72.4311 8.18188 66.2728 8.18188H60.1144C57.959 8.18188 56.7273 9.41108 56.7273 11.2549V26.9271C56.7273 28.7709 57.959 30.0001 60.1144 30.0001ZM66.2728 17.7081H63.5015V13.7133H66.2728C67.8123 13.7133 68.7361 14.6351 68.7361 15.7107C68.7361 16.7862 67.8123 17.7081 66.2728 17.7081Z" fill="white"/>
<path d="M36.9325 30.0001C39.0879 30.0001 40.3196 28.7709 40.3196 26.9271V23.2395H43.0909C49.2492 23.2395 52.6363 19.8592 52.6363 15.7107C52.6363 11.5622 49.2492 8.18188 43.0909 8.18188H36.9325C34.7771 8.18188 33.5454 9.41108 33.5454 11.2549V26.9271C33.5454 28.7709 34.7771 30.0001 36.9325 30.0001ZM43.0909 17.7081H40.3196V13.7133H43.0909C44.6305 13.7133 45.5542 14.6351 45.5542 15.7107C45.5542 16.7862 44.6305 17.7081 43.0909 17.7081Z" fill="white"/>
<path d="M24.9545 30.0001C27.6136 30.0001 29.4545 28.1592 29.4545 25.9092C29.4545 24.6819 28.4318 22.2274 28.4318 22.2274L21.8864 5.04557C20.7 1.97738 18.8182 0.136475 14.7273 0.136475C10.6364 0.136475 8.79545 1.97738 7.56818 5.04557L1.02273 22.2274C1.02273 22.2274 0 24.6819 0 25.9092C0 28.1592 1.84091 30.0001 4.5 30.0001C6.75 30.0001 8.38636 28.3637 9.40909 25.9092L10.4318 23.4547H19.0227L20.0455 25.9092C21.0682 28.3637 22.7045 30.0001 24.9545 30.0001ZM17.1818 16.091H12.2727L14.5227 9.95466H14.9318L17.1818 16.091Z" fill="white"/>
<path d="M88.7971 30.0001C90.982 30.0001 92.2305 28.7381 92.2305 26.845V13.9092H85.3636V26.845C85.3636 28.7381 86.6122 30.0001 88.7971 30.0001Z" fill="white"/>
<path d="M96.5885 8.25425C89.6835 9.99043 87.8635 9.99079 80.9571 8.25427C79.6043 7.91413 78.25 8.8054 77.9313 10.2426C77.6129 11.6785 78.4485 13.1183 79.7999 13.4582L80.0517 13.523C80.6664 13.6836 81.74 13.9754 81.7099 13.9675L81.8511 14.0044C83.0683 14.3195 84.1335 14.5152 85.8183 14.7057L86.6812 14.8002C88.4783 14.9939 88.9605 15.0239 89.6362 14.9856L89.783 14.9764C90.2028 14.9472 90.5535 14.8954 91.491 14.7365L91.5751 14.7222L91.7086 14.7051C93.0741 14.5254 95.0772 14.1108 97.7375 13.4602C99.0832 13.122 99.9157 11.7075 99.6235 10.2857L99.6143 10.2426C99.2956 8.80545 97.9411 7.91422 96.5885 8.25425Z" fill="white"/>
<path d="M88.7728 8.18182C91.0321 8.18182 92.8637 6.35026 92.8637 4.09091C92.8637 1.83156 91.0321 0 88.7728 0C86.5134 0 84.6819 1.83156 84.6819 4.09091C84.6819 6.35026 86.5134 8.18182 88.7728 8.18182Z" fill="#F967E9"/>
</svg>
