<svg width="305" height="305" viewBox="0 0 305 305" fill="none" xmlns="http://www.w3.org/2000/svg">
<path d="M188 300C175.733 300 165.867 296.933 158.4 290.8C150.933 284.4 146.533 275.333 145.2 263.6H143.2C139.467 277.2 132 287.467 120.8 294.4C109.867 301.333 96.4001 304.8 80.4001 304.8C60.4001 304.8 44.2667 299.467 32 288.8C20 277.867 14 262.667 14 243.2C14 221.6 21.8667 205.6 37.6 195.2C53.3333 184.8 76.4 179.6 106.8 179.6H140V169.2C140 156.933 137.067 147.733 131.2 141.6C125.6 135.2 116 132 102.4 132C89.8667 132 79.7333 134.4 72 139.2C64.2667 144 57.6 150.267 52 158L19.6 129.2C26.5334 117.467 37.3333 107.867 52 100.4C66.9333 92.6666 86 88.8 109.2 88.8C137.467 88.8 159.467 95.3333 175.2 108.4C191.2 121.2 199.2 140.667 199.2 166.8V257.2H222V300H188ZM102.8 266C113.2 266 122 263.467 129.2 258.4C136.4 253.333 140 246 140 236.4V211.6H108.4C84.1334 211.6 72 219.733 72 236V244C72 251.2 74.8001 256.667 80.4001 260.4C86.0001 264.133 93.4667 266 102.8 266Z" fill="white"/>
<path d="M243.935 29.4952C249.152 24.2785 257.167 24.2785 262.383 29.4952C267.6 34.7119 267.6 42.7267 262.383 47.9436L240.912 69.4143C238.358 71.9685 235.066 73.3273 231.688 73.3273C228.31 73.3273 225.017 71.9688 222.464 69.4146C217.248 64.1976 217.247 56.1831 222.464 50.9664L243.935 29.4952Z" fill="#FF3E3E"/>
<path d="M241.369 133.655L262.84 155.126C268.057 160.342 268.057 168.357 262.84 173.574C260.286 176.128 256.994 177.487 253.616 177.487C250.238 177.487 246.945 176.128 244.392 173.574L222.92 152.102C217.704 146.885 217.704 138.871 222.92 133.654C228.138 128.438 236.152 128.438 241.369 133.655Z" fill="#FF3E3E"/>
<path d="M132.03 26.7248L153.501 48.1959C158.718 53.4127 158.718 61.4268 153.501 66.6438C150.947 69.1982 147.654 70.5569 144.277 70.5569C140.898 70.5569 137.606 69.1979 135.052 66.6443L113.581 45.173C108.365 39.956 108.365 31.9412 113.582 26.7245C118.799 21.5084 126.813 21.5079 132.03 26.7248Z" fill="#FF3E3E"/>
<path d="M249.049 88.6265H279.2C286.434 88.6265 292.336 94.5286 292.336 101.762C292.336 108.997 286.434 114.899 279.2 114.899H249.049C241.814 114.899 235.912 108.997 235.912 101.762C235.912 94.5286 241.815 88.6265 249.049 88.6265Z" fill="#FF3E3E"/>
<path d="M177.436 13.1365C177.436 5.90237 183.338 0 190.572 0C197.806 0 203.709 5.90172 203.708 13.1365V43.2877C203.708 50.5218 197.806 56.4244 190.572 56.4244C183.338 56.4244 177.436 50.522 177.436 43.2877V13.1365Z" fill="#FF3E3E"/>
</svg>
