<svg xmlns="http://www.w3.org/2000/svg" width="400" height="75" viewBox="0 0 400 75" fill="none">
<path d="M219.197 66H257.197V75H219.197V66Z" fill="white"/>
<path d="M1.75 43.094C3.578 44.126 8.985 46.433 14.312 46.433C19.957 46.433 21.945 43.968 21.945 40.469C21.945 36.812 19.48 35.779 15.187 34.11L11.927 32.837C2.783 29.26 0 24.33 0 16.458C0 5.963 8.427 0 20.195 0C24.409 0 29.656 0.397 34.189 2.226L33.552 13.119C30.928 11.767 26.397 10.336 22.104 10.336C17.651 10.336 14.948 12.165 14.948 15.584C14.948 18.446 16.38 19.718 21.308 21.944L27.987 24.965C32.995 27.27 37.369 30.769 37.369 39.038C37.369 51.203 28.624 57.405 15.663 57.405C8.984 57.405 3.657 55.972 0.875 55.258L1.75 43.094ZM45.569 0.954H62.508V56.451H45.569V0.954ZM89.15 45.795H92.409C100.996 45.795 105.29 39.674 105.29 28.94C105.29 14.709 98.452 11.926 90.342 11.926H89.15V45.795ZM74.203 0.955H95.59C111.889 0.955 121.033 11.847 121.033 28.385C121.033 47.625 110.856 56.451 93.285 56.451H74.203V0.955ZM143.294 17.969H142.975V56.451H129.936V0.954H147.27L161.818 39.197H161.978V0.954H175.016V56.451H157.526L143.294 17.969Z" fill="white"/>
<path d="M238.196 58.045C226.501 58.045 216.986 48.705 216.986 37.225C216.986 25.746 226.501 16.408 238.196 16.408C249.892 16.408 259.407 25.746 259.407 37.225C259.407 48.705 249.892 58.045 238.196 58.045V58.045ZM238.196 25.364C231.439 25.364 225.942 30.685 225.942 37.225C225.942 43.767 231.439 49.089 238.196 49.089C244.952 49.089 250.45 43.767 250.45 37.225C250.451 30.685 244.953 25.364 238.196 25.364V25.364ZM187.77 56.689H212.582V49.319H205.622V25.736H214.221V18.366H205.622V15.336C205.622 9.52201 208.898 9.03101 213.237 9.03101C214.63 9.03101 215.858 9.35801 217.086 9.68501V1.57901C214.712 1.25101 212.173 0.84201 209.798 0.84201C197.433 0.84201 194.73 7.96701 194.73 14.108V18.366H187.77V25.736H194.73V49.32H187.77V56.689V56.689ZM263.504 56.689H284.632V49.319H279.718V35.317C279.718 30.404 282.093 25 287.989 25C292.411 25 294.703 28.766 294.703 32.697V49.32H289.79V56.69H310.917V49.32H305.594V32.287C305.594 22.624 302.073 17.22 291.919 17.22C286.432 17.22 281.519 19.922 278.898 24.836H278.734V18.367H263.503V25.737H268.826V49.32H263.503V56.689H263.504ZM366.589 56.689H374.778V52.595H374.942C377.152 55.706 380.592 57.835 386.324 57.835C394.595 57.835 400 52.349 400 45.552C400 28.683 377.316 36.463 377.316 28.683C377.316 25.08 381.001 24.589 383.212 24.589C387.225 24.589 390.254 26.554 390.254 31.058H398.853V18.366H390.664V22.378H390.5C387.962 18.447 384.604 17.219 380.182 17.219C373.222 17.219 366.425 20.986 366.425 29.011C366.425 46.044 389.109 38.019 389.109 46.044C389.109 49.648 385.752 50.466 383.376 50.466C378.955 50.466 375.188 48.009 375.188 43.178H366.589V56.689V56.689ZM334.407 50.057C329.74 50.057 326.3 45.799 326.3 37.528C326.3 31.223 328.429 25 335.39 25C342.105 25 344.89 30.65 344.89 36.956C344.89 45.062 342.597 50.057 334.407 50.057V50.057ZM355.125 1.98801H338.912V9.35801H344.235V24.016H344.071C342.269 20.331 338.666 17.22 332.198 17.22C322.207 17.22 315.001 24.016 315.001 38.101C315.001 48.419 320.406 57.836 331.543 57.836C338.339 57.836 341.697 55.707 345.136 50.302H345.3V56.689H360.45V49.319H355.126V1.98801H355.125Z" fill="white"/>
</svg>