<svg xmlns="http://www.w3.org/2000/svg" width="1000" height="500" viewBox="0 0 1000 500" fill="none">
<path d="M965.104 114.342C960.673 109.911 954.027 109.911 949.595 114.342L923.562 140.375C919.131 144.806 919.131 151.453 923.562 155.884C925.778 158.1 928.547 159.208 931.316 159.208C934.086 159.208 936.855 158.1 939.071 155.884L965.104 129.851C969.535 125.419 969.535 118.773 965.104 114.342Z" fill="#EE0000"/>
<path d="M965.658 266.665L939.625 240.632C935.194 236.201 928.547 236.201 924.115 240.632C919.684 245.063 919.684 251.709 924.115 256.141L950.148 282.174C952.364 284.39 955.133 285.498 957.903 285.498C960.672 285.498 963.442 284.39 965.657 282.174C970.089 277.743 970.089 271.096 965.658 266.665Z" fill="#EE0000"/>
<path d="M833.087 137.016L807.054 110.983C802.623 106.552 795.976 106.552 791.544 110.983C787.113 115.414 787.113 122.06 791.544 126.492L817.577 152.525C819.793 154.741 822.562 155.849 825.332 155.849C828.101 155.849 830.871 154.741 833.086 152.525C837.518 148.094 837.518 141.447 833.087 137.016Z" fill="#EE0000"/>
<path d="M988.922 187.457H952.365C946.272 187.457 941.287 192.442 941.287 198.534C941.287 204.627 946.272 209.612 952.365 209.612H988.922C995.015 209.612 1000 204.627 1000 198.534C1000 192.442 995.015 187.457 988.922 187.457Z" fill="#EE0000"/>
<path d="M881.465 80C875.372 80 870.387 84.9851 870.387 91.0778V127.635C870.387 133.728 875.372 138.713 881.465 138.713C887.558 138.713 892.543 133.728 892.543 127.635V91.0778C892.543 84.9851 887.558 80 881.465 80Z" fill="#EE0000"/>
<path d="M232.699 414.566C227.824 401.662 223.236 389.045 218.935 376.715C214.633 364.098 210.189 351.337 205.601 338.433H70.5408L43.4428 414.566H0C11.47 383.023 22.2232 353.918 32.2595 327.25C42.2958 300.295 52.0454 274.775 61.5081 250.687C71.2577 226.6 80.8639 203.66 90.3267 181.867C99.7894 159.787 109.682 137.994 120.005 116.488H158.287C168.61 137.994 178.503 159.787 187.965 181.867C197.428 203.66 206.891 226.6 216.354 250.687C226.103 274.775 235.996 300.295 246.033 327.25C256.069 353.918 266.822 383.023 278.292 414.566H232.699ZM193.557 304.023C184.381 279.076 175.205 254.989 166.029 231.762C157.14 208.248 147.82 185.738 138.071 164.232C128.034 185.738 118.428 208.248 109.252 231.762C100.363 254.989 91.4736 279.076 82.5844 304.023H193.557Z" fill="black"/>
<path d="M356.182 200.793C361.057 197.638 368.369 194.341 378.118 190.9C388.155 187.459 399.625 185.738 412.529 185.738C428.587 185.738 442.781 188.606 455.111 194.341C467.728 200.076 478.338 208.105 486.941 218.428C495.543 228.751 501.995 241.081 506.296 255.419C510.884 269.756 513.178 285.528 513.178 302.733C513.178 320.798 510.454 337.143 505.006 351.767C499.844 366.105 492.389 378.292 482.639 388.328C472.89 398.364 461.133 406.107 447.369 411.555C433.605 417.003 418.12 419.727 400.915 419.727C382.276 419.727 365.788 418.437 351.451 415.856C337.113 413.275 325.356 410.695 316.18 408.114V87.6694L356.182 80.7874V200.793ZM356.182 379.726C360.197 380.873 365.788 382.02 372.957 383.167C380.412 384.027 389.589 384.457 400.485 384.457C421.991 384.457 439.196 377.432 452.1 363.381C465.004 349.043 471.456 328.827 471.456 302.733C471.456 291.263 470.309 280.51 468.015 270.473C465.721 260.437 461.993 251.834 456.832 244.666C451.67 237.21 444.932 231.475 436.616 227.461C428.587 223.159 418.837 221.009 407.367 221.009C396.471 221.009 386.434 222.873 377.258 226.6C368.082 230.328 361.057 234.199 356.182 238.214V379.726Z" fill="black"/>
<path d="M652.052 186.168C655.493 186.168 659.364 186.455 663.666 187.029C668.254 187.315 672.698 187.889 677 188.749C681.301 189.323 685.172 190.04 688.613 190.9C692.341 191.473 695.065 192.047 696.785 192.62L689.903 227.461C686.749 226.314 681.444 225.023 673.989 223.589C666.82 221.869 657.5 221.009 646.03 221.009C638.575 221.009 631.119 221.869 623.664 223.589C616.495 225.023 611.764 226.027 609.47 226.6V414.566H569.468V200.363C578.931 196.922 590.687 193.767 604.738 190.9C618.789 187.746 634.56 186.168 652.052 186.168Z" fill="black"/>
<path d="M811.088 385.747C820.551 385.747 828.867 385.604 836.036 385.317C843.491 384.744 849.656 383.883 854.531 382.736V316.067C851.664 314.633 846.932 313.486 840.337 312.626C834.028 311.479 826.286 310.905 817.11 310.905C811.088 310.905 804.636 311.335 797.754 312.196C791.159 313.056 784.994 314.92 779.259 317.787C773.811 320.368 769.223 324.096 765.495 328.971C761.767 333.559 759.903 339.724 759.903 347.466C759.903 361.804 764.491 371.84 773.667 377.575C782.843 383.023 795.317 385.747 811.088 385.747ZM807.647 185.308C823.705 185.308 837.183 187.459 848.079 191.76C859.262 195.775 868.152 201.653 874.747 209.395C881.629 216.851 886.504 225.883 889.371 236.493C892.239 246.816 893.673 258.286 893.673 270.903V410.695C890.232 411.268 885.357 412.128 879.048 413.275C873.026 414.136 866.144 414.996 858.402 415.856C850.66 416.716 842.201 417.433 833.025 418.007C824.135 418.867 815.246 419.297 806.357 419.297C793.74 419.297 782.126 418.007 771.517 415.426C760.907 412.845 751.731 408.831 743.988 403.383C736.246 397.647 730.224 390.192 725.923 381.016C721.622 371.84 719.471 360.8 719.471 347.896C719.471 335.566 721.909 324.956 726.783 316.067C731.945 307.177 738.827 300.009 747.429 294.56C756.032 289.112 766.068 285.098 777.538 282.517C789.008 279.936 801.052 278.646 813.669 278.646C817.684 278.646 821.841 278.932 826.143 279.506C830.444 279.793 834.458 280.366 838.186 281.226C842.201 281.8 845.642 282.373 848.509 282.947C851.377 283.521 853.384 283.951 854.531 284.237V273.054C854.531 266.459 853.814 260.007 852.38 253.698C850.947 247.103 848.366 241.368 844.638 236.493C840.91 231.332 835.749 227.317 829.154 224.45C822.845 221.295 814.529 219.718 804.206 219.718C791.016 219.718 779.402 220.722 769.366 222.729C759.616 224.45 752.304 226.314 747.429 228.321L742.698 195.201C747.86 192.907 756.462 190.756 768.506 188.749C780.549 186.455 793.596 185.308 807.647 185.308Z" fill="black"/>
</svg>