<svg width="920" height="920" viewBox="0 0 920 920" fill="none" xmlns="http://www.w3.org/2000/svg">
<g clip-path="url(#clip0_2396_7676)">
<path d="M792.273 920.001H460.008C206.36 920.001 0 713.622 0 459.923C0 206.225 206.36 0 460.008 0C717.946 0 920 196.471 920 447.283V919.137H848.621V447.252C848.621 236.49 677.943 71.3653 460.008 71.3653C245.73 71.3653 71.3949 245.766 71.3949 460C71.3949 674.235 245.792 848.636 460.008 848.636H792.273V920.001Z" fill="#FF8300"/>
<path d="M676.575 804.519H460.955C271.517 804.519 117.406 650.392 117.406 460.954C117.406 271.516 271.517 117.405 460.955 117.405C653.602 117.405 804.52 265.502 804.52 454.568V803.682H732.828V454.568C732.828 305.758 613.47 189.113 460.971 189.113C311.076 189.113 189.114 311.075 189.114 460.97C189.114 610.865 311.076 732.827 460.971 732.827H676.575V804.519Z" fill="#FFA34E"/>
<path d="M558.59 683.156H461.901C338.748 683.156 238.66 582.958 238.66 459.977C238.66 336.996 338.825 236.736 461.978 236.736C585.131 236.736 685.188 336.827 685.188 459.977V682.342H614.07V459.977C614.07 429.877 605.142 400.453 588.414 375.426C571.687 350.398 547.912 330.892 520.096 319.373C492.279 307.854 461.67 304.84 432.141 310.713C402.611 316.585 375.486 331.079 354.196 352.363C332.906 373.647 318.408 400.765 312.534 430.287C306.66 459.808 309.675 490.408 321.197 518.217C332.719 546.026 352.23 569.795 377.265 586.517C402.299 603.24 431.731 612.166 461.839 612.166H558.529V683.264L558.59 683.156Z" fill="#FFC894"/>
</g>
<defs>
<clipPath id="clip0_2396_7676">
<rect width="920" height="920" fill="white"/>
</clipPath>
</defs>
</svg>
