<svg xmlns="http://www.w3.org/2000/svg" viewBox="0 0 400 75"><path fill="#007DFF" d="M219.197 66h38v9h-38z"/><path fill="#0C2C65" d="M1.75 43.094c1.828 1.032 7.235 3.339 12.562 3.339 5.645 0 7.633-2.465 7.633-5.964 0-3.657-2.465-4.69-6.758-6.359l-3.26-1.273C2.783 29.26 0 24.33 0 16.458 0 5.963 8.427 0 20.195 0c4.214 0 9.461.397 13.994 2.226l-.637 10.893c-2.624-1.352-7.155-2.783-11.448-2.783-4.453 0-7.156 1.829-7.156 5.248 0 2.862 1.432 4.134 6.36 6.36l6.679 3.021c5.008 2.305 9.382 5.804 9.382 14.073 0 12.165-8.745 18.367-21.706 18.367-6.679 0-12.006-1.433-14.788-2.147l.875-12.164zM45.569.954h16.939v55.497H45.569zM89.15 45.795h3.259c8.587 0 12.881-6.121 12.881-16.855 0-14.231-6.838-17.014-14.948-17.014H89.15v33.869zM74.203.955H95.59c16.299 0 25.443 10.892 25.443 27.43 0 19.24-10.177 28.066-27.748 28.066H74.203V.955zM143.294 17.969h-.319v38.482h-13.039V.954h17.334l14.548 38.243h.16V.954h13.038v55.497h-17.49z"/><path fill="#007DFF" d="M238.196 58.045c-11.695 0-21.21-9.34-21.21-20.82 0-11.479 9.515-20.817 21.21-20.817 11.696 0 21.211 9.338 21.211 20.817 0 11.48-9.515 20.82-21.211 20.82zm0-32.681c-6.757 0-12.254 5.321-12.254 11.861 0 6.542 5.497 11.864 12.254 11.864 6.756 0 12.254-5.322 12.254-11.864.001-6.54-5.497-11.861-12.254-11.861zM187.77 56.689h24.812v-7.37h-6.96V25.736h8.599v-7.37h-8.599v-3.03c0-5.814 3.276-6.305 7.615-6.305 1.393 0 2.621.327 3.849.654V1.579c-2.374-.328-4.913-.737-7.288-.737-12.365 0-15.068 7.125-15.068 13.266v4.258h-6.96v7.37h6.96V49.32h-6.96v7.369zM263.504 56.689h21.128v-7.37h-4.914V35.317c0-4.913 2.375-10.317 8.271-10.317 4.422 0 6.714 3.766 6.714 7.697V49.32h-4.913v7.37h21.127v-7.37h-5.323V32.287c0-9.663-3.521-15.067-13.675-15.067-5.487 0-10.4 2.702-13.021 7.616h-.164v-6.469h-15.231v7.37h5.323V49.32h-5.323v7.369zM366.589 56.689h8.189v-4.094h.164c2.21 3.111 5.65 5.24 11.382 5.24 8.271 0 13.676-5.486 13.676-12.283 0-16.869-22.684-9.089-22.684-16.869 0-3.603 3.685-4.094 5.896-4.094 4.013 0 7.042 1.965 7.042 6.469h8.599V18.366h-8.189v4.012h-.164c-2.538-3.931-5.896-5.159-10.318-5.159-6.96 0-13.757 3.767-13.757 11.792 0 17.033 22.684 9.008 22.684 17.033 0 3.604-3.357 4.422-5.733 4.422-4.421 0-8.188-2.457-8.188-7.288h-8.599v13.511zM334.407 50.057c-4.667 0-8.107-4.258-8.107-12.529 0-6.305 2.129-12.528 9.09-12.528 6.715 0 9.5 5.65 9.5 11.956 0 8.106-2.293 13.101-10.483 13.101m20.718-48.069h-16.213v7.37h5.323v14.658h-.164c-1.802-3.685-5.405-6.796-11.873-6.796-9.991 0-17.197 6.796-17.197 20.881 0 10.318 5.405 19.735 16.542 19.735 6.796 0 10.154-2.129 13.593-7.534h.164v6.387h15.15v-7.37h-5.324V1.988z"/></svg>