<svg width="50" height="50" viewBox="0 0 50 50" fill="none" xmlns="http://www.w3.org/2000/svg">
<path d="M43.5 7.79999H30.2C28.5 7.79999 27.2 9.09999 27.2 10.8V14.3H6.5C4.8 14.3 3.5 15.6 3.5 17.3V39.2C3.5 40.9 4.8 42.2 6.5 42.2H9.1H39.8C41.5 42.2 42.8 40.9 42.8 39.2V21.9H43.4C45.1 21.9 46.4 20.6 46.4 18.9V10.8C46.5 9.09999 45.1 7.79999 43.5 7.79999ZM44.5 18.9C44.5 19.4 44.1 19.9 43.5 19.9H42.9H41.9H40.9H36.1C35.1 19.9 34.2 20.4 33.7 21.1L33.4 21.5C33.3 21.2 33.1 21 32.9 20.8C32.3 20.2 31.6 19.9 30.8 19.9H30.3C29.8 19.9 29.3 19.5 29.3 18.9V16.4V15.4V14.4V10.8C29.3 10.3 29.7 9.79999 30.3 9.79999H43.6C44.1 9.79999 44.6 10.2 44.6 10.8V18.9H44.5ZM40.8 39.2C40.8 39.8 40.4 40.2 39.8 40.2H37.7L27 24.6C26.8 24.3 26.5 24.1 26.2 24.2C25.9 24.2 25.6 24.4 25.4 24.6L20.6 31.4L18.4 28.3C18.2 28 17.9 27.9 17.6 27.9C17.3 27.9 17 28.1 16.8 28.3L8.6 40.2H6.5C5.9 40.2 5.5 39.8 5.5 39.2V17.3C5.5 16.7 5.9 16.3 6.5 16.3H27.1V18.8C27.1 20.5 28.4 21.8 30.1 21.8H30.6C30.9 21.8 31.1 21.9 31.3 22.1C31.5 22.3 31.6 22.5 31.6 22.8V24C31.6 24.4 31.9 24.8 32.3 25C32.4 25 32.5 25.1 32.6 25.1C32.9 25.1 33.2 25 33.4 24.7L35.2 22.3C35.4 22 35.7 21.9 36 21.9H40.8V39.2ZM11 40.2L17.6 30.6L19.8 33.7C20 34 20.3 34.1 20.6 34.1C20.9 34.1 21.2 33.9 21.4 33.7L26.2 26.9L35.4 40.2H11Z" fill="#D023BE"/>
<path d="M42.1 11.6H31.6C31 11.6 30.6 12 30.6 12.6C30.6 13.2 31 13.6 31.6 13.6H42.1C42.7 13.6 43.1 13.2 43.1 12.6C43.1 12 42.6 11.6 42.1 11.6Z" fill="#D023BE"/>
<path d="M42.4 15.8C42.3 15.8 42.2 15.7 42.1 15.7H41H31.6C31.2 15.7 30.8 16 30.7 16.3C30.7 16.4 30.6 16.5 30.6 16.7C30.6 17.3 31 17.7 31.6 17.7H40.9H41.9H42.2C42.5 17.7 42.8 17.6 42.9 17.4C43.1 17.2 43.2 17 43.2 16.7C43.1 16.2 42.8 15.9 42.4 15.8Z" fill="#D023BE"/>
<path d="M14.2 19.4C12.5 19.4 11.2 20.7 11.2 22.4C11.2 24.1 12.5 25.4 14.2 25.4C15.9 25.4 17.2 24.1 17.2 22.4C17.2 20.7 15.8 19.4 14.2 19.4ZM14.2 23.4C13.7 23.4 13.2 23 13.2 22.4C13.2 21.8 13.6 21.4 14.2 21.4C14.8 21.4 15.2 21.8 15.2 22.4C15.2 23 14.7 23.4 14.2 23.4Z" fill="#D023BE"/>
</svg>
