<svg width="50" height="50" viewBox="0 0 50 50" fill="none" xmlns="http://www.w3.org/2000/svg">
<path d="M15.9 26.3L34 26.2" stroke="#D023BE" stroke-width="2" stroke-linecap="round" stroke-linejoin="round"/>
<path d="M16 17.7C17.1046 17.7 18 16.8046 18 15.7C18 14.5954 17.1046 13.7 16 13.7C14.8954 13.7 14 14.5954 14 15.7C14 16.8046 14.8954 17.7 16 17.7Z" stroke="#D023BE" stroke-width="2" stroke-linecap="round" stroke-linejoin="round"/>
<path d="M15.9 26.3L19.4 21.2L22.4 25.5L28 17.5L34 26.2" stroke="#D023BE" stroke-width="2" stroke-linecap="round" stroke-linejoin="round"/>
<path d="M41.6 8.60001H8.39999C6.69999 8.60001 5.39999 9.90001 5.39999 11.6V33.5C5.39999 35.2 6.69999 36.5 8.39999 36.5H12.9V38.4C12.9 40.1 14.2 41.4 15.9 41.4H34.2C35.9 41.4 37.2 40.1 37.2 38.4V36.5H41.7C43.4 36.5 44.7 35.2 44.7 33.5V11.6C44.6 9.90001 43.3 8.60001 41.6 8.60001ZM35.1 36.5V38.4C35.1 38.9 34.7 39.4 34.1 39.4H15.9C15.4 39.4 14.9 39 14.9 38.4V36.5V34.5V32.3C14.9 31.8 15.3 31.3 15.9 31.3H34.2C34.7 31.3 35.2 31.7 35.2 32.3V34.5V36.5H35.1ZM42.6 33.5C42.6 34.1 42.2 34.5 41.6 34.5H37.1V32.3C37.1 30.6 35.8 29.3 34.1 29.3H15.9C14.2 29.3 12.9 30.6 12.9 32.3V34.5H8.39999C7.79999 34.5 7.39999 34.1 7.39999 33.5V11.6C7.39999 11 7.79999 10.6 8.39999 10.6H41.7C42.3 10.6 42.7 11 42.7 11.6V33.5H42.6Z" fill="#D023BE"/>
<path d="M18.7 36.5C19.2523 36.5 19.7 36.0523 19.7 35.5C19.7 34.9477 19.2523 34.5 18.7 34.5C18.1477 34.5 17.7 34.9477 17.7 35.5C17.7 36.0523 18.1477 36.5 18.7 36.5Z" fill="#D023BE"/>
<path d="M25 36.5C25.5523 36.5 26 36.0523 26 35.5C26 34.9477 25.5523 34.5 25 34.5C24.4477 34.5 24 34.9477 24 35.5C24 36.0523 24.4477 36.5 25 36.5Z" fill="#D023BE"/>
<path d="M31.3 36.5C31.8523 36.5 32.3 36.0523 32.3 35.5C32.3 34.9477 31.8523 34.5 31.3 34.5C30.7477 34.5 30.3 34.9477 30.3 35.5C30.3 36.0523 30.7477 36.5 31.3 36.5Z" fill="#D023BE"/>
</svg>
