<svg width="50" height="50" viewBox="0 0 50 50" fill="none" xmlns="http://www.w3.org/2000/svg">
<path d="M15.24 30.76V19.44C15.24 19.44 23.44 18.42 23.42 25.13C23.42 25.09 23.72 31.55 15.24 30.75V30.76Z" stroke="#D023BE" stroke-width="2" stroke-linecap="round" stroke-linejoin="round"/>
<path d="M2 30.85L2.99 28.17L6.24 19.38L10.61 30.85" stroke="#D023BE" stroke-width="2" stroke-linecap="round" stroke-linejoin="round"/>
<path d="M9.16 28.17H2.99" stroke="#D023BE" stroke-width="2" stroke-linecap="round" stroke-linejoin="round"/>
<path d="M26.49 18.37C26.34 18.23 26.15 18.16 25.96 18.16C25.76 18.16 25.56 18.24 25.41 18.39C25.12 18.69 25.13 19.18 25.43 19.47C26.99 20.98 27.85 23 27.85 25.17C27.85 27.34 27.03 29.27 25.53 30.76C25.23 31.06 25.23 31.54 25.53 31.84C25.83 32.14 26.31 32.14 26.61 31.84C28.39 30.06 29.38 27.68 29.38 25.16C29.38 22.64 28.35 20.17 26.49 18.37Z" fill="#D023BE" stroke="#D023BE" stroke-width="0.5" stroke-miterlimit="10"/>
<path d="M46.49 18.37C46.34 18.23 46.15 18.16 45.96 18.16C45.76 18.16 45.56 18.24 45.41 18.39C45.12 18.69 45.13 19.18 45.43 19.47C46.99 20.98 47.85 23 47.85 25.17C47.85 27.34 47.03 29.27 45.53 30.76C45.23 31.06 45.23 31.54 45.53 31.84C45.83 32.14 46.31 32.14 46.61 31.84C48.39 30.06 49.38 27.68 49.38 25.16C49.38 22.64 48.35 20.17 46.49 18.37Z" fill="#D023BE" stroke="#D023BE" stroke-width="0.5" stroke-miterlimit="10"/>
<path d="M30.56 15.75C30.41 15.59 30.21 15.52 30.01 15.52C29.81 15.52 29.63 15.59 29.48 15.73C29.18 16.02 29.17 16.51 29.46 16.81C31.62 19.05 32.81 22 32.81 25.11C32.81 28.22 31.62 31.17 29.46 33.41C29.17 33.71 29.18 34.2 29.48 34.49C29.78 34.78 30.27 34.77 30.56 34.47C33 31.94 34.34 28.62 34.34 25.1C34.34 21.58 32.99 18.27 30.56 15.75Z" fill="#D023BE" stroke="#D023BE" stroke-width="0.5" stroke-miterlimit="10"/>
<path d="M40.56 15.75C40.41 15.59 40.21 15.52 40.01 15.52C39.81 15.52 39.63 15.59 39.48 15.73C39.18 16.02 39.17 16.51 39.46 16.81C41.62 19.05 42.81 22 42.81 25.11C42.81 28.22 41.62 31.17 39.46 33.41C39.17 33.71 39.18 34.2 39.48 34.49C39.78 34.78 40.27 34.77 40.56 34.47C43 31.94 44.34 28.62 44.34 25.1C44.34 21.58 42.99 18.27 40.56 15.75Z" fill="#D023BE" stroke="#D023BE" stroke-width="0.5" stroke-miterlimit="10"/>
<path d="M34.54 13.24C34.39 13.08 34.18 13 33.98 13C33.79 13 33.61 13.07 33.46 13.2C33.15 13.49 33.13 13.97 33.42 14.28C36.16 17.23 37.67 21.08 37.67 25.11C37.67 29.14 36.16 32.99 33.42 35.94C33.13 36.25 33.15 36.73 33.46 37.02C33.77 37.31 34.26 37.29 34.54 36.98C37.54 33.74 39.2 29.53 39.2 25.11C39.2 20.69 37.55 16.48 34.54 13.24Z" fill="#D023BE" stroke="#D023BE" stroke-width="0.5" stroke-miterlimit="10"/>
</svg>
