<svg width="50" height="50" viewBox="0 0 50 50" fill="none" xmlns="http://www.w3.org/2000/svg">
<path fill-rule="evenodd" clip-rule="evenodd" d="M19.6 30.6V19.3C19.6 19.3 27.8 18.3 27.8 25C27.8 25 28.1 31.4 19.6 30.6Z" stroke="#D023BE" stroke-width="2" stroke-linecap="round" stroke-linejoin="round"/>
<path d="M6.4 30.7L7.4 28.1L10.6 19.3L15 30.7" stroke="#D023BE" stroke-width="2" stroke-linecap="round" stroke-linejoin="round"/>
<path d="M13.6 28.1H7.4" stroke="#D023BE" stroke-width="2" stroke-linecap="round" stroke-linejoin="round"/>
<path d="M30.9 18.3C30.8 18.2 30.6 18.1 30.4 18.1C30.2 18.1 30 18.2 29.8 18.3C29.5 18.6 29.5 19.1 29.8 19.4C31.4 20.9 32.2 22.9 32.2 25.1C32.2 27.2 31.4 29.2 29.9 30.7C29.6 31 29.6 31.5 29.9 31.8C30.2 32.1 30.7 32.1 31 31.8C32.8 30 33.8 27.6 33.8 25.1C33.8 22.5 32.8 20.1 30.9 18.3Z" fill="#D023BE" stroke="#D023BE" stroke-width="0.5"/>
<path d="M35 15.6C34.8 15.4 34.6 15.4 34.4 15.4C34.2 15.4 34 15.5 33.9 15.6C33.6 15.9 33.6 16.4 33.9 16.7C36.1 18.9 37.2 21.9 37.2 25C37.2 28.1 36 31.1 33.9 33.3C33.6 33.6 33.6 34.1 33.9 34.4C34.2 34.7 34.7 34.7 35 34.4C37.4 31.9 38.8 28.5 38.8 25C38.7 21.5 37.4 18.2 35 15.6Z" fill="#D023BE" stroke="#D023BE" stroke-width="0.5"/>
<path d="M38.9 13.1C38.7 12.9 38.5 12.9 38.3 12.9C38.1 12.9 37.9 13 37.8 13.1C37.5 13.4 37.5 13.9 37.8 14.2C40.5 17.2 42 21 42 25C42 29 40.5 32.9 37.8 35.8C37.5 36.1 37.5 36.6 37.8 36.9C38.1 37.2 38.6 37.2 38.9 36.9C41.9 33.7 43.6 29.4 43.6 25C43.6 20.6 41.9 16.4 38.9 13.1Z" fill="#D023BE" stroke="#D023BE" stroke-width="0.5"/>
</svg>
