<svg width="50" height="50" viewBox="0 0 50 50" fill="none" xmlns="http://www.w3.org/2000/svg">
<path d="M13.9 35.5H8.3C7.2 35.5 6.4 34.6 6.4 33.6V11.6C6.4 10.5 7.3 9.7 8.3 9.7H41.7C42.8 9.7 43.6 10.6 43.6 11.6V33.6C43.6 34.7 42.7 35.5 41.7 35.5H36.1" stroke="#D023BE" stroke-width="2" stroke-linecap="round" stroke-linejoin="round"/>
<path fill-rule="evenodd" clip-rule="evenodd" d="M34.1 30.3H21.7C21.1 30.3 20.5 30 20.1 29.5L18.4 27V28.2C18.4 29.3 17.5 30.2 16.4 30.2H15.9C14.8 30.2 13.9 31.1 13.9 32.2V38.3C13.9 39.4 14.8 40.3 15.9 40.3H34.2C35.3 40.3 36.2 39.4 36.2 38.3V32.2C36.1 31.2 35.2 30.3 34.1 30.3Z" stroke="#D023BE" stroke-width="2" stroke-linecap="round" stroke-linejoin="round"/>
<path d="M18.7 36.5C19.2523 36.5 19.7 36.0523 19.7 35.5C19.7 34.9477 19.2523 34.5 18.7 34.5C18.1477 34.5 17.7 34.9477 17.7 35.5C17.7 36.0523 18.1477 36.5 18.7 36.5Z" fill="#D023BE"/>
<path d="M25 36.5C25.5523 36.5 26 36.0523 26 35.5C26 34.9477 25.5523 34.5 25 34.5C24.4477 34.5 24 34.9477 24 35.5C24 36.0523 24.4477 36.5 25 36.5Z" fill="#D023BE"/>
<path d="M31.3 36.5C31.8523 36.5 32.3 36.0523 32.3 35.5C32.3 34.9477 31.8523 34.5 31.3 34.5C30.7477 34.5 30.3 34.9477 30.3 35.5C30.3 36.0523 30.7477 36.5 31.3 36.5Z" fill="#D023BE"/>
<path d="M29.6 19.6C30.1523 19.6 30.6 19.1523 30.6 18.6C30.6 18.0477 30.1523 17.6 29.6 17.6C29.0477 17.6 28.6 18.0477 28.6 18.6C28.6 19.1523 29.0477 19.6 29.6 19.6Z" fill="#D023BE"/>
<path d="M32.1 15.4C32 15.3 31.9 15.3 31.9 15.3C31.8 15.3 31.7 15.3 31.6 15.4C31.5 15.5 31.5 15.8 31.6 15.9C32.3 16.6 32.7 17.6 32.7 18.6C32.7 19.6 32.3 20.5 31.6 21.2C31.5 21.3 31.5 21.6 31.6 21.7C31.7 21.8 32 21.8 32.1 21.7C32.9 20.9 33.4 19.8 33.4 18.6C33.5 17.4 33 16.3 32.1 15.4Z" fill="#D023BE" stroke="#D023BE" stroke-width="1.2"/>
<path d="M35 14.2C34.9 14.1 34.8 14.1 34.7 14.1C34.6 14.1 34.5 14.1 34.5 14.2C34.4 14.3 34.4 14.6 34.5 14.7C35.5 15.7 36.1 17.1 36.1 18.6C36.1 20.1 35.5 21.4 34.5 22.5C34.4 22.6 34.4 22.9 34.5 23C34.6 23.1 34.9 23.1 35 23C36.1 21.8 36.8 20.3 36.8 18.6C36.8 16.9 36.2 15.4 35 14.2Z" fill="#D023BE" stroke="#D023BE" stroke-width="1.2"/>
<path d="M37.9 13C37.8 12.9 37.7 12.9 37.6 12.9C37.5 12.9 37.4 12.9 37.4 13C37.3 13.1 37.2 13.4 37.4 13.5C38.7 14.9 39.4 16.7 39.4 18.6C39.4 20.5 38.7 22.3 37.4 23.7C37.3 23.8 37.3 24.1 37.4 24.2C37.5 24.3 37.8 24.3 37.9 24.2C39.3 22.7 40.1 20.7 40.1 18.6C40.1 16.5 39.3 14.5 37.9 13Z" fill="#D023BE" stroke="#D023BE" stroke-width="1.2"/>
<path d="M27.2 21.7C27.3 21.8 27.4 21.8 27.4 21.8C27.5 21.8 27.6 21.8 27.7 21.7C27.8 21.6 27.8 21.3 27.7 21.2C27 20.5 26.6 19.5 26.6 18.5C26.6 17.5 27 16.6 27.7 15.9C27.8 15.8 27.8 15.5 27.7 15.4C27.6 15.3 27.3 15.3 27.2 15.4C26.4 16.2 25.9 17.3 25.9 18.5C25.8 19.8 26.3 20.9 27.2 21.7Z" fill="#D023BE" stroke="#D023BE" stroke-width="1.2"/>
<path d="M24.3 23C24.4 23.1 24.5 23.1 24.6 23.1C24.7 23.1 24.8 23.1 24.8 23C24.9 22.9 24.9 22.6 24.8 22.5C23.8 21.5 23.2 20.1 23.2 18.6C23.2 17.1 23.8 15.8 24.8 14.7C24.9 14.6 24.9 14.3 24.8 14.2C24.7 14.1 24.4 14.1 24.3 14.2C23.2 15.4 22.5 16.9 22.5 18.6C22.5 20.2 23.1 21.8 24.3 23Z" fill="#D023BE" stroke="#D023BE" stroke-width="1.2"/>
<path d="M21.4 24.1C21.5 24.2 21.6 24.2 21.7 24.2C21.8 24.2 21.9 24.2 21.9 24.1C22 24 22.1 23.7 21.9 23.6C20.6 22.2 19.9 20.4 19.9 18.5C19.9 16.6 20.6 14.8 21.9 13.4C22 13.3 22 13 21.9 12.9C21.8 12.8 21.5 12.8 21.4 12.9C20 14.4 19.2 16.4 19.2 18.5C19.2 20.6 20 22.6 21.4 24.1Z" fill="#D023BE" stroke="#D023BE" stroke-width="1.2"/>
</svg>
