<svg width="50" height="50" viewBox="0 0 50 50" fill="none" xmlns="http://www.w3.org/2000/svg">
<path d="M41.6 9.10001H8.39999C6.69999 9.10001 5.39999 10.4 5.39999 12.1V34C5.39999 35.7 6.69999 37 8.39999 37H41.7C43.4 37 44.7 35.7 44.7 34V12.1C44.6 10.4 43.3 9.10001 41.6 9.10001ZM42.7 33.9C42.7 34.5 42.2 34.9 41.6 34.9H8.39999C7.79999 34.9 7.39999 34.5 7.39999 33.9V12.1C7.39999 11.5 7.79999 11.1 8.39999 11.1H41.7C42.3 11.1 42.7 11.5 42.7 12.1V33.9Z" fill="#D023BE"/>
<path d="M32.7 22.1L20 16.2C19.7 16.1 19.3 16.1 19 16.3C18.7 16.5 18.5 16.8 18.5 17.1V28.8C18.5 29.1 18.7 29.4 19 29.6C19.1 29.7 19.5 29.8 19.9 29.7L32.6 23.8C33 23.6 33.2 23.3 33.2 22.9C33.2 22.5 33.1 22.3 32.7 22.1ZM20.7 27.3V18.7L30 23L20.7 27.3Z" fill="#D023BE"/>
<path d="M21 38.9H6.39999C5.79999 38.9 5.39999 39.3 5.39999 39.9C5.39999 40.5 5.79999 40.9 6.39999 40.9H21C21.6 40.9 22 40.5 22 39.9C22 39.4 21.6 38.9 21 38.9Z" fill="#D023BE"/>
<path d="M43.6 38.9H29C28.4 38.9 28 39.3 28 39.9C28 40.5 28.4 40.9 29 40.9H43.7C44.3 40.9 44.7 40.5 44.7 39.9C44.6 39.4 44.2 38.9 43.6 38.9Z" fill="#D023BE"/>
<path d="M25 39C24.5 39 24 39.4 24 40C24 40.5 24.4 41 25 41C25.5 41 26 40.6 26 40C26 39.4 25.5 39 25 39Z" fill="#D023BE"/>
</svg>
