<svg width="50" height="50" viewBox="0 0 50 50" fill="none" xmlns="http://www.w3.org/2000/svg">
<path d="M41.6 11.1H8.39999C6.69999 11.1 5.39999 12.4 5.39999 14.1V36C5.39999 37.7 6.69999 39 8.39999 39H41.7C43.4 39 44.7 37.7 44.7 36V14.1C44.6 12.4 43.3 11.1 41.6 11.1ZM42.6 35.9C42.6 36.5 42.2 36.9 41.6 36.9H8.39999C7.79999 36.9 7.39999 36.5 7.39999 35.9V14.1C7.39999 13.5 7.79999 13.1 8.39999 13.1H41.7C42.3 13.1 42.7 13.5 42.7 14.1V35.9H42.6Z" fill="#D023BE"/>
<path d="M34.7 28.7H24.2C23.6 28.7 23.2 29.1 23.2 29.7C23.2 30.3 23.6 30.7 24.2 30.7H34.7C35.3 30.7 35.7 30.3 35.7 29.7C35.7 29.1 35.3 28.7 34.7 28.7Z" fill="#D023BE"/>
<path d="M34.7 32.7H30.2C29.6 32.7 29.2 33.1 29.2 33.7C29.2 34.3 29.6 34.7 30.2 34.7H34.7C35.3 34.7 35.7 34.3 35.7 33.7C35.7 33.1 35.3 32.7 34.7 32.7Z" fill="#D023BE"/>
<path d="M15.7 30.7H20.5C21.1 30.7 21.5 30.3 21.5 29.7C21.5 29.1 21.1 28.7 20.5 28.7H15.7C15.1 28.7 14.7 29.1 14.7 29.7C14.7 30.3 15.1 30.7 15.7 30.7Z" fill="#D023BE"/>
<path d="M26.2 32.7H15.7C15.1 32.7 14.7 33.1 14.7 33.7C14.7 34.3 15.1 34.7 15.7 34.7H26.2C26.8 34.7 27.2 34.3 27.2 33.7C27.2 33.1 26.8 32.7 26.2 32.7Z" fill="#D023BE"/>
</svg>
