<svg width="50" height="50" viewBox="0 0 50 50" fill="none" xmlns="http://www.w3.org/2000/svg">
<path d="M40.6747 10L40.4952 15.9045C40.4952 15.9045 40.5366 17.9348 41.5103 20.3104C42.484 22.686 42.4771 26.132 41.2479 27.8447C40.4261 28.9842 38.5615 31.4288 37.4014 32.9412C36.766 33.7699 35.8061 34.274 34.7633 34.3362L31.635 34.5157C30.8201 34.5641 30.0259 34.274 29.4251 33.7216L28.113 32.4923C27.5398 31.9606 27.4708 31.0697 27.9542 30.4551C28.479 29.7852 29.4527 29.6816 30.1088 30.2203L31.3311 31.2355L34.715 30.9868L36.2757 27.0781C36.8213 25.842 36.3309 24.3918 35.15 23.7426C33.9484 23.0797 32.4291 23.4595 31.6902 24.6197L28.9279 28.9358C28.3754 29.799 27.2221 30.0546 26.3589 29.5021C25.5233 28.9703 25.254 27.8792 25.7443 27.016L28.2511 22.6101C28.2511 22.6101 28.4583 21.0562 28.6447 20.0549C29.0867 17.7207 29.9638 16.091 32.7883 15.0758C32.8297 15.0758 32.7883 10.0069 32.7883 10.0069H40.6816L40.6747 10Z" stroke="#D023BE" stroke-width="1.5" stroke-linecap="round" stroke-linejoin="round"/>
<path d="M41.386 27.6375L38.9621 38.5833C38.7756 39.4189 37.9607 39.9575 37.1113 39.8056C36.2204 39.6399 35.6473 38.7766 35.8337 37.8927L36.6762 34.0185" stroke="#D023BE" stroke-width="1.5" stroke-linecap="round" stroke-linejoin="round"/>
<path d="M42.2078 24.3849V35.448C42.2078 36.187 41.607 36.7878 40.8681 36.7878C40.1292 36.7878 39.625 36.1455 39.5836 35.8071" stroke="#D023BE" stroke-width="1.5" stroke-linecap="round" stroke-linejoin="round"/>
<path d="M36.6555 34.1497L33.7413 39.1979C33.2924 39.9714 32.2979 40.2338 31.5314 39.7711C30.7856 39.3222 30.5369 38.3554 30.972 37.5957L32.6501 34.6953" stroke="#D023BE" stroke-width="1.5" stroke-linecap="round" stroke-linejoin="round"/>
<path d="M9.0336 40L9.21315 34.0955C9.21315 34.0955 9.17172 32.0652 8.19799 29.6896C7.22427 27.314 7.23118 23.868 8.46042 22.1553C9.28221 21.0159 11.1468 18.5712 12.307 17.0588C12.9423 16.2301 13.9022 15.726 14.945 15.6638L18.0733 15.4843C18.8882 15.4359 19.6824 15.726 20.2832 16.2784L21.5953 17.5077C22.1685 18.0394 22.2376 18.9303 21.7542 19.5449C21.2293 20.2148 20.2556 20.3184 19.5995 19.7797L18.3772 18.7645L14.9933 19.0132L13.4326 22.9219C12.8871 24.158 13.3774 25.6082 14.5583 26.2574C15.7599 26.9203 17.2792 26.5405 18.0181 25.3803L20.7804 21.0642C21.3329 20.201 22.4862 19.9454 23.3494 20.4979C24.185 21.0297 24.4543 22.1208 23.964 22.984L21.4572 27.3899C21.4572 27.3899 21.25 28.9438 21.0636 29.9451C20.6216 32.2793 19.7446 33.9091 16.9201 34.9242C16.8786 34.9242 16.9201 39.9931 16.9201 39.9931H9.0336V40Z" stroke="#D023BE" stroke-width="1.5" stroke-linecap="round" stroke-linejoin="round"/>
<path d="M8.3223 22.3625L10.7462 11.4167C10.9327 10.5811 11.7476 10.0425 12.597 10.1944C13.4879 10.3601 14.0611 11.2234 13.8746 12.1073L13.0321 15.9815" stroke="#D023BE" stroke-width="1.5" stroke-linecap="round" stroke-linejoin="round"/>
<path d="M7.50051 25.6151V14.5589C7.50051 13.82 8.10131 13.2191 8.84024 13.2191C9.57916 13.2191 10.0833 13.8614 10.1247 14.1998" stroke="#D023BE" stroke-width="1.5" stroke-linecap="round" stroke-linejoin="round"/>
<path d="M13.0528 15.8503L15.9671 10.8021C16.4159 10.0287 17.4104 9.76624 18.1769 10.2289C18.9228 10.6778 19.1714 11.6446 18.7363 12.4043L17.0582 15.3047" stroke="#D023BE" stroke-width="1.5" stroke-linecap="round" stroke-linejoin="round"/>
</svg>
