<svg width="50" height="50" viewBox="0 0 50 50" fill="none" xmlns="http://www.w3.org/2000/svg">
<path d="M33.5 17.1L22.8 27.9" stroke="#D023BE" stroke-width="2" stroke-linecap="round" stroke-linejoin="round"/>
<path d="M22.4 25.2V28.3H25.5" stroke="#D023BE" stroke-width="2" stroke-linecap="round" stroke-linejoin="round"/>
<path d="M13.6 18.1C15.9748 18.1 17.9 16.1748 17.9 13.8C17.9 11.4252 15.9748 9.5 13.6 9.5C11.2252 9.5 9.3 11.4252 9.3 13.8C9.3 16.1748 11.2252 18.1 13.6 18.1Z" stroke="#D023BE" stroke-width="2" stroke-linecap="round" stroke-linejoin="round"/>
<path d="M19 14H25.7" stroke="#D023BE" stroke-width="2" stroke-linecap="round" stroke-linejoin="round"/>
<path d="M24 16.2L26.2 13.9L24 11.8" stroke="#D023BE" stroke-width="2" stroke-linecap="round" stroke-linejoin="round"/>
<path d="M13.7 40.5C16.0748 40.5 18 38.5748 18 36.2C18 33.8252 16.0748 31.9 13.7 31.9C11.3252 31.9 9.40001 33.8252 9.40001 36.2C9.40001 38.5748 11.3252 40.5 13.7 40.5Z" stroke="#D023BE" stroke-width="2" stroke-linecap="round" stroke-linejoin="round"/>
<path d="M19.1 36.4H25.8" stroke="#D023BE" stroke-width="2" stroke-linecap="round" stroke-linejoin="round"/>
<path d="M24.1 38.6L26.2 36.4L24.1 34.2" stroke="#D023BE" stroke-width="2" stroke-linecap="round" stroke-linejoin="round"/>
<path d="M36.4 40.5C38.7748 40.5 40.7 38.5748 40.7 36.2C40.7 33.8252 38.7748 31.9 36.4 31.9C34.0252 31.9 32.1 33.8252 32.1 36.2C32.1 38.5748 34.0252 40.5 36.4 40.5Z" stroke="#D023BE" stroke-width="2" stroke-linecap="round" stroke-linejoin="round"/>
<path d="M36.3 18.1C38.6748 18.1 40.6 16.1748 40.6 13.8C40.6 11.4252 38.6748 9.5 36.3 9.5C33.9252 9.5 32 11.4252 32 13.8C32 16.1748 33.9252 18.1 36.3 18.1Z" stroke="#D023BE" stroke-width="2" stroke-linecap="round" stroke-linejoin="round"/>
</svg>
