<svg width="50" height="50" viewBox="0 0 50 50" fill="none" xmlns="http://www.w3.org/2000/svg">
<path d="M9.7 13H14.5C15 13 15.5 12.6 15.5 12C15.5 11.4 15.1 11 14.5 11H9.7C9.2 11 8.7 11.4 8.7 12C8.7 12.6 9.1 13 9.7 13Z" fill="#D023BE"/>
<path d="M42.3 11.1H35.4C35.3 9.2 33.7 7.7 31.8 7.7H7.7C5.7 7.7 4.1 9.3 4.1 11.3V22.6C4.1 24.6 5.7 26.2 7.7 26.2H27.4V38.8C27.4 40.8 29 42.4 31 42.4H42.3C44.3 42.4 45.9 40.8 45.9 38.8V14.7C45.9 12.7 44.3 11.1 42.3 11.1ZM43.9 38.8C43.9 39.7 43.2 40.4 42.3 40.4H31C30.1 40.4 29.4 39.7 29.4 38.8V26.1V25.1V24.1V14.7C29.4 13.8 30.1 13.1 31 13.1H33.4H34.4H35.4H42.3C43.2 13.1 43.9 13.8 43.9 14.7V38.8ZM6.1 22.5V11.3C6.1 10.4 6.8 9.7 7.7 9.7H31.8C32.6 9.7 33.3 10.3 33.4 11.1H31C29 11.1 27.4 12.7 27.4 14.7V15.1H9.7C9.2 15.1 8.7 15.5 8.7 16.1C8.7 16.7 9.1 17.1 9.7 17.1H27.4V19.2H9.7C9.2 19.2 8.7 19.6 8.7 20.2C8.7 20.8 9.1 21.2 9.7 21.2H27.4V24.2H7.7C6.8 24.1 6.1 23.4 6.1 22.5Z" fill="#D023BE"/>
<path d="M40.7 20H35.4H34.4H33.4H32.6C32.1 20 31.6 20.4 31.6 21C31.6 21.6 32 22 32.6 22H33.4H34.4H35.4H40.7C41.2 22 41.7 21.6 41.7 21C41.7 20.4 41.3 20 40.7 20Z" fill="#D023BE"/>
<path d="M40.7 24.1H35H33.8H33.1H32.6C32.5 24.1 32.5 24.1 32.4 24.1C31.9 24.2 31.6 24.6 31.6 25C31.6 25 31.6 25 31.6 25.1C31.6 25.6 32 26 32.6 26H33.5H40.7C41.2 26 41.7 25.6 41.7 25C41.7 24.4 41.3 24.1 40.7 24.1Z" fill="#D023BE"/>
<path d="M40.7 28.3H32.6C32.1 28.3 31.6 28.7 31.6 29.3C31.6 29.9 32 30.3 32.6 30.3H40.7C41.2 30.3 41.7 29.9 41.7 29.3C41.7 28.7 41.3 28.3 40.7 28.3Z" fill="#D023BE"/>
<path d="M40.7 32.4H32.6C32.1 32.4 31.6 32.8 31.6 33.4C31.6 34 32 34.4 32.6 34.4H40.7C41.2 34.4 41.7 34 41.7 33.4C41.7 32.8 41.3 32.4 40.7 32.4Z" fill="#D023BE"/>
<path d="M32.6 17.9H33.4H34.4H35.4H37.4C37.9 17.9 38.4 17.5 38.4 16.9C38.4 16.3 38 15.9 37.4 15.9H35.4H34.4H33.4H32.6C32.1 15.9 31.6 16.3 31.6 16.9C31.6 17.5 32.1 17.9 32.6 17.9Z" fill="#D023BE"/>
<path d="M36.3 39.2C36.8523 39.2 37.3 38.7523 37.3 38.2C37.3 37.6477 36.8523 37.2 36.3 37.2C35.7477 37.2 35.3 37.6477 35.3 38.2C35.3 38.7523 35.7477 39.2 36.3 39.2Z" fill="#D023BE"/>
<path d="M23.2 35.3C22.8 34.9 22.2 34.8 21.8 35.2C21.4 35.6 21.3 36.2 21.7 36.6L22 37C17.1 36.3 16.2 32.1 16.1 31.5L16.7 31.9C17.2 32.2 17.8 32.1 18.1 31.7C18.4 31.2 18.3 30.6 17.9 30.3L15.3 28.5C15.1 28.3 14.8 28.3 14.6 28.3C14.3 28.3 14.1 28.5 14 28.7L12.3 31.2C12 31.7 12.1 32.3 12.5 32.6C12.7 32.7 12.9 32.8 13.1 32.8C13.4 32.8 13.7 32.7 13.9 32.4L14.3 31.9C14.7 34.2 16.7 38.3 22.1 39L21.5 39.5C21.1 39.9 21 40.5 21.4 40.9C21.6 41.1 21.9 41.3 22.2 41.3C22.4 41.3 22.6 41.2 22.8 41.1L25.2 39.1C25.4 38.9 25.5 38.7 25.6 38.4C25.7 38.1 25.5 37.9 25.4 37.7L23.2 35.3Z" fill="#D023BE"/>
</svg>
