<svg width="50" height="50" viewBox="0 0 50 50" fill="none" xmlns="http://www.w3.org/2000/svg">
<path d="M14.44 20.2101C15.3016 20.2101 16 19.5117 16 18.6501C16 17.7885 15.3016 17.0901 14.44 17.0901C13.5785 17.0901 12.88 17.7885 12.88 18.6501C12.88 19.5117 13.5785 20.2101 14.44 20.2101Z" fill="#D023BE"/>
<path d="M21.08 20.2101C21.9416 20.2101 22.64 19.5117 22.64 18.6501C22.64 17.7885 21.9416 17.0901 21.08 17.0901C20.2185 17.0901 19.52 17.7885 19.52 18.6501C19.52 19.5117 20.2185 20.2101 21.08 20.2101Z" fill="#D023BE"/>
<path d="M12.79 24.1101C12.79 24.1101 17.76 30.3601 22.72 24.1101" stroke="#D023BE" stroke-width="2" stroke-linecap="round" stroke-linejoin="round"/>
<path d="M29.38 29.27L33.54 32.44" stroke="#D023BE" stroke-width="2" stroke-linecap="round" stroke-linejoin="round"/>
<path d="M17.79 35.58C25.406 35.58 31.58 29.406 31.58 21.79C31.58 14.174 25.406 8 17.79 8C10.174 8 4 14.174 4 21.79C4 29.406 10.174 35.58 17.79 35.58Z" stroke="#D023BE" stroke-width="2" stroke-linecap="round" stroke-linejoin="round"/>
<path d="M32.5105 29.9702L30.9442 32.0329C30.4733 32.6531 30.5943 33.5376 31.2145 34.0086L40.6601 41.1808C41.2803 41.6517 42.1648 41.5307 42.6357 40.9105L44.202 38.8477C44.6729 38.2276 44.5519 37.343 43.9317 36.8721L34.4861 29.6999C33.8659 29.229 32.9814 29.35 32.5105 29.9702Z" fill="#D023BE"/>
</svg>
