<svg width="50" height="50" viewBox="0 0 50 50" fill="none" xmlns="http://www.w3.org/2000/svg">
<path fill-rule="evenodd" clip-rule="evenodd" d="M12.1 41.6V8.4C12.1 7.3 13 6.4 14.1 6.4H36C37.1 6.4 38 7.3 38 8.4V41.7C38 42.8 37.1 43.7 36 43.7H14.1C13 43.6 12.1 42.7 12.1 41.6Z" stroke="#D023BE" stroke-width="2" stroke-linecap="round" stroke-linejoin="round"/>
<path d="M26.6 38.2H16.1" stroke="#D023BE" stroke-width="2" stroke-linecap="round" stroke-linejoin="round"/>
<path d="M20.6 34.2H16.1" stroke="#D023BE" stroke-width="2" stroke-linecap="round" stroke-linejoin="round"/>
<path d="M33.9 38.2H30.3" stroke="#D023BE" stroke-width="2" stroke-linecap="round" stroke-linejoin="round"/>
<path d="M33.9 34.2H24.6" stroke="#D023BE" stroke-width="2" stroke-linecap="round" stroke-linejoin="round"/>
<path d="M25 23.5C27.2092 23.5 29 21.7091 29 19.5C29 17.2909 27.2092 15.5 25 15.5C22.7909 15.5 21 17.2909 21 19.5C21 21.7091 22.7909 23.5 25 23.5Z" stroke="#D023BE" stroke-width="2" stroke-linecap="round" stroke-linejoin="round"/>
<path d="M24.9 12.5V15.6" stroke="#D023BE" stroke-width="2" stroke-linecap="round" stroke-linejoin="round"/>
<path d="M25.1 23.5V26.5" stroke="#D023BE" stroke-width="2" stroke-linecap="round" stroke-linejoin="round"/>
<path d="M31 15.9L28.4 17.5" stroke="#D023BE" stroke-width="2" stroke-linecap="round" stroke-linejoin="round"/>
<path d="M21.6 21.6L19 23.1" stroke="#D023BE" stroke-width="2" stroke-linecap="round" stroke-linejoin="round"/>
<path d="M31.1 23L28.5 21.4" stroke="#D023BE" stroke-width="2" stroke-linecap="round" stroke-linejoin="round"/>
<path d="M21.5 17.6L18.9 16.1" stroke="#D023BE" stroke-width="2" stroke-linecap="round" stroke-linejoin="round"/>
</svg>
