<svg width="50" height="50" viewBox="0 0 50 50" fill="none" xmlns="http://www.w3.org/2000/svg">
<path d="M6.9 5C8 5 8.8 5.9 8.8 6.9C8.8 8 7.9 8.8 6.9 8.8C5.9 8.8 5 8 5 6.9C5 5.9 5.9 5 6.9 5ZM6.9 3C4.7 3 3 4.8 3 6.9C3 9.1 4.8 10.8 6.9 10.8C9 10.8 10.8 9 10.8 6.9C10.9 4.8 9.1 3 6.9 3Z" fill="#D023BE"/>
<path d="M42.3 5C43.4 5 44.2 5.9 44.2 6.9C44.2 8 43.3 8.8 42.3 8.8C41.2 8.8 40.4 7.9 40.4 6.9C40.4 5.9 41.2 5 42.3 5ZM42.3 3C40.1 3 38.4 4.8 38.4 6.9C38.4 9.1 40.2 10.8 42.3 10.8C44.5 10.8 46.2 9 46.2 6.9C46.2 4.8 44.4 3 42.3 3Z" fill="#D023BE"/>
<path d="M42.3 40.3C43.4 40.3 44.2 41.2 44.2 42.2C44.2 43.3 43.3 44.1 42.3 44.1C41.2 44.1 40.4 43.2 40.4 42.2C40.4 41.2 41.2 40.3 42.3 40.3ZM42.3 38.3C40.1 38.3 38.4 40.1 38.4 42.2C38.4 44.4 40.2 46.1 42.3 46.1C44.5 46.1 46.2 44.3 46.2 42.2C46.2 40.1 44.4 38.3 42.3 38.3Z" fill="#D023BE"/>
<path d="M6.9 40.3C8 40.3 8.8 41.2 8.8 42.2C8.8 43.3 7.9 44.1 6.9 44.1C5.9 44.1 5 43.2 5 42.2C5 41.2 5.9 40.3 6.9 40.3ZM6.9 38.3C4.7 38.3 3 40.1 3 42.2C3 44.4 4.8 46.1 6.9 46.1C9 46.1 10.8 44.3 10.8 42.2C10.9 40.1 9.1 38.3 6.9 38.3Z" fill="#D023BE"/>
<path d="M10 6.9H39.2" stroke="#D023BE" stroke-width="2" stroke-linecap="round" stroke-linejoin="round"/>
<path d="M10 42.3H39.2" stroke="#D023BE" stroke-width="2" stroke-linecap="round" stroke-linejoin="round"/>
<path d="M42.3 10V39.2" stroke="#D023BE" stroke-width="2" stroke-linecap="round" stroke-linejoin="round"/>
<path d="M6.89999 10V39.2" stroke="#D023BE" stroke-width="2" stroke-linecap="round" stroke-linejoin="round"/>
<path d="M33.9748 13C33.9748 12.75 34.2165 12.625 34.6998 12.625C35.1998 12.625 35.7081 12.9 36.2248 13.45C36.7415 13.9833 36.9998 14.6 36.9998 15.3C36.9998 17.8667 35.0915 19.15 31.2748 19.15C29.7415 19.15 28.3248 19.0167 27.0248 18.75V30.725C27.0248 32.475 26.6915 33.8667 26.0248 34.9C25.3748 35.9333 24.3831 36.45 23.0498 36.45C21.7331 36.45 20.7415 36.1417 20.0748 35.525C19.4081 34.925 19.0748 34.125 19.0748 33.125C19.0748 31.8417 19.4915 31.2 20.3248 31.2C20.5248 31.2 20.6998 31.25 20.8498 31.35C20.9998 31.45 21.1248 31.5917 21.2248 31.775C21.0915 32.125 21.0248 32.6417 21.0248 33.325C21.0248 34.0083 21.1998 34.5333 21.5498 34.9C21.9165 35.25 22.3748 35.425 22.9248 35.425C24.0748 35.425 24.6748 34.3583 24.7248 32.225V18.2C23.6248 17.8833 22.5581 17.4917 21.5248 17.025C20.4415 18.325 18.7998 18.975 16.5998 18.975C15.6998 18.975 14.9665 18.7833 14.3998 18.4C13.8331 18 13.5498 17.4 13.5498 16.6C13.5498 15 14.5498 14.2 16.5498 14.2C17.9831 14.2 20.0748 14.7333 22.8248 15.8C23.8415 16.1833 25.1165 16.5417 26.6498 16.875C28.1998 17.2083 29.7748 17.375 31.3748 17.375C32.9748 17.375 34.0665 17.2 34.6498 16.85C35.2331 16.5 35.5248 15.9833 35.5248 15.3C35.5248 14.8833 35.4081 14.525 35.1748 14.225C34.9581 13.9083 34.7331 13.7 34.4998 13.6L34.1748 13.45C34.0415 13.35 33.9748 13.2 33.9748 13ZM16.5748 17.825C18.3581 17.825 19.5998 17.3833 20.2998 16.5C18.5165 15.7167 17.3081 15.325 16.6748 15.325C16.0581 15.325 15.6165 15.4417 15.3498 15.675C15.0665 15.8917 14.9248 16.175 14.9248 16.525C14.9248 17.3917 15.4748 17.825 16.5748 17.825Z" fill="#D023BE"/>
</svg>
