<svg width="50" height="50" viewBox="0 0 50 50" fill="none" xmlns="http://www.w3.org/2000/svg">
<path d="M31.8 36.7L32.9 33.8L36.4 24.3L41.1 36.7" stroke="#D023BE" stroke-width="2" stroke-linecap="round" stroke-linejoin="round"/>
<path d="M39.5 33.8H32.9" stroke="#D023BE" stroke-width="2" stroke-linecap="round" stroke-linejoin="round"/>
<path d="M34.4 18.7L34.9 17.5L36.4 13.3L38.5 18.7" stroke="#D023BE" stroke-width="2" stroke-linecap="round" stroke-linejoin="round"/>
<path d="M37.8 17.5H34.9" stroke="#D023BE" stroke-width="2" stroke-linecap="round" stroke-linejoin="round"/>
<path fill-rule="evenodd" clip-rule="evenodd" d="M8.9 37V13C8.9 11.5 10.1 10.4 11.5 10.4H24.8C26.3 10.4 27.4 11.6 27.4 13V37C27.4 38.5 26.2 39.6 24.8 39.6H11.5C10.1 39.7 8.9 38.5 8.9 37Z" stroke="#D023BE" stroke-width="2" stroke-linecap="round" stroke-linejoin="round"/>
<path d="M13.1 14.3H23.2" stroke="#D023BE" stroke-width="1.9588" stroke-linecap="round" stroke-linejoin="round"/>
<path d="M13.1 18.3H23.2" stroke="#D023BE" stroke-width="1.9588" stroke-linecap="round" stroke-linejoin="round"/>
<path d="M13.1 22.6H23.2" stroke="#D023BE" stroke-width="1.9588" stroke-linecap="round" stroke-linejoin="round"/>
<path d="M13.1 26.6H23.2" stroke="#D023BE" stroke-width="1.9588" stroke-linecap="round" stroke-linejoin="round"/>
<path d="M18 30.4V35.1" stroke="#D023BE" stroke-width="2" stroke-linecap="round" stroke-linejoin="round"/>
<path d="M15.8 33.4L18 35.6L20.2 33.4" stroke="#D023BE" stroke-width="2" stroke-linecap="round" stroke-linejoin="round"/>
</svg>
