<svg width="50" height="50" viewBox="0 0 50 50" fill="none" xmlns="http://www.w3.org/2000/svg">
<path d="M25 37.02C31.6385 37.02 37.02 31.6385 37.02 25C37.02 18.3615 31.6385 12.98 25 12.98C18.3615 12.98 12.98 18.3615 12.98 25C12.98 31.6385 18.3615 37.02 25 37.02Z" stroke="#D023BE" stroke-width="2" stroke-linecap="round" stroke-linejoin="round"/>
<path d="M25 5V9" stroke="#D023BE" stroke-width="2" stroke-linecap="round" stroke-linejoin="round"/>
<path d="M10.97 11.03L13.82 13.84" stroke="#D023BE" stroke-width="2" stroke-linecap="round" stroke-linejoin="round"/>
<path d="M39.28 10.72L36.47 13.56" stroke="#D023BE" stroke-width="2" stroke-linecap="round" stroke-linejoin="round"/>
<path d="M11 39L13.81 36.16" stroke="#D023BE" stroke-width="2" stroke-linecap="round" stroke-linejoin="round"/>
<path d="M9 25H5" stroke="#D023BE" stroke-width="2" stroke-linecap="round" stroke-linejoin="round"/>
<path d="M45 25H41" stroke="#D023BE" stroke-width="2" stroke-linecap="round" stroke-linejoin="round"/>
<path d="M39.28 39.29L36.44 36.47" stroke="#D023BE" stroke-width="2" stroke-linecap="round" stroke-linejoin="round"/>
<path d="M25 41V45" stroke="#D023BE" stroke-width="2" stroke-linecap="round" stroke-linejoin="round"/>
<path d="M25 13.26L25.02 36.75" stroke="#D023BE" stroke-width="4" stroke-miterlimit="10"/>
<path d="M20.23 35.03L16.23 34.02L16.27 16.17L20.27 14.18L20.23 35.03Z" fill="#D023BE"/>
<path d="M33.98 33.96L29.98 34.96L30.02 14.91L34.02 15.92L33.98 33.96Z" fill="#D023BE"/>
</svg>
