<svg width="50" height="50" viewBox="0 0 50 50" fill="none" xmlns="http://www.w3.org/2000/svg">
<path d="M23.99 12.0704C23.64 11.9304 23.24 12.0004 22.97 12.2704L15.68 19.5604H11.94C11.42 19.5604 11 19.9804 11 20.5004V28.7704C11 29.2904 11.42 29.7104 11.94 29.7104H15.69L22.98 37.0004C23.16 37.1804 23.4 37.2704 23.64 37.2704C23.76 37.2704 23.88 37.2504 24 37.2004C24.35 37.0604 24.58 36.7104 24.58 36.3404V12.9404C24.58 12.5604 24.35 12.2204 24 12.0804L23.99 12.0704Z" stroke="#D023BE" stroke-width="2" stroke-miterlimit="10"/>
<path d="M38.1301 18.2604L28.3701 29.8705" stroke="#D023BE" stroke-width="2" stroke-linecap="round" stroke-linejoin="round"/>
<path d="M38.0801 29.9104L28.4301 18.2104" stroke="#D023BE" stroke-width="2" stroke-linecap="round" stroke-linejoin="round"/>
</svg>
