<svg width="50" height="50" viewBox="0 0 50 50" fill="none" xmlns="http://www.w3.org/2000/svg">
<path d="M25 12C17.8 12 12 17.8 12 25C12 28.8 13.7 32.3 16.3 34.7L17 35.3C19.2 37 22 38.1 25 38.1C32.2 38.1 38 32.3 38 25.1C38 17.9 32.2 12 25 12ZM26 36V14C31.6 14.5 36 19.2 36 25C36 30.7 31.6 35.5 26 36ZM16.3 18.3V31.6C14.8 29.8 14 27.5 14 25C14 22.5 14.8 20.2 16.3 18.3ZM18.2 33.7V16.4V16.3C18.8 15.8 19.4 15.4 20.1 15.1V34.9C19.5 34.5 18.8 34.1 18.2 33.7ZM22.1 35.6V14.4C22.7 14.2 23.3 14.1 24 14.1V36C23.4 35.9 22.7 35.8 22.1 35.6Z" fill="#D023BE"/>
<path d="M25 10C25.6 10 26 9.6 26 9V5C26 4.4 25.6 4 25 4C24.4 4 24 4.4 24 5V9C24 9.6 24.4 10 25 10Z" fill="#D023BE"/>
<path d="M13.1 14.5C13.3 14.7 13.5 14.8 13.8 14.8C14.1 14.8 14.3 14.7 14.5 14.5C14.9 14.1 14.9 13.5 14.5 13.1L11.7 10.3C11.3 9.9 10.7 9.9 10.3 10.3C9.9 10.7 9.9 11.3 10.3 11.7L13.1 14.5Z" fill="#D023BE"/>
<path d="M36.5 14.6C36.8 14.6 37 14.5 37.2 14.3L40 11.5C40.4 11.1 40.4 10.5 40 10.1C39.6 9.7 39 9.7 38.6 10.1L35.8 12.9C35.4 13.3 35.4 13.9 35.8 14.3C36 14.5 36.2 14.6 36.5 14.6Z" fill="#D023BE"/>
<path d="M13.1 35.5L10.3 38.3C9.9 38.7 9.9 39.3 10.3 39.7C10.5 39.9 10.7 40 11 40C11.3 40 11.5 39.9 11.7 39.7L14.5 36.9C14.9 36.5 14.9 35.9 14.5 35.5C14.1 35.1 13.5 35.1 13.1 35.5Z" fill="#D023BE"/>
<path d="M9 24H5C4.4 24 4 24.4 4 25C4 25.6 4.4 26 5 26H9C9.6 26 10 25.6 10 25C10 24.4 9.6 24 9 24Z" fill="#D023BE"/>
<path d="M45 24H41C40.4 24 40 24.4 40 25C40 25.6 40.4 26 41 26H45C45.6 26 46 25.6 46 25C46 24.4 45.6 24 45 24Z" fill="#D023BE"/>
<path d="M37.1 35.8C36.7 35.4 36.1 35.4 35.7 35.8C35.3 36.2 35.3 36.8 35.7 37.2L38.5 40C38.7 40.2 38.9 40.3 39.2 40.3C39.5 40.3 39.7 40.2 39.9 40C40.3 39.6 40.3 39 39.9 38.6L37.1 35.8Z" fill="#D023BE"/>
<path d="M25 40C24.4 40 24 40.4 24 41V45C24 45.6 24.4 46 25 46C25.6 46 26 45.6 26 45V41C26 40.4 25.6 40 25 40Z" fill="#D023BE"/>
</svg>
