<svg width="50" height="50" viewBox="0 0 50 50" fill="none" xmlns="http://www.w3.org/2000/svg">
<path fill-rule="evenodd" clip-rule="evenodd" d="M21.9 17.9C21.7 17.8 21.5 17.9 21.3 18L17 22.4H14.8C14.5 22.4 14.2 22.6 14.2 23V27.9C14.2 28.2 14.4 28.5 14.8 28.5H17L21.3 32.8C21.4 32.9 21.5 33 21.7 33C21.8 33 21.8 33 21.9 33C22.1 32.9 22.2 32.7 22.2 32.5V18.4C22.3 18.2 22.1 18 21.9 17.9Z" stroke="#D023BE" stroke-width="2" stroke-linecap="round" stroke-linejoin="round"/>
<path d="M28.2 20.2C28.1 20.1 27.9 20 27.8 20C27.6 20 27.5 20.1 27.4 20.2C27.2 20.4 27.2 20.8 27.4 21C28.6 22.2 29.3 23.7 29.3 25.4C29.3 27 28.7 28.6 27.5 29.7C27.3 29.9 27.3 30.3 27.5 30.5C27.7 30.7 28.1 30.7 28.3 30.5C29.7 29.1 30.4 27.3 30.4 25.4C30.4 23.5 29.6 21.6 28.2 20.2Z" fill="#D023BE" stroke="#D023BE"/>
<path d="M32.9 18.2C32.8 18.1 32.6 18 32.5 18C32.4 18 32.2 18.1 32.1 18.2C31.9 18.4 31.9 18.8 32.1 19C33.8 20.7 34.7 23 34.7 25.4C34.7 27.8 33.8 30.1 32.1 31.8C31.9 32 31.9 32.4 32.1 32.6C32.3 32.8 32.7 32.8 32.9 32.6C34.8 30.7 35.8 28.1 35.8 25.4C35.8 22.7 34.8 20.2 32.9 18.2Z" fill="#D023BE" stroke="#D023BE"/>
<path d="M33.4 42.8L17.2 7.2" stroke="#D023BE" stroke-width="2" stroke-linecap="round" stroke-linejoin="round"/>
<path d="M25 39.9C33.229 39.9 39.9 33.229 39.9 25C39.9 16.771 33.229 10.1 25 10.1C16.771 10.1 10.1 16.771 10.1 25C10.1 33.229 16.771 39.9 25 39.9Z" stroke="#D023BE" stroke-width="2" stroke-linecap="round" stroke-linejoin="round"/>
</svg>
