<svg width="50" height="50" viewBox="0 0 50 50" fill="none" xmlns="http://www.w3.org/2000/svg">
<path d="M31.55 8C37.06 8 43.82 10.67 43.82 16.86C43.82 23.51 35.64 23.62 35.64 27.77C35.64 31.12 37.69 30.1 37.69 33.91C37.69 40.16 30.7 42.09 24.73 42.09C14.73 42.09 7 37.34 7 27.09C7 16.84 17 8 31.55 8Z" stroke="#D023BE" stroke-width="2" stroke-linecap="round" stroke-linejoin="round"/>
<path d="M31.48 34.43C31.06 32.87 28.93 32.14 26.71 32.79C24.49 33.45 23.03 35.25 23.44 36.81C23.86 38.37 25.99 39.1 28.21 38.45C30.43 37.79 31.89 35.99 31.48 34.43Z" stroke="#D023BE" stroke-width="2" stroke-linecap="round" stroke-linejoin="round"/>
<path d="M14.5 33.91C16.0077 33.91 17.23 32.6877 17.23 31.18C17.23 29.6723 16.0077 28.45 14.5 28.45C12.9923 28.45 11.77 29.6723 11.77 31.18C11.77 32.6877 12.9923 33.91 14.5 33.91Z" stroke="#D023BE" stroke-width="2" stroke-linecap="round" stroke-linejoin="round"/>
<path d="M15.86 23.69C17.3677 23.69 18.59 22.4677 18.59 20.96C18.59 19.4523 17.3677 18.23 15.86 18.23C14.3523 18.23 13.13 19.4523 13.13 20.96C13.13 22.4677 14.3523 23.69 15.86 23.69Z" stroke="#D023BE" stroke-width="2" stroke-linecap="round" stroke-linejoin="round"/>
<path d="M24.73 18.23C26.2377 18.23 27.46 17.0077 27.46 15.5C27.46 13.9923 26.2377 12.77 24.73 12.77C23.2223 12.77 22 13.9923 22 15.5C22 17.0077 23.2223 18.23 24.73 18.23Z" stroke="#D023BE" stroke-width="2" stroke-linecap="round" stroke-linejoin="round"/>
<path d="M35.64 18.23C37.1477 18.23 38.37 17.0077 38.37 15.5C38.37 13.9923 37.1477 12.77 35.64 12.77C34.1323 12.77 32.91 13.9923 32.91 15.5C32.91 17.0077 34.1323 18.23 35.64 18.23Z" stroke="#D023BE" stroke-width="2" stroke-linecap="round" stroke-linejoin="round"/>
</svg>
