<svg width="50" height="50" viewBox="0 0 50 50" fill="none" xmlns="http://www.w3.org/2000/svg">
<path d="M25.2 5.3C16.4 5.3 9.29999 12.4 9.29999 21.2C9.29999 25.3 10.8 29 13.4 31.8C11.5 35 9.79999 38.9 8.89999 42.9C8.79999 43.5 9.09999 44.1 9.69999 44.5C9.89999 44.6 10.2 44.7 10.4 44.7C10.8 44.7 11.1 44.6 11.4 44.3C14 41.6 16.2 38.6 18 35.4C20.2 36.5 22.6 37.2 25.2 37.2C34 37.2 41.1 30.1 41.1 21.3C41.1 12.5 34 5.3 25.2 5.3ZM25.2 7.3C32.9 7.3 39.1 13.5 39.1 21.2C39.1 23.5 38.5 25.6 37.6 27.5C31.8 27.5 29 22.5 28 20.2C27.9 19.9 27.7 19.6 27.5 19.4C27.9 16.8 27.4 13.9 27.4 13.5C27.4 13.2 27.2 13 26.9 12.9C26.7 12.8 26.4 12.8 26.1 12.9C25.7 13.1 23.5 14.1 21.6 15.5C20.9 14.1 19.9 13.1 18.6 12.4C17.4 11.8 16.2 11.6 15.1 11.6C17.7 9 21.3 7.3 25.2 7.3ZM11.4 41.4C12.3 38.5 13.5 35.7 14.9 33.3C15.2 32.7 15.6 32.1 15.9 31.5C17.1 29.5 18.4 27.8 19.4 26.5C18.8 28.6 18.1 30.6 17.2 32.5C16.9 33.1 16.6 33.7 16.3 34.3C14.9 36.8 13.3 39.2 11.4 41.4ZM21 18.8C21.1 19 21.3 19.1 21.5 19.3C21.9 19.6 22.6 19.9 23.6 19.7C24.3 19.6 25 19.8 25.5 20.3C25.4 20.7 25.3 21 25.1 21.3C24 23.3 22.5 22.9 21.7 22.5C20.9 22.1 19.7 21 20.8 19C20.9 18.9 20.9 18.8 21 18.8ZM23.2 17.7C22.8 17.8 22.5 17.6 22.4 17.3C23.5 16.4 24.9 15.6 25.8 15.1C25.9 15.9 25.9 17 25.9 18.1C25 17.7 24.1 17.5 23.2 17.7ZM11.3 21.2C11.3 18.5 12.1 16 13.4 13.8C14.2 13.6 16.1 13.3 17.8 14.1C18.8 14.6 19.6 15.6 20.1 16.9C19.8 17.3 19.5 17.6 19.3 18C18.1 20.2 18.7 22 19.8 23.1C18.7 24.1 16.6 26.6 14.5 29.9C12.5 27.6 11.3 24.5 11.3 21.2ZM25.2 35.1C22.9 35.1 20.8 34.5 18.9 33.6C20.3 30.7 21.3 27.7 22 24.5C22.3 24.6 22.7 24.6 23 24.6C24.3 24.6 25.6 24 26.6 22.2C28 24.9 30.9 29 36.3 29.5C33.8 32.9 29.8 35.1 25.2 35.1Z" fill="#D023BE"/>
</svg>
