<svg width="50" height="50" viewBox="0 0 50 50" fill="none" xmlns="http://www.w3.org/2000/svg">
<path d="M26.96 7V8.57C26.96 10.17 28.25 11.46 29.85 11.46H36.21C37.81 11.46 39.1 12.75 39.1 14.35V16.76" stroke="#D023BE" stroke-width="2" stroke-linecap="round" stroke-linejoin="round"/>
<path d="M38.2 16.38H39.84" stroke="#D023BE" stroke-width="2" stroke-linecap="round" stroke-linejoin="round"/>
<path d="M36.15 23.08H39.44" stroke="#D023BE" stroke-width="2" stroke-linecap="round" stroke-linejoin="round"/>
<path d="M31.24 23.08H31.8" stroke="#D023BE" stroke-width="2" stroke-linecap="round" stroke-linejoin="round"/>
<path d="M26.13 23.08H26.69" stroke="#D023BE" stroke-width="2" stroke-linecap="round" stroke-linejoin="round"/>
<path d="M21.05 23.08H21.61" stroke="#D023BE" stroke-width="2" stroke-linecap="round" stroke-linejoin="round"/>
<path d="M15.94 23.08H16.5" stroke="#D023BE" stroke-width="2" stroke-linecap="round" stroke-linejoin="round"/>
<path d="M10.91 23.08H11.47" stroke="#D023BE" stroke-width="2" stroke-linecap="round" stroke-linejoin="round"/>
<path d="M31.24 27H31.8" stroke="#D023BE" stroke-width="2" stroke-linecap="round" stroke-linejoin="round"/>
<path d="M26.13 27H26.69" stroke="#D023BE" stroke-width="2" stroke-linecap="round" stroke-linejoin="round"/>
<path d="M21.05 27H21.61" stroke="#D023BE" stroke-width="2" stroke-linecap="round" stroke-linejoin="round"/>
<path d="M15.94 27H16.5" stroke="#D023BE" stroke-width="2" stroke-linecap="round" stroke-linejoin="round"/>
<path d="M10.91 27H11.47" stroke="#D023BE" stroke-width="2" stroke-linecap="round" stroke-linejoin="round"/>
<path d="M26.13 30.92H26.69" stroke="#D023BE" stroke-width="2" stroke-linecap="round" stroke-linejoin="round"/>
<path d="M21.05 30.92H21.61" stroke="#D023BE" stroke-width="2" stroke-linecap="round" stroke-linejoin="round"/>
<path d="M15.94 30.92H16.5" stroke="#D023BE" stroke-width="2" stroke-linecap="round" stroke-linejoin="round"/>
<path d="M10.91 30.92H11.47" stroke="#D023BE" stroke-width="2" stroke-linecap="round" stroke-linejoin="round"/>
<path d="M37.46 43.99C41.8175 43.99 45.35 40.4575 45.35 36.1C45.35 31.7425 41.8175 28.21 37.46 28.21C33.1025 28.21 29.57 31.7425 29.57 36.1C29.57 40.4575 33.1025 43.99 37.46 43.99Z" stroke="#D023BE" stroke-width="2" stroke-linecap="round" stroke-linejoin="round"/>
<path d="M35.09 34.96C35.7086 34.96 36.21 34.4585 36.21 33.84C36.21 33.2214 35.7086 32.72 35.09 32.72C34.4715 32.72 33.97 33.2214 33.97 33.84C33.97 34.4585 34.4715 34.96 35.09 34.96Z" fill="#D023BE"/>
<path d="M39.89 34.96C40.5086 34.96 41.01 34.4585 41.01 33.84C41.01 33.2214 40.5086 32.72 39.89 32.72C39.2715 32.72 38.77 33.2214 38.77 33.84C38.77 34.4585 39.2715 34.96 39.89 34.96Z" fill="#D023BE"/>
<path d="M33.9 37.78C33.9 37.78 37.49 42.3 41.08 37.78" stroke="#D023BE" stroke-width="2" stroke-linecap="round" stroke-linejoin="round"/>
<path d="M45.34 35.86V19.93C45.34 18.94 44.53 18.13 43.54 18.13H6.8C5.81 18.13 5 18.94 5 19.93V34.06C5 35.05 5.81 35.86 6.8 35.86H29.57" stroke="#D023BE" stroke-width="2" stroke-miterlimit="10"/>
</svg>
