<svg width="50" height="50" viewBox="0 0 50 50" fill="none" xmlns="http://www.w3.org/2000/svg">
<path fill-rule="evenodd" clip-rule="evenodd" d="M35.1 43.4H14.9C10.4 43.4 6.8 39.8 6.8 35.3V14.7C6.8 10.2 10.4 6.60001 14.9 6.60001H35.1C39.6 6.60001 43.2 10.2 43.2 14.7V35.3C43.2 39.7 39.6 43.4 35.1 43.4Z" stroke="#D023BE" stroke-width="2" stroke-linecap="round" stroke-linejoin="round"/>
<path fill-rule="evenodd" clip-rule="evenodd" d="M33.1 32H16.9C14.5 32 12.6 30.1 12.6 27.7V11C12.6 8.60001 14.5 6.70001 16.9 6.70001H33.2C35.6 6.70001 37.5 8.60001 37.5 11V27.7C37.5 30 35.5 32 33.1 32Z" stroke="#D023BE" stroke-width="2" stroke-linecap="round" stroke-linejoin="round"/>
<path d="M20.9 24.7L21.9 22.2L24.9 13.9L29.1 24.7" stroke="#D023BE" stroke-width="2" stroke-linecap="round" stroke-linejoin="round"/>
<path d="M27.7 22.2H21.9" stroke="#D023BE" stroke-width="2" stroke-linecap="round" stroke-linejoin="round"/>
<path d="M13.4 30.9L8.40001 40.1" stroke="#D023BE" stroke-width="2" stroke-linecap="round" stroke-linejoin="round"/>
<path d="M36.6 30.9L41.6 40.1" stroke="#D023BE" stroke-width="2" stroke-linecap="round" stroke-linejoin="round"/>
</svg>
