<svg width="50" height="50" viewBox="0 0 50 50" fill="none" xmlns="http://www.w3.org/2000/svg">
<path d="M43.2 20.7H40.3C40.5 20.5 40.7 20.3 40.7 19.9C40.7 19.4 40.4 19.1 39.9 18.9V17.8C39.9 15.7 38.2 13.9 36 13.9H29.6C28.6 13.9 27.7 13.1 27.7 12V10.6C27.7 10 27.3 9.60001 26.7 9.60001C26.1 9.60001 25.7 10 25.7 10.6V12.2C25.7 14.3 27.4 16.1 29.6 16.1H36C37 16.1 37.9 16.9 37.9 18V19C37.4 19 37 19.4 37 20C37 20.3 37.1 20.6 37.4 20.8H6.79999C5.09999 20.8 3.79999 22.1 3.79999 23.8V37.5C3.79999 39.2 5.09999 40.5 6.79999 40.5H43.1C44.8 40.5 46.1 39.2 46.1 37.5V23.7C46.2 22 44.8 20.7 43.2 20.7ZM44.2 37.4C44.2 38 43.8 38.4 43.2 38.4H6.79999C6.19999 38.4 5.79999 38 5.79999 37.4V23.7C5.79999 23.1 6.19999 22.7 6.79999 22.7H43.1C43.7 22.7 44.1 23.1 44.1 23.7V37.4H44.2Z" fill="#D023BE"/>
<path d="M39.3 25.6H36C35.4 25.6 35 26 35 26.6C35 27.2 35.4 27.6 36 27.6H39.3C39.9 27.6 40.3 27.2 40.3 26.6C40.3 26.1 39.8 25.6 39.3 25.6Z" fill="#D023BE"/>
<path d="M31.6 25.6H31C30.4 25.6 30 26 30 26.6C30 27.2 30.4 27.6 31 27.6H31.6C32.2 27.6 32.6 27.2 32.6 26.6C32.6 26.1 32.2 25.6 31.6 25.6Z" fill="#D023BE"/>
<path d="M26.5 25.6H26C25.4 25.6 25 26 25 26.6C25 27.2 25.4 27.6 26 27.6H26.6C27.2 27.6 27.6 27.2 27.6 26.6C27.5 26.1 27.1 25.6 26.5 25.6Z" fill="#D023BE"/>
<path d="M21.4 25.6H20.8C20.2 25.6 19.8 26 19.8 26.6C19.8 27.2 20.2 27.6 20.8 27.6H21.4C22 27.6 22.4 27.2 22.4 26.6C22.4 26.1 22 25.6 21.4 25.6Z" fill="#D023BE"/>
<path d="M16.3 25.6H15.7C15.1 25.6 14.7 26 14.7 26.6C14.7 27.2 15.1 27.6 15.7 27.6H16.3C16.9 27.6 17.3 27.2 17.3 26.6C17.3 26.1 16.9 25.6 16.3 25.6Z" fill="#D023BE"/>
<path d="M11.3 25.6H10.7C10.1 25.6 9.69998 26 9.69998 26.6C9.69998 27.2 10.1 27.6 10.7 27.6H11.3C11.9 27.6 12.3 27.2 12.3 26.6C12.3 26.1 11.8 25.6 11.3 25.6Z" fill="#D023BE"/>
<path d="M31.6 29.6H31C30.4 29.6 30 30 30 30.6C30 31.2 30.4 31.6 31 31.6H31.6C32.2 31.6 32.6 31.2 32.6 30.6C32.6 30 32.2 29.6 31.6 29.6Z" fill="#D023BE"/>
<path d="M26.5 29.6H26C25.4 29.6 25 30 25 30.6C25 31.2 25.4 31.6 26 31.6H26.6C27.2 31.6 27.6 31.2 27.6 30.6C27.5 30 27.1 29.6 26.5 29.6Z" fill="#D023BE"/>
<path d="M21.4 29.6H20.8C20.2 29.6 19.8 30 19.8 30.6C19.8 31.2 20.2 31.6 20.8 31.6H21.4C22 31.6 22.4 31.2 22.4 30.6C22.4 30 22 29.6 21.4 29.6Z" fill="#D023BE"/>
<path d="M16.3 29.6H15.7C15.1 29.6 14.7 30 14.7 30.6C14.7 31.2 15.1 31.6 15.7 31.6H16.3C16.9 31.6 17.3 31.2 17.3 30.6C17.3 30 16.9 29.6 16.3 29.6Z" fill="#D023BE"/>
<path d="M11.3 29.6H10.7C10.1 29.6 9.69998 30 9.69998 30.6C9.69998 31.2 10.1 31.6 10.7 31.6H11.3C11.9 31.6 12.3 31.2 12.3 30.6C12.3 30 11.8 29.6 11.3 29.6Z" fill="#D023BE"/>
<path d="M31.6 33.5H31C30.4 33.5 30 33.9 30 34.5C30 35.1 30.4 35.5 31 35.5H31.6C32.2 35.5 32.6 35.1 32.6 34.5C32.6 33.9 32.2 33.5 31.6 33.5Z" fill="#D023BE"/>
<path d="M26.5 33.5H26C25.4 33.5 25 33.9 25 34.5C25 35.1 25.4 35.5 26 35.5H26.6C27.2 35.5 27.6 35.1 27.6 34.5C27.5 33.9 27.1 33.5 26.5 33.5Z" fill="#D023BE"/>
<path d="M21.4 33.5H20.8C20.2 33.5 19.8 33.9 19.8 34.5C19.8 35.1 20.2 35.5 20.8 35.5H21.4C22 35.5 22.4 35.1 22.4 34.5C22.4 33.9 22 33.5 21.4 33.5Z" fill="#D023BE"/>
<path d="M16.3 33.5H15.7C15.1 33.5 14.7 33.9 14.7 34.5C14.7 35.1 15.1 35.5 15.7 35.5H16.3C16.9 35.5 17.3 35.1 17.3 34.5C17.3 33.9 16.9 33.5 16.3 33.5Z" fill="#D023BE"/>
<path d="M11.3 33.5H10.7C10.1 33.5 9.69998 33.9 9.69998 34.5C9.69998 35.1 10.1 35.5 10.7 35.5H11.3C11.9 35.5 12.3 35.1 12.3 34.5C12.3 33.9 11.8 33.5 11.3 33.5Z" fill="#D023BE"/>
<path d="M39.3 29.6H36C35.4 29.6 35 30 35 30.6C35 31.2 35.4 31.6 36 31.6H39.3C39.9 31.6 40.3 31.2 40.3 30.6C40.3 30 39.8 29.6 39.3 29.6Z" fill="#D023BE"/>
<path d="M39.3 33.5H36C35.4 33.5 35 33.9 35 34.5C35 35.1 35.4 35.5 36 35.5H39.3C39.9 35.5 40.3 35.1 40.3 34.5C40.3 33.9 39.8 33.5 39.3 33.5Z" fill="#D023BE"/>
</svg>
