<svg width="50" height="50" viewBox="0 0 50 50" fill="none" xmlns="http://www.w3.org/2000/svg">
<path d="M24.99 5C21.86 5 18.9 5.74 16.26 7.03C16.26 7.03 14.61 7.87 13.3 8.85C12.86 9.18 12.77 9.81 13.11 10.25C13.31 10.51 13.61 10.65 13.91 10.65C14.03 10.65 14.15 10.62 14.27 10.58C14.35 10.55 14.44 10.51 14.51 10.45C14.82 10.22 15.11 10.01 15.38 9.83C15.53 9.73 15.67 9.64 15.8 9.55C18.49 7.94 21.63 7 24.99 7C34.91 7 42.99 15.08 42.99 25C42.99 34.92 34.91 43 24.99 43C15.07 43 7.19 35.11 7.01 25.34C7.01 25.09 7.01 24.85 7.01 24.64C7.01 24.27 7.04 23.9 7.07 23.54C7.07 23.46 7.08 23.39 7.09 23.32C7.12 23.04 7.14 22.88 7.14 22.88C7.14 22.88 7.14 22.86 7.14 22.85C7.2 22.31 6.84 21.82 6.3 21.74C5.77 21.66 5.25 22.03 5.16 22.58C5.16 22.6 5.12 22.88 5.08 23.32C5.08 23.42 5.06 23.52 5.06 23.64C5.04 23.93 5.02 24.26 5.02 24.64C5.02 24.77 5 24.89 5 25.01C5 25.13 5.02 25.24 5.02 25.36C5.02 25.52 5.02 25.68 5.02 25.84C5.02 25.87 5.04 25.89 5.04 25.92C5.52 36.52 14.27 45 24.99 45C35.71 45 44.99 36.03 44.99 25C44.99 13.97 36.02 5 24.99 5Z" fill="#D023BE"/>
<path d="M7.24009 19.23C7.50009 19.23 7.75009 19.13 7.95009 18.94C8.05009 18.84 8.13009 18.7101 8.18009 18.5801C8.20009 18.5301 8.25009 18.4001 8.32009 18.2501C8.38008 18.1101 8.44009 17.9601 8.49009 17.8401L8.58009 17.6201C8.79009 17.1101 8.55009 16.5201 8.04009 16.3101C7.56009 16.1101 7.02009 16.3201 6.78009 16.7801C6.77009 16.8101 6.74009 16.8301 6.73009 16.8601C6.70009 16.9301 6.68009 16.9901 6.65009 17.0601C6.55009 17.2901 6.47009 17.5001 6.41009 17.6701C6.41009 17.6901 6.39009 17.7101 6.39009 17.7401C6.16009 18.3901 6.20009 18.6001 6.55009 18.9501C6.75009 19.1501 7.00009 19.2401 7.26009 19.2401L7.24009 19.23Z" fill="#D023BE"/>
<path d="M9.7102 14.7099C10.0402 14.7099 10.3402 14.5399 10.5202 14.2899L11.1502 13.4399C11.4802 12.9999 11.3902 12.3699 10.9402 12.0399C10.5902 11.7799 10.1202 11.7899 9.7802 12.0399C9.6902 12.0999 9.6102 12.1599 9.5402 12.2499C9.1102 12.8199 8.9102 13.0999 8.8002 13.2899C8.7002 13.4699 8.7002 13.5499 8.7002 13.7099C8.7002 14.2599 9.1502 14.7099 9.7002 14.7099H9.7102Z" fill="#D023BE"/>
<path d="M25.7 9C25.1 9 24.7 9.4 24.7 10V24.7L14.3 35.4C13.9 35.8 13.9 36.4 14.3 36.8C14.5 37 14.7 37.1 15 37.1C15.3 37.1 15.5 37 15.7 36.8L26.4 25.8C26.6 25.6 26.7 25.4 26.7 25.1V10C26.7 9.4 26.3 9 25.7 9Z" fill="#D023BE"/>
</svg>
