<svg width="50" height="50" viewBox="0 0 50 50" fill="none" xmlns="http://www.w3.org/2000/svg">
<path d="M45 25C45 14 36 5 25 5C14 5 5 14 5 25C5 36 14 45 25 45C27.4 45 29.6 44.6 31.7 43.8C33 44.5 34.5 45 36.1 45C41 45 45 41 45 36.1C45 34.5 44.6 33 43.8 31.7C44.6 29.6 45 27.4 45 25ZM43 36.1C43 39.9 39.9 43 36.1 43C35.4 43 34.8 42.9 34.2 42.7C33.4 42.5 32.6 42.1 31.9 41.6C30.2 40.3 29.2 38.4 29.2 36.1C29.2 32.3 32.3 29.2 36.1 29.2C38.3 29.2 40.3 30.3 41.6 31.9C42.1 32.6 42.5 33.3 42.7 34.2C42.9 34.8 43 35.5 43 36.1ZM36.1 27.2C31.2 27.2 27.2 31.2 27.2 36.1C27.2 38.5 28.2 40.7 29.8 42.3C28.3 42.8 26.7 43 25 43C15.1 43 7 34.9 7 25C7 15.1 15.1 7 25 7C34.9 7 43 15.1 43 25C43 26.7 42.8 28.3 42.3 29.8C40.7 28.2 38.5 27.2 36.1 27.2Z" fill="#D023BE"/>
<path d="M25.1 8.79999C24.5 8.79999 24.1 9.19999 24.1 9.79999V24.5L13.7 35.2C13.3 35.6 13.3 36.2 13.7 36.6C13.9 36.8 14.1 36.9 14.4 36.9C14.7 36.9 14.9 36.8 15.1 36.6L25.8 25.6C26 25.4 26.1 25.2 26.1 24.9V9.79999C26.1 9.19999 25.7 8.79999 25.1 8.79999Z" fill="#D023BE"/>
<path d="M39.9 35.1H37.1V32.3C37.1 31.7 36.7 31.3 36.1 31.3C35.5 31.3 35.1 31.7 35.1 32.3V35.1H32.3C31.7 35.1 31.3 35.5 31.3 36.1C31.3 36.7 31.7 37.1 32.3 37.1H35.1V39.9V40C35.1 40.6 35.5 41 36.1 41C36.7 41 37.1 40.6 37.1 40V38.3V37.1H38.3H40C40.6 37.1 41 36.7 41 36.1C41 35.5 40.5 35.1 39.9 35.1Z" fill="#D023BE"/>
</svg>
