<svg width="50" height="50" viewBox="0 0 50 50" fill="none" xmlns="http://www.w3.org/2000/svg">
<path d="M9.32 45.15H39.77V41.26C39.77 39.74 38.54 38.52 37.03 38.52H12.07C10.55 38.52 9.33 39.75 9.33 41.26V45.15H9.32Z" stroke="#D023BE" stroke-width="2" stroke-linecap="round" stroke-linejoin="round"/>
<path d="M35.11 37.94V25.88C35.11 20.06 30.39 15.35 24.58 15.35C18.76 15.35 14.05 20.07 14.05 25.88V38.2" stroke="#D023BE" stroke-width="2" stroke-linecap="round" stroke-linejoin="round"/>
<path d="M24.64 5V10.49" stroke="#D023BE" stroke-width="2" stroke-linecap="round" stroke-linejoin="round"/>
<path d="M9.85 24.24H5" stroke="#D023BE" stroke-width="2" stroke-linecap="round" stroke-linejoin="round"/>
<path d="M14.76 14.32L11.29 10.94" stroke="#D023BE" stroke-width="2" stroke-linecap="round" stroke-linejoin="round"/>
<path d="M44.21 24.24H39.36" stroke="#D023BE" stroke-width="2" stroke-linecap="round" stroke-linejoin="round"/>
<path d="M34.29 14.32L37.76 10.94" stroke="#D023BE" stroke-width="2" stroke-linecap="round" stroke-linejoin="round"/>
<path d="M28.09 20.29C28.09 20.29 30.47 21.81 31.06 24.79" stroke="#D023BE" stroke-width="2" stroke-linecap="round" stroke-linejoin="round"/>
</svg>
