<svg width="50" height="50" viewBox="0 0 50 50" fill="none" xmlns="http://www.w3.org/2000/svg">
<path d="M25 5C13.97 5 5 13.97 5 25C5 36.03 13.97 45 25 45C27.51 45 29.91 44.53 32.13 43.68C32.04 43.62 31.94 43.56 31.85 43.5C31.26 43.09 30.7 42.65 30.1 42.26C28.48 42.74 26.77 43 25 43C15.08 43 7 34.92 7 25C7 15.08 15.08 7 25 7C34.92 7 43 15.08 43 25C43 27.09 42.62 29.09 41.96 30.96C41.96 30.97 41.97 30.99 41.98 31C42 31.03 42.03 31.06 42.05 31.09V31.11C42.11 31.17 42.16 31.23 42.21 31.29C42.3 31.4 42.4 31.52 42.5 31.63C42.82 32 43.14 32.38 43.42 32.78C44.43 30.39 45 27.76 45 25C45 13.97 36.03 5 25 5Z" fill="#D023BE"/>
<path d="M25.1 9.79001V24.91L14.38 35.93" stroke="#D023BE" stroke-width="2" stroke-linecap="round" stroke-linejoin="round"/>
<path d="M36.05 44C40.4075 44 43.94 40.4675 43.94 36.11C43.94 31.7525 40.4075 28.22 36.05 28.22C31.6925 28.22 28.16 31.7525 28.16 36.11C28.16 40.4675 31.6925 44 36.05 44Z" stroke="#D023BE" stroke-width="2" stroke-linecap="round" stroke-linejoin="round"/>
<path d="M33.68 34.97C34.2986 34.97 34.8 34.4686 34.8 33.85C34.8 33.2315 34.2986 32.73 33.68 32.73C33.0614 32.73 32.56 33.2315 32.56 33.85C32.56 34.4686 33.0614 34.97 33.68 34.97Z" fill="#D023BE"/>
<path d="M38.48 34.97C39.0986 34.97 39.6 34.4686 39.6 33.85C39.6 33.2315 39.0986 32.73 38.48 32.73C37.8614 32.73 37.36 33.2315 37.36 33.85C37.36 34.4686 37.8614 34.97 38.48 34.97Z" fill="#D023BE"/>
<path d="M32.49 37.79C32.49 37.79 36.08 42.31 39.67 37.79" stroke="#D023BE" stroke-width="2" stroke-linecap="round" stroke-linejoin="round"/>
</svg>
