<svg width="50" height="50" viewBox="0 0 50 50" fill="none" xmlns="http://www.w3.org/2000/svg">
<path d="M25 5C14 5 5 14 5 25C5 36 14 45 25 45C36 45 45 36 45 25C45 14 36 5 25 5ZM25 43C15.1 43 7 34.9 7 25C7 15.1 15.1 7 25 7C34.9 7 43 15.1 43 25C43 34.9 34.9 43 25 43Z" fill="#D023BE"/>
<path d="M40.2 23.9H26.1V9.79999C26.1 9.19999 25.7 8.79999 25.1 8.79999C24.5 8.79999 24.1 9.19999 24.1 9.79999V24.9C24.1 25.5 24.5 25.9 25.1 25.9H40.2C40.8 25.9 41.2 25.5 41.2 24.9C41.2 24.4 40.7 23.9 40.2 23.9Z" fill="#D023BE"/>
<path d="M25 41.2C25.5523 41.2 26 40.7523 26 40.2C26 39.6477 25.5523 39.2 25 39.2C24.4477 39.2 24 39.6477 24 40.2C24 40.7523 24.4477 41.2 25 41.2Z" fill="#D023BE"/>
<path d="M9.79999 24C9.29999 24 8.79999 24.4 8.79999 25C8.79999 25.5 9.19999 26 9.79999 26C10.4 26 10.8 25.6 10.8 25C10.8 24.4 10.4 24 9.79999 24Z" fill="#D023BE"/>
<path d="M14.9 15C15.3 14.6 15.3 14 14.9 13.6C14.5 13.2 13.9 13.2 13.5 13.6C13.1 14 13.1 14.6 13.5 15C13.9 15.4 14.5 15.3 14.9 15Z" fill="#D023BE"/>
<path d="M36.6 15C37 14.6 37 14 36.6 13.6C36.2 13.2 35.6 13.2 35.2 13.6C34.8 14 34.8 14.6 35.2 15C35.6 15.4 36.2 15.3 36.6 15Z" fill="#D023BE"/>
<path d="M35.2 35C34.8 35.4 34.8 36 35.2 36.4C35.6 36.8 36.2 36.8 36.6 36.4C37 36 37 35.4 36.6 35C36.2 34.6 35.6 34.6 35.2 35Z" fill="#D023BE"/>
<path d="M14.4 36.9C14.9523 36.9 15.4 36.4523 15.4 35.9C15.4 35.3477 14.9523 34.9 14.4 34.9C13.8477 34.9 13.4 35.3477 13.4 35.9C13.4 36.4523 13.8477 36.9 14.4 36.9Z" fill="#D023BE"/>
</svg>
