<svg width="50" height="50" viewBox="0 0 50 50" fill="none" xmlns="http://www.w3.org/2000/svg">
<path d="M39.9 27.7C40 24.9 38.7 23.1 37.6 22.2C35.6 20.4 32.5 20 30.3 20.3C29.5 19.6 28.6 19.1 27.5 18.8L26.2 20.5C27.4 20.8 28.5 21.3 29.2 22.1C29.4 22.4 29.8 22.5 30.1 22.4C31.9 22 34.5 22.3 36.2 23.8C37.2 24.7 37.7 26 37.8 27.5C36.4 27.6 35 28 33.7 28.6C33 27 31.4 25.7 29.9 25.7C29.3 25.7 28.9 26.1 28.9 26.7C28.9 27.3 29.3 27.7 29.9 27.7C30.6 27.7 31.6 28.6 32 29.6C30.2 31 29 33.2 29 36.1C29 36.7 29.4 37.1 30 37.1C30.6 37.1 31 36.7 31 36.1C31 30.8 36 29.4 38.7 29.3C42.4 31 43.7 34.1 42.9 39.2H38L37.8 38.8C37.1 36.8 38.1 35.6 39.3 35.1C39.8 34.9 40 34.3 39.8 33.8C39.6 33.3 39 33.1 38.5 33.3C36.6 34.1 35 36.3 35.8 39.2H24.4L23.5 38.5C22.6 37.6 22.1 36.7 22.1 35.9C22.1 35.1 22.6 34.2 23.4 33.4C25.3 31.6 25.8 29.3 24.8 27.1C24.6 26.6 24 26.4 23.5 26.6C23 26.9 22.8 27.5 23 28C23.8 29.8 22.9 31.2 22 32C20.7 33.2 20 34.6 20 35.9C20 37 20.5 38.2 21.4 39.3H14.1C15.1 36.2 14 33.1 11.3 32C10.8 31.8 10.2 32 9.99999 32.6C9.79999 33.1 9.99999 33.7 10.6 33.9C12.3 34.6 13 36.7 12.2 38.9L12 39.3H6.79999V36C6.79999 32.3 9.19999 29.5 11 28.7C15.4 28.7 16.2 30.5 16.2 34C16.2 34.6 16.6 35 17.2 35C17.8 35 18.2 34.6 18.2 34C18.2 30.7 17.5 27.3 12.3 26.8C13 24.8 15 23.5 17.4 23.5H17.5V21.5C13.9 21.5 10.9 23.6 10.2 26.9C7.49999 28.1 4.79999 31.7 4.79999 36.1V40.3C4.79999 40.9 5.19999 41.3 5.79999 41.3H43.8C44.3 41.3 44.7 41 44.8 40.5C46 34.1 44.3 29.9 39.9 27.7Z" fill="#D023BE"/>
<path d="M19.5 26.4L26.9 16.2H23.2V8.70001L15.8 18.9H19.5V26.4Z" fill="#D023BE"/>
</svg>
