<svg width="50" height="50" viewBox="0 0 50 50" fill="none" xmlns="http://www.w3.org/2000/svg">
<path d="M33.1 42.8L16.9 7.20001" stroke="#D023BE" stroke-width="2" stroke-linecap="round" stroke-linejoin="round" stroke-dasharray="7 7"/>
<path d="M20.8592 44.312C20.7592 44.312 20.6492 44.292 20.5492 44.262C20.1392 44.132 19.8592 43.742 19.8592 43.312V28.602H12.9992C12.6192 28.602 12.2792 28.392 12.1092 28.052C11.9392 27.712 11.9692 27.312 12.1892 27.012L27.8992 5.41203C28.1492 5.06203 28.6092 4.91203 29.0192 5.05203C29.4292 5.18203 29.7092 5.57203 29.7092 6.00203V20.712H36.5692C36.9492 20.712 37.2892 20.922 37.4592 21.262C37.6292 21.602 37.5992 22.002 37.3792 22.302L21.6692 43.902C21.4792 44.162 21.1692 44.312 20.8592 44.312ZM14.9592 26.602H20.8492C21.3992 26.602 21.8492 27.052 21.8492 27.602V40.242L34.5992 22.712H28.7092C28.1592 22.712 27.7092 22.262 27.7092 21.712V9.08203L14.9592 26.602Z" fill="#D023BE"/>
</svg>
