<svg width="50" height="50" viewBox="0 0 50 50" fill="none" xmlns="http://www.w3.org/2000/svg">
<path d="M6.4 37C6.3 36.6 6.3 36.3 6.3 35.9C6.3 35.2 6.4 34.4 6.6 33.7C6.8 33.2 6.5 32.6 5.9 32.4C5.4 32.2 4.8 32.5 4.6 33.1C4.4 34 4.3 35 4.3 35.9C4.3 36.4 4.3 36.8 4.4 37.3C4.5 37.8 4.9 38.2 5.4 38.2C5.4 38.2 5.5 38.2 5.6 38.2C6.1 38 6.4 37.5 6.4 37Z" fill="#D023BE"/>
<path d="M16.3 42.7C15.3 43.1 14.2 43.3 13.1 43.2C12.5 43.2 12.1 43.6 12 44.1C12 44.7 12.4 45.1 12.9 45.2C13.1 45.2 13.4 45.2 13.6 45.2C14.8 45.2 15.9 45 17 44.6C17.5 44.4 17.8 43.8 17.6 43.3C17.4 42.8 16.8 42.5 16.3 42.7Z" fill="#D023BE"/>
<path d="M9.90001 42.2C9.00001 41.7 8.20001 40.9 7.50001 40C7.20001 39.5 6.60001 39.4 6.10001 39.7C5.60001 40 5.50001 40.6 5.80001 41.1C6.60001 42.3 7.60001 43.2 8.80001 43.9C9.00001 44 9.10001 44 9.30001 44C9.60001 44 10 43.8 10.2 43.5C10.6 43.1 10.4 42.5 9.90001 42.2Z" fill="#D023BE"/>
<path d="M14.3 32.3C14 31.8 13.4 31.7 12.9 32C12.4 32.3 12.3 32.9 12.6 33.4C13.4 34.6 14.3 35.7 15.5 36.6C15.7 36.7 15.9 36.8 16.1 36.8C16.4 36.8 16.7 36.7 16.9 36.4C17.2 36 17.2 35.3 16.7 35C15.8 34.2 15 33.3 14.3 32.3Z" fill="#D023BE"/>
<path d="M12.5 22.4C12.6 22.5 12.8 22.5 13 22.5C13.4 22.5 13.7 22.3 13.9 22C14.5 20.9 15.2 20 16.1 19.2C16.5 18.8 16.5 18.2 16.2 17.8C15.9 17.4 15.2 17.4 14.8 17.7C13.7 18.7 12.9 19.8 12.2 21.1C11.9 21.5 12.1 22.1 12.5 22.4Z" fill="#D023BE"/>
<path d="M12.2 30.1C12.7 30 13.1 29.4 13 28.9C12.8 28.2 12.8 27.4 12.8 26.7C12.8 26.2 12.8 25.8 12.9 25.3C13 24.8 12.6 24.2 12 24.2C11.5 24.1 10.9 24.5 10.9 25.1C10.8 25.6 10.8 26.2 10.8 26.8C10.8 26.9 10.8 27.1 10.8 27.2C10.6 27.2 10.4 27.2 10.3 27.2C9.00001 27.7 7.80001 28.5 6.90001 29.5C6.50001 29.9 6.50001 30.5 7.00001 30.9C7.20001 31.1 7.40001 31.2 7.70001 31.2C8.00001 31.2 8.20001 31.1 8.40001 30.9C9.10001 30.1 10.1 29.5 11.1 29.1C11.1 29.2 11.1 29.3 11.2 29.4C11.3 29.9 11.7 30.2 12.2 30.2C12 30.2 12.1 30.2 12.2 30.1Z" fill="#D023BE"/>
<path d="M23.5 37.1C23.4 37.1 23.3 37.1 23.2 37.1C22.7 37.1 22.2 37.1 21.7 37C21.1 36.9 20.5 36.8 20 36.6C19.5 36.4 18.9 36.7 18.7 37.3C18.5 37.9 18.8 38.4 19.4 38.6C19.7 38.7 20.1 38.8 20.4 38.9C20.1 39.7 19.6 40.4 19 41C18.6 41.4 18.6 42 19 42.4C19.2 42.6 19.4 42.7 19.7 42.7C20 42.7 20.2 42.6 20.4 42.4C21.3 41.5 21.9 40.4 22.3 39.2C22.6 39.2 22.8 39.2 23.1 39.2C23.2 39.2 23.4 39.2 23.5 39.2C24.1 39.2 24.5 38.7 24.5 38.2C24.5 37.5 24 37 23.5 37.1Z" fill="#D023BE"/>
<path d="M31.4 34.5C31 34.1 30.4 34.1 30 34.4C29.1 35.2 28.1 35.9 27 36.3C26.5 36.5 26.2 37.1 26.5 37.6C26.7 38 27 38.2 27.4 38.2C27.5 38.2 27.7 38.2 27.8 38.1C29.1 37.6 30.3 36.8 31.4 35.8C31.8 35.5 31.8 34.9 31.4 34.5Z" fill="#D023BE"/>
<path d="M31.6 4.79999C23.8 4.79999 17.5 11.1 17.5 18.9C17.5 26.7 23.8 33 31.6 33C39.4 33 45.7 26.7 45.7 18.9C45.7 11.1 39.4 4.79999 31.6 4.79999ZM31.6 31C24.9 31 19.5 25.6 19.5 18.9C19.5 12.2 24.9 6.79999 31.6 6.79999C38.3 6.79999 43.7 12.2 43.7 18.9C43.7 25.6 38.3 31 31.6 31Z" fill="#D023BE"/>
<path d="M40.4533 47.4233C40.1733 47.4233 39.9033 47.3133 39.7033 47.0833L22.373 28.6831L6.25325 9.16325C5.88325 8.75325 5.92325 8.11325 6.34325 7.75325C6.75325 7.38325 7.39325 7.42325 7.75325 7.84325L41.2033 45.7533C41.5733 46.1633 41.5333 46.8033 41.1133 47.1633C40.9233 47.3333 40.6833 47.4133 40.4533 47.4133V47.4233Z" fill="#D023BE"/>
</svg>
