<svg width="50" height="50" viewBox="0 0 50 50" fill="none" xmlns="http://www.w3.org/2000/svg">
<path d="M37.5101 13.1399H13.0701V37.5799H37.5101V13.1399Z" fill="#D023BE"/>
<path d="M40.75 43.72H37.75C37.2 43.72 36.75 43.27 36.75 42.72C36.75 42.17 37.2 41.72 37.75 41.72H40.75C41.3 41.72 41.75 42.17 41.75 42.72C41.75 43.27 41.3 43.72 40.75 43.72ZM33.75 43.72H30.75C30.2 43.72 29.75 43.27 29.75 42.72C29.75 42.17 30.2 41.72 30.75 41.72H33.75C34.3 41.72 34.75 42.17 34.75 42.72C34.75 43.27 34.3 43.72 33.75 43.72ZM26.75 43.72H23.75C23.2 43.72 22.75 43.27 22.75 42.72C22.75 42.17 23.2 41.72 23.75 41.72H26.75C27.3 41.72 27.75 42.17 27.75 42.72C27.75 43.27 27.3 43.72 26.75 43.72ZM19.75 43.72H16.75C16.2 43.72 15.75 43.27 15.75 42.72C15.75 42.17 16.2 41.72 16.75 41.72H19.75C20.3 41.72 20.75 42.17 20.75 42.72C20.75 43.27 20.3 43.72 19.75 43.72ZM12.75 43.72H9.75C9.2 43.72 8.75 43.27 8.75 42.72C8.75 42.17 9.2 41.72 9.75 41.72H12.75C13.3 41.72 13.75 42.17 13.75 42.72C13.75 43.27 13.3 43.72 12.75 43.72Z" fill="#D023BE"/>
<path d="M40.75 9H37.75C37.2 9 36.75 8.55 36.75 8C36.75 7.45 37.2 7 37.75 7H40.75C41.3 7 41.75 7.45 41.75 8C41.75 8.55 41.3 9 40.75 9ZM33.75 9H30.75C30.2 9 29.75 8.55 29.75 8C29.75 7.45 30.2 7 30.75 7H33.75C34.3 7 34.75 7.45 34.75 8C34.75 8.55 34.3 9 33.75 9ZM26.75 9H23.75C23.2 9 22.75 8.55 22.75 8C22.75 7.45 23.2 7 23.75 7H26.75C27.3 7 27.75 7.45 27.75 8C27.75 8.55 27.3 9 26.75 9ZM19.75 9H16.75C16.2 9 15.75 8.55 15.75 8C15.75 7.45 16.2 7 16.75 7H19.75C20.3 7 20.75 7.45 20.75 8C20.75 8.55 20.3 9 19.75 9ZM12.75 9H9.75C9.2 9 8.75 8.55 8.75 8C8.75 7.45 9.2 7 9.75 7H12.75C13.3 7 13.75 7.45 13.75 8C13.75 8.55 13.3 9 12.75 9Z" fill="#D023BE"/>
<path d="M43.58 41.89C43.03 41.89 42.58 41.44 42.58 40.89V37.89C42.58 37.34 43.03 36.89 43.58 36.89C44.13 36.89 44.58 37.34 44.58 37.89V40.89C44.58 41.44 44.13 41.89 43.58 41.89ZM43.58 34.89C43.03 34.89 42.58 34.44 42.58 33.89V30.89C42.58 30.34 43.03 29.89 43.58 29.89C44.13 29.89 44.58 30.34 44.58 30.89V33.89C44.58 34.44 44.13 34.89 43.58 34.89ZM43.58 27.89C43.03 27.89 42.58 27.44 42.58 26.89V23.89C42.58 23.34 43.03 22.89 43.58 22.89C44.13 22.89 44.58 23.34 44.58 23.89V26.89C44.58 27.44 44.13 27.89 43.58 27.89ZM43.58 20.89C43.03 20.89 42.58 20.44 42.58 19.89V16.89C42.58 16.34 43.03 15.89 43.58 15.89C44.13 15.89 44.58 16.34 44.58 16.89V19.89C44.58 20.44 44.13 20.89 43.58 20.89ZM43.58 13.89C43.03 13.89 42.58 13.44 42.58 12.89V9.89001C42.58 9.34001 43.03 8.89001 43.58 8.89001C44.13 8.89001 44.58 9.34001 44.58 9.89001V12.89C44.58 13.44 44.13 13.89 43.58 13.89Z" fill="#D023BE"/>
<path d="M7 41.89C6.45 41.89 6 41.44 6 40.89V37.89C6 37.34 6.45 36.89 7 36.89C7.55 36.89 8 37.34 8 37.89V40.89C8 41.44 7.55 41.89 7 41.89ZM7 34.89C6.45 34.89 6 34.44 6 33.89V30.89C6 30.34 6.45 29.89 7 29.89C7.55 29.89 8 30.34 8 30.89V33.89C8 34.44 7.55 34.89 7 34.89ZM7 27.89C6.45 27.89 6 27.44 6 26.89V23.89C6 23.34 6.45 22.89 7 22.89C7.55 22.89 8 23.34 8 23.89V26.89C8 27.44 7.55 27.89 7 27.89ZM7 20.89C6.45 20.89 6 20.44 6 19.89V16.89C6 16.34 6.45 15.89 7 15.89C7.55 15.89 8 16.34 8 16.89V19.89C8 20.44 7.55 20.89 7 20.89ZM7 13.89C6.45 13.89 6 13.44 6 12.89V9.89001C6 9.34001 6.45 8.89001 7 8.89001C7.55 8.89001 8 9.34001 8 9.89001V12.89C8 13.44 7.55 13.89 7 13.89Z" fill="#D023BE"/>
</svg>
