<svg width="50" height="50" viewBox="0 0 50 50" fill="none" xmlns="http://www.w3.org/2000/svg">
<path d="M30.1901 12.9303L31.86 10.9403C34.78 7.46029 39.98 7.00028 43.46 9.93028C46.94 12.8503 47.4 18.0503 44.47 21.5303L35.3001 32.4603C32.3801 35.9403 27.1801 36.4003 23.7001 33.4703C20.2201 30.5503 19.76 25.3503 22.69 21.8703" stroke="#D023BE" stroke-width="2" stroke-linecap="round" stroke-linejoin="round"/>
<path d="M20.0203 38.2804L18.5403 40.0404C15.6203 43.5204 10.4203 43.9804 6.94029 41.0504C3.46029 38.1304 3.00028 32.9304 5.93028 29.4504L15.1003 18.5204C18.0203 15.0404 23.2203 14.5804 26.7003 17.5104C30.1803 20.4304 30.6403 25.6304 27.7103 29.1104" stroke="#D023BE" stroke-width="2" stroke-linecap="round" stroke-linejoin="round"/>
</svg>
