<svg width="50" height="50" viewBox="0 0 50 50" fill="none" xmlns="http://www.w3.org/2000/svg">
<path d="M25.06 18.16C16.55 18 12.15 24.87 12.15 24.87C12.15 24.87 16.55 31.74 25.06 31.58C33.57 31.74 37.97 24.87 37.97 24.87C37.97 24.87 33.57 18 25.06 18.16Z" stroke="#D023BE" stroke-width="2" stroke-linecap="round" stroke-linejoin="round"/>
<path d="M25 18.25C21.38 18.25 18.44 21.19 18.44 24.81C18.44 28.43 21.38 31.37 25 31.37C28.62 31.37 31.56 28.43 31.56 24.81C31.56 21.19 28.62 18.25 25 18.25ZM25 27.08C23.75 27.08 22.73 26.06 22.73 24.81C22.73 23.56 23.75 22.54 25 22.54C26.25 22.54 27.27 23.56 27.27 24.81C27.27 26.06 26.25 27.08 25 27.08Z" fill="#D023BE"/>
<path d="M24.97 37.25V42.8" stroke="#D023BE" stroke-width="2" stroke-linecap="round" stroke-linejoin="round"/>
<path d="M24.97 7.29001V12.85" stroke="#D023BE" stroke-width="2" stroke-linecap="round" stroke-linejoin="round"/>
<path d="M7 17.21V7H17.85" stroke="#D023BE" stroke-width="2" stroke-linecap="round" stroke-linejoin="round"/>
<path d="M42.81 17.21V7H31.96" stroke="#D023BE" stroke-width="2" stroke-linecap="round" stroke-linejoin="round"/>
<path d="M42.94 32.4V42.61H32.09" stroke="#D023BE" stroke-width="2" stroke-linecap="round" stroke-linejoin="round"/>
<path d="M7.13 32.4V42.61H17.98" stroke="#D023BE" stroke-width="2" stroke-linecap="round" stroke-linejoin="round"/>
<path d="M42.72 25.09H40.81" stroke="#D023BE" stroke-width="2" stroke-linecap="round" stroke-linejoin="round"/>
<path d="M9.11 25.09H7.19" stroke="#D023BE" stroke-width="2" stroke-linecap="round" stroke-linejoin="round"/>
</svg>
