<svg width="50" height="50" viewBox="0 0 50 50" fill="none" xmlns="http://www.w3.org/2000/svg">
<path fill-rule="evenodd" clip-rule="evenodd" d="M41.6 37.9H8.39999C7.29999 37.9 6.39999 37 6.39999 35.9V14.1C6.39999 13 7.29999 12.1 8.39999 12.1H41.7C42.8 12.1 43.7 13 43.7 14.1V36C43.6 37 42.7 37.9 41.6 37.9Z" stroke="#D023BE" stroke-width="2" stroke-linecap="round" stroke-linejoin="round"/>
<path d="M38.3 32.4H11.4" stroke="#D023BE" stroke-width="2" stroke-linecap="round" stroke-linejoin="round"/>
<path d="M42.7 19.7H7.79999" stroke="#D023BE" stroke-width="2" stroke-linecap="round" stroke-linejoin="round"/>
<path d="M27.8 16H15.9" stroke="#D023BE" stroke-width="2" stroke-linecap="round" stroke-linejoin="round"/>
<path d="M39.7 16.9C40.2523 16.9 40.7 16.4523 40.7 15.9C40.7 15.3477 40.2523 14.9 39.7 14.9C39.1477 14.9 38.7 15.3477 38.7 15.9C38.7 16.4523 39.1477 16.9 39.7 16.9Z" fill="#D023BE"/>
<path d="M35.8 16.9C36.3523 16.9 36.8 16.4523 36.8 15.9C36.8 15.3477 36.3523 14.9 35.8 14.9C35.2477 14.9 34.8 15.3477 34.8 15.9C34.8 16.4523 35.2477 16.9 35.8 16.9Z" fill="#D023BE"/>
<path d="M22 28.5H11.4" stroke="#D023BE" stroke-width="2" stroke-linecap="round" stroke-linejoin="round"/>
<path d="M16 24.4H11.4" stroke="#D023BE" stroke-width="2" stroke-linecap="round" stroke-linejoin="round"/>
<path d="M38.3 28.5H25.7" stroke="#D023BE" stroke-width="2" stroke-linecap="round" stroke-linejoin="round"/>
<path d="M38.3 24.4H19.9" stroke="#D023BE" stroke-width="2" stroke-linecap="round" stroke-linejoin="round"/>
<path d="M11.9 16.9C12.4523 16.9 12.9 16.4523 12.9 15.9C12.9 15.3477 12.4523 14.9 11.9 14.9C11.3477 14.9 10.9 15.3477 10.9 15.9C10.9 16.4523 11.3477 16.9 11.9 16.9Z" fill="#D023BE"/>
</svg>
