<svg width="50" height="50" viewBox="0 0 50 50" fill="none" xmlns="http://www.w3.org/2000/svg">
<path d="M25.06 18.16C16.55 18 12.15 24.87 12.15 24.87C12.15 24.87 16.55 31.74 25.06 31.58C33.57 31.74 37.97 24.87 37.97 24.87C37.97 24.87 33.57 18 25.06 18.16Z" stroke="#D023BE" stroke-width="2" stroke-linecap="round" stroke-linejoin="round"/>
<path d="M20.37 29.4C22.76 32.13 26.91 32.4 29.63 30.01C31.11 28.71 31.86 26.9 31.86 25.07H27.56C27.56 25.7 27.31 26.33 26.8 26.78C25.86 27.61 24.42 27.51 23.6 26.57C23.22 26.14 23.05 25.61 23.05 25.07H18.75C18.75 26.61 19.28 28.15 20.37 29.4Z" fill="#D023BE"/>
<path d="M24.97 37.25V42.8" stroke="#D023BE" stroke-width="2" stroke-linecap="round" stroke-linejoin="round"/>
<path d="M24.97 7.29001V12.85" stroke="#D023BE" stroke-width="2" stroke-linecap="round" stroke-linejoin="round"/>
<path d="M7 17.21V7H17.85" stroke="#D023BE" stroke-width="2" stroke-linecap="round" stroke-linejoin="round"/>
<path d="M42.81 17.21V7H31.96" stroke="#D023BE" stroke-width="2" stroke-linecap="round" stroke-linejoin="round"/>
<path d="M42.94 32.4V42.61H32.09" stroke="#D023BE" stroke-width="2" stroke-linecap="round" stroke-linejoin="round"/>
<path d="M7.13 32.4V42.61H17.98" stroke="#D023BE" stroke-width="2" stroke-linecap="round" stroke-linejoin="round"/>
<path d="M9.07001 24.07L40.91 24.21" stroke="#D023BE" stroke-width="2" stroke-linecap="round" stroke-linejoin="round"/>
</svg>
