<svg width="50" height="51" viewBox="0 0 50 51" fill="none" xmlns="http://www.w3.org/2000/svg">
<path d="M23.4 25.8V25.1C23.4 24.5 23 24.1 22.4 24.1C21.8 24.1 21.4 24.5 21.4 25.1V28.2C21.4 28.8 21.8 29.2 22.4 29.2H25.5C26.1 29.2 26.5 28.8 26.5 28.2C26.5 27.6 26.1 27.2 25.5 27.2H24.8L33.7 18.3C34.5 18.7 35.3 19 36.3 19C39.2 19 41.6 16.6 41.6 13.7C41.6 10.8 39.2 8.39999 36.3 8.39999C33.4 8.39999 31 10.8 31 13.8C31 15.1 31.5 16.2 32.2 17.1L23.4 25.8ZM36.3 10.5C38.1 10.5 39.6 12 39.6 13.8C39.6 15.6 38.1 17.1 36.3 17.1C34.5 17.1 33 15.6 33 13.8C33 12 34.4 10.5 36.3 10.5Z" fill="#D023BE"/>
<path d="M13.6 19.1C16.1 19.1 18.3 17.3 18.8 14.9C18.9 14.9 18.9 14.9 19 14.9H23.7L23.2 15.4C22.8 15.8 22.8 16.4 23.2 16.8C23.4 17 23.6 17.1 23.9 17.1C24.2 17.1 24.4 17 24.6 16.8L26.8 14.6C27 14.4 27.1 14.2 27.1 13.9C27.1 13.6 27 13.4 26.8 13.2L24.6 11.1C24.2 10.7 23.6 10.7 23.2 11.1C22.8 11.5 22.8 12.1 23.2 12.5L23.7 13H19H18.9C18.5 10.4 16.3 8.39999 13.7 8.39999C10.8 8.39999 8.39999 10.8 8.39999 13.7C8.39999 16.6 10.7 19.1 13.6 19.1ZM13.6 10.5C15.4 10.5 16.9 12 16.9 13.8C16.9 15.6 15.4 17.1 13.6 17.1C11.8 17.1 10.3 15.6 10.3 13.8C10.3 12 11.8 10.5 13.6 10.5Z" fill="#D023BE"/>
<path d="M24.8 33.5C24.4 33.1 23.8 33.1 23.4 33.5C23 33.9 23 34.5 23.4 34.9L23.9 35.4H19.1H19C18.6 32.8 16.4 30.8 13.8 30.8C10.9 30.8 8.5 33.2 8.5 36.1C8.5 39 10.9 41.4 13.8 41.4C16.3 41.4 18.5 39.6 19 37.2C19.1 37.2 19.1 37.2 19.2 37.2H23.9L23.4 37.7C23 38.1 23 38.7 23.4 39.1C23.6 39.3 23.8 39.4 24.1 39.4C24.4 39.4 24.6 39.3 24.8 39.1L27 36.9C27.4 36.5 27.4 35.9 27 35.5L24.8 33.5ZM13.7 39.5C11.9 39.5 10.4 38 10.4 36.2C10.4 34.4 11.9 32.9 13.7 32.9C15.5 32.9 17 34.4 17 36.2C17 38 15.6 39.5 13.7 39.5Z" fill="#D023BE"/>
<path d="M36.4 30.9C33.5 30.9 31.1 33.3 31.1 36.2C31.1 39.1 33.5 41.5 36.4 41.5C39.3 41.5 41.7 39.1 41.7 36.2C41.7 33.3 39.3 30.9 36.4 30.9ZM36.4 39.5C34.6 39.5 33.1 38 33.1 36.2C33.1 34.4 34.6 32.9 36.4 32.9C38.2 32.9 39.7 34.4 39.7 36.2C39.7 38 38.2 39.5 36.4 39.5Z" fill="#D023BE"/>
</svg>
