<svg width="50" height="50" viewBox="0 0 50 50" fill="none" xmlns="http://www.w3.org/2000/svg">
<path d="M28.5 43.3C28.5 43.3 28.5 33.6 28.5 28.4C28.5 25.8 27.2 24.4 25.9 23.5C24.8 22.8 23.6 22.5 22.3 22.5H15.1C13.8 22.5 12.5 22 11.5 21.2C10.5 20.3 9.7 19 9.7 17C9.7 12.6 9.7 9 9.7 9" stroke="#D023BE" stroke-width="2" stroke-linecap="round" stroke-linejoin="round"/>
<path d="M4.7 12.2L9.6 6.70001L14.6 12.2" stroke="#D023BE" stroke-width="2" stroke-linecap="round" stroke-linejoin="round"/>
<path d="M24.4 43.3C24.4 43.3 24.4 40.2 24.4 35C24.4 29.8 29.6 29.2 29.6 29.2H37.4C37.9 29.2 38.4 29.1 38.9 28.9C40.1 28.3 42.2 26.8 42.2 23.7C42.2 19.3 42.2 14.3 42.2 14.3" stroke="#D023BE" stroke-width="2" stroke-linecap="round" stroke-linejoin="round"/>
<path d="M37.3 18.1L42.2 12.6L47.2 18.1" stroke="#D023BE" stroke-width="2" stroke-linecap="round" stroke-linejoin="round"/>
<path d="M34 13.4H26.5C25.2 13.4 24 13.7 22.9 14.4C21.6 15.2 20.3 16.7 20.3 19.3C20.3 24.5 20.3 43.4 20.3 43.4" stroke="#D023BE" stroke-width="2" stroke-linecap="round" stroke-linejoin="round"/>
<path d="M30.1 8.40002L35.6 13.3L30.1 18.3" stroke="#D023BE" stroke-width="2" stroke-linecap="round" stroke-linejoin="round"/>
<path d="M8.2 34L2.8 29.2L8.2 24.1" stroke="#D023BE" stroke-width="2" stroke-linecap="round" stroke-linejoin="round"/>
<path d="M3.2 29H10.7C13.8 29 16.4 31.5 16.4 34.7V43.3" stroke="#D023BE" stroke-width="2" stroke-linecap="round" stroke-linejoin="round"/>
</svg>
