<svg width="50" height="50" viewBox="0 0 50 50" fill="none" xmlns="http://www.w3.org/2000/svg">
<path fill-rule="evenodd" clip-rule="evenodd" d="M17.9 43.1L5.9 31C5.2 30.3 5.2 29.2 5.9 28.5L25.2 9.19998C25.6 8.79998 26.2 8.59998 26.8 8.69998L37.1 10.8C37.8 10.9 38.3 11.5 38.5 12.2L40.3 22.2C40.4 22.8 40.2 23.3 39.8 23.7L20.3 43.1C19.7 43.8 18.6 43.8 17.9 43.1Z" stroke="#D023BE" stroke-width="2" stroke-linecap="round" stroke-linejoin="round"/>
<path d="M31.8 19.8C33.2912 19.8 34.5 18.5912 34.5 17.1C34.5 15.6088 33.2912 14.4 31.8 14.4C30.3088 14.4 29.1 15.6088 29.1 17.1C29.1 18.5912 30.3088 19.8 31.8 19.8Z" stroke="#D023BE" stroke-width="2" stroke-linecap="round" stroke-linejoin="round"/>
<path fill-rule="evenodd" clip-rule="evenodd" d="M44.6 11.6C44.2 8.99999 42 6.79999 39.3 6.39999C36.4 5.99999 33.9 7.59999 32.8 9.89999L37 10.8C37.7 11 38.3 11.5 38.5 12.3L39.7 18.8C42.8 18.2 45.1 15.1 44.6 11.6Z" stroke="#D023BE" stroke-width="2" stroke-linecap="round" stroke-linejoin="round"/>
</svg>
