<svg width="50" height="50" viewBox="0 0 50 50" fill="none" xmlns="http://www.w3.org/2000/svg">
<path d="M31.6 34.4C31.1 34.6 30.8 35.1 31 35.6C31.2 36.1 31.7 36.4 32.2 36.2C32.7 36 33 35.5 32.8 35C32.6 34.5 32.1 34.2 31.6 34.4Z" fill="#D023BE"/>
<path d="M42.6 27.5C42.4 27.1 42 26.7 41.6 26.4C41.7 26.2 41.8 25.9 41.9 25.6C42.1 24.8 42 24 41.6 23.3L41.5 23.2C41.2 22.7 40.8 22.3 40.3 22.1C40.7 21.2 40.7 20.1 40.2 19.1C39.9 18.6 39.4 18.1 38.6 17.8C39 17 39.1 16.1 38.5 15C37.8 13.6 36 13.1 34.3 13.8L32.8 9.80002C32.5 8.90002 31.8 8.20002 30.9 7.80002C30 7.40002 29 7.40002 28.1 7.70002L17.6 11.6C15.7 12.3 14.8 14.4 15.5 16.3L18.7 25C18.1 25 17.4 25.1 16.7 25.4C15.6 25.8 15.1 27 15.4 28L19.8 40.7C20.7 43.4 23.3 45 26.1 44.9L26.7 46.8C26.8 47.2 27.2 47.5 27.6 47.5C27.7 47.5 27.8 47.5 27.9 47.5L40 43.5C40.4 43.4 40.7 43 40.7 42.5L40.6 39.1C40.5 38.2 40.8 37.3 41 36.4C41.2 35.4 41.5 34.3 41.3 33.2C41.3 33 41.2 32.7 41.1 32.5L40.9 32L41.6 31.6C42.4 31.1 42.8 30.5 43 29.6C43.1 28.9 43 28.2 42.6 27.5ZM40.6 29.9L40.2 30.1L39.5 28.2C39.5 28.2 39.5 28.2 39.6 28.2C40.3 27.8 40.8 28.5 40.9 28.6C40.9 28.7 41.3 29.4 40.6 29.9ZM26.7 42.8C26.6 42.8 26.6 42.8 26.5 42.8C24.4 43.2 22.3 42.1 21.6 40.1L17.2 27.3C18.3 26.9 19 27 19.4 27.4L21.4 32.9L21.9 34.2C22.1 34.6 22.5 34.9 22.9 34.8C22.9 34.8 23 34.8 23.2 34.9C23.5 35 24.1 35.3 24.7 36.1C25.2 36.7 25.9 37.7 26.5 39.2C26.6 39.5 26.8 39.9 26.9 40.3C26.9 40.4 26.9 40.4 27 40.5C27.1 40.9 27.5 41.2 27.9 41.2C28 41.2 28.1 41.2 28.2 41.1L38.6 37.2C38.5 37.9 38.4 38.5 38.5 39.2V41.8L28 45.2L27.4 43.5C27.5 43.1 27.1 42.8 26.7 42.8ZM18.2 13.5L28.7 9.60002C29.1 9.40002 29.6 9.50002 29.9 9.60002C30.3 9.80002 30.6 10.1 30.7 10.5L37.4 28.5C37.4 28.5 24.8 33.2 24.7 33.3C24.4 33.1 24 32.9 23.8 32.8C23.7 32.8 23.6 32.7 23.5 32.7L17.1 15.5C16.9 14.8 17.3 13.8 18.2 13.5ZM34.9 15.7C35.6 15.4 36.4 15.6 36.6 16C37 16.8 36.6 17.3 35.8 18H35.7L34.9 15.7ZM36.1 31.2L37.7 30.6L38.1 30.5L38.2 30.8L38.6 31.9L39 32.8L39.1 33.1C39.1 33.2 39.2 33.3 39.2 33.4C39.2 33.7 39.2 34 39.1 34.3C38.9 34.7 38.6 35 38.2 35.1L28.6 38.7C27.9 36.9 27.1 35.7 26.4 34.8L34.4 31.8L36.1 31.2ZM36.5 19.9C38 19.5 38.3 20 38.4 20.2C38.6 20.5 38.6 20.8 38.5 21.1C38.4 21.4 38.2 21.7 38 21.8L37.3 22.2L36.5 19.9ZM38 24.1L38.4 24C39 23.8 39.5 23.9 39.8 24.4L39.9 24.5C40 24.7 40.1 25 40 25.3C39.9 25.6 39.8 25.8 39.5 25.9L38.8 26.3L38 24.1Z" fill="#D023BE"/>
<path d="M34.1 4.80002C34 4.80002 33.9 4.80002 33.8 4.80002C33.7 4.80002 33.6 4.90002 33.6 5.00002C33.5 5.20002 33.6 5.40002 33.8 5.50002C34.8 5.90002 35.5 6.70002 35.8 7.70002C36.1 8.70002 36.1 9.70002 35.7 10.6C35.6 10.8 35.7 11 35.9 11.1C36.1 11.2 36.3 11.1 36.4 10.9C36.9 9.80002 37 8.60002 36.6 7.40002C36.1 6.20002 35.2 5.30002 34.1 4.80002Z" fill="#D023BE" stroke="#D023BE" stroke-width="1.2"/>
<path d="M36.5 2.60001C36.4 2.60001 36.3 2.60001 36.2 2.60001C36.1 2.60001 36 2.70001 36 2.80001C35.9 3.00001 36 3.20001 36.2 3.30001C37.5 4.00001 38.6 5.10001 39.1 6.50001C39.6 7.90001 39.6 9.50001 38.9 10.8C38.8 11 38.9 11.2 39.1 11.3C39.3 11.4 39.5 11.3 39.6 11.1C40.3 9.60001 40.4 7.80001 39.8 6.20001C39.1 4.60001 38 3.30001 36.5 2.60001Z" fill="#D023BE" stroke="#D023BE" stroke-width="1.2"/>
<path d="M13 19.4C13.1 19.4 13.2 19.4 13.3 19.4C13.4 19.4 13.5 19.3 13.5 19.2C13.6 19 13.5 18.8 13.3 18.7C12.3 18.3 11.6 17.5 11.3 16.5C11 15.5 11 14.5 11.4 13.6C11.5 13.4 11.4 13.2 11.2 13.1C11 13 10.8 13.1 10.7 13.3C10.2 14.4 10.1 15.6 10.5 16.8C11 18 11.8 18.9 13 19.4Z" fill="#D023BE" stroke="#D023BE" stroke-width="1.2"/>
<path d="M10.6 21.6C10.7 21.6 10.8 21.6 10.9 21.6C11 21.6 11.1 21.5 11.1 21.4C11.2 21.2 11.1 21 10.9 20.9C9.6 20.2 8.5 19.1 8 17.7C7.5 16.3 7.5 14.7 8.2 13.4C8.3 13.2 8.2 13 8 12.9C7.8 12.8 7.6 12.9 7.5 13.1C6.8 14.6 6.7 16.4 7.3 18C7.9 19.6 9.1 20.9 10.6 21.6Z" fill="#D023BE" stroke="#D023BE" stroke-width="1.2"/>
</svg>
