<svg width="50" height="50" viewBox="0 0 50 50" fill="none" xmlns="http://www.w3.org/2000/svg">
<path d="M32.4 18C31.9 17.1 30.9 16.5 29.8 16.5H29.7C29.1 16.5 28.6 16.7 28.1 16.9C27.5 16.1 26.6 15.5 25.5 15.5C25.1 15.5 24.7 15.6 24.3 15.7V14.4V12V7.90001C24.3 6.10001 22.8 4.60001 21 4.60001C19.2 4.60001 17.7 6.10001 17.7 7.90001V12.2V14.6V18.6C17 18.1 16.2 18 15.2 18C14.1 18 13.1 18.9 13.1 20.1V33.6C13.1 36.4 15 38.9 17.7 39.6V44.2C17.7 44.8 18.2 45.3 18.8 45.3H33.2C33.8 45.3 34.3 44.8 34.3 44.2V38.2C34.3 37.5 34.6 37.2 35.1 36.6C35.8 35.8 36.9 34.7 36.9 32.3V20.6C36.8 18.1 34.2 17.2 32.4 18ZM32.2 41.2H19.7V38.6C19.7 38.1 19.3 37.7 18.8 37.6C16.7 37.3 15.1 35.6 15.1 33.4L15.2 20C16.9 20 17.4 20.7 17.6 21.7C17.6 21.7 17.6 21.7 17.6 21.8V28C17.6 28.6 18 29 18.6 29C19.2 29 19.6 28.6 19.6 28V21.5V15.2V13.2V7.90001C19.6 7.20001 20.2 6.60001 20.9 6.60001C21.6 6.60001 22.2 7.20001 22.2 7.90001V13.1V15.2V18.7C22.2 19.3 22.6 19.7 23.2 19.7C23.8 19.7 24.2 19.3 24.2 18.7C24.2 18 24.7 17.5 25.4 17.5C26.1 17.5 26.6 18 26.6 18.7V19.5C26.6 20.1 27 20.5 27.6 20.5C28.2 20.5 28.6 20.1 28.6 19.5C28.6 18.9 29.1 18.5 29.6 18.5H29.7C30.3 18.5 30.7 19 30.7 19.5V20.6C30.7 21.2 31.1 21.6 31.7 21.6C32.3 21.6 32.7 21.2 32.7 20.6C32.7 19.8 33.5 19.7 33.7 19.7C33.9 19.7 34.7 19.7 34.7 20.6V32.2C34.7 33.8 34.1 34.4 33.5 35.2C32.9 35.9 32.1 36.7 32.1 38.2V41.2H32.2Z" fill="#D023BE"/>
</svg>
