<svg width="50" height="50" viewBox="0 0 50 50" fill="none" xmlns="http://www.w3.org/2000/svg">
<path d="M2.87753 17.9097C3.36018 17.9097 3.75507 17.5148 3.75507 17.0322V13.522C3.75507 13.0394 3.36018 12.6445 2.87753 12.6445C2.39489 12.6445 2 13.0394 2 13.522V17.0322C2 17.5148 2.39489 17.9097 2.87753 17.9097Z" fill="#D023BE"/>
<path d="M2.87753 10.8895C3.36018 10.8895 3.75507 10.4946 3.75507 10.0119V6.53688C3.75507 6.53688 3.75507 6.51055 3.75507 6.50178C3.75507 6.01913 3.36018 5.58914 2.87753 5.58914C2.39489 5.58914 2 5.94016 2 6.4228C2 6.4579 2 6.48423 2 6.51933V10.0119C2 10.4946 2.39489 10.8895 2.87753 10.8895Z" fill="#D023BE"/>
<path d="M2.87753 24.93C3.36018 24.93 3.75507 24.5351 3.75507 24.0524V20.5423C3.75507 20.0597 3.36018 19.6648 2.87753 19.6648C2.39489 19.6648 2 20.0597 2 20.5423V24.0524C2 24.5351 2.39489 24.93 2.87753 24.93Z" fill="#D023BE"/>
<path d="M18.366 3.75507H21.8762C22.3588 3.75507 22.7537 3.36018 22.7537 2.87753C22.7537 2.39489 22.3588 2 21.8762 2H18.366C17.8834 2 17.4885 2.39489 17.4885 2.87753C17.4885 3.36018 17.8834 3.75507 18.366 3.75507Z" fill="#D023BE"/>
<path d="M29.1071 6.86151V10.3717C29.1071 10.8543 29.5019 11.2492 29.9846 11.2492C30.4672 11.2492 30.8621 10.8543 30.8621 10.3717V6.86151C30.8621 6.37887 30.4672 5.98398 29.9846 5.98398C29.5019 5.98398 29.1071 6.37887 29.1071 6.86151Z" fill="#D023BE"/>
<path d="M25.3863 3.75507H26.3428C26.9922 3.75507 27.6328 3.98323 28.1242 4.40444C28.2909 4.54485 28.4928 4.61505 28.6858 4.61505C28.9403 4.61505 29.186 4.50975 29.3527 4.30792C29.6687 3.93935 29.616 3.3865 29.2474 3.07059C28.4489 2.37734 27.4134 2 26.3428 2H25.3863C24.9036 2 24.5088 2.39489 24.5088 2.87753C24.5088 3.36018 24.9036 3.75507 25.3863 3.75507Z" fill="#D023BE"/>
<path d="M5.77341 29.0105C4.90465 28.7648 4.20262 28.1066 3.91304 27.2554C3.75508 26.7991 3.25489 26.5534 2.79857 26.7114C2.34225 26.8693 2.09654 27.3695 2.2545 27.8258C2.73714 29.2211 3.87793 30.3005 5.30832 30.6954C5.38729 30.7217 5.46627 30.7305 5.54525 30.7305C5.93137 30.7305 6.28238 30.476 6.38768 30.0899C6.51931 29.6248 6.24728 29.1421 5.78218 29.0105H5.77341Z" fill="#D023BE"/>
<path d="M15.7334 2.87753C15.7334 2.39489 15.3385 2 14.8559 2H11.3457C10.8631 2 10.4682 2.39489 10.4682 2.87753C10.4682 3.36018 10.8631 3.75507 11.3457 3.75507H14.8559C15.3385 3.75507 15.7334 3.36018 15.7334 2.87753Z" fill="#D023BE"/>
<path d="M12.5392 29.1071H9.02906C8.54642 29.1071 8.15153 29.5019 8.15153 29.9846C8.15153 30.4672 8.54642 30.8621 9.02906 30.8621H12.5392C13.0218 30.8621 13.4167 30.4672 13.4167 29.9846C13.4167 29.5019 13.0218 29.1071 12.5392 29.1071Z" fill="#D023BE"/>
<path d="M8.71314 2.87753C8.71314 2.39489 8.31825 2 7.83561 2H6.51931C5.5979 2 4.71159 2.27204 3.95691 2.79856C3.55324 3.07059 3.45671 3.62344 3.72875 4.01833C3.89548 4.26404 4.17629 4.39567 4.4571 4.39567C4.63261 4.39567 4.79934 4.34302 4.9573 4.23771C5.42239 3.9218 5.95769 3.75507 6.51931 3.75507H7.83561C8.31825 3.75507 8.71314 3.36018 8.71314 2.87753Z" fill="#D023BE"/>
<path d="M42.9282 18.1291H31.4588L30.8534 17.4534C30.8534 17.4534 30.8709 17.4095 30.8709 17.3919V13.8818C30.8709 13.3992 30.476 13.0043 29.9934 13.0043C29.5107 13.0043 29.1158 13.3992 29.1158 13.8818V15.5579L29.072 15.514C27.9399 14.2942 26.3691 14.5575 25.4126 15.4614C25.0967 15.751 24.851 16.1107 24.6931 16.5056C24.4737 16.4354 24.2367 16.4003 23.991 16.3916C23.2802 16.3477 22.5957 16.6197 22.078 17.1024L21.999 17.1726C21.6305 17.5148 21.376 17.936 21.2443 18.4011C20.3668 18.1993 19.4103 18.4187 18.7083 19.0768C18.1467 19.6033 17.8483 20.3141 17.822 21.0249C17.6816 21.0249 17.5499 21.0337 17.4095 21.06C16.453 21.2092 15.6545 21.8147 15.2245 22.7186C14.7418 23.7365 14.97 25.0177 15.8124 25.9216L18.4362 28.7385C18.3222 28.8525 18.2081 28.9842 18.1028 29.1158H16.0581C15.5755 29.1158 15.1806 29.5107 15.1806 29.9933C15.1806 30.476 15.5755 30.8709 16.0581 30.8709H17.1901C16.9971 31.6431 17.0322 32.4855 17.4709 33.2929C17.5499 33.442 17.6991 33.6702 18.445 34.4337C18.5328 34.5214 18.6293 34.6004 18.717 34.6881C18.6381 34.8198 18.5854 34.9602 18.5854 35.1181V42.4807C18.5854 44.9729 20.6125 47 23.1047 47H42.9282C45.4204 47 47.4475 44.9729 47.4475 42.4807V22.6484C47.4475 20.1562 45.4204 18.1291 42.9282 18.1291ZM16.8128 23.4645C17.0497 22.9555 17.4622 22.8239 17.6816 22.7888C18.0501 22.7274 18.4187 22.859 18.6644 23.1222C18.9979 23.482 19.5507 23.4996 19.9017 23.1749C20.2527 22.8414 20.2703 22.2886 19.9456 21.9376H19.9368L19.8491 21.8323C19.4542 21.4111 19.4805 20.7529 19.9017 20.358C20.3229 19.9631 20.9811 19.9894 21.3672 20.4107L21.8498 20.9284C22.1833 21.2882 22.7362 21.3057 23.0872 20.9723C23.4382 20.6388 23.4645 20.086 23.131 19.735C22.9643 19.5595 22.8766 19.3225 22.8853 19.0768C22.8853 18.8311 22.9994 18.6117 23.1749 18.445L23.2539 18.3748C23.4294 18.2081 23.6927 18.1291 23.9033 18.1291C24.149 18.1291 24.3771 18.2432 24.5351 18.4187L25.1757 19.1119C25.5092 19.4717 26.062 19.4893 26.413 19.1558C26.764 18.8223 26.7904 18.2695 26.4569 17.9185C25.9479 17.3744 26.4569 16.8391 26.571 16.7426C26.7553 16.5671 26.9834 16.4618 27.194 16.453C27.3959 16.453 27.5889 16.5232 27.7557 16.7075L32.117 21.5339C35.2059 25.0002 35.0216 30.2566 31.687 33.5035L31.6256 33.5649C28.2471 36.7065 22.8853 36.5485 19.6736 33.2139C19.1032 32.6172 18.9803 32.4504 18.9803 32.4504C18.524 31.608 19.0242 30.6252 19.6034 30.0284L21.1917 31.7396C21.3672 31.9239 21.5954 32.0204 21.8323 32.0204C22.0429 32.0204 22.2623 31.9415 22.429 31.7835C22.78 31.45 22.8064 30.8972 22.4729 30.5462L18.5591 26.3516L17.0322 24.7106C16.6899 24.342 16.5846 23.8418 16.7601 23.4733L16.8128 23.4645ZM45.6925 42.4807C45.6925 44.0076 44.4551 45.2449 42.9282 45.2449H23.0959C21.569 45.2449 20.3317 44.0076 20.3317 42.4807V35.9693C22.0078 37.0312 23.9384 37.5752 25.869 37.5752C28.3787 37.5752 30.8797 36.6714 32.8366 34.8549L32.9419 34.7584C36.9434 30.8621 37.1628 24.5351 33.4509 20.3668L33.0209 19.8841H42.9282C44.4551 19.8841 45.6925 21.1215 45.6925 22.6484V42.4719V42.4807Z" fill="#D023BE"/>
<path d="M2.87753 17.9096C3.36018 17.9096 3.75507 17.5147 3.75507 17.0321V13.5219C3.75507 13.0393 3.36018 12.6444 2.87753 12.6444C2.39489 12.6444 2 13.0393 2 13.5219V17.0321C2 17.5147 2.39489 17.9096 2.87753 17.9096Z" fill="#D023BE"/>
<path d="M2.87753 10.8895C3.36018 10.8895 3.75507 10.4946 3.75507 10.012V6.53694C3.75507 6.53694 3.75507 6.51061 3.75507 6.50184C3.75507 6.01919 3.36018 5.5892 2.87753 5.5892C2.39489 5.5892 2 5.94022 2 6.42286C2 6.45796 2 6.48429 2 6.51939V10.012C2 10.4946 2.39489 10.8895 2.87753 10.8895Z" fill="#D023BE"/>
<path d="M2.87753 24.9299C3.36018 24.9299 3.75507 24.535 3.75507 24.0523V20.5422C3.75507 20.0596 3.36018 19.6647 2.87753 19.6647C2.39489 19.6647 2 20.0596 2 20.5422V24.0523C2 24.535 2.39489 24.9299 2.87753 24.9299Z" fill="#D023BE"/>
<path d="M29.1069 6.86157V10.3717C29.1069 10.8544 29.5018 11.2492 29.9845 11.2492C30.4671 11.2492 30.862 10.8544 30.862 10.3717V6.86157C30.862 6.37893 30.4671 5.98404 29.9845 5.98404C29.5018 5.98404 29.1069 6.37893 29.1069 6.86157Z" fill="#D023BE"/>
<path d="M5.77336 29.0106C4.9046 28.7649 4.20257 28.1067 3.91298 27.2555C3.75503 26.7992 3.25483 26.5535 2.79851 26.7114C2.3422 26.8694 2.09649 27.3696 2.25444 27.8259C2.73709 29.2212 3.87788 30.3005 5.30826 30.6954C5.38724 30.7218 5.46622 30.7305 5.5452 30.7305C5.93131 30.7305 6.28233 30.476 6.38763 30.0899C6.51926 29.6248 6.24722 29.1422 5.78213 29.0106H5.77336Z" fill="#D023BE"/>
<path d="M12.5392 29.1069H9.02906C8.54642 29.1069 8.15153 29.5018 8.15153 29.9845C8.15153 30.4671 8.54642 30.862 9.02906 30.862H12.5392C13.0218 30.862 13.4167 30.4671 13.4167 29.9845C13.4167 29.5018 13.0218 29.1069 12.5392 29.1069Z" fill="#D023BE"/>
<path d="M42.9282 18.1291H31.4588L30.8533 17.4534C30.8533 17.4534 30.8708 17.4095 30.8708 17.392V13.8818C30.8708 13.3992 30.476 13.0043 29.9933 13.0043C29.5107 13.0043 29.1158 13.3992 29.1158 13.8818V15.5579L29.0719 15.5141C27.9399 14.2943 26.3691 14.5575 25.4126 15.4614C25.0967 15.751 24.851 16.1108 24.693 16.5057C24.4736 16.4355 24.2367 16.4004 23.991 16.3916C23.2802 16.3477 22.5957 16.6197 22.078 17.1024L21.999 17.1726C21.6304 17.5148 21.3759 17.936 21.2443 18.4011C20.3668 18.1993 19.4102 18.4187 18.7082 19.0768C18.1466 19.6034 17.8482 20.3142 17.8219 21.025C17.6815 21.025 17.5499 21.0337 17.4095 21.0601C16.453 21.2092 15.6544 21.8147 15.2244 22.7186C14.7418 23.7365 14.9699 25.0177 15.8124 25.9216L18.4362 28.7385C18.3221 28.8526 18.208 28.9842 18.1027 29.1158H16.0581C15.5754 29.1158 15.1805 29.5107 15.1805 29.9934C15.1805 30.476 15.5754 30.8709 16.0581 30.8709H17.1901C16.997 31.6431 17.0321 32.4856 17.4709 33.2929C17.5499 33.4421 17.6991 33.6702 18.445 34.4337C18.5327 34.5214 18.6292 34.6004 18.717 34.6882C18.638 34.8198 18.5854 34.9602 18.5854 35.1182V42.4807C18.5854 44.9729 20.6125 47 23.1047 47H42.9282C45.4204 47 47.4475 44.9729 47.4475 42.4807V22.6484C47.4475 20.1562 45.4204 18.1291 42.9282 18.1291ZM16.8127 23.4645C17.0497 22.9555 17.4621 22.8239 17.6815 22.7888C18.0501 22.7274 18.4186 22.859 18.6643 23.1223C18.9978 23.4821 19.5507 23.4996 19.9017 23.1749C20.2527 22.8415 20.2702 22.2886 19.9455 21.9376H19.9368L19.849 21.8323C19.4541 21.4111 19.4804 20.7529 19.9017 20.358C20.3229 19.9632 20.981 19.9895 21.3671 20.4107L21.8498 20.9284C22.1833 21.2882 22.7361 21.3058 23.0871 20.9723C23.4381 20.6389 23.4645 20.086 23.131 19.735C22.9643 19.5595 22.8765 19.3226 22.8853 19.0768C22.8853 18.8311 22.9994 18.6117 23.1749 18.445L23.2538 18.3748C23.4294 18.2081 23.6926 18.1291 23.9032 18.1291C24.1489 18.1291 24.3771 18.2432 24.535 18.4187L25.1756 19.1119C25.5091 19.4717 26.062 19.4893 26.413 19.1558C26.764 18.8224 26.7903 18.2695 26.4568 17.9185C25.9479 17.3744 26.4568 16.8391 26.5709 16.7426C26.7552 16.5671 26.9834 16.4618 27.194 16.453C27.3958 16.453 27.5889 16.5232 27.7556 16.7075L32.1169 21.5339C35.2059 25.0002 35.0216 30.2566 31.687 33.5035L31.6255 33.5649C28.247 36.7065 22.8853 36.5486 19.6735 33.2139C19.1031 32.6172 18.9803 32.4505 18.9803 32.4505C18.5239 31.608 19.0241 30.6252 19.6033 30.0285L21.1916 31.7397C21.3671 31.9239 21.5953 32.0205 21.8322 32.0205C22.0429 32.0205 22.2622 31.9415 22.429 31.7835C22.78 31.4501 22.8063 30.8972 22.4728 30.5462L18.559 26.3516L17.0321 24.7106C16.6899 24.342 16.5846 23.8419 16.7601 23.4733L16.8127 23.4645ZM45.6924 42.4807C45.6924 44.0076 44.4551 45.2449 42.9282 45.2449H23.0959C21.569 45.2449 20.3317 44.0076 20.3317 42.4807V35.9694C22.0077 37.0312 23.9383 37.5753 25.8689 37.5753C28.3786 37.5753 30.8796 36.6714 32.8365 34.8549L32.9418 34.7584C36.9434 30.8621 37.1628 24.5351 33.4508 20.3668L33.0208 19.8842H42.9282C44.4551 19.8842 45.6924 21.1215 45.6924 22.6484V42.4719V42.4807Z" fill="#D023BE"/>
</svg>
