<svg width="50" height="50" viewBox="0 0 50 50" fill="none" xmlns="http://www.w3.org/2000/svg">
<path d="M24.55 36.85C31.1885 36.85 36.57 31.4685 36.57 24.83C36.57 18.1915 31.1885 12.81 24.55 12.81C17.9115 12.81 12.53 18.1915 12.53 24.83C12.53 31.4685 17.9115 36.85 24.55 36.85Z" stroke="#D023BE" stroke-width="2" stroke-linecap="round" stroke-linejoin="round"/>
<path d="M15.21 24.83H4" stroke="#D023BE" stroke-width="2" stroke-linecap="round" stroke-linejoin="round"/>
<path d="M45.1 24.83H33.89" stroke="#D023BE" stroke-width="2" stroke-linecap="round" stroke-linejoin="round"/>
<path d="M24.55 4V15.11" stroke="#D023BE" stroke-width="2" stroke-linecap="round" stroke-linejoin="round"/>
<path d="M24.55 34.54V45.65" stroke="#D023BE" stroke-width="2" stroke-linecap="round" stroke-linejoin="round"/>
<path d="M24.55 42.71C34.4248 42.71 42.43 34.7049 42.43 24.83C42.43 14.9552 34.4248 6.95001 24.55 6.95001C14.6751 6.95001 6.67 14.9552 6.67 24.83C6.67 34.7049 14.6751 42.71 24.55 42.71Z" stroke="#D023BE" stroke-width="2" stroke-linecap="round" stroke-linejoin="round"/>
<path d="M24.2839 27.1347H23.2004V29H21.3413V27.1347H17.5V25.8112L21.446 20H23.2004V25.6573H24.2839V27.1347ZM21.3413 25.6573V24.1306C21.3413 23.987 21.3434 23.8167 21.3475 23.6197C21.3557 23.4227 21.3639 23.2257 21.3721 23.0287C21.3803 22.8317 21.3885 22.6573 21.3967 22.5055C21.409 22.3495 21.4172 22.2408 21.4213 22.1792H21.3721C21.2941 22.3475 21.212 22.5116 21.1259 22.6717C21.0397 22.8276 20.9391 22.9918 20.8242 23.1642L19.1744 25.6573H21.3413Z" fill="#D023BE"/>
<path d="M31.4986 27.1347H30.4152V29H28.5561V27.1347H24.7148V25.8112L28.6607 20H30.4152V25.6573H31.4986V27.1347ZM28.5561 25.6573V24.1306C28.5561 23.987 28.5581 23.8167 28.5622 23.6197C28.5705 23.4227 28.5787 23.2257 28.5869 23.0287C28.5951 22.8317 28.6033 22.6573 28.6115 22.5055C28.6238 22.3495 28.632 22.2408 28.6361 22.1792H28.5869C28.5089 22.3475 28.4268 22.5116 28.3406 22.6717C28.2544 22.8276 28.1539 22.9918 28.039 23.1642L26.3892 25.6573H28.5561Z" fill="#D023BE"/>
</svg>
