<svg width="50" height="50" viewBox="0 0 50 50" fill="none" xmlns="http://www.w3.org/2000/svg">
<g clip-path="url(#clip0_1590_46)">
<path d="M34.1719 39.9968V9.97067C34.1719 8.8643 33.275 7.96741 32.1687 7.96741L17.0033 7.96741C15.8969 7.96741 15 8.8643 15 9.97067L15 39.9968C15 41.1031 15.8969 42 17.0033 42H32.1687C33.275 42 34.1719 41.1031 34.1719 39.9968Z" stroke="#D023BE" stroke-width="2" stroke-linecap="round" stroke-linejoin="round"/>
<path d="M24.5212 39.6084C25.3626 39.6084 26.0446 38.9263 26.0446 38.085C26.0446 37.2436 25.3626 36.5616 24.5212 36.5616C23.6799 36.5616 22.9978 37.2436 22.9978 38.085C22.9978 38.9263 23.6799 39.6084 24.5212 39.6084Z" fill="#D023BE"/>
<path d="M19.7073 0V16.7573" stroke="#D023BE" stroke-width="2" stroke-linecap="round" stroke-linejoin="round"/>
<path d="M17.4603 13.7943L19.7835 17.5723L21.9543 13.8095" stroke="#D023BE" stroke-width="2" stroke-linecap="round" stroke-linejoin="round"/>
<path d="M29.4799 0V16.7573" stroke="#D023BE" stroke-width="2" stroke-linecap="round" stroke-linejoin="round"/>
<path d="M27.2329 13.7943L29.556 17.5723L31.7269 13.8095" stroke="#D023BE" stroke-width="2" stroke-linecap="round" stroke-linejoin="round"/>
<path d="M24.5898 6.32205V23.0794" stroke="#D023BE" stroke-width="2" stroke-linecap="round" stroke-linejoin="round"/>
<path d="M22.3428 20.1164L24.6659 23.8944L26.8368 20.1316" stroke="#D023BE" stroke-width="2" stroke-linecap="round" stroke-linejoin="round"/>
</g>
<defs>
<clipPath id="clip0_1590_46">
<rect width="50" height="50" fill="white"/>
</clipPath>
</defs>
</svg>
