<svg width="50" height="50" viewBox="0 0 50 50" fill="none" xmlns="http://www.w3.org/2000/svg">
<path d="M24 3.09998C20 3.09998 16.8 6.29998 16.8 10.3C16.8 13.3 18.6 15.8 21.2 16.9V14.6C19.8 13.7 18.8 12.1 18.8 10.2C18.8 7.29998 21.1 4.99998 24 4.99998C26.9 4.99998 29.2 7.29998 29.2 10.2C29.2 11.9 28.4 13.4 27.1 14.4V16.7C29.5 15.5 31.2 13.1 31.2 10.2C31.3 6.29998 28 3.09998 24 3.09998Z" fill="#D023BE"/>
<path fill-rule="evenodd" clip-rule="evenodd" d="M34.9 22.9V21.8C34.9 20.7 34 19.8 32.9 19.8H32.8C31.7 19.8 30.8 20.7 30.8 21.8V21C30.8 19.8 29.8 18.8 28.6 18.8C27.4 18.8 26.4 19.8 26.4 21V10.2C26.4 8.89996 25.4 7.89996 24.1 7.89996C22.8 7.89996 21.8 8.89996 21.8 10.2V21.3V23.8C21.5 22.4 20.7 21.3 18.4 21.3C17.8 21.3 17.3 21.8 17.3 22.4V35.9C17.3 38.5 19.3 40.8 21.9 41.1V45.7H36.4V40.6C36.4 38.2 39 38.3 39 34.7V25V22.9C38.9 20.4 34.9 20.4 34.9 22.9Z" stroke="#D023BE" stroke-width="2" stroke-linecap="round" stroke-linejoin="round"/>
<path d="M21.8 23.8V30.3" stroke="#D023BE" stroke-width="2" stroke-linecap="round" stroke-linejoin="round"/>
<path d="M31.7 47.7L11.1 2.29999" stroke="#D023BE" stroke-width="2" stroke-linecap="round" stroke-linejoin="round"/>
</svg>
