<svg width="50" height="50" viewBox="0 0 50 50" fill="none" xmlns="http://www.w3.org/2000/svg">
<path d="M24.55 36.85C31.1885 36.85 36.57 31.4685 36.57 24.83C36.57 18.1915 31.1885 12.81 24.55 12.81C17.9115 12.81 12.53 18.1915 12.53 24.83C12.53 31.4685 17.9115 36.85 24.55 36.85Z" stroke="#D023BE" stroke-width="2" stroke-linecap="round" stroke-linejoin="round"/>
<path d="M15.21 24.83H4" stroke="#D023BE" stroke-width="2" stroke-linecap="round" stroke-linejoin="round"/>
<path d="M45.1 24.83H33.89" stroke="#D023BE" stroke-width="2" stroke-linecap="round" stroke-linejoin="round"/>
<path d="M24.55 4V15.11" stroke="#D023BE" stroke-width="2" stroke-linecap="round" stroke-linejoin="round"/>
<path d="M24.55 34.54V45.65" stroke="#D023BE" stroke-width="2" stroke-linecap="round" stroke-linejoin="round"/>
<path d="M24.55 42.71C34.4249 42.71 42.43 34.7049 42.43 24.83C42.43 14.9552 34.4249 6.95001 24.55 6.95001C14.6751 6.95001 6.67 14.9552 6.67 24.83C6.67 34.7049 14.6751 42.71 24.55 42.71Z" stroke="#D023BE" stroke-width="2" stroke-linecap="round" stroke-linejoin="round"/>
<path d="M24.2266 29H18.0243V27.6952L20.2515 25.4437C20.7006 24.9825 21.0607 24.5981 21.3318 24.2906C21.6069 23.9791 21.8051 23.6959 21.9265 23.441C22.0519 23.1861 22.1146 22.913 22.1146 22.6217C22.1146 22.2697 22.0155 22.0067 21.8173 21.8328C21.6231 21.6548 21.3621 21.5657 21.0344 21.5657C20.6905 21.5657 20.3567 21.6446 20.033 21.8024C19.7094 21.9602 19.3715 22.1848 19.0196 22.4761L18 21.2684C18.2549 21.0499 18.5239 20.8436 18.8071 20.6494C19.0944 20.4552 19.4262 20.2994 19.8024 20.1821C20.1827 20.0607 20.6379 20 21.1679 20C21.7505 20 22.2502 20.1052 22.6669 20.3156C23.0877 20.526 23.4113 20.8132 23.6379 21.1773C23.8645 21.5374 23.9777 21.9461 23.9777 22.4032C23.9777 22.8928 23.8806 23.3399 23.6864 23.7444C23.4922 24.149 23.209 24.5496 22.8368 24.9461C22.4686 25.3425 22.0236 25.7815 21.5017 26.263L20.3608 27.3372V27.4221H24.2266V29Z" fill="#D023BE"/>
<path d="M31.5394 27.1612H30.4713V29H28.6386V27.1612H24.8517V25.8564L28.7417 20.1274H30.4713V25.7047H31.5394V27.1612ZM28.6386 25.7047V24.1996C28.6386 24.058 28.6406 23.8901 28.6446 23.6959C28.6527 23.5017 28.6608 23.3075 28.6689 23.1133C28.677 22.9191 28.6851 22.7471 28.6932 22.5974C28.7053 22.4437 28.7134 22.3365 28.7175 22.2758H28.6689C28.592 22.4417 28.5111 22.6035 28.4262 22.7613C28.3412 22.915 28.2421 23.0769 28.1288 23.2468L26.5024 25.7047H28.6386Z" fill="#D023BE"/>
</svg>
