<svg width="50" height="50" viewBox="0 0 50 50" fill="none" xmlns="http://www.w3.org/2000/svg">
<path fill-rule="evenodd" clip-rule="evenodd" d="M32.1 23.6V22.5C32.1 21.4 31.2 20.5 30.1 20.5H30C28.9 20.5 28 21.4 28 22.5V21.7C28 20.5 27 19.5 25.8 19.5C24.6 19.5 23.6 20.5 23.6 21.7V10.8C23.6 9.5 22.6 8.5 21.3 8.5C20 8.5 19 9.5 19 10.8V21.9V24.4C18.7 23 17.9 21.9 15.5 21.9C14.9 21.9 14.4 22.4 14.4 23V36.5C14.4 39.1 16.4 41.4 19 41.7V46.3H33.5V41.2C33.5 38.8 36.1 38.9 36.1 35.3V25.8V23.7C36.1 21 32.1 21 32.1 23.6Z" stroke="#D023BE" stroke-width="2" stroke-linecap="round" stroke-linejoin="round"/>
<path d="M18.9 16.4V31" stroke="#D023BE" stroke-width="2" stroke-linecap="round" stroke-linejoin="round"/>
<path d="M21.2 3.79999C17.2 3.79999 14 6.99999 14 11C14 13.8 15.6 16.3 18 17.5H18.8V15.1H18C16.8 14.1 16 12.7 16 11C16 8.09999 18.3 5.79999 21.2 5.79999C24.1 5.79999 26.4 8.09999 26.4 11C26.4 12.7 25.6 14.1 24.4 15.1V17.5C26.7 16.3 28.4 13.9 28.4 11.1C28.4 6.99999 25.2 3.79999 21.2 3.79999Z" fill="#D023BE"/>
</svg>
