<svg width="100" height="100" viewBox="0 0 100 100" fill="none" xmlns="http://www.w3.org/2000/svg">
<path d="M84 92.0455L82.6364 82.0455L82.4091 80C82.1818 77.7273 82.8636 76.3636 83.7727 74.7727C84.9091 72.7273 86.5 70.2273 86.0455 65.4546L81.9546 18.8636C81.7273 16.8182 80.8182 15 79.2273 13.8636C77.6364 12.7273 75.8182 12.2727 74 12.5C73.7727 12.5 73.3182 12.7273 73.0909 12.7273L72.8636 10.6818C72.6364 6.59091 69 3.63636 64.9091 4.09091C64 4.09091 63.3182 4.31818 62.4091 4.77273C61.0455 2.04545 58.3182 0.454543 55.1364 0.681816C53.0909 0.909088 51.2727 1.81818 50.1364 3.18182C49.4546 3.86363 49 4.77273 48.7727 5.90909C47.6364 5.45454 46.5 5.22727 45.3636 5.45454C43.3182 5.68182 41.5 6.59091 40.1364 7.95454C38.7727 9.31818 38.3182 11.3636 38.3182 13.1818C39.2273 26.8182 41.7273 51.8182 41.7273 52.0455C41.9546 53.8636 40.5909 55 39.4546 55.4545C38.0909 55.9091 36.2727 55.4545 34.9091 53.4091L29.6818 44.3182C28.5455 42.0455 26.5 40.4545 24 40C21.5 39.3182 19 39.5455 16.7273 40.9091C14.4546 42.2727 13.5455 45 14.9091 47.2727L26.5 68.8636C30.3636 75.9091 34.4546 84.0909 44 85.2273L45.8182 97.7273C46.0455 98.8636 46.9546 99.5455 48.0909 99.5455H48.3182L82.1818 94.7727C83.3182 94.5455 84.2273 93.4091 84 92.0455ZM79.9091 72.7273C78.7727 74.5455 77.6364 76.8182 77.8636 80.6818L78.5455 86.1364L49.4546 90.2273C49.4546 90.2273 48.5455 83.4091 48.3182 83.1818C47.8636 82.0455 46.7273 81.1364 45.3636 80.9091C37.6364 80.2273 34.2273 73.6364 30.5909 66.8182L19 45.2273C19 45 19 45 19 45C19.6818 44.5455 20.5909 44.3182 21.5 44.3182C24 44.3182 25.1364 45.6818 25.8182 46.8182L31.0455 55.9091C33.5455 60.2273 37.6364 61.1364 40.8182 60.2273C44.4546 59.0909 46.5 55.9091 46.2727 52.0455C46.2727 51.8182 43.7727 26.8182 42.8636 13.1818C42.8636 12.5 43.0909 11.5909 43.5455 11.1364C44 10.4545 44.6818 10.2273 45.5909 10.2273C46.9546 10.2273 48.3182 11.1364 48.5455 12.5L51.5 43.1818C51.5 44.3182 52.6364 45.2273 53.7727 45.2273H54C55.1364 45.2273 56.2727 44.0909 56.0455 42.7273L52.8636 8.18182C52.8636 7.5 53.0909 6.59091 53.5455 6.13636C54 5.45454 54.6818 5.22727 55.5909 5.22727C57.1818 5.22727 58.5455 6.36363 58.5455 7.95454L61.5 42.0455C61.5 43.1818 62.6364 44.0909 63.7727 44.0909H64C65.1364 44.0909 66.2727 42.9545 66.0455 41.5909L63.0909 9.77273C63.5455 9.31818 64.2273 8.86363 64.9091 8.86363C66.5 8.63636 67.8636 9.77273 67.8636 11.3636L70.8182 41.3636C70.8182 42.5 71.9546 43.4091 73.0909 43.4091H73.3182C74.4546 43.4091 75.5909 42.2727 75.3636 40.9091L73.3182 17.7273C73.7727 17.2727 74.2273 17.0455 74.4546 17.0455C75.1364 17.0455 75.8182 17.0455 76.2727 17.5C76.9546 17.9545 77.1818 18.6364 77.4091 19.3182L81.5 65.9091C81.7273 69.3182 81.0455 70.9091 79.9091 72.7273Z" fill="#D023BE"/>
</svg>
