<svg width="50" height="50" viewBox="0 0 50 50" fill="none" xmlns="http://www.w3.org/2000/svg">
<path d="M44.1 28.9C44.1 28.7 44.2 28.5 44.2 28.3C44.3 27.9 44.3 27.4 44.4 26.9C44.4 26.8 44.4 26.6 44.4 26.5C44.4 26 44.5 25.4 44.5 24.9C44.5 24.3 44.5 23.7 44.4 23.1C44.3 22.3 44.2 21.5 44 20.8C43.9 20.1 43.7 19.5 43.4 18.8C42.6 16.5 41.5 14.5 40 12.7C39.8 12.5 39.3 11.8 39.2 11.8C36.1 8.5 32 6.2 27.3 5.6C26.8 5.5 26.4 5.5 25.9 5.5C25.5 5.5 25.2 5.5 24.8 5.5C24.4 5.5 24.1 5.5 23.7 5.5C23.2 5.5 22.8 5.6 22.3 5.6C17.6 6.2 13.4 8.5 10.4 11.8L10.2 12C9.99999 12.2 9.79999 12.4 9.69999 12.7C9.19999 13.4 8.59999 14.1 8.19999 14.8C8.09999 15 7.99999 15.1 7.89999 15.3C7.29999 16.4 6.69999 17.6 6.29999 18.8C5.79999 20.2 5.49999 21.6 5.39999 23.1C5.29999 23.7 5.29999 24.3 5.29999 24.9C5.29999 25.4 5.29999 26 5.39999 26.5C5.39999 26.6 5.39999 26.8 5.39999 26.9C5.39999 27.4 5.49999 27.8 5.59999 28.3C5.59999 28.5 5.69999 28.7 5.69999 28.9C5.69999 29 5.69999 29.1 5.69999 29.1C6.39999 32.4 7.99999 35.4 10.2 37.9L10.4 38.1C13.7 41.7 18.3 44.1 23.5 44.4C23.5 44.4 23.5 44.4 23.6 44.4C24 44.4 24.4 44.4 24.8 44.4C25.2 44.4 25.6 44.4 26 44.4C26 44.4 26 44.4 26.1 44.4C31.3 44.1 35.9 41.7 39.2 38.1L39.4 37.9C41.6 35.4 43.2 32.4 43.9 29.1C44.1 29.1 44.1 29 44.1 28.9ZM24 7.6V16.2C23.4 16.2 22.9 16.1 22.3 16.1C20.7 15.9 19.1 15.6 17.6 15.1C18.9 11.6 20.8 9 23 8C23.4 7.8 23.7 7.7 24 7.6ZM23.1 42.1C23 42.1 22.9 42 22.9 42C22.7 41.9 22.5 41.8 22.3 41.6C22.2 41.6 22.2 41.5 22.1 41.5C20.3 40.3 18.8 37.9 17.7 35C19.1 34.5 20.7 34.2 22.3 34H22.4C22.9 33.9 23.5 33.9 24.1 33.9V42.5C23.7 42.3 23.4 42.2 23.1 42.1ZM22 32C21.9 32 21.8 32 21.7 32C21.1 32.1 20.6 32.2 20 32.3C19 32.5 18 32.7 17.1 33C16.7 31.5 16.4 29.9 16.2 28.2C16.2 28 16.2 27.9 16.2 27.7C16.2 27.1 16.1 26.6 16.1 26H24.1V31.9C23.3 31.9 22.7 31.9 22 32ZM12.7 12.5C13 12.2 13.3 12 13.5 11.8C15.2 10.4 17 9.3 19 8.6C17.7 10.1 16.6 12 15.8 14.3C14.6 13.8 13.6 13.2 12.7 12.5ZM16 24C16.1 21.5 16.4 19.1 17 16.9C19.1 17.6 21.5 18 24 18.1V24H16ZM11.4 14C12.5 14.9 13.7 15.6 15.1 16.2C14.4 18.6 14.1 21.2 14 24H7.49999C7.69999 20.2 9.09999 16.8 11.4 14ZM7.49999 26H14C14 26.7 14.1 27.4 14.1 28.1C14.3 30.1 14.6 32 15.1 33.8C13.7 34.4 12.5 35.2 11.4 36C9.09999 33.3 7.69999 29.8 7.49999 26ZM12.7 37.5C13.6 36.8 14.6 36.2 15.7 35.7C16.5 38 17.6 39.9 18.9 41.4C16.6 40.6 14.5 39.2 12.7 37.5ZM42.5 24H36C35.9 21.2 35.5 18.6 34.9 16.2C36.3 15.6 37.5 14.8 38.6 14C40.9 16.8 42.3 20.2 42.5 24ZM31 8.6C33 9.3 34.8 10.4 36.4 11.8C36.7 12 37 12.3 37.2 12.5C36.3 13.2 35.3 13.8 34.2 14.3C33.4 12 32.3 10 31 8.6ZM26 7.6C26.3 7.7 26.6 7.8 27 7.9C29.2 8.9 31.1 11.5 32.4 15C30.9 15.5 29.3 15.8 27.7 16C27.2 16.1 26.6 16.1 26 16.1V7.6ZM26 18.1C28.5 18 30.8 17.6 33 16.9C33.6 19 33.9 21.4 34 24H26V18.1ZM26 26H34C34 26.6 33.9 27.2 33.9 27.7C33.9 27.9 33.9 28 33.9 28.2C33.7 29.9 33.4 31.5 33 33.1C32.1 32.8 31.1 32.6 30.1 32.4C29.5 32.3 29 32.2 28.4 32.1C28.3 32.1 28.2 32.1 28.1 32.1C27.4 32 26.8 32 26.1 32V26H26ZM26 33.9C26.6 33.9 27.1 34 27.7 34H27.8C29.4 34.2 30.9 34.5 32.4 35C31.3 38 29.8 40.3 28 41.5C27.9 41.5 27.9 41.6 27.8 41.6C27.6 41.7 27.4 41.9 27.2 42C27.1 42 27 42.1 27 42.1C26.7 42.2 26.4 42.3 26.1 42.4V33.9H26ZM31 41.4C32.3 39.9 33.4 38 34.2 35.7C35.3 36.2 36.3 36.8 37.2 37.5C35.5 39.2 33.4 40.6 31 41.4ZM38.6 36C37.5 35.1 36.3 34.4 34.9 33.8C35.4 32.1 35.7 30.2 35.9 28.1C36 27.4 36 26.7 36 26H42.5C42.3 29.8 40.9 33.3 38.6 36Z" fill="#D023BE"/>
</svg>
