<svg width="50" height="50" viewBox="0 0 50 50" fill="none" xmlns="http://www.w3.org/2000/svg">
<path d="M11.7507 35.1479C11.1454 34.8059 10.6642 34.3409 10.307 33.753C9.94991 33.1651 9.77135 32.5057 9.77135 31.7748V22.9172C9.77135 22.7354 9.67272 22.568 9.51376 22.4798L6.01238 20.5389C5.67039 20.3331 5.41617 20.0906 5.2497 19.8114C5.08323 19.5322 5 19.222 5 18.8807C5 18.5395 5.08323 18.2297 5.2497 17.9512C5.41617 17.6728 5.67039 17.4306 6.01238 17.2248L22.113 8.44292C22.3988 8.28385 22.6939 8.17027 22.9983 8.10216C23.3027 8.03405 23.615 8 23.9354 8C24.2558 8 24.5682 8.03405 24.8726 8.10216C25.1769 8.17027 25.4726 8.2835 25.7597 8.44186L43.9876 18.3234C44.3205 18.5202 44.5725 18.7671 44.7435 19.0642C44.9145 19.3613 45 19.6819 45 20.0259V32.7736C45 33.108 44.8867 33.3883 44.6602 33.6146C44.4336 33.8408 44.1529 33.9539 43.818 33.9539C43.4831 33.9539 43.203 33.8408 42.9775 33.6146C42.752 33.3883 42.6393 33.108 42.6393 32.7736V21.0398C42.6393 20.6626 42.2375 20.4212 41.9044 20.5984L38.3647 22.4816C38.2015 22.5684 38.0995 22.7382 38.0995 22.923V31.7748C38.0995 32.5057 37.9209 33.1651 37.5638 33.753C37.2067 34.3409 36.7255 34.8059 36.1202 35.1479L25.7695 40.7499C25.4759 40.9164 25.1769 41.0337 24.8726 41.1018C24.5682 41.1699 24.2558 41.2039 23.9354 41.2039C23.615 41.2039 23.3027 41.1699 22.9983 41.1018C22.6939 41.0337 22.3949 40.9164 22.1014 40.7499L11.7507 35.1479ZM23.3906 27.344C23.6025 27.4651 23.7917 27.5256 23.9581 27.5256C24.1246 27.5256 24.3137 27.4651 24.5256 27.344L39.2524 19.3221C39.6006 19.1324 39.6001 18.6323 39.2514 18.4434L24.5256 10.4651C24.3137 10.3441 24.1246 10.2835 23.9581 10.2835C23.7917 10.2835 23.6025 10.3441 23.3906 10.4651L8.6223 18.4431C8.27294 18.6318 8.27238 19.1329 8.62131 19.3224L23.3906 27.344ZM23.3453 38.7525C23.5571 38.8735 23.7538 38.9341 23.9354 38.9341C24.117 38.9341 24.3137 38.8735 24.5256 38.7525L35.0579 33.0596C35.3 32.9082 35.474 32.7342 35.5799 32.5375C35.6859 32.3408 35.7388 32.0911 35.7388 31.7885V24.7636C35.7388 24.384 35.3325 24.1428 34.9993 24.3247L25.7831 29.3551C25.4895 29.5216 25.1914 29.6389 24.8888 29.7069C24.5861 29.775 24.2684 29.8091 23.9354 29.8091C23.6025 29.8091 23.2847 29.775 22.9821 29.7069C22.6794 29.6389 22.3813 29.5216 22.0877 29.3551L12.8716 24.3247C12.5384 24.1428 12.132 24.384 12.132 24.7636V31.7885C12.132 32.0305 12.185 32.2651 12.2909 32.4921C12.3969 32.7191 12.5709 32.9082 12.813 33.0596L23.3453 38.7525Z" fill="#D023BE"/>
</svg>
