<svg width="50" height="50" viewBox="0 0 50 50" fill="none" xmlns="http://www.w3.org/2000/svg">
<path d="M14.2 13.9H24" stroke="#D023BE" stroke-width="2" stroke-linecap="round" stroke-linejoin="round"/>
<path d="M19.1 11.6V13.9" stroke="#D023BE" stroke-width="2" stroke-linecap="round" stroke-linejoin="round"/>
<path d="M24.1 21.6C24.1 21.6 17.1 21.9 16.2 14.1" stroke="#D023BE" stroke-width="2" stroke-linecap="round" stroke-linejoin="round"/>
<path d="M14.1 21.6C14.1 21.6 21.1 21.9 22 14.1" stroke="#D023BE" stroke-width="2" stroke-linecap="round" stroke-linejoin="round"/>
<path d="M35.4 11.6H39.8V16.3" stroke="#D023BE" stroke-width="2" stroke-linecap="round" stroke-linejoin="round"/>
<path d="M14.8 38.3H10.4V33.6" stroke="#D023BE" stroke-width="2" stroke-linecap="round" stroke-linejoin="round"/>
<path fill-rule="evenodd" clip-rule="evenodd" d="M7.39999 30.4V9.69999C7.39999 8.39999 8.49999 7.29999 9.79999 7.29999H28.3C29.6 7.29999 30.7 8.39999 30.7 9.69999V23.4C30.7 24.7 29.6 25.8 28.3 25.8H22H13L7.39999 30.4Z" stroke="#D023BE" stroke-width="2" stroke-linecap="round" stroke-linejoin="round"/>
<path d="M22 26.1V38.3L17.8 42.7H40.6C41.7 42.7 42.6 41.8 42.6 40.7V25.5C42.6 24.4 41.7 23.5 40.6 23.5H31.3" stroke="#D023BE" stroke-width="2" stroke-linecap="round" stroke-linejoin="round"/>
<path d="M28.6 38.8L29.5 36.5L32.4 28.8L36.2 38.8" stroke="#D023BE" stroke-width="2" stroke-linecap="round" stroke-linejoin="round"/>
<path d="M34.9 36.5H29.5" stroke="#D023BE" stroke-width="2" stroke-linecap="round" stroke-linejoin="round"/>
</svg>
