<svg width="50" height="50" viewBox="0 0 50 50" fill="none" xmlns="http://www.w3.org/2000/svg">
<path d="M38.4383 43.3854C38.8483 43.2254 39.0483 42.7754 38.8983 42.3654C38.7383 41.9554 38.2883 41.7554 37.8783 41.9054C36.5683 42.4054 32.7783 43.4354 30.9783 42.2454C29.9383 41.5554 29.4283 40.2954 29.0283 39.2854C28.7483 38.5754 28.5183 38.0154 28.1383 37.6554C27.0483 36.5954 27.1783 36.2254 27.2783 36.0554C27.4483 35.9454 27.9983 35.7954 28.4483 35.6754C30.5383 35.0954 34.4183 34.0154 35.8683 29.4454C35.9583 29.1754 35.8883 28.8754 35.6883 28.6654C35.4883 28.4554 35.1983 28.3754 34.9183 28.4454C31.6283 29.3054 29.5483 29.7654 26.8183 28.9454L26.9683 26.8054C26.9883 26.4554 26.7883 26.1354 26.4683 26.0154C26.3983 25.9854 26.3183 25.9554 26.2183 25.9254C23.6583 24.9854 23.4883 24.4154 23.4983 24.2554C23.6583 23.6554 25.5983 21.0854 26.7583 19.5454C28.3783 17.3954 28.9583 16.6054 29.0783 16.1654C29.2583 15.5354 29.1383 14.7354 29.0283 13.9554C28.9683 13.5354 28.8983 13.0954 28.9183 12.8554C29.0483 12.2754 30.6983 9.01539 32.2283 6.16539C32.4383 5.78539 32.2883 5.30539 31.9083 5.09539C31.5283 4.88539 31.0483 5.03539 30.8383 5.41539C29.5683 7.77539 27.4283 11.8654 27.3483 12.6954C27.3083 13.1154 27.3883 13.6354 27.4683 14.1854C27.5483 14.6954 27.6483 15.3954 27.5683 15.7154C27.4083 16.0654 26.3483 17.4654 25.4983 18.5954C23.1683 21.6954 22.0583 23.2354 21.9383 24.0154C21.6783 25.7854 24.0383 26.7954 25.3583 27.2854L25.2083 29.4554C25.1883 29.8054 25.3983 30.1354 25.7383 30.2554C28.6283 31.2754 30.8783 31.0554 33.7883 30.3654C32.3583 32.9554 29.8083 33.6654 28.0383 34.1554C27.0483 34.4354 26.3883 34.6154 26.0383 35.1054C24.8883 36.7054 26.5183 38.2854 27.0483 38.8054C27.1883 38.9354 27.3983 39.4654 27.5683 39.8954C28.0283 41.0454 28.6583 42.6254 30.1183 43.5854C31.0283 44.1854 32.1883 44.3954 33.3483 44.3954C35.8183 44.3954 38.2983 43.4654 38.4483 43.4054L38.4383 43.3854Z" fill="#D023BE" stroke="#D023BE" stroke-width="0.2" stroke-miterlimit="10"/>
<path d="M31.7983 16.6054C31.7583 16.1754 31.3683 15.8554 30.9383 15.8954C30.5083 15.9354 30.1883 16.3254 30.2283 16.7554C30.3483 18.0354 31.2183 19.0554 32.5383 19.4654C32.9483 19.5954 33.3783 19.6554 33.7983 19.6554C34.8883 19.6554 35.9183 19.2354 36.5483 18.4954C36.8283 18.1654 36.7883 17.6654 36.4583 17.3854C36.1283 17.1054 35.6283 17.1454 35.3483 17.4754C34.8883 18.0254 33.8883 18.2254 33.0183 17.9554C32.5983 17.8254 31.8883 17.4754 31.8083 16.6054H31.7983Z" fill="#D023BE" stroke="#D023BE" stroke-width="0.2" stroke-miterlimit="10"/>
<path d="M23.2083 36.1854C22.3083 35.4554 21.7483 34.5054 21.5783 33.4354C21.4083 32.3754 21.6483 31.2954 22.2683 30.3154C22.4983 29.9454 22.3983 29.4554 22.0283 29.2254C21.6583 28.9954 21.1683 29.0954 20.9383 29.4654C20.1083 30.7754 19.7883 32.2354 20.0183 33.6854C20.2483 35.1354 21.0083 36.4254 22.2083 37.4054C22.3583 37.5254 22.5283 37.5854 22.7083 37.5854C22.9383 37.5854 23.1683 37.4854 23.3183 37.2954C23.5983 36.9554 23.5483 36.4554 23.2083 36.1854Z" fill="#D023BE" stroke="#D023BE" stroke-width="0.2" stroke-miterlimit="10"/>
<path d="M17.1083 34.1654C16.8083 32.2754 17.2183 30.3554 18.3083 28.6154C18.5383 28.2454 18.4283 27.7554 18.0583 27.5254C17.6883 27.2954 17.1983 27.4054 16.9683 27.7754C15.6683 29.8354 15.1783 32.1354 15.5383 34.4154C15.9083 36.6954 17.0883 38.7154 18.9783 40.2754C19.1283 40.3954 19.3083 40.4554 19.4783 40.4554C19.7083 40.4554 19.9283 40.3554 20.0883 40.1654C20.3683 39.8254 20.3183 39.3354 19.9783 39.0554C18.3983 37.7554 17.3983 36.0654 17.0983 34.1654H17.1083Z" fill="#D023BE" stroke="#D023BE" stroke-width="0.2" stroke-miterlimit="10"/>
<path d="M15.6983 43.1454C15.8483 43.2754 16.0283 43.3454 16.2183 43.3454C16.4383 43.3454 16.6583 43.2554 16.8083 43.0754C17.0983 42.7454 17.0583 42.2454 16.7283 41.9654C14.5383 40.0554 13.1483 37.6054 12.7183 34.8754C12.2783 32.1454 12.8283 29.3854 14.3083 26.8854C14.5283 26.5054 14.4083 26.0254 14.0283 25.8054C13.6483 25.5854 13.1683 25.7054 12.9483 26.0854C11.2883 28.8954 10.6683 32.0254 11.1683 35.1154C11.6683 38.2054 13.2383 40.9854 15.6983 43.1454Z" fill="#D023BE" stroke="#D023BE" stroke-width="0.2" stroke-miterlimit="10"/>
</svg>
