<svg width="50" height="50" viewBox="0 0 50 50" fill="none" xmlns="http://www.w3.org/2000/svg">
<path d="M39.9699 5H15.1373C12.8567 5 11 6.85672 11 9.13735M11 9.13735C11 11.4265 12.8567 13.2747 15.1373 13.2747H39.9614V45H15.1373C12.8482 45 11 43.1433 11 40.8627V9.13735Z" stroke="#D023BE" stroke-width="1.82" stroke-linecap="round" stroke-linejoin="round"/>
<path d="M38.588 7.75543H15.1374" stroke="#D023BE" stroke-width="1.82" stroke-linecap="round" stroke-linejoin="round"/>
<path d="M38.588 10.5193H15.1374" stroke="#D023BE" stroke-width="1.82" stroke-linecap="round" stroke-linejoin="round"/>
<path d="M22.6635 32L21.7633 28.9183H17.2367L16.3365 32H13.5L17.8822 19H21.1008L25.5 32H22.6635ZM21.1348 26.6158L20.2346 23.6049C20.178 23.4042 20.1016 23.1474 20.0053 22.8345C19.9147 22.5157 19.8213 22.1939 19.7251 21.8692C19.6345 21.5386 19.5609 21.2523 19.5042 21.0102C19.4476 21.2523 19.3684 21.5534 19.2665 21.9135C19.1702 22.2677 19.0768 22.6042 18.9862 22.923C18.8956 23.2418 18.8305 23.4691 18.7909 23.6049L17.8992 26.6158H21.1348Z" fill="#D023BE"/>
<path d="M36.2143 37H26V35.2127L32.5811 26.2763H26.1784V24H36.0359V25.7784L29.4642 34.7237H36.2143V37Z" fill="#D023BE"/>
</svg>
