<svg width="50" height="50" viewBox="0 0 50 50" fill="none" xmlns="http://www.w3.org/2000/svg">
<path d="M39.9699 5H15.1373C12.8567 5 11 6.85672 11 9.13735M11 9.13735C11 11.4265 12.8567 13.2747 15.1373 13.2747H39.9614V45H15.1373C12.8482 45 11 43.1433 11 40.8627V9.13735Z" stroke="#D023BE" stroke-width="1.82" stroke-linecap="round" stroke-linejoin="round"/>
<path d="M38.588 7.75543H15.1374" stroke="#D023BE" stroke-width="1.82" stroke-linecap="round" stroke-linejoin="round"/>
<path d="M38.588 10.5193H15.1374" stroke="#D023BE" stroke-width="1.82" stroke-linecap="round" stroke-linejoin="round"/>
<path d="M31.6451 23.3343C28.5327 20.2219 23.4592 20.2219 20.3377 23.3343C17.2163 26.4468 17.2253 31.5203 20.3377 34.6418C21.894 36.198 23.9449 36.9806 25.9869 36.9806C28.0289 36.9806 30.0799 36.198 31.6361 34.6418C34.7486 31.5293 34.7486 26.4558 31.6361 23.3343H31.6451ZM29.5492 29.9911H26.9315V32.6088C26.9315 33.1035 26.5267 33.5083 26.0319 33.5083C25.5371 33.5083 25.1323 33.1035 25.1323 32.6088V29.9911H22.5146C22.0199 29.9911 21.6151 29.5863 21.6151 29.0915C21.6151 28.5967 22.0199 28.1919 22.5146 28.1919H25.1323V25.5742C25.1323 25.0795 25.5371 24.6747 26.0319 24.6747C26.5267 24.6747 26.9315 25.0795 26.9315 25.5742V28.1919H29.5492C30.0439 28.1919 30.4487 28.5967 30.4487 29.0915C30.4487 29.5863 30.0439 29.9911 29.5492 29.9911Z" fill="#D023BE"/>
</svg>
