<svg width="50" height="50" viewBox="0 0 50 50" fill="none" xmlns="http://www.w3.org/2000/svg">
<path d="M11.5 27.2L13.5 28.7" stroke="#D023BE" stroke-width="2" stroke-linecap="round" stroke-linejoin="round"/>
<path d="M8.9 28.2C10.5016 28.2 11.8 26.9016 11.8 25.3C11.8 23.6983 10.5016 22.4 8.9 22.4C7.29837 22.4 6 23.6983 6 25.3C6 26.9016 7.29837 28.2 8.9 28.2Z" stroke="#D023BE" stroke-width="2" stroke-linecap="round" stroke-linejoin="round"/>
<path fill-rule="evenodd" clip-rule="evenodd" d="M41.4 31.5H8.6C5.2 31.5 2.4 28.7 2.4 25.3C2.4 21.9 5.2 19.1 8.6 19.1H41.3C44.7 19.1 47.5 21.9 47.5 25.3C47.6 28.7 44.8 31.5 41.4 31.5Z" stroke="#D023BE" stroke-width="2" stroke-linecap="round" stroke-linejoin="round"/>
<path d="M41.8 23.9L39.1 26.6" stroke="#D023BE" stroke-width="2" stroke-linecap="round" stroke-linejoin="round"/>
<path d="M41.8 26.6L39.1 23.9" stroke="#D023BE" stroke-width="2" stroke-linecap="round" stroke-linejoin="round"/>
</svg>
