<svg width="50" height="50" viewBox="0 0 50 50" fill="none" xmlns="http://www.w3.org/2000/svg">
<path d="M25 5C14 5 5 14 5 25C5 36 14 45 25 45C36 45 45 36 45 25C45 14 36 5 25 5ZM25 30.5C24.4 30.5 24 30.9 24 31.5V36C18.7 35.5 14.5 31.3 14 26H18C18.6 26 19 25.6 19 25C19 24.4 18.6 24 18 24H14C14.5 18.7 18.7 14.5 24 14V18.5C24 19.1 24.4 19.5 25 19.5C25.6 19.5 26 19.1 26 18.5V14C31.3 14.5 35.5 18.7 36 24H32C31.4 24 31 24.4 31 25C31 25.6 31.4 26 32 26H36C35.5 31.3 31.3 35.5 26 36V31.5C26 30.9 25.6 30.5 25 30.5ZM42.9 24H37.9C37.4 17.6 32.3 12.5 25.9 12V7C35.1 7.6 42.4 14.9 42.9 24ZM24 7.1V12.1C17.6 12.6 12.5 17.7 12 24.1H7C7.6 14.9 14.9 7.6 24 7.1ZM7.1 26H12.1C12.6 32.4 17.7 37.5 24.1 38V43C14.9 42.4 7.6 35.1 7.1 26ZM26 42.9V37.9C32.4 37.4 37.5 32.3 38 25.9H43C42.4 35.1 35.1 42.4 26 42.9Z" fill="#D023BE"/>
<path d="M25 26.7C25.9389 26.7 26.7 25.9389 26.7 25C26.7 24.0611 25.9389 23.3 25 23.3C24.0611 23.3 23.3 24.0611 23.3 25C23.3 25.9389 24.0611 26.7 25 26.7Z" stroke="#D023BE" stroke-width="2" stroke-linecap="round" stroke-linejoin="round"/>
</svg>
