<svg width="50" height="50" viewBox="0 0 50 50" fill="none" xmlns="http://www.w3.org/2000/svg">
<path d="M21.8 28L35.1 15.3" stroke="#D023BE" stroke-width="2" stroke-linecap="round" stroke-linejoin="round"/>
<path d="M22 42.9C30.229 42.9 36.9 36.229 36.9 28C36.9 19.7709 30.229 13.1 22 13.1C13.771 13.1 7.10001 19.7709 7.10001 28C7.10001 36.229 13.771 42.9 22 42.9Z" stroke="#D023BE" stroke-width="2" stroke-linecap="round" stroke-linejoin="round"/>
<path d="M22 37.9C27.4676 37.9 31.9 33.4676 31.9 28C31.9 22.5324 27.4676 18.1 22 18.1C16.5324 18.1 12.1 22.5324 12.1 28C12.1 33.4676 16.5324 37.9 22 37.9Z" stroke="#D023BE" stroke-width="2.0924" stroke-linecap="round" stroke-linejoin="round"/>
<path d="M22 32.9C24.7062 32.9 26.9 30.7062 26.9 28C26.9 25.2938 24.7062 23.1 22 23.1C19.2938 23.1 17.1 25.2938 17.1 28C17.1 30.7062 19.2938 32.9 22 32.9Z" stroke="#D023BE" stroke-width="2" stroke-linecap="round" stroke-linejoin="round"/>
<path d="M34.9 9.29999V15.5H41" stroke="#D023BE" stroke-width="2" stroke-linecap="round" stroke-linejoin="round"/>
<path d="M38.8 7.09998V11.3H42.9" stroke="#D023BE" stroke-width="2" stroke-linecap="round" stroke-linejoin="round"/>
</svg>
