<svg width="50" height="50" viewBox="0 0 50 50" fill="none" xmlns="http://www.w3.org/2000/svg">
<path d="M34 22L38.9449 27L44 22" stroke="#D023BE" stroke-width="2" stroke-linecap="round" stroke-linejoin="round"/>
<path fill-rule="evenodd" clip-rule="evenodd" d="M8 25.01C8 16.7202 14.7202 10 23.01 10C31.2998 10 38.02 16.7202 38.02 25.01C38.02 25.3426 38.0092 25.6727 37.9879 26H39.9917C40.0105 25.6724 40.02 25.3423 40.02 25.01C40.02 15.6156 32.4044 8 23.01 8C13.6156 8 6 15.6156 6 25.01C6 34.4044 13.6156 42.02 23.01 42.02C28.2147 42.02 32.8734 39.6825 35.9935 36H33.2336C30.5535 38.4943 26.9599 40.02 23.01 40.02C14.7202 40.02 8 33.2998 8 25.01Z" fill="#D023BE"/>
<path d="M21.4017 29.2555V28.5672C21.4017 27.8612 21.4679 27.2568 21.6003 26.7538C21.7326 26.242 21.9621 25.7655 22.2886 25.3243C22.6239 24.8831 23.0871 24.4154 23.6784 23.9212C24.3666 23.3477 24.9093 22.8623 25.3064 22.4653C25.7123 22.0593 26.0035 21.6534 26.18 21.2475C26.3565 20.8416 26.4447 20.3519 26.4447 19.7783C26.4447 18.8606 26.1491 18.1591 25.5579 17.6737C24.9667 17.1796 24.1328 16.9325 23.0563 16.9325C22.1827 16.9325 21.4061 17.0428 20.7267 17.2634C20.0472 17.484 19.3942 17.7487 18.7677 18.0576L18 16.2839C18.7236 15.9045 19.5089 15.5956 20.3561 15.3574C21.2032 15.1191 22.1474 15 23.1886 15C24.8917 15 26.2109 15.4236 27.1463 16.2707C28.0816 17.109 28.5493 18.2649 28.5493 19.7386C28.5493 20.5592 28.4169 21.2608 28.1522 21.8432C27.8875 22.4167 27.5125 22.9462 27.0271 23.4315C26.5418 23.908 25.9682 24.4154 25.3064 24.9537C24.724 25.4478 24.2784 25.8846 23.9696 26.2641C23.6607 26.6347 23.4489 27.0185 23.3342 27.4156C23.2195 27.8039 23.1621 28.2716 23.1621 28.8187V29.2555H21.4017ZM20.8193 33.2528C20.8193 32.6351 20.9649 32.1983 21.2561 31.9424C21.5473 31.6777 21.9223 31.5453 22.3812 31.5453C22.8136 31.5453 23.1798 31.6777 23.4798 31.9424C23.7887 32.1983 23.9431 32.6351 23.9431 33.2528C23.9431 33.8617 23.7887 34.3073 23.4798 34.5897C23.1798 34.8632 22.8136 35 22.3812 35C21.9223 35 21.5473 34.8632 21.2561 34.5897C20.9649 34.3073 20.8193 33.8617 20.8193 33.2528Z" fill="#D023BE"/>
</svg>
