<svg width="50" height="50" viewBox="0 0 50 50" fill="none" xmlns="http://www.w3.org/2000/svg">
<path fill-rule="evenodd" clip-rule="evenodd" d="M36.2 31.4H13.8C12.6 31.4 11.6 32.4 11.6 33.6V40.4C11.6 41.6 12.6 42.6 13.8 42.6H36.3C37.5 42.6 38.5 41.6 38.5 40.4V33.6C38.5 32.4 37.5 31.4 36.2 31.4Z" stroke="#D023BE" stroke-width="2" stroke-linecap="round" stroke-linejoin="round"/>
<path d="M17.9 38.3C18.5075 38.3 19 37.8075 19 37.2C19 36.5925 18.5075 36.1 17.9 36.1C17.2925 36.1 16.8 36.5925 16.8 37.2C16.8 37.8075 17.2925 38.3 17.9 38.3Z" fill="#D023BE"/>
<path d="M25 38.3C25.6075 38.3 26.1 37.8075 26.1 37.2C26.1 36.5925 25.6075 36.1 25 36.1C24.3925 36.1 23.9 36.5925 23.9 37.2C23.9 37.8075 24.3925 38.3 25 38.3Z" fill="#D023BE"/>
<path d="M32.1 38.3C32.7075 38.3 33.2 37.8075 33.2 37.2C33.2 36.5925 32.7075 36.1 32.1 36.1C31.4925 36.1 31 36.5925 31 37.2C31 37.8075 31.4925 38.3 32.1 38.3Z" fill="#D023BE"/>
<path fill-rule="evenodd" clip-rule="evenodd" d="M13.8 23.9L23.1 8.3C23.9 6.9 25.9 6.9 26.7 8.3L36.2 23.9C37.1 25.3 36 27.1 34.4 27.1H15.6C13.9 27.1 12.9 25.3 13.8 23.9Z" stroke="#D023BE" stroke-width="2.264" stroke-linecap="round" stroke-linejoin="round"/>
<path d="M24.9 11.8V19.2" stroke="#D023BE" stroke-width="1.9594" stroke-linecap="round" stroke-linejoin="round"/>
<path d="M24.9 22.9V23.2" stroke="#D023BE" stroke-width="2.264" stroke-linecap="round" stroke-linejoin="round"/>
</svg>
