<svg width="50" height="50" viewBox="0 0 50 50" fill="none" xmlns="http://www.w3.org/2000/svg">
<path d="M36.218 43.75C37.1501 43.75 37.9441 43.4221 38.5998 42.7665C39.2555 42.1107 39.5833 41.3168 39.5833 40.3846V22.1154C39.5833 21.1832 39.2555 20.3893 38.5998 19.7335C37.9441 19.0778 37.1501 18.75 36.218 18.75H18.75V14.5833C18.75 12.8472 19.3576 11.3715 20.5729 10.1562C21.7882 8.94097 23.2639 8.33333 25 8.33333C26.5652 8.33333 27.928 8.84281 29.0885 9.86177C30.2491 10.8807 30.9402 12.1434 31.1619 13.6498C31.2206 13.9223 31.3535 14.146 31.5605 14.3209C31.7675 14.4958 32.0112 14.5833 32.2917 14.5833C32.5882 14.5833 32.8359 14.4792 33.0348 14.2708C33.2338 14.0625 33.308 13.8181 33.2572 13.5377C33.0115 11.4623 32.1074 9.72885 30.5449 8.33729C28.9824 6.94576 27.1341 6.25 25 6.25C22.679 6.25 20.7098 7.05863 19.0925 8.67589C17.4753 10.2931 16.6667 12.2623 16.6667 14.5833V18.75H13.782C12.8499 18.75 12.0559 19.0778 11.4002 19.7335C10.7445 20.3893 10.4167 21.1832 10.4167 22.1154V40.3846C10.4167 41.3168 10.7445 42.1107 11.4002 42.7665C12.0559 43.4221 12.8499 43.75 13.782 43.75H36.218ZM36.218 41.6667H13.782C13.4081 41.6667 13.1009 41.5465 12.8606 41.3061C12.6202 41.0657 12.5 40.7586 12.5 40.3846V22.1154C12.5 21.7414 12.6202 21.4343 12.8606 21.1939C13.1009 20.9535 13.4081 20.8333 13.782 20.8333H36.218C36.5919 20.8333 36.899 20.9535 37.1394 21.1939C37.3798 21.4343 37.5 21.7414 37.5 22.1154V40.3846C37.5 40.7586 37.3798 41.0657 37.1394 41.3061C36.899 41.5465 36.5919 41.6667 36.218 41.6667Z" fill="#D023BE"/>
<path d="M20 30.5L24.6528 37L30.5 26" stroke="#D023BE" stroke-width="2.5" stroke-linecap="round" stroke-linejoin="round"/>
</svg>
