<svg width="50" height="50" viewBox="0 0 50 50" fill="none" xmlns="http://www.w3.org/2000/svg">
<path d="M25 8.90002C16.1 8.90002 8.89999 16.1 8.89999 25C8.89999 33.9 16.1 41.1 25 41.1C33.9 41.1 41.1 33.9 41.1 25C41.1 16.1 33.9 8.90002 25 8.90002ZM25 39.1C17.2 39.1 10.9 32.8 10.9 25C10.9 17.2 17.2 10.9 25 10.9C32.8 10.9 39.1 17.2 39.1 25C39.1 32.8 32.8 39.1 25 39.1Z" fill="#D023BE"/>
<path d="M32.3 17.8L22.3 30L17.7 24.2C17.4 23.8 16.7 23.7 16.3 24C15.9 24.3 15.8 25 16.1 25.4L21.5 32.1C21.7 32.3 22 32.5 22.3 32.5C22.6 32.5 22.9 32.4 23.1 32.1L33.8 19C34.1 18.6 34.1 17.9 33.7 17.6C33.3 17.3 32.6 17.4 32.3 17.8Z" fill="#D023BE"/>
</svg>
