<svg width="50" height="50" viewBox="0 0 50 50" fill="none" xmlns="http://www.w3.org/2000/svg">
<path fill-rule="evenodd" clip-rule="evenodd" d="M42.2 35.9H7.8C6.1 35.9 4.8 34.6 4.8 32.9V28.6C4.8 26.9 6.1 25.6 7.8 25.6H42.1C43.8 25.6 45.1 26.9 45.1 28.6V32.9C45.2 34.6 43.8 35.9 42.2 35.9Z" stroke="#D023BE" stroke-width="2" stroke-linecap="round" stroke-linejoin="round"/>
<path d="M4.07812 21V12.4336H5.89453V19.5H9.36914V21H4.07812Z" fill="#D023BE"/>
<path d="M13.4062 14.3145C14.2852 14.3145 14.959 14.5059 15.4277 14.8887C15.8965 15.2715 16.1309 15.8535 16.1309 16.6348V21H14.8828L14.5371 20.1094H14.4902C14.3027 20.3438 14.1113 20.5352 13.916 20.6836C13.7207 20.832 13.4961 20.9414 13.2422 21.0117C12.9883 21.082 12.6797 21.1172 12.3164 21.1172C11.9297 21.1172 11.582 21.043 11.2734 20.8945C10.9688 20.7461 10.7285 20.5195 10.5527 20.2148C10.377 19.9062 10.2891 19.5156 10.2891 19.043C10.2891 18.3477 10.5332 17.8359 11.0215 17.5078C11.5098 17.1758 12.2422 16.9922 13.2188 16.957L14.3555 16.9219V16.6348C14.3555 16.291 14.2656 16.0391 14.0859 15.8789C13.9062 15.7188 13.6562 15.6387 13.3359 15.6387C13.0195 15.6387 12.709 15.6836 12.4043 15.7734C12.0996 15.8633 11.7949 15.9766 11.4902 16.1133L10.8984 14.9062C11.2461 14.7227 11.6348 14.5781 12.0645 14.4727C12.498 14.3672 12.9453 14.3145 13.4062 14.3145ZM14.3555 17.9648L13.6641 17.9883C13.0859 18.0039 12.6836 18.1074 12.457 18.2988C12.2344 18.4902 12.123 18.7422 12.123 19.0547C12.123 19.3281 12.2031 19.5234 12.3633 19.6406C12.5234 19.7539 12.7324 19.8105 12.9902 19.8105C13.373 19.8105 13.6953 19.6973 13.957 19.4707C14.2227 19.2441 14.3555 18.9219 14.3555 18.5039V17.9648Z" fill="#D023BE"/>
<path d="M19.7637 11.8828V14.0039C19.7637 14.25 19.7559 14.4941 19.7402 14.7363C19.7285 14.9785 19.7129 15.166 19.6934 15.2988H19.7637C19.9355 15.0293 20.1699 14.8008 20.4668 14.6133C20.7637 14.4219 21.1484 14.3262 21.6211 14.3262C22.3555 14.3262 22.9512 14.6133 23.4082 15.1875C23.8652 15.7617 24.0938 16.6035 24.0938 17.7129C24.0938 18.459 23.9883 19.0859 23.7773 19.5938C23.5664 20.0977 23.2715 20.4785 22.8926 20.7363C22.5137 20.9902 22.0742 21.1172 21.5742 21.1172C21.0938 21.1172 20.7148 21.0312 20.4375 20.8594C20.1602 20.6875 19.9355 20.4941 19.7637 20.2793H19.6406L19.3418 21H17.9766V11.8828H19.7637ZM21.0469 15.7559C20.7344 15.7559 20.4863 15.8203 20.3027 15.9492C20.1191 16.0781 19.9844 16.2715 19.8984 16.5293C19.8164 16.7871 19.7715 17.1133 19.7637 17.5078V17.7012C19.7637 18.3379 19.8574 18.8262 20.0449 19.166C20.2324 19.502 20.5742 19.6699 21.0703 19.6699C21.4375 19.6699 21.7285 19.5 21.9434 19.1602C22.1621 18.8203 22.2715 18.3301 22.2715 17.6895C22.2715 17.0488 22.1621 16.5664 21.9434 16.2422C21.7246 15.918 21.4258 15.7559 21.0469 15.7559Z" fill="#D023BE"/>
<path d="M28.2715 14.3262C28.877 14.3262 29.3984 14.4434 29.8359 14.6777C30.2734 14.9082 30.6113 15.2441 30.8496 15.6855C31.0879 16.127 31.207 16.666 31.207 17.3027V18.1699H26.9824C27.002 18.6738 27.1523 19.0703 27.4336 19.3594C27.7188 19.6445 28.1133 19.7871 28.6172 19.7871C29.0352 19.7871 29.418 19.7441 29.7656 19.6582C30.1133 19.5723 30.4707 19.4434 30.8379 19.2715V20.6543C30.5137 20.8145 30.1738 20.9316 29.8184 21.0059C29.4668 21.0801 29.0391 21.1172 28.5352 21.1172C27.8789 21.1172 27.2969 20.9961 26.7891 20.7539C26.2852 20.5117 25.8887 20.1426 25.5996 19.6465C25.3145 19.1504 25.1719 18.5254 25.1719 17.7715C25.1719 17.0059 25.3008 16.3691 25.5586 15.8613C25.8203 15.3496 26.1836 14.9668 26.6484 14.7129C27.1133 14.4551 27.6543 14.3262 28.2715 14.3262ZM28.2832 15.5977C27.9355 15.5977 27.6465 15.709 27.416 15.9316C27.1895 16.1543 27.0586 16.5039 27.0234 16.9805H29.5312C29.5273 16.7148 29.4785 16.4785 29.3848 16.2715C29.2949 16.0645 29.1582 15.9004 28.9746 15.7793C28.7949 15.6582 28.5645 15.5977 28.2832 15.5977Z" fill="#D023BE"/>
<path d="M34.4473 21H32.6602V11.8828H34.4473V21Z" fill="#D023BE"/>
</svg>
