<svg width="50" height="50" viewBox="0 0 50 50" fill="none" xmlns="http://www.w3.org/2000/svg">
<path d="M25.01 41.02C33.8521 41.02 41.02 33.8521 41.02 25.01C41.02 16.1679 33.8521 9 25.01 9C16.1679 9 9 16.1679 9 25.01C9 33.8521 16.1679 41.02 25.01 41.02Z" stroke="#D023BE" stroke-width="2" stroke-linecap="round" stroke-linejoin="round"/>
<path d="M23.4017 29.2555V28.5672C23.4017 27.8612 23.4679 27.2568 23.6003 26.7538C23.7326 26.242 23.9621 25.7655 24.2886 25.3243C24.6239 24.8831 25.0871 24.4154 25.6784 23.9212C26.3666 23.3477 26.9093 22.8623 27.3064 22.4653C27.7123 22.0593 28.0035 21.6534 28.18 21.2475C28.3565 20.8416 28.4447 20.3519 28.4447 19.7783C28.4447 18.8606 28.1491 18.1591 27.5579 17.6737C26.9667 17.1796 26.1328 16.9325 25.0563 16.9325C24.1827 16.9325 23.4061 17.0428 22.7267 17.2634C22.0472 17.484 21.3942 17.7487 20.7677 18.0576L20 16.2839C20.7236 15.9045 21.5089 15.5956 22.3561 15.3574C23.2032 15.1191 24.1474 15 25.1886 15C26.8917 15 28.2109 15.4236 29.1463 16.2707C30.0816 17.109 30.5493 18.2649 30.5493 19.7386C30.5493 20.5592 30.4169 21.2608 30.1522 21.8432C29.8875 22.4167 29.5125 22.9462 29.0271 23.4315C28.5418 23.908 27.9682 24.4154 27.3064 24.9537C26.724 25.4478 26.2784 25.8846 25.9696 26.2641C25.6607 26.6347 25.4489 27.0185 25.3342 27.4156C25.2195 27.8039 25.1621 28.2716 25.1621 28.8187V29.2555H23.4017ZM22.8193 33.2528C22.8193 32.6351 22.9649 32.1983 23.2561 31.9424C23.5473 31.6777 23.9223 31.5453 24.3812 31.5453C24.8136 31.5453 25.1798 31.6777 25.4798 31.9424C25.7887 32.1983 25.9431 32.6351 25.9431 33.2528C25.9431 33.8617 25.7887 34.3073 25.4798 34.5897C25.1798 34.8632 24.8136 35 24.3812 35C23.9223 35 23.5473 34.8632 23.2561 34.5897C22.9649 34.3073 22.8193 33.8617 22.8193 33.2528Z" fill="#D023BE"/>
</svg>
