<svg width="50" height="50" viewBox="0 0 50 50" fill="none" xmlns="http://www.w3.org/2000/svg">
<path d="M44.13 10H5.80001C4.13763 10 2.79001 11.3476 2.79001 13.01V17.33C2.79001 18.9924 4.13763 20.34 5.80001 20.34H44.13C45.7924 20.34 47.14 18.9924 47.14 17.33V13.01C47.14 11.3476 45.7924 10 44.13 10Z" stroke="#D023BE" stroke-width="2" stroke-linecap="round" stroke-linejoin="round"/>
<path d="M13.46 16.14C13.9957 16.14 14.43 15.7057 14.43 15.17C14.43 14.6343 13.9957 14.2 13.46 14.2C12.9243 14.2 12.49 14.6343 12.49 15.17C12.49 15.7057 12.9243 16.14 13.46 16.14Z" fill="#D023BE"/>
<path d="M19.7 16.14C20.2357 16.14 20.67 15.7057 20.67 15.17C20.67 14.6343 20.2357 14.2 19.7 14.2C19.1643 14.2 18.73 14.6343 18.73 15.17C18.73 15.7057 19.1643 16.14 19.7 16.14Z" fill="#D023BE"/>
<path d="M24.97 16.14C25.5057 16.14 25.94 15.7057 25.94 15.17C25.94 14.6343 25.5057 14.2 24.97 14.2C24.4343 14.2 24 14.6343 24 15.17C24 15.7057 24.4343 16.14 24.97 16.14Z" fill="#D023BE"/>
<path d="M30.97 16.14C31.5057 16.14 31.94 15.7057 31.94 15.17C31.94 14.6343 31.5057 14.2 30.97 14.2C30.4343 14.2 30 14.6343 30 15.17C30 15.7057 30.4343 16.14 30.97 16.14Z" fill="#D023BE"/>
<path d="M36.97 16.14C37.5057 16.14 37.94 15.7057 37.94 15.17C37.94 14.6343 37.5057 14.2 36.97 14.2C36.4343 14.2 36 14.6343 36 15.17C36 15.7057 36.4343 16.14 36.97 16.14Z" fill="#D023BE"/>
<path d="M47 32.5C47 36.0899 44.0898 39 40.5 39C36.9101 39 34 36.0899 34 32.5C34 28.9101 36.9101 26 40.5 26C44.0898 26 47 28.9101 47 32.5Z" stroke="#D023BE" stroke-width="2" stroke-linecap="round" stroke-linejoin="round"/>
<path d="M38.4404 32.7207C38.4243 32.5596 38.4162 32.3905 38.4243 32.2213C38.5048 30.6911 39.8176 29.5234 41.3478 29.6039C42.137 29.6442 42.8377 30.0227 43.3128 30.5784C43.3128 30.5784 44.1987 31.6173 43.8122 33.0509C43.4256 34.4844 42.0565 35.2334 40.7035 35.0804" stroke="#D023BE" stroke-width="1.5" stroke-linecap="round" stroke-linejoin="round"/>
<path d="M40 32.0984L38.5425 34L37 32" stroke="#D023BE" stroke-width="1.5" stroke-linecap="round" stroke-linejoin="round"/>
<path d="M16 32.5C16 36.0899 13.0899 39 9.5 39C5.91015 39 3 36.0899 3 32.5C3 28.9101 5.91015 26 9.5 26C13.0899 26 16 28.9101 16 32.5Z" stroke="#D023BE" stroke-width="2" stroke-linecap="round" stroke-linejoin="round"/>
<path d="M6.5 31.75L9.1346 35.5L12.1242 29.75" stroke="#D023BE" stroke-width="1.5" stroke-linecap="round" stroke-linejoin="round"/>
<path d="M27.6 30L22.6 35" stroke="#D023BE" stroke-width="1.5" stroke-linecap="round" stroke-linejoin="round"/>
<path d="M27.6 35L22.6 30" stroke="#D023BE" stroke-width="1.5" stroke-linecap="round" stroke-linejoin="round"/>
<path d="M31.5 32.5C31.5 36.0899 28.5899 39 25 39C21.4102 39 18.5 36.0898 18.5 32.5C18.5 28.9101 21.4102 26 25 26C28.5899 26 31.5 28.9101 31.5 32.5Z" stroke="#D023BE" stroke-width="2" stroke-linecap="round" stroke-linejoin="round"/>
</svg>
