<svg width="50" height="50" viewBox="0 0 50 50" fill="none" xmlns="http://www.w3.org/2000/svg">
<path d="M8.01 19.34L42.34 19.34C44.0024 19.34 45.35 17.9924 45.35 16.33V12.01C45.35 10.3476 44.0024 9.00003 42.34 9.00003L8.01 9.00003C6.34762 9.00003 5 10.3476 5 12.01V16.33C5 17.9924 6.34762 19.34 8.01 19.34Z" stroke="#D023BE" stroke-width="2" stroke-linecap="round" stroke-linejoin="round"/>
<path d="M37.62 15.14C38.1557 15.14 38.59 14.7057 38.59 14.17C38.59 13.6343 38.1557 13.2 37.62 13.2C37.0843 13.2 36.65 13.6343 36.65 14.17C36.65 14.7057 37.0843 15.14 37.62 15.14Z" fill="#D023BE"/>
<path d="M31.39 15.14C31.9257 15.14 32.36 14.7057 32.36 14.17C32.36 13.6343 31.9257 13.2 31.39 13.2C30.8543 13.2 30.42 13.6343 30.42 14.17C30.42 14.7057 30.8543 15.14 31.39 15.14Z" fill="#D023BE"/>
<path d="M25.15 15.14C25.6857 15.14 26.12 14.7057 26.12 14.17C26.12 13.6343 25.6857 13.2 25.15 13.2C24.6143 13.2 24.18 13.6343 24.18 14.17C24.18 14.7057 24.6143 15.14 25.15 15.14Z" fill="#D023BE"/>
<path d="M18.96 15.14C19.4957 15.14 19.93 14.7057 19.93 14.17C19.93 13.6343 19.4957 13.2 18.96 13.2C18.4243 13.2 17.99 13.6343 17.99 14.17C17.99 14.7057 18.4243 15.14 18.96 15.14Z" fill="#D023BE"/>
<path d="M12.73 15.14C13.2657 15.14 13.7 14.7057 13.7 14.17C13.7 13.6343 13.2657 13.2 12.73 13.2C12.1943 13.2 11.76 13.6343 11.76 14.17C11.76 14.7057 12.1943 15.14 12.73 15.14Z" fill="#D023BE"/>
<path d="M8.01 40.75L42.34 40.75C44.0024 40.75 45.35 39.4024 45.35 37.74V33.42C45.35 31.7576 44.0024 30.41 42.34 30.41L8.01 30.41C6.34762 30.41 5 31.7576 5 33.42V37.74C5 39.4024 6.34762 40.75 8.01 40.75Z" stroke="#D023BE" stroke-width="2" stroke-linecap="round" stroke-linejoin="round"/>
<path d="M37.62 36.54C38.1557 36.54 38.59 36.1057 38.59 35.57C38.59 35.0343 38.1557 34.6 37.62 34.6C37.0843 34.6 36.65 35.0343 36.65 35.57C36.65 36.1057 37.0843 36.54 37.62 36.54Z" fill="#D023BE"/>
<path d="M31.39 36.54C31.9257 36.54 32.36 36.1057 32.36 35.57C32.36 35.0343 31.9257 34.6 31.39 34.6C30.8543 34.6 30.42 35.0343 30.42 35.57C30.42 36.1057 30.8543 36.54 31.39 36.54Z" fill="#D023BE"/>
<path d="M25.15 36.54C25.6857 36.54 26.12 36.1057 26.12 35.57C26.12 35.0343 25.6857 34.6 25.15 34.6C24.6143 34.6 24.18 35.0343 24.18 35.57C24.18 36.1057 24.6143 36.54 25.15 36.54Z" fill="#D023BE"/>
<path d="M18.96 36.54C19.4957 36.54 19.93 36.1057 19.93 35.57C19.93 35.0343 19.4957 34.6 18.96 34.6C18.4243 34.6 17.99 35.0343 17.99 35.57C17.99 36.1057 18.4243 36.54 18.96 36.54Z" fill="#D023BE"/>
<path d="M12.73 36.54C13.2657 36.54 13.7 36.1057 13.7 35.57C13.7 35.0343 13.2657 34.6 12.73 34.6C12.1943 34.6 11.76 35.0343 11.76 35.57C11.76 36.1057 12.1943 36.54 12.73 36.54Z" fill="#D023BE"/>
<path d="M17.39 19.44V27.59" stroke="#D023BE" stroke-width="2" stroke-linecap="round" stroke-linejoin="round"/>
<path d="M20.2 25.86L17.39 28.62L14.7 25.87" stroke="#D023BE" stroke-width="2" stroke-linecap="round" stroke-linejoin="round"/>
<path d="M32.83 19.44V27.59" stroke="#D023BE" stroke-width="2" stroke-linecap="round" stroke-linejoin="round"/>
<path d="M35.65 25.86L32.83 28.62L30.14 25.87" stroke="#D023BE" stroke-width="2" stroke-linecap="round" stroke-linejoin="round"/>
</svg>
