<svg width="50" height="50" viewBox="0 0 50 50" fill="none" xmlns="http://www.w3.org/2000/svg">
<path d="M44.13 10H5.80001C4.13763 10 2.79001 11.3476 2.79001 13.01V17.33C2.79001 18.9924 4.13763 20.34 5.80001 20.34H44.13C45.7924 20.34 47.14 18.9924 47.14 17.33V13.01C47.14 11.3476 45.7924 10 44.13 10Z" stroke="#D023BE" stroke-width="2" stroke-linecap="round" stroke-linejoin="round"/>
<path d="M47 32.5C47 36.0899 44.0898 39 40.5 39C36.9101 39 34 36.0899 34 32.5C34 28.9101 36.9101 26 40.5 26C44.0898 26 47 28.9101 47 32.5Z" stroke="#D023BE" stroke-width="2" stroke-linecap="round" stroke-linejoin="round"/>
<path d="M38.4404 32.7207C38.4243 32.5596 38.4162 32.3905 38.4243 32.2213C38.5048 30.6911 39.8176 29.5234 41.3478 29.6039C42.137 29.6442 42.8377 30.0227 43.3129 30.5784C43.3129 30.5784 44.1988 31.6173 43.8122 33.0509C43.4256 34.4844 42.0565 35.2334 40.7035 35.0804" stroke="#D023BE" stroke-width="1.5" stroke-linecap="round" stroke-linejoin="round"/>
<path d="M40 32.0984L38.5425 34L37 32" stroke="#D023BE" stroke-width="1.5" stroke-linecap="round" stroke-linejoin="round"/>
<path d="M16 32.5C16 36.0899 13.0899 39 9.5 39C5.91015 39 3 36.0899 3 32.5C3 28.9101 5.91015 26 9.5 26C13.0899 26 16 28.9101 16 32.5Z" stroke="#D023BE" stroke-width="2" stroke-linecap="round" stroke-linejoin="round"/>
<path d="M6.5 31.75L9.1346 35.5L12.1242 29.75" stroke="#D023BE" stroke-width="1.5" stroke-linecap="round" stroke-linejoin="round"/>
<path d="M27.6 30L22.6 35" stroke="#D023BE" stroke-width="1.5" stroke-linecap="round" stroke-linejoin="round"/>
<path d="M27.6 35L22.6 30" stroke="#D023BE" stroke-width="1.5" stroke-linecap="round" stroke-linejoin="round"/>
<path d="M31.5 32.5C31.5 36.0899 28.5899 39 25 39C21.4102 39 18.5 36.0898 18.5 32.5C18.5 28.9101 21.4102 26 25 26C28.5899 26 31.5 28.9101 31.5 32.5Z" stroke="#D023BE" stroke-width="2" stroke-linecap="round" stroke-linejoin="round"/>
</svg>
