<svg width="50" height="50" viewBox="0 0 50 50" fill="none" xmlns="http://www.w3.org/2000/svg">
<path d="M32.7 25H34.6C36.2 25 37.5 26.3 37.5 27.9V32.3C37.5 33.9 36.2 35.2 34.6 35.2H5.1C3.5 35.2 2.2 33.9 2.2 32.3V28C2.2 26.4 3.5 25.1 5.1 25.1H27.6" stroke="#D023BE" stroke-width="2" stroke-linecap="round" stroke-linejoin="round"/>
<path d="M10.5 31.2C11.0523 31.2 11.5 30.7522 11.5 30.2C11.5 29.6477 11.0523 29.2 10.5 29.2C9.94772 29.2 9.5 29.6477 9.5 30.2C9.5 30.7522 9.94772 31.2 10.5 31.2Z" fill="#D023BE"/>
<path d="M16.7 31.2C17.2523 31.2 17.7 30.7522 17.7 30.2C17.7 29.6477 17.2523 29.2 16.7 29.2C16.1477 29.2 15.7 29.6477 15.7 30.2C15.7 30.7522 16.1477 31.2 16.7 31.2Z" fill="#D023BE"/>
<path d="M23 31.2C23.5523 31.2 24 30.7522 24 30.2C24 29.6477 23.5523 29.2 23 29.2C22.4477 29.2 22 29.6477 22 30.2C22 30.7522 22.4477 31.2 23 31.2Z" fill="#D023BE"/>
<path fill-rule="evenodd" clip-rule="evenodd" d="M42.8 14.6H13.5C11.8 14.6 10.5 15.9 10.5 17.6V22C10.5 23.7 11.8 25 13.5 25H27.4C28.5 25.2 29.3 26.1 29.2 27.2V28.6L31.2 25.9C31.6 25.4 32.1 25.1 32.7 25H42.8C44.5 25 45.8 23.7 45.8 22V17.7C45.8 16 44.5 14.6 42.8 14.6Z" stroke="#D023BE" stroke-width="2" stroke-linecap="round" stroke-linejoin="round"/>
<path d="M19.3 20.9C19.8523 20.9 20.3 20.4522 20.3 19.9C20.3 19.3477 19.8523 18.9 19.3 18.9C18.7477 18.9 18.3 19.3477 18.3 19.9C18.3 20.4522 18.7477 20.9 19.3 20.9Z" fill="#D023BE"/>
<path d="M25.6 20.9C26.1523 20.9 26.6 20.4522 26.6 19.9C26.6 19.3477 26.1523 18.9 25.6 18.9C25.0477 18.9 24.6 19.3477 24.6 19.9C24.6 20.4522 25.0477 20.9 25.6 20.9Z" fill="#D023BE"/>
<path d="M31.8 20.9C32.3523 20.9 32.8 20.4522 32.8 19.9C32.8 19.3477 32.3523 18.9 31.8 18.9C31.2477 18.9 30.8 19.3477 30.8 19.9C30.8 20.4522 31.2477 20.9 31.8 20.9Z" fill="#D023BE"/>
<path d="M38 20.9C38.5523 20.9 39 20.4522 39 19.9C39 19.3477 38.5523 18.9 38 18.9C37.4477 18.9 37 19.3477 37 19.9C37 20.4522 37.4477 20.9 38 20.9Z" fill="#D023BE"/>
</svg>
