<svg width="100" height="100" viewBox="0 0 100 100" fill="none" xmlns="http://www.w3.org/2000/svg">
<path d="M98.125 49.125C98.125 42.875 95.4167 37.25 91.25 34.3334C91.25 34.125 91.25 34.125 91.25 33.9167C91.25 26.4167 86.6667 20.375 80 18.9167C77.5 13.2917 70 7.66669 60.8333 7.66669H52.0833C50.8333 7.66669 50 8.50002 50 9.75002C50 8.70835 49.1667 7.66669 47.9167 7.66669H39.1667C30 7.66669 22.5 13.2917 20 18.9167C13.3333 20.375 8.75 26.4167 8.75 33.9167C8.75 34.125 8.75 34.125 8.75 34.3334C4.58333 37.0417 1.875 42.6667 1.875 49.125C1.875 53.5 3.54167 58.0834 6.04167 61C5.41667 65.5834 6.25 71.8334 10 76.2084C12.0833 78.5 15.625 81 21.4583 80.7917C25.2083 88.2917 31.4583 91.8334 40.4167 91.8334C42.7083 91.8334 45.4167 91.625 48.125 91C49.1667 90.7917 49.7917 89.9584 49.7917 88.9167C49.7917 89.9584 50.4167 90.7917 51.4583 91C54.1667 91.4167 56.6667 91.8334 59.1667 91.8334C68.125 91.8334 74.375 88.0834 78.125 80.7917C83.9583 81 87.7083 78.2917 89.5833 76.2084C93.3333 72.0417 94.1667 65.5834 93.5417 61C96.4583 57.875 98.125 53.2917 98.125 49.125ZM45.8333 87.25C35.2083 88.9167 28.75 86 25.2083 78.5C25.2083 72.875 28.3333 62.4584 39.375 62.4584C40.625 62.4584 41.4583 61.625 41.4583 60.375C41.4583 59.125 40.625 58.2917 39.375 58.2917C33.3333 58.2917 28.75 60.7917 25.8333 64.75C23.5417 64.125 21.875 61.8334 21.875 60.375C21.875 59.125 21.0417 58.2917 19.7917 58.2917C18.5417 58.2917 17.7083 59.125 17.7083 60.375C17.7083 63.5 20.2083 66.8334 23.75 68.2917C22.5 70.7917 21.6667 73.7084 21.4583 76.8334C18.125 76.8334 15.625 75.7917 13.75 73.5C10.4167 69.9584 9.58333 64.3334 10.4167 60.5834C10.625 59.9584 10.4167 59.125 9.79167 58.7084C7.5 56.625 6.04167 52.6667 6.04167 49.125C6.04167 43.9167 8.33333 39.125 11.875 37.4584C12.7083 37.0417 13.125 36.2084 13.125 35.375C13.125 34.9584 13.125 34.5417 13.125 34.125C13.125 29.125 15.8333 24.9584 20 23.5C21.0417 34.125 28.125 35.7917 35 35.7917C36.25 35.7917 37.0833 34.9584 37.0833 33.7084C37.0833 32.4584 36.25 31.625 35 31.625C27.7083 31.625 23.9583 29.9584 23.9583 20.7917C25.625 17.0417 31.4583 12.0417 39.1667 12.0417H45.8333V22.6667L45 23.0834C40.4167 24.75 36.0417 23.2917 34.5833 19.75C34.1667 18.7084 32.9167 18.0834 31.875 18.5C30.8333 18.9167 30.2083 20.1667 30.625 21.2084C32.2917 25.375 36.4583 27.875 41.0417 27.875C42.5 27.875 44.1667 27.6667 45.625 27.0417V42.25C43.3333 40.375 41.0417 39.3334 38.5417 39.3334C35.625 39.3334 32.9167 40.7917 30.4167 43.5C28.5417 45.375 25.8333 47.25 22.0833 45.5834C21.0417 45.1667 19.7917 45.5834 19.375 46.625C18.9583 47.6667 19.375 48.9167 20.4167 49.3334C21.875 49.9584 23.5417 50.375 25 50.375C28.125 50.375 31.0417 48.9167 33.5417 46.4167C35.2083 44.5417 37.0833 43.7084 38.75 43.7084C40.4167 43.7084 42.2917 44.75 44.1667 46.625L45.8333 48.5V72.6667C39.7917 70.7917 35.2083 74.125 33.5417 78.2917C33.125 79.3334 33.5417 80.5834 34.5833 81C34.7917 81 35.2083 81 35.4167 81C36.25 81 37.0833 80.5834 37.2917 79.75C38.3333 77.4584 41.0417 75.1667 45 76.625L45.8333 77.0417V87.25ZM89.5833 60.5834C90.4167 64.3334 89.7917 69.75 86.6667 73.2917C84.7917 75.375 82.0833 76.4167 78.9583 76.625C78.75 73.7084 77.9167 70.7917 76.6667 68.0834C80 66.625 82.5 63.2917 82.5 60.1667C82.5 58.9167 81.6667 58.0834 80.4167 58.0834C79.1667 58.0834 78.3333 58.9167 78.3333 60.1667C78.3333 61.625 76.4583 63.7084 74.375 64.5417C71.25 60.5834 66.6667 58.0834 60.8333 58.0834C59.5833 58.0834 58.75 58.9167 58.75 60.1667C58.75 61.4167 59.5833 62.25 60.8333 62.25C71.875 62.25 74.7917 72.6667 75 78.2917C71.4583 86 65 88.7084 54.375 87.0417V76.8334L55.2083 76.4167C59.375 74.9584 61.875 77.0417 62.9167 79.5417C63.3333 80.375 63.9583 80.7917 64.7917 80.7917C65 80.7917 65.4167 80.7917 65.625 80.5834C66.6667 80.1667 67.0833 78.9167 66.6667 77.875C65 73.9167 60.4167 70.5834 54.375 72.25V48.5L55.8333 46.625C57.7083 44.75 59.5833 43.7084 61.25 43.7084C62.9167 43.7084 64.7917 44.75 66.4583 46.4167C68.9583 49.125 71.875 50.375 75 50.375C76.4583 50.375 78.125 49.9584 79.5833 49.3334C80.625 48.9167 81.0417 47.6667 80.625 46.625C80.2083 45.5834 78.9583 45.1667 77.9167 45.5834C74.1667 47.25 71.25 45.375 69.5833 43.5C67.0833 40.7917 64.1667 39.3334 61.4583 39.3334C59.1667 39.3334 56.6667 40.375 54.375 42.25V27.0417C56.0417 27.6667 57.5 27.875 58.9583 27.875C63.75 27.875 67.7083 25.5834 69.375 21.2084C69.7917 20.1667 69.375 18.9167 68.125 18.5C66.875 18.0834 65.8333 18.5 65.4167 19.75C63.9583 23.2917 59.5833 24.75 55 23.0834L54.1667 22.6667V11.8334H60.8333C68.5417 11.8334 74.375 16.8334 76.0417 20.5834C76.0417 29.75 72.2917 31.4167 65 31.4167C63.75 31.4167 62.9167 32.25 62.9167 33.5C62.9167 34.75 63.75 35.5834 65 35.5834C71.875 35.5834 78.9583 34.125 80 23.2917C84.1667 24.75 86.875 28.9167 86.875 33.9167C86.875 34.3334 86.875 34.75 86.875 35.1667C86.875 36 87.2917 36.8334 88.125 37.25C91.6667 38.9167 93.9583 43.7084 93.9583 48.9167C93.9583 52.6667 92.5 56.4167 90.2083 58.5C89.5833 59.125 89.375 59.9584 89.5833 60.5834Z" fill="#D023BE"/>
</svg>
