<svg width="50" height="51" viewBox="0 0 50 51" fill="none" xmlns="http://www.w3.org/2000/svg">
<path d="M12.8 38.7999H31.9" stroke="#D023BE" stroke-width="2" stroke-linecap="round" stroke-linejoin="round"/>
<path d="M13 34.7999H32" stroke="#D023BE" stroke-width="2" stroke-linecap="round" stroke-linejoin="round"/>
<path d="M31.7 29.3C37.2781 29.3 41.8 24.7781 41.8 19.2C41.8 13.6219 37.2781 9.09998 31.7 9.09998C26.1219 9.09998 21.6 13.6219 21.6 19.2C21.6 24.7781 26.1219 29.3 31.7 29.3Z" stroke="#D023BE" stroke-width="2" stroke-linecap="round" stroke-linejoin="round"/>
<path fill-rule="evenodd" clip-rule="evenodd" d="M29.9 14.4999C29.8 14.3999 29.6 14.4999 29.5 14.5999L26.8 17.2999H25.4C25.2 17.2999 25 17.4999 25 17.6999V20.7999C25 20.9999 25.2 21.1999 25.4 21.1999H26.8L29.5 23.8999C29.6 23.9999 29.7 23.9999 29.7 23.9999H29.8C29.9 23.8999 30 23.7999 30 23.6999V14.8999C30.1 14.6999 30.1 14.5999 29.9 14.4999Z" stroke="#D023BE" stroke-width="2" stroke-linecap="round" stroke-linejoin="round"/>
<path d="M33.5 15.8999C33.4 15.7999 33.3 15.7999 33.2 15.7999C33.1 15.7999 33 15.7999 32.9 15.8999C32.8 15.9999 32.8 16.2999 32.9 16.3999C33.7 17.0999 34.1 18.0999 34.1 19.1999C34.1 20.1999 33.7 21.1999 33 21.8999C32.9 21.9999 32.9 22.2999 33 22.3999C33.1 22.4999 33.4 22.4999 33.5 22.3999C34.4 21.4999 34.8 20.3999 34.8 19.1999C34.9 17.9999 34.4 16.7999 33.5 15.8999Z" fill="#D023BE" stroke="#D023BE" stroke-width="1.2"/>
<path d="M36.5 14.7C36.4 14.6 36.3 14.6 36.2 14.6C36.1 14.6 36 14.6 35.9 14.7C35.8 14.8 35.7 15.1 35.9 15.2C36.9 16.3 37.5 17.7 37.5 19.2C37.5 20.7 36.9 22.1 35.9 23.2C35.8 23.3 35.8 23.6 35.9 23.7C36 23.8 36.3 23.8 36.4 23.7C37.6 22.5 38.2 20.9 38.2 19.2C38.3 17.5 37.7 15.9 36.5 14.7Z" fill="#D023BE" stroke="#D023BE" stroke-width="1.2"/>
<path d="M22 22H8.2C7.1 22 6.2 22.9 6.2 24V40.9C6.2 42 7.1 42.9 8.2 42.9H36.5C37.6 42.9 38.5 42 38.5 40.9V27.3" stroke="#D023BE" stroke-width="2" stroke-linecap="round" stroke-linejoin="round"/>
</svg>
