<svg width="50" height="50" viewBox="0 0 50 50" fill="none" xmlns="http://www.w3.org/2000/svg">
<path fill-rule="evenodd" clip-rule="evenodd" d="M27.8 24.5C27 24.5 26.3 24.7 25.6 25.1C25.3 25.3 25 25.1 25 24.7V17.5H17.9C17.6 17.5 17.4 17.8 17.6 18.1C17.9 18.7 18.1 19.4 18.1 20.1C18 21.9 16.5 23.4 14.7 23.5C12.6 23.6 10.8 22 10.8 19.9C10.8 19.2 11 18.6 11.3 18.1C11.5 17.8 11.3 17.5 11 17.5H3.79999V38.7H10.9C11.2 38.7 11.4 38.4 11.2 38.1C10.9 37.5 10.7 36.8 10.7 36.1C10.8 34.3 12.3 32.8 14.1 32.7C16.2 32.6 18 34.2 18 36.3C18 37 17.8 37.6 17.5 38.1C17.3 38.4 17.5 38.7 17.8 38.7H25V31.5C25 31.2 25.4 31 25.6 31.1C26.2 31.5 26.8 31.7 27.5 31.7C29.6 31.7 31.3 29.9 31.1 27.8C31.1 26 29.6 24.6 27.8 24.5Z" stroke="#D023BE" stroke-width="2" stroke-linecap="round" stroke-linejoin="round"/>
<path fill-rule="evenodd" clip-rule="evenodd" d="M43.5 24.5C44.2 24.5 44.9 24.6 45.5 25C45.8 25.2 46.1 25 46.1 24.7V17.6H39C38.7 17.6 38.5 17.2 38.6 17C39 16.4 39.2 15.6 39.1 14.8C39 13 37.5 11.6 35.7 11.4C33.7 11.2 32 12.9 32 15C32 15.7 32.2 16.4 32.5 16.9C32.7 17.2 32.5 17.5 32.1 17.5H25V24.6C25 24.9 25.3 25.1 25.6 24.9C26.2 24.6 26.9 24.4 27.6 24.4C29.4 24.5 30.9 26 31 27.8C31.1 29.9 29.5 31.7 27.4 31.7C26.7 31.7 26.1 31.5 25.6 31.2C25.3 31 25 31.2 25 31.5V38.6H46.2V31.5C46.2 31.2 45.9 31 45.6 31.2C45.1 31.5 44.4 31.7 43.8 31.7C41.7 31.7 40 29.9 40.2 27.8C40.2 26 41.7 24.6 43.5 24.5Z" stroke="#D023BE" stroke-width="2" stroke-linecap="round" stroke-linejoin="round"/>
</svg>
