<svg width="50" height="51" viewBox="0 0 50 51" fill="none" xmlns="http://www.w3.org/2000/svg">
<path fill-rule="evenodd" clip-rule="evenodd" d="M15.4 6.80005H34.7C38.9 6.80005 42.2 10.2 42.2 14.3C42.2 18.5 38.8 21.8 34.7 21.8H15.4C11.2 21.8 7.89999 18.4 7.89999 14.3C7.79999 10.2 11.2 6.80005 15.4 6.80005Z" stroke="#D023BE" stroke-width="2" stroke-linecap="round" stroke-linejoin="round"/>
<path d="M15.4 21.9C19.5421 21.9 22.9 18.5422 22.9 14.4C22.9 10.2579 19.5421 6.90002 15.4 6.90002C11.2579 6.90002 7.89999 10.2579 7.89999 14.4C7.89999 18.5422 11.2579 21.9 15.4 21.9Z" stroke="#D023BE" stroke-width="2" stroke-linecap="round" stroke-linejoin="round"/>
<path d="M34.6 28.1001H15.4C10.7 28.1001 6.89999 31.9001 6.89999 36.6001C6.89999 41.3001 10.7 45.1001 15.4 45.1001H34.7C39.4 45.1001 43.2 41.3001 43.2 36.6001C43.2 31.9001 39.3 28.1001 34.6 28.1001ZM28.1 36.6001C28.1 33.0001 31 30.1001 34.6 30.1001C38.2 30.1001 41.1 33.0001 41.1 36.6001C41.1 40.2001 38.2 43.1001 34.6 43.1001C31 43.1001 28.1 40.2001 28.1 36.6001Z" fill="#D023BE"/>
</svg>
