<svg width="1024" height="307" viewBox="0 0 1024 307" fill="none" xmlns="http://www.w3.org/2000/svg">
<g clip-path="url(#clip0_1383_348)">
<path d="M916.331 301.333C904.064 301.333 894.198 298.267 886.731 292.133C879.264 285.733 874.864 276.667 873.531 264.933H871.531C867.798 278.533 860.331 288.8 849.131 295.733C838.198 302.667 824.731 306.133 808.731 306.133C788.731 306.133 772.598 300.8 760.331 290.133C748.331 279.2 742.331 264 742.331 244.533C742.331 222.933 750.198 206.933 765.931 196.533C781.664 186.133 804.731 180.933 835.131 180.933H868.331V170.533C868.331 158.267 865.398 149.067 859.531 142.933C853.931 136.533 844.331 133.333 830.731 133.333C818.198 133.333 808.064 135.733 800.331 140.533C792.598 145.333 785.931 151.6 780.331 159.333L747.931 130.533C754.864 118.8 765.664 109.2 780.331 101.733C795.264 94 814.331 90.1333 837.531 90.1333C865.798 90.1333 887.798 96.6666 903.531 109.733C919.531 122.533 927.531 142 927.531 168.133V258.533H950.331V301.333H916.331ZM831.131 267.333C841.531 267.333 850.331 264.8 857.531 259.733C864.731 254.667 868.331 247.333 868.331 237.733V212.933H836.731C812.464 212.933 800.331 221.067 800.331 237.333V245.333C800.331 252.533 803.131 258 808.731 261.733C814.331 265.467 821.798 267.333 831.131 267.333Z" fill="black"/>
<path d="M511.288 255.333H558.888V140.933H511.288V94.9333H618.088V153.333H620.888C622.755 145.867 625.288 138.667 628.488 131.733C631.955 124.533 636.221 118.267 641.288 112.933C646.621 107.333 653.021 102.933 660.488 99.7333C667.955 96.5333 676.755 94.9333 686.888 94.9333H706.488V149.333H662.488C647.821 149.333 636.755 153.733 629.288 162.533C621.821 171.067 618.088 181.6 618.088 194.133V255.333H686.088V301.333H511.288V255.333Z" fill="black"/>
<path d="M265.444 5.33328H324.644V132.533H327.444C332.511 120.267 339.844 110.133 349.444 102.133C359.044 94.1333 372.111 90.1333 388.644 90.1333C400.111 90.1333 410.511 92.2666 419.844 96.5333C429.444 100.8 437.578 107.333 444.244 116.133C451.178 124.933 456.511 136.133 460.244 149.733C464.244 163.333 466.244 179.467 466.244 198.133C466.244 216.8 464.244 232.933 460.244 246.533C456.511 260.133 451.178 271.333 444.244 280.133C437.578 288.933 429.444 295.467 419.844 299.733C410.511 304 400.111 306.133 388.644 306.133C372.111 306.133 359.044 302.267 349.444 294.533C339.844 286.533 332.511 276.267 327.444 263.733H324.644V301.333H265.444V5.33328ZM363.044 260.133C376.378 260.133 386.644 256.133 393.844 248.133C401.044 239.867 404.644 228.533 404.644 214.133V182.133C404.644 167.733 401.044 156.533 393.844 148.533C386.644 140.267 376.378 136.133 363.044 136.133C352.644 136.133 343.578 138.667 335.844 143.733C328.378 148.8 324.644 156.8 324.644 167.733V228.533C324.644 239.467 328.378 247.467 335.844 252.533C343.578 257.6 352.644 260.133 363.044 260.133Z" fill="black"/>
<path d="M176 301.333L158.4 234.133H82L64.8 301.333H4L79.6 22.1333H164.4L240 301.333H176ZM122 80.1333H118.8L91.6 185.733H149.2L122 80.1333Z" fill="black"/>
<path d="M972.266 30.8285C977.483 25.6119 985.498 25.6119 990.714 30.8285C995.931 36.0452 995.931 44.06 990.714 49.2769L969.243 70.7476C966.69 73.3019 963.397 74.6606 960.019 74.6606C956.641 74.6606 953.349 73.3021 950.795 70.7479C945.579 65.5309 945.579 57.5164 950.795 52.2997L972.266 30.8285Z" fill="#C60000"/>
<path d="M969.7 134.988L991.171 156.459C996.388 161.676 996.388 169.69 991.171 174.907C988.617 177.461 985.325 178.82 981.947 178.82C978.569 178.82 975.276 177.462 972.723 174.907L951.251 153.436C946.035 148.219 946.035 140.204 951.251 134.988C956.469 129.772 964.483 129.771 969.7 134.988Z" fill="#C60000"/>
<path d="M860.361 28.0581L881.832 49.5292C887.049 54.746 887.049 62.7601 881.832 67.9771C879.278 70.5315 875.985 71.8902 872.608 71.8902C869.229 71.8902 865.937 70.5312 863.383 67.9776L841.912 46.5063C836.696 41.2894 836.696 33.2745 841.913 28.0578C847.13 22.8417 855.144 22.8412 860.361 28.0581Z" fill="#C60000"/>
<path d="M977.38 89.9598H1007.53C1014.76 89.9598 1020.67 95.8619 1020.67 103.096C1020.67 110.33 1014.77 116.232 1007.53 116.232H977.38C970.145 116.232 964.243 110.33 964.243 103.096C964.243 95.8619 970.146 89.9598 977.38 89.9598Z" fill="#C60000"/>
<path d="M905.767 14.4699C905.767 7.23568 911.669 1.33331 918.903 1.33331C926.138 1.33331 932.04 7.23503 932.039 14.4699V44.6211C932.039 51.8551 926.137 57.7577 918.903 57.7577C911.669 57.7577 905.767 51.8553 905.767 44.6211V14.4699Z" fill="#C60000"/>
</g>
<defs>
<clipPath id="clip0_1383_348">
<rect width="1024" height="306.667" fill="white"/>
</clipPath>
</defs>
</svg>
