<svg width="500" height="500" viewBox="0 0 500 500" fill="none" xmlns="http://www.w3.org/2000/svg">
<path d="M389.82 70.4124C383.961 64.5529 375.171 64.5529 369.311 70.4124L334.885 104.838C329.026 110.697 329.026 119.487 334.885 125.347C337.815 128.277 341.477 129.742 345.139 129.742C348.802 129.742 352.464 128.277 355.394 125.347L389.82 90.9216C395.679 85.0614 395.679 76.2719 389.82 70.4124Z" fill="#EE0000"/>
<path d="M390.552 271.841L356.127 237.415C350.267 231.556 341.477 231.556 335.617 237.415C329.757 243.274 329.758 252.064 335.617 257.924L370.043 292.35C372.973 295.28 376.635 296.745 380.297 296.745C383.959 296.745 387.622 295.28 390.551 292.35C396.412 286.49 396.412 277.7 390.552 271.841Z" fill="#EE0000"/>
<path d="M215.243 100.396L180.817 65.9705C174.958 60.1111 166.168 60.1111 160.308 65.9705C154.448 71.83 154.449 80.6196 160.308 86.4798L194.734 120.905C197.664 123.835 201.326 125.3 204.988 125.3C208.65 125.3 212.313 123.835 215.242 120.905C221.102 115.045 221.102 106.256 215.243 100.396Z" fill="#EE0000"/>
<path d="M421.316 167.098H372.973C364.916 167.098 358.324 173.69 358.324 181.747C358.324 189.804 364.916 196.396 372.973 196.396H421.316C429.373 196.396 435.965 189.804 435.965 181.747C435.965 173.69 429.373 167.098 421.316 167.098Z" fill="#EE0000"/>
<path d="M279.218 25C271.161 25 264.569 31.5922 264.569 39.6491V87.9917C264.569 96.0486 271.161 102.641 279.218 102.641C287.275 102.641 293.867 96.0486 293.867 87.9917V39.6491C293.868 31.5922 287.276 25 279.218 25Z" fill="#EE0000"/>
<path d="M186.152 429.634C198.665 429.634 209.662 429.445 219.142 429.066C229.001 428.307 237.153 427.17 243.6 425.653V337.491C239.808 335.595 233.551 334.078 224.83 332.94C216.487 331.424 206.249 330.665 194.115 330.665C186.152 330.665 177.62 331.234 168.519 332.372C159.798 333.509 151.645 335.974 144.062 339.766C136.857 343.179 130.79 348.108 125.86 354.554C120.931 360.621 118.466 368.774 118.466 379.012C118.466 397.972 124.533 411.244 136.667 418.828C148.801 426.032 165.296 429.634 186.152 429.634ZM181.602 164.579C202.836 164.579 220.658 167.423 235.068 173.111C249.856 178.42 261.611 186.193 270.333 196.431C279.433 206.29 285.88 218.235 289.671 232.265C293.463 245.916 295.359 261.084 295.359 277.768V462.624C290.809 463.383 284.363 464.52 276.021 466.037C268.057 467.175 258.957 468.312 248.719 469.45C238.48 470.587 227.294 471.535 215.16 472.294C203.405 473.431 191.65 474 179.895 474C163.211 474 147.854 472.294 133.823 468.881C119.793 465.468 107.659 460.159 97.421 452.955C87.1828 445.371 79.2197 435.512 73.5318 423.378C67.8439 411.244 65 396.645 65 379.581C65 363.276 68.2232 349.246 74.6695 337.491C81.4949 325.736 90.5955 316.256 101.971 309.051C113.347 301.847 126.619 296.538 141.786 293.125C156.954 289.713 172.88 288.006 189.565 288.006C194.873 288.006 200.372 288.385 206.06 289.144C211.747 289.523 217.056 290.281 221.986 291.419C227.294 292.177 231.845 292.936 235.637 293.694C239.428 294.452 242.083 295.021 243.6 295.4V280.612C243.6 271.891 242.652 263.359 240.756 255.016C238.86 246.295 235.447 238.711 230.517 232.265C225.588 225.439 218.762 220.131 210.041 216.339C201.699 212.168 190.702 210.082 177.051 210.082C159.608 210.082 144.251 211.409 130.979 214.064C118.087 216.339 108.418 218.804 101.971 221.458L95.7146 177.661C102.54 174.628 113.916 171.784 129.842 169.129C145.768 166.096 163.021 164.579 181.602 164.579Z" fill="black"/>
</svg>
