<svg width="50" height="50" viewBox="0 0 50 50" fill="none" xmlns="http://www.w3.org/2000/svg">
<path d="M11.4696 20.3389V31.8748C11.4696 33.3914 10.2514 34.6096 8.73481 34.6096C7.21823 34.6096 6 33.3914 6 31.8748V20.3389C6 18.8223 7.21823 17.6041 8.73481 17.6041C10.2514 17.6041 11.4696 18.8223 11.4696 20.3389ZM43.7652 20.3389C43.7652 18.8223 42.547 17.6041 41.0304 17.6041C39.5138 17.6041 38.2956 18.8223 38.2956 20.3389V31.8748C38.2956 33.3914 39.5138 34.6096 41.0304 34.6096C42.547 34.6096 43.7652 33.3914 43.7652 31.8748V20.3389ZM12.489 17.1068C12.489 16.9825 12.489 16.8582 12.489 16.7339C12.489 15.8886 12.5884 15.0682 12.7873 14.2726C13.558 11.2394 15.721 8.67867 18.6547 7.16209L16.7652 3.65657C16.6409 3.43281 16.7403 3.15933 16.9392 3.05988C17.1381 2.96044 17.4365 3.03502 17.5359 3.23392L19.4503 6.78917C21.0912 6.06817 22.9309 5.67038 24.8702 5.67038C26.8094 5.67038 28.6243 6.06817 30.2652 6.7643L32.1796 3.23392C32.3039 3.01016 32.5774 2.93557 32.7762 3.05988C33 3.18419 33.0746 3.45767 32.9503 3.65657L31.0608 7.16209C34.1437 8.75325 36.3812 11.4632 37.0774 14.6952C37.1519 15.0682 37.2017 15.4162 37.2514 15.814V17.1317L12.489 17.1068ZM29.3702 11.5626C29.3702 12.2091 29.8923 12.7312 30.5387 12.7312C31.1851 12.7312 31.7072 12.2091 31.7072 11.5626C31.7072 10.9162 31.1851 10.3941 30.5387 10.3941C29.8923 10.3941 29.3702 10.9162 29.3702 11.5626ZM18.058 11.5626C18.058 12.2091 18.5801 12.7312 19.2265 12.7312C19.8729 12.7312 20.395 12.1842 20.395 11.5626C20.395 10.9411 19.8729 10.3941 19.2265 10.3941C18.5801 10.3941 18.058 10.9162 18.058 11.5626ZM12.5884 18.0765H12.4392V36.1759C12.4392 37.6925 13.6823 38.9107 15.174 38.9107H17.5359V45.2505C17.5359 46.7671 18.7541 47.9853 20.2707 47.9853C21.7873 47.9853 23.0055 46.7671 23.0055 45.2505V38.9356H26.7099V45.2505C26.7099 46.7671 27.9282 47.9853 29.4448 47.9853C30.9613 47.9853 32.1796 46.7671 32.1796 45.2505V38.9356H34.4917C36.0083 38.9356 37.2265 37.6925 37.2265 36.2008V18.0765H12.5884Z" fill="#D023BE"/>
</svg>
