<svg width="400" height="277" viewBox="0 0 400 277" fill="none" xmlns="http://www.w3.org/2000/svg">
<g clip-path="url(#clip0_67_505)">
<path d="M108.296 252.586H10.7217C10.7217 252.586 8.74383 223.578 20.4462 223.248C32.1486 222.918 30.83 236.104 45.4992 217.974C60.1684 199.843 77.9692 200.832 80.2767 211.546C82.5842 222.259 75.8265 230.83 88.1881 228.193C100.55 225.556 118.351 232.478 108.296 252.586Z" fill="#CC00B9"/>
<path d="M57.862 252.593L57.5327 252.58C58.3007 233.481 62.3007 221.209 65.521 214.278C69.0176 206.752 72.3869 203.706 72.4206 203.676L72.6396 203.922C72.6065 203.952 69.2764 206.968 65.8079 214.443C62.6053 221.345 58.6272 233.566 57.862 252.593Z" fill="#F2F2F2"/>
<path d="M93.1768 252.632L92.8604 252.54C96.6709 239.461 105.644 231.203 105.735 231.121L105.956 231.365C105.866 231.447 96.9603 239.646 93.1768 252.632Z" fill="#F2F2F2"/>
<path d="M26.09 252.609L25.7634 252.564C27.0563 243.24 24.721 236.005 22.5342 231.579C20.1664 226.786 17.4648 224.168 17.4377 224.142L17.6658 223.904C17.6933 223.93 20.4367 226.588 22.8297 231.433C25.037 235.901 27.3944 243.202 26.09 252.609Z" fill="#F2F2F2"/>
<path d="M121.539 253.027H0.197323L0.16933 252.616C0.0995676 251.594 -1.44834 227.474 6.36677 218.868C8.11385 216.944 10.2184 215.935 12.6217 215.867C17.7159 215.722 20.9172 217.63 23.4993 219.162C28.3661 222.049 31.5812 223.956 43.2709 209.508C55.9346 193.856 69.5981 190.489 77.4529 192.361C82.5279 193.571 86.0257 196.991 87.0495 201.744C88.0189 206.245 87.7101 210.474 87.4621 213.871C87.1966 217.507 86.9869 220.379 88.4801 221.68C89.7266 222.766 92.2145 222.865 96.3094 221.991C104.639 220.214 116.26 221.734 122.094 229.271C125.232 233.326 127.704 240.697 121.661 252.784L121.539 253.027ZM1.02543 252.145H120.993C125.496 243.009 125.637 235.29 121.396 229.811C116.045 222.897 104.818 221.077 96.4933 222.853C92.0445 223.803 89.3935 223.646 87.9007 222.345C86.075 220.754 86.299 217.689 86.5823 213.807C86.8265 210.466 87.1301 206.307 86.1874 201.93C85.2381 197.522 81.9799 194.347 77.2484 193.219C69.6442 191.405 56.3624 194.73 43.9565 210.063C31.7877 225.103 28.1219 222.929 23.0495 219.92C20.4356 218.37 17.4677 216.612 12.6467 216.748C10.4923 216.809 8.59918 217.722 7.01963 219.461C-0.00421639 227.196 0.853388 248.885 1.02543 252.145Z" fill="#CFCCE0"/>
<path d="M382.885 252.586H285.31C285.31 252.586 283.332 223.578 295.035 223.248C306.737 222.918 305.419 236.104 320.088 217.974C334.757 199.843 352.558 200.832 354.865 211.546C357.173 222.259 350.415 230.83 362.777 228.193C375.138 225.556 392.939 232.478 382.885 252.586Z" fill="#CC00B9"/>
<path d="M332.451 252.593L332.121 252.58C332.889 233.481 336.889 221.209 340.11 214.278C343.606 206.752 346.976 203.706 347.009 203.676L347.228 203.922C347.195 203.952 343.865 206.968 340.396 214.443C337.194 221.345 333.216 233.566 332.451 252.593Z" fill="#F2F2F2"/>
<path d="M367.765 252.632L367.449 252.54C371.26 239.461 380.233 231.203 380.323 231.121L380.545 231.365C380.455 231.447 371.549 239.646 367.765 252.632Z" fill="#F2F2F2"/>
<path d="M300.679 252.609L300.352 252.564C301.645 243.24 299.31 236.005 297.123 231.579C294.755 226.786 292.053 224.168 292.026 224.142L292.254 223.904C292.282 223.93 295.025 226.588 297.418 231.433C299.626 235.901 301.983 243.202 300.679 252.609Z" fill="#F2F2F2"/>
<path d="M396.128 253.027H274.786L274.758 252.616C274.688 251.594 273.14 227.474 280.955 218.868C282.702 216.944 284.807 215.935 287.21 215.867C292.305 215.722 295.506 217.63 298.088 219.162C302.955 222.049 306.17 223.956 317.86 209.508C330.523 193.856 344.187 190.489 352.041 192.361C357.116 193.571 360.614 196.991 361.638 201.744C362.607 206.245 362.299 210.474 362.051 213.871C361.785 217.507 361.575 220.379 363.069 221.68C364.315 222.766 366.803 222.865 370.898 221.991C379.227 220.214 390.849 221.734 396.682 229.271C399.821 233.326 402.293 240.697 396.25 252.784L396.128 253.027ZM275.614 252.145H395.582C400.085 243.009 400.226 235.29 395.985 229.811C390.634 222.897 379.407 221.077 371.082 222.853C366.633 223.803 363.982 223.646 362.489 222.345C360.664 220.754 360.888 217.689 361.171 213.807C361.415 210.466 361.719 206.307 360.776 201.93C359.827 197.522 356.569 194.347 351.837 193.219C344.233 191.405 330.951 194.73 318.545 210.063C306.376 225.103 302.711 222.929 297.638 219.92C295.024 218.37 292.056 216.612 287.235 216.748C285.081 216.809 283.188 217.722 281.608 219.461C274.584 227.196 275.442 248.885 275.614 252.145Z" fill="#CFCCE0"/>
<path d="M188.052 170.209C179.5 170.209 172 179.141 167.865 192.48C167.573 193.416 167.298 194.377 167.042 195.353C165.301 202.191 164.436 209.223 164.468 216.278C164.468 241.682 175.046 262.348 188.052 262.348C201.057 262.348 211.635 241.682 211.635 216.278C211.635 190.874 201.057 170.209 188.052 170.209ZM188.052 261.617C175.452 261.617 165.2 241.277 165.2 216.278C165.166 209.193 166.042 202.132 167.807 195.269C168.048 194.352 168.306 193.452 168.582 192.571C172.607 179.602 179.829 170.94 188.052 170.94C200.651 170.94 210.904 191.28 210.904 216.278C210.904 241.277 200.651 261.617 188.052 261.617Z" fill="#3F3D56"/>
<path d="M193.719 242.915C189.208 242.915 185.675 231.215 185.675 216.278C185.675 201.342 189.208 189.642 193.719 189.642C198.23 189.642 201.763 201.342 201.763 216.278C201.763 231.215 198.23 242.915 193.719 242.915ZM193.719 190.373C189.755 190.373 186.406 202.236 186.406 216.278C186.406 230.321 189.755 242.184 193.719 242.184C197.683 242.184 201.032 230.321 201.032 216.278C201.032 202.236 197.683 190.373 193.719 190.373Z" fill="#3F3D56"/>
<path d="M194.633 222.396C196.349 222.396 197.741 219.657 197.741 216.278C197.741 212.9 196.349 210.161 194.633 210.161C192.917 210.161 191.525 212.9 191.525 216.278C191.525 219.657 192.917 222.396 194.633 222.396Z" fill="#CFCCE0"/>
<path d="M187.869 133.28L237.96 133.097V152.831L187.869 154.852V133.28Z" fill="#3F3D56"/>
<path d="M145.089 200.211L144.359 200.171L146.572 159.971H191.891V160.702H147.264L145.089 200.211Z" fill="#3F3D56"/>
<path d="M145.014 265.265L119.42 260.878L119.572 260.162L145.166 264.55L145.014 265.265Z" fill="#3F3D56"/>
<path d="M150.239 273.683L150.179 274.413L181.258 276.972L181.318 276.243L150.239 273.683Z" fill="#3F3D56"/>
<path d="M222.329 200.249C222.055 201.13 221.797 202.03 221.554 202.948L220.79 203.032L197.01 205.675L142.531 200.191L199.203 197.266L221.613 200.158L222.329 200.249Z" fill="#3F3D56"/>
<path d="M209.872 69.4078C209.872 69.4078 201.953 66.5796 196.862 77.8924C191.771 89.2052 183.853 101.649 183.853 101.649L188.378 102.78C188.378 102.78 189.509 94.8615 192.337 93.7302L191.206 103.912C191.206 103.912 225.144 115.79 240.416 102.78L239.851 98.821C239.851 98.821 242.113 99.3866 242.113 102.78L243.81 101.084C243.81 101.084 242.113 97.6897 237.023 93.1646C233.681 90.1945 232.533 84.544 232.138 81.0112C231.843 78.0612 230.663 75.2695 228.752 73.0021C225.369 69.0813 219.205 64.9141 209.872 69.4078Z" fill="#2F2E41"/>
<path d="M166.114 80.081L162.823 45.7117C162.823 45.7117 156.242 27.0645 166.114 28.5271C175.986 29.9896 170.136 44.2492 170.136 44.2492L175.62 80.081H166.114Z" fill="#FFB9B9"/>
<path d="M140.52 236.205L136.863 248.637L143.81 254.487L148.929 238.765L140.52 236.205Z" fill="#FFB9B9"/>
<path d="M168.673 245.346L165.017 258.509L177.814 266.553C177.814 266.553 178.18 251.562 180.008 248.637L168.673 245.346Z" fill="#FFB9B9"/>
<path d="M184.395 175.145L182.567 178.801C182.567 178.801 161.726 169.295 156.242 182.458C150.757 195.62 138.691 237.302 138.691 237.302L149.295 241.69L168.673 197.448L212.914 196.352L214.743 171.854L184.395 175.145Z" fill="#2F2E41"/>
<path d="M199.752 181.361C199.752 181.361 169.77 175.145 167.576 190.136C165.383 205.127 168.673 233.646 169.039 234.377C169.405 235.108 167.576 248.637 167.576 248.637L180.739 250.465C180.739 250.465 189.149 210.611 185.492 200.373L210.231 198.843C218.77 198.315 225.747 191.569 226.238 183.027C226.426 179.758 225.607 176.79 222.787 175.145C214.012 170.026 197.924 170.026 197.924 170.026L199.752 181.361Z" fill="#2F2E41"/>
<path d="M141.616 248.271C141.616 248.271 139.057 242.787 135.401 245.346C131.744 247.905 123.335 253.39 123.335 253.39C123.335 253.39 110.326 257.971 121.872 261.068C132.143 263.823 134.669 263.262 134.669 263.262C134.669 263.262 143.079 264.724 144.176 263.993C145.273 263.262 146.004 251.562 146.004 251.562C146.004 251.562 140.885 250.465 141.616 248.271Z" fill="#2F2E41"/>
<path d="M170.136 259.606C170.136 259.606 166.48 254.487 163.92 256.681C161.361 258.874 152.22 265.09 152.22 265.09C152.22 265.09 136.863 269.478 150.392 273.5C163.92 277.522 178.911 276.79 179.277 275.328C179.642 273.865 178.545 263.262 178.545 263.262C178.545 263.262 170.867 262.896 170.136 259.606Z" fill="#2F2E41"/>
<path d="M214.011 105.675C221.281 105.675 227.174 99.782 227.174 92.5124C227.174 85.2429 221.281 79.3497 214.011 79.3497C206.742 79.3497 200.849 85.2429 200.849 92.5124C200.849 99.782 206.742 105.675 214.011 105.675Z" fill="#FFB9B9"/>
<path d="M204.505 98.3625C204.505 98.3625 203.774 113.353 200.117 114.45C196.461 115.547 186.223 127.613 190.977 131.269C195.73 134.926 223.152 132.366 223.152 132.366L220.593 113.353C220.593 113.353 214.743 109.331 219.496 102.384L204.505 98.3625Z" fill="#FFB9B9"/>
<path d="M204.139 123.225L201.58 111.16L193.17 107.869L186.223 123.957C186.223 123.957 178.362 176.059 180.556 176.79C181.787 177.225 183.092 177.411 184.395 177.339C184.395 177.339 196.095 173.682 199.752 175.511C203.408 177.339 222.421 178.801 222.421 178.801C222.421 178.801 235.584 171.854 234.852 165.639C234.121 159.423 234.852 124.688 234.852 124.688L233.207 109.149L218.78 111.405L204.139 123.225Z" fill="#CFCCE0"/>
<path d="M193.536 109.697L193.17 107.503L182.933 95.0718L177.083 74.2308L162.823 79.7153L173.061 104.944L187.686 123.591L193.536 109.697Z" fill="#CFCCE0"/>
<path d="M196.719 94.0866C196.719 94.0866 201.244 87.8646 205.204 86.7333C209.163 85.602 209.729 79.9456 209.729 79.9456C209.729 79.9456 219.91 91.2584 226.132 91.824C232.354 92.3897 226.698 78.2487 226.698 78.2487L215.385 75.4205L204.638 76.5518L196.153 82.2082L196.719 94.0866Z" fill="#2F2E41"/>
<path d="M239.057 178.631L238.704 163.628H204.678L203.591 203.857L202.86 203.837L203.966 162.896H239.411L239.422 163.249L239.788 178.606L239.057 178.631Z" fill="#3F3D56"/>
<path d="M238.326 158.143H237.594V130.234L249.397 133.66L249.193 134.363L238.326 131.208V158.143Z" fill="#3F3D56"/>
<path d="M241.799 177.887C233.247 177.887 225.748 186.82 221.613 200.158C221.32 201.094 221.046 202.055 220.79 203.032C219.049 209.869 218.184 216.901 218.216 223.957C218.216 249.361 228.794 270.026 241.799 270.026C254.805 270.026 265.383 249.361 265.383 223.957C265.383 198.553 254.805 177.887 241.799 177.887ZM241.799 269.295C229.2 269.295 218.947 248.955 218.947 223.957C218.914 216.871 219.79 209.81 221.554 202.948C221.796 202.03 222.054 201.13 222.33 200.249C226.355 187.28 233.576 178.618 241.799 178.618C254.399 178.618 264.651 198.959 264.651 223.957C264.651 248.955 254.399 269.295 241.799 269.295Z" fill="#3F3D56"/>
<path d="M247.467 250.593C242.956 250.593 239.423 238.893 239.423 223.957C239.423 209.02 242.956 197.32 247.467 197.32C251.977 197.32 255.511 209.02 255.511 223.957C255.511 238.893 251.977 250.593 247.467 250.593ZM247.467 198.052C243.503 198.052 240.154 209.915 240.154 223.957C240.154 237.999 243.503 249.862 247.467 249.862C251.43 249.862 254.779 237.999 254.779 223.957C254.779 209.915 251.43 198.052 247.467 198.052Z" fill="#3F3D56"/>
<path d="M248.381 230.075C250.097 230.075 251.489 227.336 251.489 223.957C251.489 220.578 250.097 217.839 248.381 217.839C246.664 217.839 245.273 220.578 245.273 223.957C245.273 227.336 246.664 230.075 248.381 230.075Z" fill="#CFCCE0"/>
<path d="M243.445 129.624L251.123 132.549L249.66 136.571L243.445 134.011V129.624Z" fill="#3F3D56"/>
<path d="M213.097 161.068V166.918H234.882V161.457L213.097 161.068Z" fill="#3F3D56"/>
<path d="M157.156 158.143V163.993H178.94V158.532L157.156 158.143Z" fill="#3F3D56"/>
<path d="M231.617 34.3365H82.5771V0.583252H231.617V34.3365ZM83.4539 33.4598H230.741V1.45996H83.4539V33.4598Z" fill="#3F3D56"/>
<path d="M111.07 11.9805H94.4128V28.6379H111.07V11.9805Z" fill="#CC00B9"/>
<path d="M108.878 26.446H91.3442V8.91187H108.878V26.446ZM92.2209 25.5693H108.002V9.78857H92.2209V25.5693Z" fill="#3F3D56"/>
<path d="M214.521 12.4187H136.495V13.2954H214.521V12.4187Z" fill="#3F3D56"/>
<path d="M214.521 18.5557H136.495V19.4324H214.521V18.5557Z" fill="#3F3D56"/>
<path d="M214.521 24.6926H136.495V25.5693H214.521V24.6926Z" fill="#3F3D56"/>
<path d="M197.009 143.948H196.832V139.08C196.832 138.332 196.535 137.616 196.006 137.087C195.478 136.559 194.761 136.262 194.014 136.262H183.699C182.951 136.262 182.235 136.559 181.706 137.087C181.178 137.616 180.881 138.332 180.881 139.08V165.79C180.881 166.537 181.178 167.254 181.706 167.783C182.235 168.311 182.951 168.608 183.699 168.608H194.014C194.761 168.608 195.478 168.311 196.006 167.783C196.535 167.254 196.832 166.537 196.832 165.79V147.414H197.009V143.948Z" fill="#3F3D56"/>
<path d="M188.945 146.285C189.899 146.285 190.671 145.512 190.671 144.559C190.671 143.606 189.899 142.833 188.945 142.833C187.992 142.833 187.219 143.606 187.219 144.559C187.219 145.512 187.992 146.285 188.945 146.285Z" fill="#D0CDE1"/>
<path d="M232.687 161.421L198.167 160.771C198.167 160.771 178.891 165.184 181.47 155.543C184.048 145.902 197.548 153.34 197.548 153.34L233.771 151.976L232.687 161.421Z" fill="#FFB9B9"/>
<path d="M229.185 111.708L232.476 109.149C232.476 109.149 237.96 106.224 239.057 116.461C240.154 126.699 248.198 160.703 240.154 161.068C232.11 161.434 211.635 161.799 211.635 161.799L213.829 150.465L230.648 149.368L229.185 111.708Z" fill="#CFCCE0"/>
<path opacity="0.15" d="M230.282 127.43L229.185 148.271L213.097 151.562L227.722 145.712L230.282 127.43Z" fill="black"/>
</g>
<defs>
<clipPath id="clip0_67_505">
<rect width="400" height="276.417" fill="white" transform="translate(0 0.583252)"/>
</clipPath>
</defs>
</svg>
