<svg width="48" height="48" viewBox="0 0 48 48" fill="none" xmlns="http://www.w3.org/2000/svg">
<path d="M36.8 38.2C35.3 38.2 34.1 39.4 34.1 40.9C34.1 42.4 35.3 43.6 36.8 43.6C38.3 43.6 39.5 42.4 39.5 40.9C39.5 39.4 38.3 38.2 36.8 38.2Z" fill="#D023BE"/>
<path d="M23.8 13.7C26.1 13.7 28 11.8 28 9.49999C28 7.19999 26.1 5.29999 23.8 5.29999C21.5 5.29999 19.6 7.19999 19.6 9.49999C19.6 11.8 21.5 13.7 23.8 13.7Z" fill="#D023BE"/>
<path d="M13.1 26.2L16.1 20.9L21.2 19.4C21.2 19.5 21.9 23.4 21.9 23.4C24.9 23.5 27.7 24.8 29.7 26.8L28.1 18.3C27.7 16.4 25.9 15.1 24 15.5C23.9 15.5 23.5 15.6 23.4 15.6L14.7 18.1C14.3 18.2 14 18.5 13.8 18.8L10.5 24.6C10.1 25.3 10.3 26.2 11.1 26.6C11.3 26.7 11.6 26.8 11.8 26.8C12.3 26.9 12.8 26.6 13.1 26.2Z" fill="#D023BE"/>
<path d="M35.3 35.3C35.3 36.1 36 36.8 36.8 36.8C37.6 36.8 38.3 36.1 38.3 35.3V30C38.3 29.2 37.6 28.5 36.8 28.5H31.1C31.7 29.4 32.1 30.4 32.4 31.5H35.2V35.3H35.3Z" fill="#D023BE"/>
<path d="M30.1 31C29.8 30.2 29.3 29.4 28.7 28.7C27.1 26.8 24.9 25.6 22.3 25.4C22.1 25.4 21.9 25.4 21.7 25.4C16.7 25.4 12.5 29.5 12.5 34.6C12.5 39.7 16.6 43.8 21.7 43.8C26.8 43.8 30.9 39.7 30.9 34.6C30.9 33.6 30.7 32.6 30.4 31.6C30.3 31.4 30.2 31.2 30.1 31ZM21.7 41.7C17.8 41.7 14.5 38.5 14.5 34.5C14.5 30.5 17.7 27.3 21.7 27.3C22.1 27.3 22.4 27.3 22.7 27.4C25.7 27.8 28 30.1 28.7 33C28.8 33.5 28.9 34 28.9 34.5C28.8 38.4 25.6 41.7 21.7 41.7Z" fill="#D023BE"/>
<path d="M21.7 37.2C23.1912 37.2 24.4 35.9912 24.4 34.5C24.4 33.0088 23.1912 31.8 21.7 31.8C20.2088 31.8 19 33.0088 19 34.5C19 35.9912 20.2088 37.2 21.7 37.2Z" fill="#D023BE"/>
</svg>
