<svg width="48" height="48" viewBox="0 0 48 48" fill="none" xmlns="http://www.w3.org/2000/svg">
<path d="M31.7 31.4L36.3 34.9" stroke="#D023BE" stroke-width="2.5427" stroke-miterlimit="10" stroke-linecap="round" stroke-linejoin="round"/>
<path d="M18.7 38.1C27.5366 38.1 34.7 30.9365 34.7 22.1C34.7 13.2634 27.5366 6.09998 18.7 6.09998C9.86344 6.09998 2.7 13.2634 2.7 22.1C2.7 30.9365 9.86344 38.1 18.7 38.1Z" stroke="#D023BE" stroke-width="3" stroke-miterlimit="10" stroke-linecap="round" stroke-linejoin="round"/>
<path fill-rule="evenodd" clip-rule="evenodd" d="M47 41.3L45.4 43.4C44.9 44 44 44.1 43.4 43.7L34 36.5C33.4 36 33.3 35.1 33.7 34.5L35.3 32.4C35.8 31.8 36.7 31.7 37.3 32.1L46.7 39.3C47.3 39.8 47.5 40.7 47 41.3Z" fill="#D023BE"/>
<path d="M26 16.5999L20.5 17.0999C20.3 17.0999 20.1 17.0999 19.9 17.0999H17.5C17.3 17.0999 17.1 17.0999 16.9 17.0999L11.4 16.5999C10.5 16.4999 9.8 17.1999 9.7 17.9999C9.6 18.8999 10.3 19.5999 11.1 19.6999L15.5 20.0999C15.8 20.0999 16 20.3999 16 20.5999V21.7999C16 22.0999 16 22.2999 15.9 22.5999L13.4 28.9999C13 29.7999 13.4 30.6999 14.2 31.0999C15 31.4999 15.9 31.0999 16.3 30.2999L18.7 24.3999L21.1 30.2999C21.5 31.0999 22.4 31.3999 23.2 31.0999C24 30.7999 24.3 29.7999 24 29.0999L21.5 22.6999C21.4 22.4999 21.4 22.1999 21.4 21.8999V20.6999C21.4 20.3999 21.6 20.1999 21.9 20.1999L26.3 19.7999C27.2 19.6999 27.8 18.9999 27.7 18.0999C27.6 17.0999 26.9 16.4999 26 16.5999Z" fill="#D023BE"/>
<path d="M18.7 15.9C20.0807 15.9 21.2 14.7807 21.2 13.4C21.2 12.0193 20.0807 10.9 18.7 10.9C17.3193 10.9 16.2 12.0193 16.2 13.4C16.2 14.7807 17.3193 15.9 18.7 15.9Z" fill="#D023BE"/>
</svg>
