<?xml version="1.0" encoding="UTF-8"?>
<svg width="600px" height="400px" viewBox="0 0 600 400" version="1.1" xmlns="http://www.w3.org/2000/svg" xmlns:xlink="http://www.w3.org/1999/xlink">
    <title>Combined Shape</title>
    <g id="Page-1" stroke="none" stroke-width="1" fill="none" fill-rule="evenodd">
        <g id="flag-European-Union" fill="#CC00B9">
            <path d="M600,0.04 L600,400 L0,400 L0,0.04 L600,0.04 Z M299.932,313.274 L294.941,328.633 L278.792,328.633 L291.857,338.125 L286.867,353.484 L299.932,343.992 L312.997,353.484 L308.006,338.125 L321.071,328.633 L304.922,328.633 L299.932,313.274 Z M233.296,295.364 L228.305,310.723 L212.156,310.723 L225.221,320.215 L220.231,335.574 L233.296,326.082 L246.361,335.574 L241.371,320.215 L254.436,310.723 L238.286,310.723 L233.296,295.364 Z M366.704,295.364 L361.714,310.723 L345.564,310.723 L358.629,320.215 L353.639,335.574 L366.704,326.082 L379.769,335.574 L374.779,320.215 L387.844,310.723 L371.695,310.723 L366.704,295.364 Z M415.503,246.594 L410.513,261.953 L394.363,261.953 L407.428,271.445 L402.438,286.804 L415.503,277.312 L428.568,286.804 L423.578,271.445 L436.643,261.953 L420.493,261.953 L415.503,246.594 Z M184.497,246.594 L179.507,261.953 L163.357,261.953 L176.422,271.445 L171.432,286.804 L184.497,277.312 L197.562,286.804 L192.572,271.445 L205.637,261.953 L189.487,261.953 L184.497,246.594 Z M433.311,179.804 L428.32,195.163 L412.171,195.163 L425.236,204.655 L420.245,220.014 L433.311,210.522 L446.376,220.014 L441.385,204.655 L454.45,195.163 L438.301,195.163 L433.311,179.804 Z M166.689,179.804 L161.699,195.163 L145.55,195.163 L158.615,204.655 L153.624,220.014 L166.689,210.522 L179.755,220.014 L174.764,204.655 L187.829,195.163 L171.68,195.163 L166.689,179.804 Z M415.503,113.196 L410.513,128.555 L394.363,128.555 L407.428,138.047 L402.438,153.406 L415.503,143.914 L428.568,153.406 L423.578,138.047 L436.643,128.555 L420.493,128.555 L415.503,113.196 Z M184.497,113.196 L179.507,128.555 L163.357,128.555 L176.422,138.047 L171.432,153.406 L184.497,143.914 L197.562,153.406 L192.572,138.047 L205.637,128.555 L189.487,128.555 L184.497,113.196 Z M233.296,64.426 L228.305,79.785 L212.156,79.785 L225.221,89.277 L220.231,104.636 L233.296,95.144 L246.361,104.636 L241.371,89.277 L254.436,79.785 L238.286,79.785 L233.296,64.426 Z M366.704,64.426 L361.714,79.785 L345.564,79.785 L358.629,89.277 L353.639,104.636 L366.704,95.144 L379.769,104.636 L374.779,89.277 L387.844,79.785 L371.695,79.785 L366.704,64.426 Z M299.932,46.516 L294.941,61.875 L278.792,61.875 L291.857,71.367 L286.867,86.726 L299.932,77.234 L312.997,86.726 L308.006,71.367 L321.071,61.875 L304.922,61.875 L299.932,46.516 Z" id="Combined-Shape"></path>
        </g>
    </g>
</svg>