<svg width="48" height="48" viewBox="0 0 48 48" fill="none" xmlns="http://www.w3.org/2000/svg">
<path d="M34 40.6C34 41.2 33.6 41.6 33 41.6H14.1C13.5 41.6 13.1 41.2 13.1 40.6V7.40002C13.1 6.80002 13.5 6.40002 14.1 6.40002H33C33.6 6.40002 34 6.80002 34 7.40002V23.9L36 25.4V7.40002C36 5.70002 34.7 4.40002 33 4.40002H14.1C12.4 4.40002 11.1 5.70002 11.1 7.40002V40.7C11.1 42.4 12.4 43.7 14.1 43.7H33C34.7 43.7 36 42.4 36 40.7V33.6L34 32.1V40.6Z" fill="#D023BE"/>
<path d="M23.6 40C24.1523 40 24.6 39.5523 24.6 39C24.6 38.4477 24.1523 38 23.6 38C23.0477 38 22.6 38.4477 22.6 39C22.6 39.5523 23.0477 40 23.6 40Z" fill="#D023BE"/>
<path d="M12.1 35.7H34.8" stroke="#D023BE" stroke-width="2" stroke-miterlimit="10" stroke-linecap="round" stroke-linejoin="round"/>
<path d="M29.9 24.8L31.9 26.4" stroke="#D023BE" stroke-width="2" stroke-miterlimit="10" stroke-linecap="round" stroke-linejoin="round"/>
<path d="M23.5 27.8C27.6974 27.8 31.1 24.3974 31.1 20.2C31.1 16.0027 27.6974 12.6 23.5 12.6C19.3026 12.6 15.9 16.0027 15.9 20.2C15.9 24.3974 19.3026 27.8 23.5 27.8Z" stroke="#D023BE" stroke-width="2" stroke-miterlimit="10" stroke-linecap="round" stroke-linejoin="round"/>
<path fill-rule="evenodd" clip-rule="evenodd" d="M36.6 29.9C36.2 30.5 35.4 30.6 34.8 30.2L31.3 27.5C30.7 27.1 30.6 26.3 31.1 25.7C31.5 25.1 32.3 25 32.9 25.5L36.4 28.2C37 28.5 37.1 29.3 36.6 29.9Z" fill="#D023BE"/>
<path d="M27.1 17.8C27 17.8 27 17.8 27.1 17.8L24.4 18C24.3 18 24.2 18 24.1 18H23C22.9 18 22.8 18 22.7 18L20.1 17.8H20C19.5 17.8 19.1 18.2001 19.1 18.7001C19.1 19.2001 19.5 19.7001 20 19.7001L22.1 19.9V20.5C22.1 20.6 22.1 20.7 22 20.8L20.8 23.9C20.7 24.1 20.7 24.4001 20.8 24.6C20.9 24.8 21.1 25.0001 21.3 25.1C21.4 25.2 21.6 25.2001 21.7 25.2001C22.1 25.2001 22.4 25.0001 22.6 24.6L23.6 22.2001L24.6 24.6C24.8 24.9001 25.1 25.2001 25.5 25.2001C25.6 25.2001 25.8 25.2 25.9 25.1C26.4 24.9001 26.6 24.3 26.4 23.9L25 20.8C25 20.7 24.9 20.6 24.9 20.5V20L27 19.8C27.5 19.8 27.9 19.3 27.9 18.8C28 18.2 27.6 17.8 27.1 17.8Z" fill="#D023BE"/>
<path d="M23.5 17.3C24.2 17.3 24.7 16.8 24.7 16.1C24.7 15.4 24.2 14.9 23.5 14.9C22.8 14.9 22.3 15.4 22.3 16.1C22.3 16.8 22.9 17.3 23.5 17.3Z" fill="#D023BE"/>
</svg>
