<svg width="48" height="48" viewBox="0 0 48 48" fill="none" xmlns="http://www.w3.org/2000/svg">
<path d="M45.8 5.49999C45.8 4.89999 45.3 4.29999 44.6 4.29999H37.8H30.7H28.4C26.6 4.29999 25 5.19999 24 6.49999C23 5.19999 21.4 4.29999 19.6 4.29999H3.4C2.7 4.29999 2.2 4.79999 2.2 5.49999V39.2C2.2 39.9 2.7 40.4 3.4 40.4H19.6C21.1 40.4 22.4 41.4 22.8 42.8C22.9 43.3 23.4 43.7 23.9 43.7H24H24.2C24.7 43.7 25.2 43.3 25.3 42.8C25.7 41.4 27 40.4 28.5 40.4H44.7C45.4 40.4 45.9 39.9 45.9 39.2V33.7V5.49999H45.8ZM19.6 38H4.6V6.69999H19.6C21.4 6.69999 22.9 8.19999 22.9 9.99999V39.1C21.9 38.4 20.8 38 19.6 38ZM43.5 38H28.5C27.3 38 26.2 38.4 25.2 39V9.89999C25.2 8.09999 26.7 6.59999 28.5 6.59999H29.6V17.4C29.6 17.9 29.9 18.3 30.3 18.5C30.7 18.7 31.2 18.6 31.6 18.3L34.4 15.9L37.2 18.3C37.4 18.5 37.7 18.6 38 18.6C38.2 18.6 38.3 18.6 38.5 18.5C38.9 18.3 39.2 17.9 39.2 17.4V6.69999H43.7V33.6V38H43.5Z" fill="#D023BE"/>
<path d="M19.1 13.8H8.3C7.7 13.8 7.3 14.2 7.3 14.8C7.3 15.4 7.7 15.8 8.3 15.8H19.1C19.7 15.8 20.1 15.4 20.1 14.8C20.1 14.2 19.7 13.8 19.1 13.8Z" fill="#D023BE"/>
<path d="M19.1 17.8H8.3C7.7 17.8 7.3 18.2 7.3 18.8C7.3 19.4 7.7 19.8 8.3 19.8H19.1C19.7 19.8 20.1 19.4 20.1 18.8C20.1 18.2 19.7 17.8 19.1 17.8Z" fill="#D023BE"/>
<path d="M19.1 21.9H8.3C7.7 21.9 7.3 22.3 7.3 22.9C7.3 23.5 7.7 23.9 8.3 23.9H19.1C19.7 23.9 20.1 23.5 20.1 22.9C20.1 22.3 19.7 21.9 19.1 21.9Z" fill="#D023BE"/>
<path d="M19.1 25.9H8.3C7.7 25.9 7.3 26.3 7.3 26.9C7.3 27.5 7.7 27.9 8.3 27.9H19.1C19.7 27.9 20.1 27.5 20.1 26.9C20.1 26.3 19.7 25.9 19.1 25.9Z" fill="#D023BE"/>
<path d="M19.1 30H8.3C7.7 30 7.3 30.4 7.3 31C7.3 31.6 7.7 32 8.3 32H19.1C19.7 32 20.1 31.6 20.1 31C20.1 30.4 19.7 30 19.1 30Z" fill="#D023BE"/>
</svg>
