<svg width="48" height="48" viewBox="0 0 48 48" fill="none" xmlns="http://www.w3.org/2000/svg">
<path d="M41.1 21.6L38.4 21.4C38.2 20.1 37.8 19.2 37.4 18.5L39.5 16.6C39.6 16.5 39.6 16.3 39.5 16.1L36.7 13C36.6 12.9 36.4 12.8 36.2 13L34.2 14.8C33.3 14.2 32.4 13.7 31.4 13.4L31.6 10.7C31.6 10.5 31.5 10.4 31.3 10.3H30.1L27.1 10.1C26.9 10.1 26.8 10.2 26.7 10.4L26.5 13.1C26.1 13.2 25.7 13.3 25.3 13.4C25.3 13.5 25.3 13.6 25.3 13.8C25.3 13.9 25.3 14 25.3 14.1C25.1 15.4 24.7 16.5 23.9 17.5C25.2 16.5 26.9 15.9 28.7 16H28.8C29.1 16 29.4 16.1 29.7 16.1C33.1 16.8 35.5 19.9 35.3 23.5C35.1 26.9 32.5 29.5 29.3 30L30 32.9H30.1C31.1 32.7 32.1 32.4 33 31.9L34.9 34C35 34.1 35.2 34.1 35.4 34L38.5 31.3C38.6 31.2 38.7 31 38.5 30.8L36.7 28.7C37.3 27.9 37.7 27.1 38 26L40.7 26.2C40.8 26.2 40.9 26.2 40.9 26.1C41 26 41 26 41 25.9L41.3 22C41.4 21.8 41.3 21.6 41.1 21.6Z" fill="#D023BE"/>
<path d="M25.6 22.3C25.4 21.4 24.6 20.8 23.7 20.8H11.9C11.5 20.8 11 21 10.7 21.2C10.4 21.5 10.1 21.8 10 22.3L6.6 37C6.4 38 7 39 8.1 39.4C8.2 39.4 8.4 39.4 8.5 39.4C9.4 39.4 10.2 38.8 10.4 37.8L13.1 26.6V40.6H22.4V26.6L25 37.9C25.2 38.8 26 39.5 26.9 39.5C27 39.5 27.2 39.5 27.3 39.5C27.4 39.5 27.6 39.4 27.7 39.4C27.9 39.3 28.2 39.1 28.3 38.9C28.4 38.8 28.5 38.7 28.5 38.6C28.6 38.4 28.7 38.1 28.8 37.9C28.8 37.7 28.8 37.5 28.8 37.2C28.9 37.2 25.6 22.3 25.6 22.3Z" fill="#D023BE"/>
<path d="M17.8 18.7C18.3 18.7 18.8 18.6 19.2 18.5C19.4 18.5 19.5 18.4 19.7 18.4C19.9 18.3 20 18.3 20.2 18.2C21.7 17.5 22.8 16.2 23.3 14.6C23.3 14.5 23.4 14.3 23.4 14.2C23.4 14.1 23.4 13.9 23.5 13.8C23.5 13.6 23.5 13.3 23.5 13.1C23.5 10 21 7.5 17.9 7.5C14.8 7.5 12.3 10 12.3 13.1C12.3 16.2 14.7 18.7 17.8 18.7Z" fill="#D023BE"/>
</svg>
