<svg width="50" height="50" viewBox="0 0 50 50" fill="none" xmlns="http://www.w3.org/2000/svg">
<path d="M27.2413 6.91601C30.198 3.019 34.3085 3 34.3085 3C34.3085 3 34.92 6.66385 31.9826 10.1933C28.8463 13.962 25.2814 13.3453 25.2814 13.3453C25.2814 13.3453 24.6121 10.3814 27.2413 6.91601ZM25.6575 15.9118C27.1786 15.9118 30.0016 13.8209 33.6762 13.8209C40.0013 13.8209 42.4896 18.3217 42.4896 18.3217C42.4896 18.3217 37.623 20.8099 37.623 26.8475C37.623 33.6584 43.6855 36.0056 43.6855 36.0056C43.6855 36.0056 39.4476 47.9339 33.7233 47.9339C31.0941 47.9339 29.0501 46.1622 26.2799 46.1622C23.4569 46.1622 20.6555 48 18.8308 48C13.6037 48.0001 7 36.6849 7 27.5894C7 18.6407 12.5896 13.9463 17.8324 13.9463C21.2407 13.9463 23.8856 15.9118 25.6575 15.9118Z" fill="#D023BE"/>
</svg>
