<svg width="50" height="50" viewBox="0 0 50 50" fill="none" xmlns="http://www.w3.org/2000/svg">
<g clip-path="url(#clip0_1721_2095)">
<path d="M24.614 0.046C24.619 0.031 24.62 0.015 24.618 0H25.447C25.443 0.016 25.444 0.032 25.45 0.047C25.171 0.181 24.893 0.181 24.614 0.046Z" fill="#94F1C6"/>
<path d="M46.749 12.2231C47.339 13.0481 47.635 13.9681 47.635 14.9811C47.635 21.5531 47.643 28.1251 47.631 34.6981C47.627 36.6981 46.742 38.2341 45.022 39.2531C39.353 42.6091 33.677 45.9531 28.003 49.2981C27.094 49.8341 26.107 50.0561 25.055 49.9891C25.391 49.8731 25.366 49.5981 25.366 49.3191C25.362 46.4441 25.364 43.5691 25.364 40.6931C25.364 40.5381 25.351 40.3821 25.392 40.2301C25.44 40.0951 25.551 40.0581 25.679 40.0521C26.157 40.0281 26.588 39.8601 26.993 39.6201C29.649 38.0421 32.315 36.4791 34.974 34.9061C35.746 34.4491 36.532 34.0121 37.291 33.5351C38.203 32.9611 38.74 32.1311 38.742 31.0291C38.751 27.0151 38.742 23.0011 38.75 18.9871C38.751 18.4791 38.641 18.0141 38.405 17.5721C38.36 17.4881 38.312 17.4061 38.308 17.3071C38.316 17.1741 38.421 17.1201 38.516 17.0631C40.675 15.7691 42.834 14.4771 44.998 13.1911C45.48 12.9051 45.959 12.6151 46.44 12.3281C46.535 12.2721 46.626 12.1971 46.749 12.2251V12.2231Z" fill="#E254D3"/>
<path d="M25.455 40.1691C25.452 41.0151 25.447 41.8611 25.447 42.7061C25.446 44.9851 25.447 47.2641 25.446 49.5431C25.446 49.9581 25.441 49.9581 25.055 49.9881C24.216 49.9291 23.445 49.6661 22.712 49.2511C16.763 45.8861 10.811 42.5261 4.858 39.1691C3.765 38.5531 3.134 37.6401 3 36.3881C3.002 36.3281 3.007 36.2681 3.007 36.2071C3.007 29.1561 3.007 22.1041 3.007 15.0531C3.007 14.9931 3.002 14.9331 3 14.8721C3.057 14.1621 3.182 13.4691 3.527 12.8321C3.621 12.7921 3.694 12.8451 3.768 12.8871C5.529 13.8761 7.293 14.8601 9.054 15.8491C9.995 16.3771 10.935 16.9071 11.881 17.4271C11.979 17.4811 12.084 17.5261 12.147 17.6271C12.154 17.6551 12.154 17.6821 12.148 17.7101C11.959 18.1811 11.883 18.6661 11.884 19.1761C11.893 23.3541 11.89 27.5321 11.888 31.7101C11.888 32.4951 12.212 33.0901 12.896 33.4801C14.725 34.5231 16.563 35.5511 18.395 36.5891C20.212 37.6181 22.031 38.6441 23.851 39.6691C24.23 39.8831 24.636 40.0251 25.076 40.0491C25.197 40.0561 25.316 40.0741 25.425 40.1351L25.455 40.1671V40.1691Z" fill="#9C1A8E"/>
<path d="M12.125 17.631C10.786 16.885 9.446 16.139 8.107 15.392C6.58 14.54 5.053 13.687 3.526 12.834C3.909 11.936 4.554 11.275 5.383 10.784C6.688 10.011 7.995 9.243 9.301 8.472C13.657 5.902 18.013 3.332 22.369 0.761997C23.063 0.352997 23.809 0.107997 24.613 0.0469971H25.449C26.172 0.104997 26.857 0.296997 27.488 0.652997C33.264 3.912 39.038 7.173 44.811 10.436C45.594 10.879 46.259 11.457 46.748 12.223C44.986 13.274 43.222 14.323 41.461 15.375C40.418 15.998 39.379 16.627 38.338 17.254C38.316 17.273 38.292 17.276 38.267 17.263C38.141 17.181 38.065 17.051 37.969 16.941C37.527 16.432 36.932 16.143 36.362 15.822C34.948 15.026 33.537 14.223 32.122 13.427C30.324 12.415 28.534 11.389 26.731 10.384C25.617 9.763 24.512 9.81 23.413 10.46C20.039 12.456 16.662 14.448 13.284 16.437C12.905 16.66 12.596 16.953 12.352 17.319C12.281 17.425 12.234 17.551 12.124 17.629L12.125 17.631Z" fill="#D023BE"/>
<path d="M38.294 17.249C38.309 17.252 38.324 17.253 38.339 17.254C38.492 17.617 38.707 17.954 38.779 18.351C38.799 18.462 38.818 18.57 38.818 18.682C38.818 22.852 38.827 27.022 38.809 31.192C38.806 31.991 38.43 32.663 37.837 33.2C37.167 33.809 36.335 34.168 35.572 34.629C33.79 35.707 31.99 36.755 30.196 37.814C29.129 38.444 28.064 39.078 26.992 39.701C26.572 39.945 26.127 40.126 25.627 40.122C25.57 40.122 25.512 40.151 25.454 40.167L25.431 40.17C25.364 40.081 25.364 39.976 25.363 39.873C25.354 38.432 25.278 36.993 25.31 35.552C25.313 35.432 25.303 35.31 25.343 35.193C25.376 35.11 25.45 35.08 25.527 35.07C26.041 35.006 26.466 34.734 26.896 34.479C28.992 33.239 31.09 32.002 33.189 30.767C33.92 30.337 34.291 29.708 34.289 28.848C34.282 26.3 34.281 23.752 34.291 21.204C34.293 20.761 34.215 20.348 34.028 19.952C34.028 19.836 34.123 19.796 34.198 19.743C35.448 18.866 36.762 18.089 38.075 17.312C38.142 17.272 38.207 17.229 38.292 17.247L38.294 17.249Z" fill="#DE39CC"/>
<path d="M38.294 17.2489C36.868 18.1099 35.429 18.9529 34.063 19.9099C34.018 19.9059 33.977 19.8879 33.951 19.8519C33.578 19.3229 33.011 19.0529 32.471 18.7479C30.495 17.6329 28.517 16.5199 26.545 15.3979C26.515 15.3809 26.483 15.3659 26.454 15.3479C25.567 14.7939 24.72 14.8639 23.832 15.4059C21.762 16.6689 19.663 17.8819 17.572 19.1099C17.148 19.3589 16.769 19.6469 16.53 20.0889C16.509 20.1269 16.477 20.1569 16.438 20.1779C16.333 20.2019 16.256 20.1389 16.177 20.0899C15.021 19.3729 13.853 18.6769 12.663 18.0179C12.479 17.9159 12.256 17.8659 12.13 17.6709C12.127 17.6579 12.125 17.6439 12.125 17.6299C12.331 17.1049 12.699 16.7139 13.172 16.4309C14.678 15.5289 16.191 14.6389 17.703 13.7469C19.645 12.6009 21.58 11.4439 23.533 10.3189C24.653 9.67394 25.784 9.74894 26.895 10.3919C27.789 10.9089 28.693 11.4099 29.591 11.9199C30.579 12.4809 31.565 13.0449 32.554 13.6039C33.551 14.1679 34.555 14.7179 35.547 15.2909C36.217 15.6779 36.924 16.0029 37.547 16.4689C37.838 16.6869 38.092 16.9429 38.294 17.2479V17.2489Z" fill="#BB20AB"/>
<path d="M12.13 17.671C13.312 18.3 14.478 18.957 15.61 19.671C15.878 19.84 16.152 20.001 16.424 20.166C16.487 20.236 16.461 20.314 16.437 20.386C16.344 20.662 16.345 20.945 16.345 21.231C16.347 23.941 16.351 26.652 16.342 29.362C16.34 29.988 16.596 30.423 17.14 30.73C19.214 31.9 21.292 33.065 23.361 34.244C23.653 34.411 23.95 34.57 24.24 34.74C24.527 34.907 24.836 35.011 25.163 35.063C25.247 35.076 25.338 35.07 25.399 35.148C25.402 35.414 25.406 35.681 25.409 35.947C25.422 37.252 25.434 38.557 25.445 39.863C25.445 39.966 25.436 40.069 25.431 40.171C24.493 40.163 23.725 39.699 22.948 39.252C22.076 38.75 21.196 38.259 20.321 37.763C19.198 37.127 18.076 36.488 16.952 35.853C16.075 35.357 15.197 34.866 14.319 34.372C13.787 34.072 13.244 33.789 12.726 33.466C12.138 33.099 11.819 32.546 11.818 31.851C11.811 27.507 11.813 23.164 11.817 18.82C11.817 18.413 11.905 18.022 12.128 17.671H12.13Z" fill="#8C1780"/>
</g>
<defs>
<clipPath id="clip0_1721_2095">
<rect width="50" height="50" fill="white"/>
</clipPath>
</defs>
</svg>
