<svg width="48" height="48" viewBox="0 0 48 48" fill="none" xmlns="http://www.w3.org/2000/svg">
<path d="M42.2 19.7H39.3C39.5 19.5 39.7 19.3 39.7 18.9C39.7 18.4 39.4 18.1 38.9 17.9V16.8C38.9 14.7 37.2 12.9 35 12.9H28.6C27.6 12.9 26.7 12.1 26.7 11V9.59998C26.7 8.99998 26.3 8.59998 25.7 8.59998C25.1 8.59998 24.7 8.99998 24.7 9.59998V11.2C24.7 13.3 26.4 15.1 28.6 15.1H35C36 15.1 36.9 15.9 36.9 17V18C36.4 18 36 18.4 36 19C36 19.3 36.1 19.6 36.4 19.8H5.8C4.1 19.8 2.8 21.1 2.8 22.8V36.5C2.8 38.2 4.1 39.5 5.8 39.5H42.1C43.8 39.5 45.1 38.2 45.1 36.5V22.7C45.2 21 43.8 19.7 42.2 19.7ZM43.2 36.4C43.2 37 42.8 37.4 42.2 37.4H5.8C5.2 37.4 4.8 37 4.8 36.4V22.7C4.8 22.1 5.2 21.7 5.8 21.7H42.1C42.7 21.7 43.1 22.1 43.1 22.7V36.4H43.2Z" fill="#D023BE"/>
<path d="M38.3 24.6H35C34.4 24.6 34 25 34 25.6C34 26.2 34.4 26.6 35 26.6H38.3C38.9 26.6 39.3 26.2 39.3 25.6C39.3 25.1 38.8 24.6 38.3 24.6Z" fill="#D023BE"/>
<path d="M30.6 24.6H30C29.4 24.6 29 25 29 25.6C29 26.2 29.4 26.6 30 26.6H30.6C31.2 26.6 31.6 26.2 31.6 25.6C31.6 25.1 31.2 24.6 30.6 24.6Z" fill="#D023BE"/>
<path d="M25.5 24.6H25C24.4 24.6 24 25 24 25.6C24 26.2 24.4 26.6 25 26.6H25.6C26.2 26.6 26.6 26.2 26.6 25.6C26.5 25.1 26.1 24.6 25.5 24.6Z" fill="#D023BE"/>
<path d="M20.4 24.6H19.8C19.2 24.6 18.8 25 18.8 25.6C18.8 26.2 19.2 26.6 19.8 26.6H20.4C21 26.6 21.4 26.2 21.4 25.6C21.4 25.1 21 24.6 20.4 24.6Z" fill="#D023BE"/>
<path d="M15.3 24.6H14.7C14.1 24.6 13.7 25 13.7 25.6C13.7 26.2 14.1 26.6 14.7 26.6H15.3C15.9 26.6 16.3 26.2 16.3 25.6C16.3 25.1 15.9 24.6 15.3 24.6Z" fill="#D023BE"/>
<path d="M10.3 24.6H9.7C9.1 24.6 8.7 25 8.7 25.6C8.7 26.2 9.1 26.6 9.7 26.6H10.3C10.9 26.6 11.3 26.2 11.3 25.6C11.3 25.1 10.8 24.6 10.3 24.6Z" fill="#D023BE"/>
<path d="M30.6 28.6H30C29.4 28.6 29 29 29 29.6C29 30.2 29.4 30.6 30 30.6H30.6C31.2 30.6 31.6 30.2 31.6 29.6C31.6 29 31.2 28.6 30.6 28.6Z" fill="#D023BE"/>
<path d="M25.5 28.6H25C24.4 28.6 24 29 24 29.6C24 30.2 24.4 30.6 25 30.6H25.6C26.2 30.6 26.6 30.2 26.6 29.6C26.5 29 26.1 28.6 25.5 28.6Z" fill="#D023BE"/>
<path d="M20.4 28.6H19.8C19.2 28.6 18.8 29 18.8 29.6C18.8 30.2 19.2 30.6 19.8 30.6H20.4C21 30.6 21.4 30.2 21.4 29.6C21.4 29 21 28.6 20.4 28.6Z" fill="#D023BE"/>
<path d="M15.3 28.6H14.7C14.1 28.6 13.7 29 13.7 29.6C13.7 30.2 14.1 30.6 14.7 30.6H15.3C15.9 30.6 16.3 30.2 16.3 29.6C16.3 29 15.9 28.6 15.3 28.6Z" fill="#D023BE"/>
<path d="M10.3 28.6H9.7C9.1 28.6 8.7 29 8.7 29.6C8.7 30.2 9.1 30.6 9.7 30.6H10.3C10.9 30.6 11.3 30.2 11.3 29.6C11.3 29 10.8 28.6 10.3 28.6Z" fill="#D023BE"/>
<path d="M30.6 32.5H30C29.4 32.5 29 32.9 29 33.5C29 34.1 29.4 34.5 30 34.5H30.6C31.2 34.5 31.6 34.1 31.6 33.5C31.6 32.9 31.2 32.5 30.6 32.5Z" fill="#D023BE"/>
<path d="M25.5 32.5H25C24.4 32.5 24 32.9 24 33.5C24 34.1 24.4 34.5 25 34.5H25.6C26.2 34.5 26.6 34.1 26.6 33.5C26.5 32.9 26.1 32.5 25.5 32.5Z" fill="#D023BE"/>
<path d="M20.4 32.5H19.8C19.2 32.5 18.8 32.9 18.8 33.5C18.8 34.1 19.2 34.5 19.8 34.5H20.4C21 34.5 21.4 34.1 21.4 33.5C21.4 32.9 21 32.5 20.4 32.5Z" fill="#D023BE"/>
<path d="M15.3 32.5H14.7C14.1 32.5 13.7 32.9 13.7 33.5C13.7 34.1 14.1 34.5 14.7 34.5H15.3C15.9 34.5 16.3 34.1 16.3 33.5C16.3 32.9 15.9 32.5 15.3 32.5Z" fill="#D023BE"/>
<path d="M10.3 32.5H9.7C9.1 32.5 8.7 32.9 8.7 33.5C8.7 34.1 9.1 34.5 9.7 34.5H10.3C10.9 34.5 11.3 34.1 11.3 33.5C11.3 32.9 10.8 32.5 10.3 32.5Z" fill="#D023BE"/>
<path d="M38.3 28.6H35C34.4 28.6 34 29 34 29.6C34 30.2 34.4 30.6 35 30.6H38.3C38.9 30.6 39.3 30.2 39.3 29.6C39.3 29 38.8 28.6 38.3 28.6Z" fill="#D023BE"/>
<path d="M38.3 32.5H35C34.4 32.5 34 32.9 34 33.5C34 34.1 34.4 34.5 35 34.5H38.3C38.9 34.5 39.3 34.1 39.3 33.5C39.3 32.9 38.8 32.5 38.3 32.5Z" fill="#D023BE"/>
</svg>
