<svg width="50" height="50" viewBox="0 0 50 50" fill="none" xmlns="http://www.w3.org/2000/svg">
<path d="M46.3835 23.2448L36.8254 6.69084C36.4064 5.64422 35.2897 5 34.0806 5H14.9664C13.7573 5 12.6424 5.64422 11.8524 6.69084L2.29433 23.2448C1.87531 24.2914 1.87531 25.5799 2.47892 26.6265L12.037 43.1804C12.6406 44.2271 13.7573 44.8713 14.9664 44.8713H34.0806C35.2897 44.8713 36.4046 44.2271 37.01 43.1804L46.5681 26.6265C47.1717 25.5799 47.1717 24.2914 46.3835 23.2448ZM38.8707 32.6884H35.5647C35.3506 32.6884 35.1531 32.5739 35.046 32.3894L28.8715 21.6943L27.033 24.9984L30.4202 30.8665C30.6509 31.2652 30.363 31.7654 29.9015 31.7654H26.5955C26.3814 31.7654 26.1839 31.651 26.0768 31.4664L24.7312 29.1332L23.4372 31.4572C23.332 31.6473 23.1308 31.7654 22.913 31.7654H19.6365C19.1787 31.7654 18.8907 31.2744 19.1123 30.8757L22.3629 25.0353L20.5004 21.8087L14.6157 32.3801C14.5104 32.5703 14.3092 32.6884 14.0914 32.6884H10.815C10.3572 32.6884 10.0692 32.1974 10.2907 31.7987L18.1321 17.7108L19.4427 15.3536L19.8801 14.5691C20.1035 14.1667 20.6794 14.1575 20.9175 14.5506L22.8963 17.8363L24.6647 20.9005L26.5032 17.5964L28.2919 14.3845C28.5189 13.9784 29.1022 13.9729 29.3348 14.3771L31.1733 17.5595L39.3894 31.7894C39.6201 32.1882 39.3322 32.6884 38.8707 32.6884Z" fill="#D023BE"/>
</svg>
