<svg width="48" height="48" viewBox="0 0 48 48" fill="none" xmlns="http://www.w3.org/2000/svg">
<path d="M12.6 40.6V7.40002C12.6 6.30002 13.5 5.40002 14.6 5.40002H33.5C34.6 5.40002 35.5 6.30002 35.5 7.40002V40.7C35.5 41.8 34.6 42.7 33.5 42.7H14.6C13.5 42.6 12.6 41.7 12.6 40.6Z" stroke="#D023BE" stroke-width="2" stroke-miterlimit="10" stroke-linecap="round" stroke-linejoin="round"/>
<path d="M24 40C24.5523 40 25 39.5523 25 39C25 38.4477 24.5523 38 24 38C23.4477 38 23 38.4477 23 39C23 39.5523 23.4477 40 24 40Z" fill="#CE23BC"/>
<path d="M12.6 35.7H35.4" stroke="#D023BE" stroke-width="2" stroke-miterlimit="10" stroke-linecap="round" stroke-linejoin="round"/>
<path d="M28.3 23.6L31.7 20.2L28.3 16.9" stroke="#D023BE" stroke-width="2" stroke-miterlimit="10" stroke-linecap="round" stroke-linejoin="round"/>
<path d="M19.7 16.9L16.3 20.4L19.7 23.6" stroke="#D023BE" stroke-width="2" stroke-miterlimit="10" stroke-linecap="round" stroke-linejoin="round"/>
<path d="M25.5 16.3L22.5 24.2001" stroke="#D023BE" stroke-width="2" stroke-miterlimit="10" stroke-linecap="round" stroke-linejoin="round"/>
</svg>
