<svg width="48" height="48" viewBox="0 0 48 48" fill="none" xmlns="http://www.w3.org/2000/svg">
<path d="M37.8889 4C41.264 4 44 6.73604 44 10.1111V37.8889C44 41.264 41.264 44 37.8889 44H10.1111C6.73604 44 4 41.264 4 37.8889V10.1111C4 6.73604 6.73604 4 10.1111 4H37.8889ZM37.8889 7.33333H10.1111C8.57698 7.33333 7.33333 8.57698 7.33333 10.1111V37.8889C7.33333 39.4231 8.57698 40.6667 10.1111 40.6667H37.8889C39.4231 40.6667 40.6667 39.4231 40.6667 37.8889V10.1111C40.6667 8.57698 39.4231 7.33333 37.8889 7.33333ZM19.5556 29.4207L33.9327 15.0437C34.5836 14.3928 35.6387 14.3928 36.2896 15.0437C36.8813 15.6354 36.9351 16.5613 36.4509 17.2138L36.2896 17.4007L20.734 32.9562C20.1424 33.548 19.2164 33.6018 18.564 33.1176L18.377 32.9562L11.7104 26.2896C11.0595 25.6387 11.0595 24.5836 11.7104 23.9327C12.3021 23.3409 13.228 23.2871 13.8805 23.7713L14.0674 23.9327L19.5556 29.4207L33.9327 15.0437L19.5556 29.4207Z" fill="#D023BE"/>
</svg>
