<svg width="50" height="50" viewBox="0 0 50 50" fill="none" xmlns="http://www.w3.org/2000/svg">
<path d="M47 25.0417C47 22.0607 43.2669 19.2356 37.5432 17.4837C38.8641 11.65 38.2769 7.00876 35.6901 5.52289C35.0637 5.17128 34.3546 4.99388 33.6364 5.00912V7.05464C33.9998 7.04349 34.36 7.12582 34.6825 7.29374C35.93 8.00926 36.4711 10.7334 36.0492 14.2373C35.9484 15.0995 35.7832 16.0075 35.5815 16.9339C33.6643 16.4718 31.7185 16.1378 29.757 15.9342C28.5882 14.322 27.3132 12.7896 25.9403 11.3473C28.9306 8.56771 31.7373 7.04537 33.6451 7.04537V5C31.1227 5 27.8205 6.79775 24.4818 9.91655C21.1433 6.81613 17.8407 5.03676 15.3185 5.03676V7.08214C17.2171 7.08214 20.0331 8.59565 23.0232 11.3561C21.6572 12.7933 20.3915 14.3225 19.235 15.9331C17.2695 16.1345 15.3203 16.4717 13.4013 16.9421C13.1903 16.0249 13.0344 15.1351 12.9243 14.2821C12.4932 10.7782 13.0252 8.05409 14.2634 7.32946C14.5872 7.15635 14.9516 7.07375 15.3183 7.09035V5.04588C14.594 5.03046 13.8786 5.20771 13.2453 5.5595C10.6679 7.04537 10.09 11.6775 11.42 17.4928C5.71476 19.254 2 22.0698 2 25.0417C2 28.0227 5.73314 30.8479 11.4568 32.5998C10.1359 38.4334 10.7231 43.0747 13.3098 44.5606C13.9394 44.9134 14.6521 45.0908 15.3736 45.0742C17.896 45.0742 21.1981 43.2764 24.5369 40.1576C27.8757 43.2579 31.1777 45.0374 33.7002 45.0374C34.4245 45.0528 35.1399 44.8756 35.7732 44.5238C38.3506 43.0379 38.9285 38.4058 37.5985 32.5905C43.2852 30.838 47 28.0136 47 25.0417ZM35.0576 18.9237C34.7182 20.107 34.2962 21.3268 33.8193 22.5468C33.4432 21.8131 33.0488 21.0792 32.6177 20.3455C32.1958 19.6117 31.7463 18.8959 31.2968 18.1991C32.5993 18.3917 33.8559 18.6302 35.0576 18.9237ZM30.8568 28.6924C30.1413 29.9306 29.4073 31.1048 28.6463 32.1963C27.2797 32.3158 25.8946 32.3798 24.5004 32.3798C23.1154 32.3798 21.7304 32.3155 20.3728 32.2055C19.6112 31.1139 18.8712 29.952 18.1527 28.7199C17.4553 27.5183 16.8194 26.3014 16.2448 25.0692C16.8136 23.8401 17.4553 22.611 18.1435 21.4095C18.859 20.1712 19.593 18.9971 20.354 17.9056C21.7206 17.786 23.1057 17.7221 24.4998 17.7221C25.8848 17.7221 27.2698 17.7863 28.6275 17.8963C29.3888 18.9878 30.1288 20.1496 30.8473 21.3818C31.5447 22.5834 32.1806 23.8003 32.7552 25.0325C32.1774 26.2616 31.5443 27.4906 30.8568 28.6924ZM33.8195 27.5C34.3147 28.7291 34.7367 29.9583 35.0852 31.1507C33.8836 31.4442 32.6178 31.6918 31.3062 31.8844C31.7557 31.1782 32.2051 30.4535 32.6271 29.7105C33.0488 28.9768 33.4432 28.2337 33.8193 27.5H33.8195ZM24.5187 37.2869C23.6189 36.3529 22.7679 35.3732 21.9688 34.3518C22.7943 34.3884 23.6382 34.416 24.4912 34.416C25.3534 34.416 26.2064 34.3977 27.0411 34.3518C26.2537 35.3749 25.4116 36.3547 24.5184 37.2869H24.5187ZM17.6941 31.8841C16.3916 31.6915 15.1349 31.453 13.9335 31.1595C14.2728 29.9762 14.6947 28.7563 15.1717 27.5363C15.5478 28.2701 15.9422 29.004 16.3734 29.7377C16.8045 30.4715 17.2447 31.1873 17.6941 31.8841ZM24.4725 12.7962C25.3722 13.7302 26.2233 14.7099 27.0224 15.7314C26.1969 15.6946 25.353 15.6671 24.5 15.6671C23.6377 15.6671 22.7847 15.6855 21.9501 15.7314C22.7374 14.7083 23.5794 13.7286 24.4725 12.7965V12.7962ZM17.685 18.1988C17.2355 18.905 16.7861 19.6296 16.3641 20.3727C15.9422 21.1064 15.5477 21.8403 15.1717 22.574C14.6765 21.3449 14.2545 20.1158 13.906 18.9234C15.1076 18.6393 16.3733 18.3917 17.685 18.1991V18.1988ZM9.38393 29.683C6.13692 28.298 4.03641 26.4819 4.03641 25.0417C4.03641 23.6016 6.13692 21.7763 9.38393 20.4004C10.1728 20.0611 11.0349 19.7579 11.9244 19.4739C12.4855 21.3804 13.175 23.2466 13.9882 25.06C13.1837 26.8645 12.5034 28.7219 11.9519 30.6191C11.0442 30.3343 10.1819 30.0224 9.38393 29.683ZM14.3187 42.7903C13.0712 42.0748 12.5301 39.3507 12.9521 35.8468C13.053 34.9845 13.2181 34.0765 13.4198 33.1501C15.337 33.6122 17.2828 33.9462 19.2444 34.1499C20.4129 35.7618 21.6876 37.2939 23.0602 38.736C20.0699 41.5156 17.2633 43.0379 15.3554 43.0379C14.9947 43.0421 14.6386 42.957 14.3187 42.7903ZM36.0757 35.8009C36.5068 39.3048 35.9748 42.0289 34.7366 42.7536C34.4128 42.9267 34.0484 43.0093 33.6817 42.9927C31.7831 42.9927 28.967 41.4793 25.9769 38.7187C27.3429 37.2812 28.6086 35.7516 29.765 34.1406C31.7305 33.9392 33.6797 33.6021 35.5987 33.1316C35.8046 34.0124 35.9638 34.9035 36.0757 35.801V35.8009ZM39.6071 29.6829C38.8182 30.0222 37.9561 30.3254 37.0666 30.6094C36.5055 28.703 35.816 26.8367 35.0029 25.0233C35.8073 23.2188 36.4876 21.3614 37.0391 19.4642C37.9473 19.7481 38.8094 20.0605 39.6165 20.3999C42.8635 21.7849 44.964 23.601 44.964 25.0411C44.9546 26.4817 42.8541 28.3071 39.6071 29.683V29.6829Z" fill="#D023BE"/>
<path d="M24.4909 29.2335C26.8059 29.2335 28.6827 27.3568 28.6827 25.0417C28.6827 22.7267 26.8059 20.85 24.4909 20.85C22.1758 20.85 20.2991 22.7267 20.2991 25.0417C20.2991 27.3568 22.1758 29.2335 24.4909 29.2335Z" fill="#D023BE"/>
</svg>
