<svg width="50" height="50" viewBox="0 0 50 50" fill="none" xmlns="http://www.w3.org/2000/svg">
<path d="M1 25.2V34.8C1 36.1275 2.0725 37.2 3.4 37.2H5.8V22.8H3.4C2.0725 22.8 1 23.8725 1 25.2ZM35.8 13.2H27.4V8.4C27.4 7.0725 26.3275 6 25 6C23.6725 6 22.6 7.0725 22.6 8.4V13.2H14.2C10.885 13.2 8.2 15.885 8.2 19.2V39.6C8.2 42.2475 10.3525 44.4 13 44.4H37C39.6475 44.4 41.8 42.2475 41.8 39.6V19.2C41.8 15.885 39.115 13.2 35.8 13.2ZM20.2 37.2H15.4V34.8H20.2V37.2ZM17.8 28.2C16.1425 28.2 14.8 26.8575 14.8 25.2C14.8 23.5425 16.1425 22.2 17.8 22.2C19.4575 22.2 20.8 23.5425 20.8 25.2C20.8 26.8575 19.4575 28.2 17.8 28.2ZM27.4 37.2H22.6V34.8H27.4V37.2ZM34.6 37.2H29.8V34.8H34.6V37.2ZM32.2 28.2C30.5425 28.2 29.2 26.8575 29.2 25.2C29.2 23.5425 30.5425 22.2 32.2 22.2C33.8575 22.2 35.2 23.5425 35.2 25.2C35.2 26.8575 33.8575 28.2 32.2 28.2ZM46.6 22.8H44.2V37.2H46.6C47.9275 37.2 49 36.1275 49 34.8V25.2C49 23.8725 47.9275 22.8 46.6 22.8Z" fill="#CC00B9"/>
</svg>
