<svg width="48" height="48" viewBox="0 0 48 48" fill="none" xmlns="http://www.w3.org/2000/svg">
<path d="M17.2 37.2C16.7 37.2 16.2 37.6 16.2 38.2C16.2 38.8 16.6 39.2 17.2 39.2C17.8 39.2 18.2 38.8 18.2 38.2C18.2 37.6 17.7 37.2 17.2 37.2Z" fill="#D023BE" stroke="#D023BE" stroke-width="0.75" stroke-miterlimit="10"/>
<path d="M45.9 38.7L43.9 35.1C43.6 34.5 43.6 34.1 43.8 33.3C44 32.2 44.4 30.7 43.2 28.7L37.5 18.6C36.6 16.9 34.8 16.8 33.5 17.6C33.1 17.8 32.7 18.2 32.4 18.6C31.6 18.1 30.6 18 29.6 18.4V6.5C29.6 4.8 28.3 3.5 26.6 3.5H7.79999C6.09999 3.5 4.79999 4.8 4.79999 6.5V34.8V39.8C4.79999 41.5 6.09999 42.8 7.79999 42.8H24.3C25.8 44.4 28.1 45 30.3 44.5L31.7 46.9C31.9 47.2 32.2 47.4 32.6 47.4C32.8 47.4 32.9 47.4 33.1 47.3L45.7 40.2C45.9 40.1 46.1 39.9 46.2 39.6C46.1 39.2 46 39 45.9 38.7ZM32.8 45L31.5 42.8C31.3 42.5 31 42.3 30.6 42.3C30.5 42.3 30.3 42.3 30.2 42.4C29.4 42.7 28.5 42.8 27.7 42.6C26.7 42.4 25.7 41.8 25.1 40.8C25 40.7 25 40.6 24.9 40.6L22.2 35.9L21.1 33.9L18.3 28.8C19.8 27.9 20.5 28.3 21.3 29.1C21.3 29.1 21.3 29.1 21.4 29.1L24.1 33.8L24.5 34.5C24.7 34.8 25 35 25.4 35C25.6 35 25.7 35 25.9 34.9C26.3 34.7 26.5 34.2 26.4 33.8C26.4 33.7 26.4 33.6 26.3 33.5L23 27.8L19.9 22.3L18.9 20.5L16.3 16C16.1 15.7 16.1 15.4 16.2 15C16.3 14.7 16.5 14.4 16.8 14.2C17.1 14 17.4 14 17.8 14.1C18.1 14.2 18.4 14.4 18.6 14.7L21.2 19.2L22.2 21L23.9 24.1C24.2 24.6 24.8 24.8 25.3 24.5C25.8 24.2 25.9 23.6 25.7 23.1C25.5 22.8 25.5 22.5 25.6 22.2C25.7 21.9 25.9 21.6 26.2 21.5C26.5 21.4 26.8 21.3 27.1 21.4C27.4 21.5 27.6 21.7 27.8 21.9C27.8 21.9 27.8 21.9 27.8 22L28.2 22.7C28.5 23.2 29.1 23.3 29.6 23.1C29.7 23.1 29.7 23 29.8 22.9C30.1 22.6 30.2 22.1 30 21.7C29.9 21.5 29.8 21.2 29.9 20.9C30 20.6 30.1 20.4 30.4 20.3L30.5 20.2C31 19.9 31.6 20.1 31.9 20.6L32.4 21.5C32.7 22 33.3 22.2 33.8 21.9C34.3 21.6 34.4 21 34.2 20.5C33.8 19.8 34.5 19.3 34.6 19.2C34.7 19.1 35.5 18.7 35.9 19.5L41.6 29.6C42.4 31 42.2 31.8 42 32.8C41.8 33.7 41.5 34.8 42.3 36.1L43.8 38.8L32.8 45ZM22.4 17.4L20.3 13.8C19.9 13 19.2 12.5 18.3 12.3C17.5 12.1 16.6 12.2 15.8 12.6C15 13 14.5 13.7 14.3 14.6C14.1 15.4 14.2 16.3 14.6 17.1L16.7 20.8C16.5 20.8 16.3 20.7 16.1 20.7H16C15.7 20.6 15.5 20.5 15.3 20.4C15.2 20.4 15.2 20.3 15.1 20.3C14.8 20.2 14.6 20 14.3 19.8C14.1 19.6 13.9 19.4 13.7 19.2C13.6 19.1 13.6 19.1 13.5 19C13.3 18.8 13.1 18.5 13 18.2C11.6 15.7 12.5 12.5 15 11.1C15.3 10.9 15.6 10.8 15.9 10.7C16 10.7 16 10.7 16.1 10.6C16.4 10.5 16.7 10.4 17 10.4H17.1C17.3 10.4 17.5 10.4 17.6 10.4C17.7 10.4 17.8 10.4 17.9 10.4C18 10.4 18 10.4 18.1 10.4C18.4 10.4 18.7 10.5 19 10.6H19.1C19.4 10.7 19.6 10.8 19.9 10.9C20 10.9 20 11 20.1 11C20.4 11.1 20.6 11.3 20.9 11.5C21.1 11.7 21.3 11.9 21.5 12.1C21.6 12.2 21.6 12.2 21.7 12.3C21.9 12.5 22.1 12.8 22.2 13.1C22.8 14.3 22.9 16 22.4 17.4ZM6.79999 6.5C6.79999 5.9 7.19999 5.5 7.79999 5.5H26.7C27.3 5.5 27.7 5.9 27.7 6.5V19.6C27.7 19.6 27.6 19.6 27.6 19.5C26.8 19.3 25.9 19.4 25.2 19.8C24.9 20 24.5 20.3 24.3 20.6L23.7 19.5C24.1 18.9 24.4 18.2 24.6 17.5C25.1 15.6 24.9 13.7 23.9 12C22.6 9.7 20.2 8.3 17.6 8.3C16.4 8.3 15.1 8.6 14 9.2C12.3 10.2 11.1 11.7 10.6 13.6C10.1 15.5 10.3 17.4 11.3 19.1C12.6 21.4 15 22.8 17.6 22.8C17.7 22.8 17.8 22.8 18 22.8L20 26.3C19.3 26.3 18.5 26.6 17.6 27.1C16.6 27.7 16.3 28.9 16.8 29.9L19.1 33.9H6.79999V6.5ZM7.79999 40.8C7.19999 40.8 6.79999 40.4 6.79999 39.8V35.8H20.1L22.9 40.8H7.79999Z" fill="#D023BE"/>
<path d="M32.6 7.9C33.8 8.4 34.8 9.3 35.3 10.6C35.8 11.8 35.8 13.1 35.3 14.3C35.2 14.5 35.3 14.8 35.6 14.9C35.8 15 36.1 14.9 36.2 14.6C36.8 13.2 36.8 11.6 36.2 10.2C35.6 8.7 34.5 7.6 33 7C32.9 7 32.8 7 32.6 7C32.5 7 32.4 7.1 32.3 7.3C32.2 7.5 32.3 7.8 32.6 7.9Z" fill="#D023BE" stroke="#D023BE" stroke-width="0.75" stroke-miterlimit="10"/>
<path d="M35 5.19998C36.7 5.99998 38.1 7.39998 38.8 9.19998C39.5 11 39.5 12.9 38.8 14.7C38.7 14.9 38.8 15.2 39.1 15.3C39.3 15.4 39.6 15.3 39.7 15C40.5 13 40.5 10.8 39.7 8.79998C38.9 6.79998 37.4 5.19998 35.4 4.29998C35.3 4.19998 35.1 4.19998 35 4.29998C34.9 4.29998 34.8 4.39998 34.7 4.49998C34.6 4.79998 34.7 5.09998 35 5.19998Z" fill="#D023BE" stroke="#D023BE" stroke-width="0.75" stroke-miterlimit="10"/>
<path d="M37.3 2.6C39.5 3.6 41.3 5.5 42.2 7.8C43.1 10.1 43.2 12.6 42.3 14.9C42.2 15.1 42.3 15.4 42.6 15.5C42.8 15.6 43.1 15.5 43.2 15.2C44.2 12.7 44.1 9.9 43.1 7.4C42.1 4.9 40.2 2.9 37.7 1.7C37.6 1.6 37.4 1.6 37.3 1.7C37.2 1.7 37.1 1.8 37.1 1.9C36.9 2.2 37 2.4 37.3 2.6Z" fill="#D023BE" stroke="#D023BE" stroke-width="0.75" stroke-miterlimit="10"/>
</svg>
