<svg width="50" height="50" viewBox="0 0 50 50" fill="none" xmlns="http://www.w3.org/2000/svg">
<path fill-rule="evenodd" clip-rule="evenodd" d="M36.8989 3H11.9454C11.7518 3 11.5582 3 11.3822 3.03516C9.58726 3.12305 7.82749 3.7207 6.33168 4.74023C4.87107 5.72461 3.69202 7.11328 2.93532 8.69531C2.28421 10.0313 1.96745 11.5078 2.00264 13.002V37.998C2.00264 39.5098 2.337 41.0215 3.00571 42.375C3.78001 43.957 4.97666 45.3281 6.43727 46.3125C7.93307 47.3145 9.71044 47.8945 11.5054 47.9824C11.875 48 36.4062 48 36.8813 48C37.9548 48 39.0106 47.8594 40.0313 47.543C41.7031 47.0156 43.2517 46.0312 44.4307 44.7129C45.6274 43.3945 46.4545 41.7598 46.8064 40.0195C46.9648 39.2637 47 38.4727 47 37.6992V13.3887C47 12.7383 46.9824 12.0879 46.8768 11.4375C46.6129 9.67969 45.8561 7.99219 44.7123 6.62109C43.586 5.25 42.0902 4.19531 40.4361 3.59766C39.2922 3.19336 38.1132 3 36.8989 3ZM37.4727 30.8965C37.4727 30.8965 42.2715 19.7695 27.4355 9.67969C27.4355 9.67969 33.5 17.3262 30.4063 25.9043C30.4063 25.9043 19.5078 18.1523 14.0234 12.5977C14.0234 12.5977 20.8789 22.4766 23.3223 24.498C23.3223 24.498 19.2266 22.3711 9.75195 14.3027C9.75195 14.3027 20.6328 28.5059 25.748 31.4766C25.748 31.4766 17.9961 36.7676 6.64063 29.2969C6.64063 29.2969 12.5996 39.8262 25.2031 39.8262C28.523 39.8262 30.4642 38.8223 32.0693 37.9922C33.2008 37.407 34.1653 36.9082 35.3281 36.9082C38.2461 36.9082 39.9863 39.8262 39.9863 39.8262C41.6914 35.6602 37.4727 30.8965 37.4727 30.8965Z" fill="#D023BE"/>
</svg>
