<svg width="48" height="48" viewBox="0 0 48 48" fill="none" xmlns="http://www.w3.org/2000/svg">
<path d="M19.9 22H10.7C9.50001 22 8.60001 21.1 8.60001 19.9V10.7C8.60001 9.49997 9.50001 8.59998 10.7 8.59998H19.9C21.1 8.59998 22 9.49997 22 10.7V19.9C21.9 21.1 21 22 19.9 22Z" stroke="#D023BE" stroke-width="2" stroke-miterlimit="10" stroke-linecap="round" stroke-linejoin="round"/>
<path d="M37.4 22H28.2C27 22 26.1 21.1 26.1 19.9V10.7C26.1 9.49997 27 8.59998 28.2 8.59998H37.4C38.6 8.59998 39.5 9.49997 39.5 10.7V19.9C39.5 21 38.5 22 37.4 22Z" fill="#D023BE" stroke="#D023BE" stroke-width="2" stroke-miterlimit="10" stroke-linecap="round" stroke-linejoin="round"/>
<path d="M19.9 39.4H10.7C9.50001 39.4 8.60001 38.5 8.60001 37.3V28.1C8.60001 26.9 9.50001 26 10.7 26H19.9C21.1 26 22 26.9 22 28.1V37.3C21.9 38.5 21 39.4 19.9 39.4Z" fill="#D023BE" stroke="#D023BE" stroke-width="2" stroke-miterlimit="10" stroke-linecap="round" stroke-linejoin="round"/>
<path d="M37.4 39.4H28.2C27 39.4 26.1 38.5 26.1 37.3V28.1C26.1 26.9 27 26 28.2 26H37.4C38.6 26 39.5 26.9 39.5 28.1V37.3C39.5 38.5 38.5 39.4 37.4 39.4Z" stroke="#D023BE" stroke-width="2" stroke-miterlimit="10" stroke-linecap="round" stroke-linejoin="round"/>
</svg>
