<svg width="48" height="48" viewBox="0 0 48 48" fill="none" xmlns="http://www.w3.org/2000/svg">
<path d="M15.7 19.7C18.0196 19.7 19.9 17.8196 19.9 15.5C19.9 13.1804 18.0196 11.3 15.7 11.3C13.3804 11.3 11.5 13.1804 11.5 15.5C11.5 17.8196 13.3804 19.7 15.7 19.7Z" stroke="#D023BE" stroke-width="2" stroke-miterlimit="10" stroke-linecap="round" stroke-linejoin="round"/>
<path d="M40.4 13.1H19.9C19.3 13.1 18.9 13.5 18.9 14.1C18.9 14.7 19.3 15.1 19.9 15.1H40.4C40.9 15.1 41.4 15.5 41.4 16.1V34.8C41.4 35.3 41 35.8 40.4 35.8H20.8V31.4C21 31.4 21.2 31.3 21.4 31.2L27.6 28.7C27.6 28.7 27.8 28.6 28 28.5C29.6 27.7 30.2 25.8 29.6 24.1C29.1 22.8 27.8 21.9 26.4 21.9C26 21.9 25.5 22 25.1 22.2L21.4 23.7L20.7 22.6C19.5 20.9 17.6 19.9 15.5 19.9C14.4 19.9 13.3 20.2 12.3 20.9C11.8 21.2 10.7 22.1 6.9 25C6.3 25.5 5.9 26.1 5.7 26.8L3.9 33.3C3.7 34.2 3.8 35.1 4.2 36C4.7 36.8 5.4 37.4 6.3 37.6C6.6 37.7 6.9 37.7 7.2 37.7C7.8 37.7 8.4 37.6 8.9 37.3C9.3 37.1 9.7 36.8 10 36.4C10.1 36.7 10.3 36.9 10.5 37.2C10.9 37.6 11.4 37.8 11.9 37.8H40.5C42.1 37.8 43.5 36.5 43.5 34.8V16C43.4 14.4 42 13.1 40.4 13.1ZM10.2 28.6L8.6 34.6C8.5 35 8.1 35.4 7.9 35.5C7.7 35.6 7.5 35.7 7.2 35.7C7 35.7 6.8 35.6 6.8 35.6C6 35.4 5.5 34.6 5.7 33.8L7.5 27.3C7.6 27 7.7 26.8 8 26.6C8 26.6 13.2 22.6 13.3 22.5C13.9 22.1 14.6 21.9 15.3 21.9C16.6 21.9 18 22.5 18.9 23.8L20.5 26.3L25.7 24.2C25.9 24.1 26.1 24.1 26.3 24.1C26.9 24.1 27.5 24.5 27.7 25C28 25.7 27.7 26.5 27 26.9C27 26.9 26.9 27 26.8 27L20.6 29.5C20.4 29.6 20.2 29.6 20 29.6C19.6 29.6 19.2 29.4 18.9 29.1L18.8 29V35.8H11.8V27.6L10.2 28.6Z" fill="#D023BE"/>
<path d="M32 18.4L28.2 23.7" stroke="#D023BE" stroke-width="2" stroke-miterlimit="10" stroke-linecap="round" stroke-linejoin="round"/>
<path d="M37.6 18.4H38.2" stroke="#D023BE" stroke-width="2" stroke-miterlimit="10" stroke-linecap="round" stroke-linejoin="round"/>
<path d="M34.6 26.3H38.2" stroke="#D023BE" stroke-width="2" stroke-miterlimit="10" stroke-linecap="round" stroke-linejoin="round"/>
<path d="M34.6 22.3H38.2" stroke="#D023BE" stroke-width="2" stroke-miterlimit="10" stroke-linecap="round" stroke-linejoin="round"/>
</svg>
