<?xml version="1.0" encoding="UTF-8"?>
<svg width="1022px" height="596px" viewBox="0 0 1022 596" version="1.1" xmlns="http://www.w3.org/2000/svg" xmlns:xlink="http://www.w3.org/1999/xlink">
    <title>VC00016-A000625</title>
    <g id="VC00016-A000625" stroke="none" stroke-width="1" fill="none" fill-rule="evenodd">
        <polygon id="Fill-1" fill="#CC00B9" points="0.764 595.638 1021.236 595.638 1021.236 549.849 0.764 549.849"></polygon>
        <polygon id="Fill-3" fill="#CC00B9" points="0.764 504.056 1021.236 504.056 1021.236 458.267 0.764 458.267"></polygon>
        <polygon id="Fill-5" fill="#CC00B9" points="0.764 412.475 1021.236 412.475 1021.236 366.686 0.764 366.686"></polygon>
        <polygon id="Fill-7" fill="#CC00B9" points="466.236 320.894 1021.236 320.894 1021.236 275.105 466.236 275.105"></polygon>
        <polygon id="Fill-9" fill="#CC00B9" points="466.236 229.313 1021.236 229.313 1021.236 183.524 466.236 183.524"></polygon>
        <polygon id="Fill-11" fill="#CC00B9" points="466.236 137.732 1021.236 137.732 1021.236 91.943 466.236 91.943"></polygon>
        <polygon id="Fill-13" fill="#CC00B9" points="466.236 46.15 1021.236 46.15 1021.236 0.362 466.236 0.362"></polygon>
        <path d="M466.673,0.362 L466.673,320.894 L0.764,320.894 L0.764,0.362 L466.673,0.362 Z M42.781,249.708 L38.847,261.822 L26.113,261.822 L36.414,269.309 L32.477,281.422 L42.781,273.935 L53.086,281.422 L49.152,269.309 L59.454,261.822 L46.719,261.822 L42.781,249.708 Z M117.787,249.708 L113.853,261.822 L101.118,261.822 L111.419,269.309 L107.482,281.422 L117.787,273.935 L128.092,281.422 L124.158,269.309 L134.459,261.822 L121.724,261.822 L117.787,249.708 Z M192.792,249.708 L188.858,261.822 L176.124,261.822 L186.424,269.309 L182.487,281.422 L192.792,273.935 L203.097,281.422 L199.163,269.309 L209.464,261.822 L196.73,261.822 L192.792,249.708 Z M267.797,249.708 L263.863,261.822 L251.128,261.822 L261.43,269.309 L257.492,281.422 L267.797,273.935 L278.102,281.422 L274.169,269.309 L284.469,261.822 L271.735,261.822 L267.797,249.708 Z M342.802,249.708 L338.869,261.822 L326.134,261.822 L336.435,269.309 L332.498,281.422 L342.802,273.935 L353.107,281.422 L349.174,269.309 L359.475,261.822 L346.74,261.822 L342.802,249.708 Z M417.807,249.708 L413.874,261.822 L401.139,261.822 L411.44,269.309 L407.503,281.422 L417.807,273.935 L428.112,281.422 L424.179,269.309 L434.48,261.822 L421.746,261.822 L417.807,249.708 Z M230.056,224.388 L226.122,236.502 L213.387,236.502 L223.689,243.989 L219.751,256.102 L230.056,248.616 L240.361,256.102 L236.427,243.989 L246.728,236.502 L233.993,236.502 L230.056,224.388 Z M305.061,224.388 L301.127,236.502 L288.392,236.502 L298.694,243.989 L294.756,256.102 L305.061,248.616 L315.366,256.102 L311.432,243.989 L321.733,236.502 L308.998,236.502 L305.061,224.388 Z M80.045,224.388 L76.111,236.502 L63.376,236.502 L73.677,243.989 L69.74,256.102 L80.045,248.616 L90.35,256.102 L86.416,243.989 L96.717,236.502 L83.983,236.502 L80.045,224.388 Z M380.066,224.388 L376.132,236.502 L363.397,236.502 L373.699,243.989 L369.761,256.102 L380.066,248.616 L390.371,256.102 L386.437,243.989 L396.738,236.502 L384.004,236.502 L380.066,224.388 Z M155.05,224.388 L151.117,236.502 L138.382,236.502 L148.683,243.989 L144.746,256.102 L155.05,248.616 L165.355,256.102 L161.421,243.989 L171.723,236.502 L158.988,236.502 L155.05,224.388 Z M42.781,196.202 L38.847,208.315 L26.113,208.315 L36.414,215.802 L32.477,227.916 L42.781,220.429 L53.086,227.916 L49.152,215.802 L59.454,208.315 L46.719,208.315 L42.781,196.202 Z M117.787,196.202 L113.853,208.315 L101.118,208.315 L111.419,215.802 L107.482,227.916 L117.787,220.429 L128.092,227.916 L124.158,215.802 L134.459,208.315 L121.724,208.315 L117.787,196.202 Z M192.792,196.202 L188.858,208.315 L176.124,208.315 L186.424,215.802 L182.487,227.916 L192.792,220.429 L203.097,227.916 L199.163,215.802 L209.464,208.315 L196.73,208.315 L192.792,196.202 Z M267.797,196.202 L263.863,208.315 L251.128,208.315 L261.43,215.802 L257.492,227.916 L267.797,220.429 L278.102,227.916 L274.169,215.802 L284.469,208.315 L271.735,208.315 L267.797,196.202 Z M342.802,196.202 L338.869,208.315 L326.134,208.315 L336.435,215.802 L332.498,227.916 L342.802,220.429 L353.107,227.916 L349.174,215.802 L359.475,208.315 L346.74,208.315 L342.802,196.202 Z M417.807,196.202 L413.874,208.315 L401.139,208.315 L411.44,215.802 L407.503,227.916 L417.807,220.429 L428.112,227.916 L424.179,215.802 L434.48,208.315 L421.746,208.315 L417.807,196.202 Z M80.045,170.881 L76.111,182.995 L63.376,182.995 L73.677,190.482 L69.74,202.596 L80.045,195.108 L90.35,202.596 L86.416,190.482 L96.717,182.995 L83.983,182.995 L80.045,170.881 Z M155.05,170.881 L151.117,182.995 L138.382,182.995 L148.683,190.482 L144.746,202.596 L155.05,195.108 L165.355,202.596 L161.421,190.482 L171.723,182.995 L158.988,182.995 L155.05,170.881 Z M230.056,170.881 L226.122,182.995 L213.387,182.995 L223.689,190.482 L219.751,202.596 L230.056,195.108 L240.361,202.596 L236.427,190.482 L246.728,182.995 L233.993,182.995 L230.056,170.881 Z M305.061,170.881 L301.127,182.995 L288.392,182.995 L298.694,190.482 L294.756,202.596 L305.061,195.108 L315.366,202.596 L311.432,190.482 L321.733,182.995 L308.998,182.995 L305.061,170.881 Z M380.066,170.881 L376.132,182.995 L363.397,182.995 L373.699,190.482 L369.761,202.596 L380.066,195.108 L390.371,202.596 L386.437,190.482 L396.738,182.995 L384.004,182.995 L380.066,170.881 Z M267.797,142.695 L263.863,154.808 L251.128,154.808 L261.43,162.295 L257.492,174.409 L267.797,166.922 L278.102,174.409 L274.169,162.295 L284.469,154.808 L271.735,154.808 L267.797,142.695 Z M117.787,142.695 L113.853,154.808 L101.118,154.808 L111.419,162.295 L107.482,174.409 L117.787,166.922 L128.092,174.409 L124.158,162.295 L134.459,154.808 L121.724,154.808 L117.787,142.695 Z M192.792,142.695 L188.858,154.808 L176.124,154.808 L186.424,162.295 L182.487,174.409 L192.792,166.922 L203.097,174.409 L199.163,162.295 L209.464,154.808 L196.73,154.808 L192.792,142.695 Z M42.781,142.695 L38.847,154.808 L26.113,154.808 L36.414,162.295 L32.477,174.409 L42.781,166.922 L53.086,174.409 L49.152,162.295 L59.454,154.808 L46.719,154.808 L42.781,142.695 Z M342.802,142.695 L338.869,154.808 L326.134,154.808 L336.435,162.295 L332.498,174.409 L342.802,166.922 L353.107,174.409 L349.174,162.295 L359.475,154.808 L346.74,154.808 L342.802,142.695 Z M417.807,142.695 L413.874,154.808 L401.139,154.808 L411.44,162.295 L407.503,174.409 L417.807,166.922 L428.112,174.409 L424.179,162.295 L434.48,154.808 L421.746,154.808 L417.807,142.695 Z M305.061,117.375 L301.127,129.488 L288.392,129.488 L298.694,136.975 L294.756,149.089 L305.061,141.601 L315.366,149.089 L311.432,136.975 L321.733,129.488 L308.998,129.488 L305.061,117.375 Z M80.045,117.375 L76.111,129.488 L63.376,129.488 L73.677,136.975 L69.74,149.089 L80.045,141.601 L90.35,149.089 L86.416,136.975 L96.717,129.488 L83.983,129.488 L80.045,117.375 Z M155.05,117.375 L151.117,129.488 L138.382,129.488 L148.683,136.975 L144.746,149.089 L155.05,141.601 L165.355,149.089 L161.421,136.975 L171.723,129.488 L158.988,129.488 L155.05,117.375 Z M380.066,117.375 L376.132,129.488 L363.397,129.488 L373.699,136.975 L369.761,149.089 L380.066,141.601 L390.371,149.089 L386.437,136.975 L396.738,129.488 L384.004,129.488 L380.066,117.375 Z M230.056,117.375 L226.122,129.488 L213.387,129.488 L223.689,136.975 L219.751,149.089 L230.056,141.601 L240.361,149.089 L236.427,136.975 L246.728,129.488 L233.993,129.488 L230.056,117.375 Z M192.792,89.187 L188.858,101.301 L176.124,101.301 L186.424,108.789 L182.487,120.902 L192.792,113.415 L203.097,120.902 L199.163,108.789 L209.464,101.301 L196.73,101.301 L192.792,89.187 Z M42.781,89.187 L38.847,101.301 L26.113,101.301 L36.414,108.789 L32.477,120.902 L42.781,113.415 L53.086,120.902 L49.152,108.789 L59.454,101.301 L46.719,101.301 L42.781,89.187 Z M267.797,89.187 L263.863,101.301 L251.128,101.301 L261.43,108.789 L257.492,120.902 L267.797,113.415 L278.102,120.902 L274.169,108.789 L284.469,101.301 L271.735,101.301 L267.797,89.187 Z M117.787,89.187 L113.853,101.301 L101.118,101.301 L111.419,108.789 L107.482,120.902 L117.787,113.415 L128.092,120.902 L124.158,108.789 L134.459,101.301 L121.724,101.301 L117.787,89.187 Z M342.802,89.187 L338.869,101.301 L326.134,101.301 L336.435,108.789 L332.498,120.902 L342.802,113.415 L353.107,120.902 L349.174,108.789 L359.475,101.301 L346.74,101.301 L342.802,89.187 Z M417.807,89.187 L413.874,101.301 L401.139,101.301 L411.44,108.789 L407.503,120.902 L417.807,113.415 L428.112,120.902 L424.179,108.789 L434.48,101.301 L421.746,101.301 L417.807,89.187 Z M80.045,63.868 L76.111,75.981 L63.376,75.981 L73.677,83.468 L69.74,95.581 L80.045,88.094 L90.35,95.581 L86.416,83.468 L96.717,75.981 L83.983,75.981 L80.045,63.868 Z M155.05,63.868 L151.117,75.981 L138.382,75.981 L148.683,83.468 L144.746,95.581 L155.05,88.094 L165.355,95.581 L161.421,83.468 L171.723,75.981 L158.988,75.981 L155.05,63.868 Z M230.056,63.868 L226.122,75.981 L213.387,75.981 L223.689,83.468 L219.751,95.581 L230.056,88.094 L240.361,95.581 L236.427,83.468 L246.728,75.981 L233.993,75.981 L230.056,63.868 Z M305.061,63.868 L301.127,75.981 L288.392,75.981 L298.694,83.468 L294.756,95.581 L305.061,88.094 L315.366,95.581 L311.432,83.468 L321.733,75.981 L308.998,75.981 L305.061,63.868 Z M380.066,63.868 L376.132,75.981 L363.397,75.981 L373.699,83.468 L369.761,95.581 L380.066,88.094 L390.371,95.581 L386.437,83.468 L396.738,75.981 L384.004,75.981 L380.066,63.868 Z M42.781,35.681 L38.847,47.794 L26.113,47.794 L36.414,55.281 L32.477,67.395 L42.781,59.908 L53.086,67.395 L49.152,55.281 L59.454,47.794 L46.719,47.794 L42.781,35.681 Z M117.787,35.681 L113.853,47.794 L101.118,47.794 L111.419,55.281 L107.482,67.395 L117.787,59.908 L128.092,67.395 L124.158,55.281 L134.459,47.794 L121.724,47.794 L117.787,35.681 Z M192.792,35.681 L188.858,47.794 L176.124,47.794 L186.424,55.281 L182.487,67.395 L192.792,59.908 L203.097,67.395 L199.163,55.281 L209.464,47.794 L196.73,47.794 L192.792,35.681 Z M267.797,35.681 L263.863,47.794 L251.128,47.794 L261.43,55.281 L257.492,67.395 L267.797,59.908 L278.102,67.395 L274.169,55.281 L284.469,47.794 L271.735,47.794 L267.797,35.681 Z M342.802,35.681 L338.869,47.794 L326.134,47.794 L336.435,55.281 L332.498,67.395 L342.802,59.908 L353.107,67.395 L349.174,55.281 L359.475,47.794 L346.74,47.794 L342.802,35.681 Z M417.807,35.681 L413.874,47.794 L401.139,47.794 L411.44,55.281 L407.503,67.395 L417.807,59.908 L428.112,67.395 L424.179,55.281 L434.48,47.794 L421.746,47.794 L417.807,35.681 Z" id="Combined-Shape" fill="#CC00B9"></path>
    </g>
</svg>