<svg width="48" height="48" viewBox="0 0 48 48" fill="none" xmlns="http://www.w3.org/2000/svg">
<path d="M29.3 42.7C29.8 42.7 30.3 42.3 30.3 41.7C30.3 41.2 29.9 40.7 29.3 40.7C28.7 40.7 28.3 41.1 28.3 41.7C28.3 42.3 28.7 42.7 29.3 42.7Z" fill="#CE23BC"/>
<path d="M38.7 7.09998H19.8C19.2 7.09998 18.7 7.29998 18.3 7.49998C16.7 4.89998 13.6 1.89998 7.3 1.59998C6.8 1.59998 6.3 1.99998 6.3 2.59998C6.3 3.19998 6.7 3.59998 7.3 3.59998C7.4 3.59998 7.4 3.59998 7.5 3.59998C13.3 3.89998 15.9 6.99998 17 9.19998C17.6 10.5 17.8 11.5 17.8 11.6L17.9 12.1L18.6 18C18.6 18.1 18.7 18.2 18.7 18.4L18.9 18.7L20.6 21.8C21.5 23.5 22 24.5 22.4 25.1C22.4 25.1 22.7 25.7 22.1 25.6H19.5C19.3 25.6 19.1 25.7 18.9 25.8C18.7 26 18.5 26.2 18.5 26.5L17.9 31.6L17.8 32C17.7 32.8 17.3 33.2 16.9 33.5C16.2 33.9 15.4 33.9 15.3 33.9H11.9C11.5 33.9 11.1 34.1 11 34.5C10.9 34.6 10.9 34.8 10.9 34.9V42.5C10.9 43.1 11.3 43.5 11.9 43.5C12.5 43.5 12.9 43.1 12.9 42.5V35.9H15.2C15.7 35.9 16.3 35.9 16.9 35.7V38.4V43.4C16.9 45.1 18.2 46.4 19.9 46.4H38.8C40.5 46.4 41.8 45.1 41.8 43.4V38.4V10.1C41.7 8.39998 40.4 7.09998 38.7 7.09998ZM39.7 43.4C39.7 44 39.3 44.4 38.7 44.4H19.8C19.2 44.4 18.8 44 18.8 43.4V39.4H39.7V43.4ZM20.3 27.6H22.1C22.2 27.6 23.5 27.6 24.1 26.6C24.4 26.2 24.6 25.4 24.2 24.3C24.2 24.3 24.2 24.2 24.1 24.2C24 24.1 21.1 18.6 20.5 17.6L19.7 11.4C19.7 11.4 19.6 10.5 19.1 9.39998C19.3 9.19998 19.5 9.09998 19.8 9.09998H38.7C39.3 9.09998 39.7 9.49998 39.7 10.1V37.4H18.8V34.4C19.2 33.9 19.6 33.2 19.7 32.3C19.8 32.3 20.1 29.1 20.3 27.6Z" fill="#D023BE"/>
<path d="M27.3 13.3H31.2C31.8 13.3 32.2 12.9 32.2 12.3C32.2 11.7 31.8 11.3 31.2 11.3H27.3C26.7 11.3 26.3 11.7 26.3 12.3C26.3 12.9 26.8 13.3 27.3 13.3Z" fill="#D023BE"/>
<path d="M27.7 27.4C27.7 28.5999 27.3 29.7 26.5 30.6C26.2 30.9 26.2 31.4999 26.5 31.7999C26.7 31.9999 26.9 32 27.1 32C27.3 32 27.5 31.9 27.7 31.7C28.8 30.5 29.4 28.8999 29.4 27.2999C29.4 25.5999 28.7 24 27.4 22.9C27.2 22.8 27 22.7 26.8 22.7C26.6 22.7 26.4 22.8 26.2 23C26 23.2 26 23.4 26 23.6C26 23.8 26.1 24 26.3 24.2C27.2 25 27.7 26.1999 27.7 27.4Z" fill="#D023BE"/>
<path d="M30.6 21.3C30.5 21.1 30.2 21 30 21C29.8 21 29.6 21.1 29.4 21.3C29.2 21.5 29.2 21.7 29.2 21.9C29.2 22.1 29.3 22.3 29.5 22.5C30.8 23.8 31.5 25.5 31.6 27.3C31.6 29.1 31 30.9 29.8 32.2C29.6 32.4 29.6 32.6 29.6 32.8C29.6 33 29.7 33.2 29.9 33.4C30.1 33.5 30.3 33.6 30.5 33.6C30.7 33.6 30.9 33.5 31.1 33.3C32.6 31.6 33.4 29.5 33.4 27.2C33.2 25 32.3 22.9 30.6 21.3Z" fill="#D023BE"/>
<path d="M35.2 27.2C35.3 29.6 34.4 31.9 32.8 33.7C32.7 33.9 32.6 34.1 32.6 34.3C32.6 34.5 32.7 34.7 32.9 34.9C33.1 35 33.3 35.1 33.5 35.1C33.5 35.1 33.5 35.1 33.6 35.1C33.8 35.1 34 35 34.2 34.8C36.1 32.7 37.1 30 37 27.2C36.9 24.4 35.8 21.7 33.9 19.7C33.7 19.5 33.5 19.4 33.3 19.4C33.1 19.4 32.9 19.5 32.7 19.6C32.5 19.8 32.4 20 32.4 20.2C32.4 20.4 32.5 20.6 32.6 20.8C34.2 22.5 35.1 24.8 35.2 27.2Z" fill="#D023BE"/>
</svg>
