<svg width="50" height="50" viewBox="0 0 50 50" fill="none" xmlns="http://www.w3.org/2000/svg">
<path d="M13.2765 15.1156L16.9559 27.625L20.6353 15.1156H23.2994H30.6109V16.3589L26.8548 22.8295C28.1741 23.2531 29.1721 24.023 29.8487 25.1391C30.5252 26.2559 30.8639 27.5663 30.8639 29.0715C30.8639 30.9332 30.3687 32.4979 29.3791 33.766C28.3894 35.0342 27.1078 35.6687 25.5349 35.6687C24.3504 35.6687 23.3186 35.2924 22.4395 34.5397C21.5597 33.7871 20.9087 32.7681 20.4858 31.482L22.566 30.6195C22.8707 31.3977 23.2726 32.011 23.7716 32.4589C24.2705 32.9074 24.8583 33.131 25.5349 33.131C26.2453 33.131 26.8459 32.7336 27.3366 31.9388C27.8272 31.1434 28.0726 30.1883 28.0726 29.0709C28.0726 27.8359 27.81 26.8801 27.2861 26.2035C26.6766 25.4087 25.7208 25.0107 24.4181 25.0107H23.4036V23.793L26.9558 17.652H22.6676L22.4235 18.0673L17.2083 35.6674H16.9546L13.1481 22.9299L9.34225 35.6674H9.08861L3 15.1156H5.66417L9.34353 27.625L11.8301 19.2013L10.6124 15.1156H13.2765Z" fill="#D023BE"/>
<path fill-rule="evenodd" clip-rule="evenodd" d="M44.4561 15.1156C43.9328 15.1156 43.4632 15.3041 43.1074 15.6657C42.7298 16.049 42.5196 16.5448 42.5196 17.0572C42.5196 17.5696 42.7196 18.0443 43.0863 18.4167C43.4588 18.7943 43.9386 18.9994 44.4567 18.9994C44.9633 18.9994 45.4546 18.7943 45.8373 18.4225C46.2041 18.0666 46.404 17.5919 46.404 17.0578C46.404 16.5397 46.199 16.0548 45.8431 15.6932C45.47 15.3149 44.9844 15.1156 44.4561 15.1156ZM46.1447 17.0738C46.1447 17.5217 45.9715 17.9369 45.654 18.2442C45.3192 18.5682 44.9039 18.7407 44.4452 18.7407C44.014 18.7407 43.5878 18.563 43.2697 18.2391C42.9515 17.9152 42.7732 17.4999 42.7732 17.0578C42.7732 16.6157 42.9566 16.1838 43.2856 15.8497C43.5929 15.5366 44.0082 15.3699 44.4612 15.3699C44.925 15.3699 45.3403 15.543 45.6642 15.8714C45.9773 16.1838 46.1447 16.6042 46.1447 17.0738ZM44.5097 15.9193H43.6792V18.1203H44.0945V17.1818H44.5046L44.9525 18.1203H45.4163L44.925 17.1172C45.2432 17.0521 45.4265 16.8368 45.4265 16.5237C45.4265 16.1244 45.125 15.9193 44.5097 15.9193ZM44.4343 16.1889C44.8228 16.1889 45.0004 16.2969 45.0004 16.5665C45.0004 16.8253 44.8228 16.9173 44.4446 16.9173H44.0938V16.1889H44.4343Z" fill="#D023BE"/>
<path d="M41.1893 15L41.6212 17.6239L40.0936 20.5468C40.0936 20.5468 39.5071 19.3067 38.5328 18.6206C37.7119 18.0424 37.1771 17.9165 36.3408 18.089C35.2668 18.3107 34.0491 19.5949 33.5176 21.1781C32.8819 23.0724 32.8755 23.9892 32.8531 24.8312C32.8173 26.1812 33.0301 26.9792 33.0301 26.9792C33.0301 26.9792 32.1024 25.2631 32.1114 22.7497C32.1171 20.9557 32.3995 19.3291 33.2294 17.7236C33.9597 16.3123 35.0451 15.4651 36.0086 15.3654C37.0046 15.2626 37.7917 15.7424 38.3999 16.2618C39.0388 16.8074 39.6841 18.0002 39.6841 18.0002L41.1893 15Z" fill="#D023BE"/>
<path d="M41.3778 29.8465C41.3778 29.8465 40.7025 31.0533 40.2821 31.5184C39.8611 31.9835 39.1085 32.8026 38.1789 33.2121C37.2493 33.6217 36.7618 33.699 35.8431 33.6108C34.925 33.5226 34.0721 32.9911 33.7731 32.7694C33.4741 32.5477 32.71 31.8947 32.2781 31.2859C31.8462 30.677 31.1709 29.4593 31.1709 29.4593C31.1709 29.4593 31.5472 30.6796 31.783 31.1977C31.9184 31.4961 32.335 32.4078 32.9259 33.2013C33.4773 33.9417 34.5481 35.2163 36.1753 35.5038C37.8026 35.792 38.9206 35.0611 39.1973 34.8841C39.4739 34.7071 40.0572 34.2184 40.4265 33.8235C40.8117 33.4115 41.1765 32.8857 41.3784 32.57C41.526 32.34 41.7662 31.8724 41.7662 31.8724L41.3778 29.8465Z" fill="#D023BE"/>
</svg>
