<svg width="50" height="50" viewBox="0 0 50 50" fill="none" xmlns="http://www.w3.org/2000/svg">
<path d="M23.2511 2.03017C23.1075 2.04801 22.5949 2.1109 22.1274 2.16488C20.0325 2.39864 17.2275 3.19895 15.2588 4.12459C10.4941 6.3542 6.61923 10.1661 4.32673 14.8769C1.20669 21.2968 1.22453 28.5967 4.38024 35.025C6.31319 38.9628 9.66652 42.5142 13.5324 44.7344C17.5241 47.018 22.5499 48.1595 26.7843 47.7371C32.6821 47.1527 37.5727 44.8513 41.5015 40.8056C43.5692 38.6839 45.0797 36.436 46.1583 33.8919C50.6626 23.2654 46.6709 11.0833 36.7363 5.18541C34.1743 3.66647 31.4415 2.69577 28.2858 2.20103C27.4315 2.06631 23.8623 1.94052 23.2511 2.03017ZM20.3203 5.54544C20.2485 5.63556 19.9696 5.96789 19.6908 6.29177C18.3962 7.80227 17.3265 9.44748 16.3103 11.4795L15.5461 13.0256L14.8538 12.7651C13.5953 12.2976 12.7499 11.947 11.6713 11.4433L10.6105 10.9397L11.0418 10.49C13.0466 8.44017 16.1662 6.6241 19.3219 5.67123C20.3832 5.34782 20.4911 5.32952 20.3203 5.54544ZM30.8478 5.72521C33.6885 6.53444 36.9433 8.44017 38.8762 10.4003L39.3977 10.9308L38.2022 11.5241C36.9977 12.1263 35.0826 12.9088 34.6419 12.9984C34.4081 13.0435 34.3813 12.9984 33.8598 11.8925C32.907 9.86055 31.5223 7.72998 30.0841 6.07585L29.4729 5.37458L29.7785 5.43748C29.9489 5.47362 30.4253 5.59942 30.8478 5.72521ZM23.5206 14.4549C23.4126 14.5629 19.2233 14.0142 18.5037 13.7898C18.369 13.7448 18.4319 13.5739 18.998 12.4685C20.0499 10.4097 21.2276 8.7556 22.801 7.11039L23.5201 6.36406L23.5469 10.383C23.5567 12.6032 23.5478 14.4282 23.5206 14.4549ZM28.3576 8.49415C29.3377 9.70799 30.3174 11.218 31.0008 12.5666C31.3153 13.1777 31.5673 13.7175 31.5673 13.7532C31.5673 13.9062 29.0232 14.3287 27.4137 14.4366L26.4425 14.4995V10.4628V6.43493L27.0358 7.01041C27.3597 7.33476 27.953 7.99988 28.3576 8.49415ZM41.8883 14.0142C43.066 15.8213 44.055 18.1228 44.5498 20.1815C44.7924 21.2062 45.0529 22.7796 45.0529 23.2114V23.463H40.8364H36.6199L36.557 22.7622C36.3594 20.3078 36.1345 18.8691 35.7027 17.0981C35.559 16.4865 35.4328 15.9561 35.4328 15.9204C35.4328 15.8842 35.9632 15.6599 36.6016 15.4261C37.7882 14.9858 39.838 14.0147 40.7374 13.4575C41.0073 13.2866 41.2678 13.1698 41.3128 13.1965C41.3485 13.2143 41.6095 13.5828 41.8883 14.0142ZM10.5654 14.1132C11.5544 14.5986 12.8579 15.174 13.4512 15.381C14.0445 15.597 14.5393 15.7767 14.5571 15.7857C14.5749 15.7946 14.467 16.3072 14.3144 16.9183C13.9276 18.4645 13.6132 20.4063 13.4874 22.0516L13.3705 23.463H9.15394H4.92849L4.99139 22.7622C5.17116 20.7574 5.91749 18.1861 6.93325 16.1363C7.50873 14.9497 8.56063 13.2143 8.69535 13.2143C8.73149 13.2143 9.56747 13.619 10.5654 14.1132ZM18.7107 16.8103C19.7448 17.008 21.4975 17.2328 22.6935 17.314L23.5656 17.3769V20.4157V23.4635L19.9067 23.4456L16.2478 23.4189L16.2657 22.9246C16.3286 21.423 16.6525 19.2746 17.0571 17.6651C17.3537 16.4513 17.327 16.5142 17.6142 16.5864C17.749 16.6216 18.2432 16.7207 18.7107 16.8103ZM32.7718 17.1882C33.1943 18.7255 33.5449 20.7842 33.689 22.6726L33.7519 23.4635H30.093H26.443V20.4247V17.3769L27.4588 17.314C28.6994 17.2422 30.4347 17.0352 31.5673 16.8197C32.0349 16.7296 32.4662 16.6489 32.5202 16.64C32.5742 16.6395 32.6821 16.8822 32.7718 17.1882ZM13.4066 26.6999C13.4066 27.9495 13.9281 31.4919 14.3416 33.0381L14.5393 33.7844L13.2808 34.252C11.9862 34.7284 10.1162 35.6005 9.12719 36.176L8.57002 36.4999L8.01238 35.6367C6.9065 33.9375 5.88182 31.5009 5.40539 29.4783C5.19886 28.5883 4.95571 27.06 4.95571 26.6286V26.3408H9.18117H13.4066V26.6999ZM23.5656 29.2529V32.1749L23.0981 32.22C20.4728 32.472 19.5829 32.5795 18.6211 32.7687C18.0005 32.8945 17.4523 32.9935 17.3894 32.9935C17.1195 32.9935 16.4455 29.4604 16.3018 27.3026L16.2389 26.3408H19.8978H23.5661V29.2529H23.5656ZM33.6801 27.1674C33.5899 28.4442 33.3027 30.4128 33.0506 31.5098C32.9248 32.0491 32.7896 32.6157 32.7629 32.7504C32.7178 32.9752 32.6728 33.002 32.4751 32.9663C30.093 32.5255 29.3734 32.427 27.0091 32.22L26.4425 32.166V29.2529V26.3399H30.093H33.743L33.6801 27.1674ZM45.0529 26.5831C45.044 27.5721 44.5314 29.9814 44.001 31.5009C43.4885 32.9841 42.3469 35.2048 41.5288 36.3196L41.3757 36.5172L40.8364 36.1934C39.9821 35.6719 37.6361 34.5749 36.5119 34.1614C35.9454 33.9548 35.4689 33.7746 35.46 33.7657C35.4422 33.7568 35.5501 33.2803 35.6938 32.7138C36.1073 31.0953 36.3232 29.6393 36.5659 26.9421L36.6199 26.3399H40.8364H45.0529V26.5831ZM23.5656 39.3946V43.728L23.062 43.2427C22.3246 42.5236 21.2009 41.1032 20.3921 39.8715C19.5739 38.622 18.1892 35.9066 18.3155 35.7808C18.4864 35.6188 21.9655 35.1152 23.1883 35.0706L23.5656 35.0617V39.3946ZM28.1868 35.1959C29.5621 35.3395 31.5763 35.6723 31.6748 35.7714C31.7739 35.8521 30.5511 38.3249 29.9038 39.3763C29.2115 40.4911 27.9709 42.1185 27.126 43.0174L26.4515 43.7365L26.4425 39.3941V35.0607H26.6941C26.8293 35.0607 27.5034 35.1241 28.1868 35.1959ZM15.8789 37.4884C16.751 39.5021 18.0907 41.7317 19.4932 43.4849C19.9696 44.0965 20.1137 44.3209 19.9969 44.3209C19.6735 44.3209 17.4255 43.5027 16.4187 43.0263C15.1241 42.4151 14.0901 41.7857 12.9396 40.9314C12.0407 40.2569 10.5302 38.8816 10.5302 38.7285C10.5302 38.5666 14.4412 36.7956 15.4391 36.4989C15.4475 36.4994 15.6451 36.9397 15.8789 37.4884ZM36.8715 37.4077C37.5995 37.7222 39.3437 38.5943 39.4695 38.7112C39.5414 38.7835 38.5434 39.7452 37.6356 40.4822C35.6219 42.1096 33.32 43.3323 30.821 44.0965C30.3896 44.2223 29.9939 44.3213 29.94 44.303C29.8949 44.2852 30.147 43.9073 30.4971 43.467C31.8457 41.7946 33.4013 39.1608 34.2823 37.057L34.525 36.4994L35.2713 36.7782C35.6848 36.9219 36.4039 37.2096 36.8715 37.4077Z" fill="#CC00B9"/>
</svg>
