<svg width="50" height="50" viewBox="0 0 50 50" fill="none" xmlns="http://www.w3.org/2000/svg">
<path d="M15.9849 5C15.3748 5.00817 14.7769 5.17257 14.2483 5.47751C13.7198 5.78245 13.2782 6.21776 12.9657 6.74189L3.4506 23.2172C3.15508 23.7489 3 24.3472 3 24.9555C3 25.5638 3.15508 26.1621 3.4506 26.6938L12.9657 43.1764C13.2782 43.7005 13.7198 44.1358 14.2483 44.4408C14.7769 44.7457 15.3748 44.9101 15.9849 44.9183H35.0151C35.6252 44.9101 36.2231 44.7457 36.7517 44.4408C37.2802 44.1358 37.7218 43.7005 38.0343 43.1764L47.5494 26.701C47.8449 26.1693 48 25.5711 48 24.9628C48 24.3545 47.8449 23.7562 47.5494 23.2245L38.0343 6.74189C37.7218 6.21776 37.2802 5.78245 36.7517 5.47751C36.2231 5.17257 35.6252 5.00817 35.0151 5H15.9849ZM16.1591 14.6384H19.5195C19.5916 14.6413 19.6618 14.6621 19.7239 14.6988C19.786 14.7356 19.8379 14.7871 19.8752 14.8489L25.4419 24.7414C25.4692 24.7908 25.4865 24.845 25.4927 24.9011C25.499 24.845 25.5163 24.7908 25.5435 24.7414L31.0958 14.8489C31.1343 14.7851 31.1886 14.7322 31.2534 14.6954C31.3182 14.6585 31.3914 14.6389 31.466 14.6384H34.7465C34.8169 14.6453 34.8846 14.6687 34.9442 14.7066C35.0038 14.7445 35.0537 14.796 35.0897 14.8568C35.1258 14.9175 35.147 14.986 35.1517 15.0565C35.1564 15.127 35.1444 15.1976 35.1167 15.2626L29.7023 24.9591L35.1384 34.6411C35.1691 34.7068 35.1834 34.7789 35.1802 34.8514C35.177 34.9238 35.1563 34.9943 35.12 35.057C35.0837 35.1198 35.0327 35.1728 34.9715 35.2116C34.9102 35.2503 34.8405 35.2738 34.7683 35.2798H31.4805C31.4045 35.2779 31.3304 35.2561 31.2654 35.2166C31.2005 35.1771 31.147 35.1214 31.1103 35.0548L25.5508 25.1551C25.5235 25.1057 25.5063 25.0515 25.5 24.9954C25.4937 25.0515 25.4765 25.1057 25.4492 25.1551L19.8752 35.0548C19.8397 35.1193 19.7885 35.1738 19.7263 35.2131C19.6641 35.2525 19.593 35.2754 19.5195 35.2798H16.239C16.1667 35.2738 16.097 35.2503 16.0358 35.2116C15.9746 35.1728 15.9236 35.1198 15.8873 35.057C15.8509 34.9943 15.8303 34.9238 15.827 34.8514C15.8238 34.7789 15.8382 34.7068 15.8688 34.6411L21.2977 24.9591L15.8615 15.2626C15.8325 15.2034 15.8171 15.1384 15.8165 15.0724C15.8158 15.0064 15.8299 14.9411 15.8578 14.8813C15.8856 14.8214 15.9264 14.7686 15.9773 14.7266C16.0282 14.6846 16.0878 14.6544 16.1519 14.6384H16.1591Z" fill="#D023BE"/>
</svg>
